<svg width="24" height="24" viewBox="0 0 24 24" fill="none" xmlns="http://www.w3.org/2000/svg">
<g id="hugeicons:laptop">
<path id="Vector" d="M20.0003 14.5V6.5C20.0003 4.614 20.0003 3.672 19.4143 3.086C18.8283 2.5 17.8863 2.5 16.0003 2.5H8.00029C6.11429 2.5 5.17229 2.5 4.58629 3.086C4.00029 3.672 4.00029 4.614 4.00029 6.5V14.5M12.0003 5.5H12.0093M3.49829 15.515L4.02029 14.5H19.9523L20.5023 15.515C21.9453 18.177 22.3053 19.508 21.7563 20.504C21.2073 21.5 19.7543 21.5 16.8463 21.5H7.15429C4.24529 21.5 2.79129 21.5 2.24329 20.504C1.69429 19.508 2.05429 18.177 3.49829 15.515Z" stroke="white" stroke-width="1.5" stroke-linecap="round" stroke-linejoin="round"/>
</g>
</svg>
