<svg width="14" height="15" viewBox="0 0 14 15" fill="none" xmlns="http://www.w3.org/2000/svg">
<path d="M4.01981 9.9802C2.74111 8.69901 1.75773 7.15394 1.13846 5.45305C0.797769 4.52312 1.10992 3.50163 1.81034 2.80121L2.24379 2.36835C2.36032 2.25158 2.49874 2.15895 2.65111 2.09574C2.80349 2.03253 2.96684 2 3.1318 2C3.29677 2 3.46011 2.03253 3.61249 2.09574C3.76486 2.15895 3.90328 2.25158 4.01981 2.36835L5.03476 3.3833C5.15153 3.49983 5.24416 3.63825 5.30737 3.79063C5.37058 3.943 5.40311 4.10635 5.40311 4.27131C5.40311 4.43628 5.37058 4.59962 5.30737 4.752C5.24416 4.90438 5.15153 5.04279 5.03476 5.15932L4.78504 5.40905C4.68508 5.50898 4.60579 5.62763 4.55169 5.75822C4.49759 5.8888 4.46975 6.02877 4.46975 6.17011C4.46975 6.31146 4.49759 6.45142 4.55169 6.58201C4.60579 6.71259 4.68508 6.83124 4.78504 6.93118L7.06823 9.21497C7.16817 9.31493 7.28682 9.39422 7.4174 9.44832C7.54799 9.50242 7.68795 9.53026 7.8293 9.53026C7.97064 9.53026 8.11061 9.50242 8.24119 9.44832C8.37178 9.39422 8.49043 9.31493 8.59036 9.21497L8.84068 8.96525C8.95721 8.84848 9.09563 8.75584 9.248 8.69264C9.40038 8.62943 9.56372 8.5969 9.72869 8.5969C9.89366 8.5969 10.057 8.62943 10.2094 8.69264C10.3618 8.75584 10.5002 8.84848 10.6167 8.96525L11.6316 9.9802C11.7484 10.0967 11.8411 10.2351 11.9043 10.3875C11.9675 10.5399 12 10.7032 12 10.8682C12 11.0332 11.9675 11.1965 11.9043 11.3489C11.8411 11.5013 11.7484 11.6397 11.6316 11.7562L11.1988 12.1891C10.4984 12.8901 9.47688 13.2022 8.54696 12.8615C6.84607 12.2423 5.301 11.2589 4.01981 9.9802Z" stroke="black" stroke-linejoin="round"/>
</svg>
