<svg width="16" height="17" viewBox="0 0 16 17" fill="none" xmlns="http://www.w3.org/2000/svg">
<path d="M9.68262 2.40039C10.1542 2.40051 10.607 2.58742 10.9404 2.9209L11.0586 3.05176C11.3177 3.3682 11.4609 3.76612 11.4609 4.17871V4.68359H12.3213C12.5548 4.6836 12.7862 4.72899 13.002 4.81836C13.2178 4.90775 13.4139 5.03893 13.5791 5.2041C13.7443 5.36927 13.8755 5.56545 13.9648 5.78125C14.0542 5.99702 14.0996 6.22837 14.0996 6.46191V12.8213C14.0996 13.0548 14.0542 13.2862 13.9648 13.502C13.8755 13.7178 13.7443 13.9139 13.5791 14.0791C13.4139 14.2443 13.2178 14.3755 13.002 14.4648C12.7862 14.5542 12.5548 14.5996 12.3213 14.5996H3.67871C3.26604 14.5996 2.86823 14.4565 2.55176 14.1973L2.4209 14.0791C2.08733 13.7455 1.90041 13.293 1.90039 12.8213V6.46191C1.9004 5.99017 2.08733 5.53768 2.4209 5.2041L2.55176 5.08594C2.86823 4.82671 3.26603 4.68361 3.67871 4.68359H4.5459V4.17871C4.54592 3.70704 4.73292 3.25445 5.06641 2.9209L5.19727 2.80273C5.51369 2.54349 5.91158 2.40047 6.32422 2.40039H9.68262ZM3.67871 5.55469C3.43812 5.55471 3.20724 5.65018 3.03711 5.82031C2.86698 5.99045 2.77149 6.22131 2.77148 6.46191V12.8213C2.77151 13.0619 2.86698 13.2928 3.03711 13.4629C3.20724 13.633 3.43812 13.7285 3.67871 13.7285H12.3213C12.5619 13.7285 12.7928 13.633 12.9629 13.4629C13.133 13.2928 13.2285 13.0619 13.2285 12.8213V6.46191C13.2285 6.22131 13.133 5.99045 12.9629 5.82031C12.7928 5.65018 12.5619 5.55471 12.3213 5.55469H3.67871ZM6.32422 3.27148C6.08372 3.27158 5.85268 3.36704 5.68262 3.53711C5.51257 3.70722 5.41701 3.93818 5.41699 4.17871V4.68359H10.5898V4.17871C10.5898 3.93812 10.4934 3.70724 10.3232 3.53711C10.1532 3.36726 9.92293 3.27161 9.68262 3.27148H6.32422Z" fill="black" stroke="black" stroke-width="0.2"/>
</svg>
