<svg width="12" height="17" viewBox="0 0 12 17" fill="none" xmlns="http://www.w3.org/2000/svg">
<path d="M10.7125 14.4011C10.891 14.4011 11.0623 14.3302 11.1885 14.2039C11.3148 14.0777 11.3857 13.9065 11.3857 13.7279V12.8891C11.3884 11 8.71033 9.52031 5.99997 9.52031C3.28961 9.52031 0.614258 11 0.614258 12.8891V13.7279C0.614258 13.9065 0.685186 14.0777 0.811438 14.2039C0.93769 14.3302 1.10892 14.4011 1.28747 14.4011H10.7125ZM8.42624 5.02783C8.42624 5.34645 8.36348 5.66195 8.24155 5.95632C8.11962 6.25069 7.9409 6.51816 7.7156 6.74345C7.4903 6.96875 7.22283 7.14747 6.92846 7.2694C6.6341 7.39133 6.31859 7.45409 5.99997 7.45409C5.68135 7.45409 5.36585 7.39133 5.07148 7.2694C4.77711 7.14747 4.50964 6.96875 4.28434 6.74345C4.05904 6.51816 3.88033 6.25069 3.7584 5.95632C3.63646 5.66195 3.57371 5.34645 3.57371 5.02783C3.57371 4.38434 3.82933 3.76721 4.28434 3.3122C4.73936 2.85719 5.35649 2.60156 5.99997 2.60156C6.64346 2.60156 7.26059 2.85719 7.7156 3.3122C8.17061 3.76721 8.42624 4.38434 8.42624 5.02783Z" stroke="black" stroke-linecap="round" stroke-linejoin="round"/>
</svg>
