<svg width="16" height="17" viewBox="0 0 16 17" fill="none" xmlns="http://www.w3.org/2000/svg">
<path d="M2.66699 7.83594V13.1693C2.66699 13.5229 2.80747 13.862 3.05752 14.1121C3.30756 14.3621 3.6467 14.5026 4.00033 14.5026H12.0003C12.3539 14.5026 12.6931 14.3621 12.9431 14.1121C13.1932 13.862 13.3337 13.5229 13.3337 13.1693V7.83594" stroke="black" stroke-linecap="round" stroke-linejoin="round"/>
<path d="M8 4.16927C8 3.55043 7.75417 2.95694 7.31658 2.51935C6.879 2.08177 6.28551 1.83594 5.66667 1.83594C5.22464 1.83594 4.80072 2.01153 4.48816 2.32409C4.17559 2.63665 4 3.06058 4 3.5026C4 3.94463 4.17559 4.36855 4.48816 4.68112C4.80072 4.99368 5.22464 5.16927 5.66667 5.16927H8M8 4.16927V5.16927M8 4.16927C8 3.55043 8.24583 2.95694 8.68342 2.51935C9.121 2.08177 9.7145 1.83594 10.3333 1.83594C10.7754 1.83594 11.1993 2.01153 11.5118 2.32409C11.8244 2.63665 12 3.06058 12 3.5026C12 3.72147 11.9569 3.9382 11.8731 4.14041C11.7894 4.34262 11.6666 4.52635 11.5118 4.68112C11.3571 4.83588 11.1733 4.95865 10.9711 5.0424C10.7689 5.12616 10.5522 5.16927 10.3333 5.16927H8" stroke="black" stroke-linejoin="round"/>
<path d="M8 7.83464V14.5013M2 5.16797H14V7.83464H2V5.16797Z" stroke="black" stroke-linecap="round" stroke-linejoin="round"/>
</svg>
