<svg width="42" height="40" viewBox="0 0 42 40" fill="none" xmlns="http://www.w3.org/2000/svg">
<path d="M4.2002 10.8608V37.746H27.3002V5.1902C27.3001 4.68475 27.1815 4.18654 26.9541 3.73662C26.7267 3.2867 26.397 2.89794 25.9922 2.60237C25.5874 2.3068 25.119 2.11287 24.6257 2.03657C24.1324 1.96026 23.6283 2.00376 23.1548 2.16348L6.3548 7.83406C5.72747 8.04568 5.18179 8.45189 4.79509 8.99512C4.40838 9.53835 4.20026 10.1911 4.2002 10.8608Z" fill="url(#paint0_linear_10643_3280)"/>
<path d="M4.2002 10.8608V37.746H27.3002V5.1902C27.3001 4.68475 27.1815 4.18654 26.9541 3.73662C26.7267 3.2867 26.397 2.89794 25.9922 2.60237C25.5874 2.3068 25.119 2.11287 24.6257 2.03657C24.1324 1.96026 23.6283 2.00376 23.1548 2.16348L6.3548 7.83406C5.72747 8.04568 5.18179 8.45189 4.79509 8.99512C4.40838 9.53835 4.20026 10.1911 4.2002 10.8608Z" fill="url(#paint1_linear_10643_3280)"/>
<path d="M26 18.5824V37.7466H34.4V21.6027C34.3996 20.8654 34.147 20.151 33.6853 19.581C33.2236 19.011 32.5812 18.6205 31.8674 18.476L27.2558 17.5402C27.1035 17.5093 26.9464 17.5131 26.7957 17.5512C26.6451 17.5893 26.5046 17.6607 26.3845 17.7604C26.2644 17.8601 26.1676 17.9855 26.1011 18.1277C26.0346 18.2698 26.0001 18.4251 26 18.5824Z" fill="url(#paint2_linear_10643_3280)"/>
<path d="M26 18.5824V37.7466H34.4V21.6027C34.3996 20.8654 34.147 20.151 33.6853 19.581C33.2236 19.011 32.5812 18.6205 31.8674 18.476L27.2558 17.5402C27.1035 17.5093 26.9464 17.5131 26.7957 17.5512C26.6451 17.5893 26.5046 17.6607 26.3845 17.7604C26.2644 17.8601 26.1676 17.9855 26.1011 18.1277C26.0346 18.2698 26.0001 18.4251 26 18.5824Z" fill="url(#paint3_linear_10643_3280)"/>
<rect y="37" width="42" height="3" rx="1.5" fill="black"/>
<rect y="37" width="42" height="3" rx="1.5" fill="url(#paint4_linear_10643_3280)"/>
<defs>
<linearGradient id="paint0_linear_10643_3280" x1="-65.0995" y1="-9.24575" x2="-32.0066" y2="73.5719" gradientUnits="userSpaceOnUse">
<stop stop-color="#29C3FF"/>
<stop offset="1" stop-color="#2764E7"/>
</linearGradient>
<linearGradient id="paint1_linear_10643_3280" x1="8.96631" y1="5.40438" x2="29.146" y2="33.1276" gradientUnits="userSpaceOnUse">
<stop stop-color="#29C3FF"/>
<stop offset="1" stop-color="#2764E7"/>
</linearGradient>
<linearGradient id="paint2_linear_10643_3280" x1="0.800097" y1="11.1561" x2="25.1699" y2="50.3484" gradientUnits="userSpaceOnUse">
<stop stop-color="#29C3FF"/>
<stop offset="1" stop-color="#2764E7"/>
</linearGradient>
<linearGradient id="paint3_linear_10643_3280" x1="27.7331" y1="19.4459" x2="39.6401" y2="29.9581" gradientUnits="userSpaceOnUse">
<stop stop-color="#29C3FF"/>
<stop offset="1" stop-color="#2764E7"/>
</linearGradient>
<linearGradient id="paint4_linear_10643_3280" x1="8.66567" y1="37.2857" x2="8.78513" y2="40.8411" gradientUnits="userSpaceOnUse">
<stop stop-color="#29C3FF"/>
<stop offset="1" stop-color="#2764E7"/>
</linearGradient>
</defs>
</svg>
