<svg width="30" height="38" viewBox="0 0 30 38" fill="none" xmlns="http://www.w3.org/2000/svg">
<g clip-path="url(#clip0_10643_3287)">
<path d="M23.5035 9.04762C23.5035 11.4472 22.5714 13.7485 20.9122 15.4453C19.2529 17.142 17.0025 18.0952 14.656 18.0952C12.3095 18.0952 10.0591 17.142 8.39989 15.4453C6.74065 13.7485 5.80851 11.4472 5.80851 9.04762C5.80851 6.64804 6.74065 4.34674 8.39989 2.64999C10.0591 0.953228 12.3095 0 14.656 0C17.0025 0 19.2529 0.953228 20.9122 2.64999C22.5714 4.34674 23.5035 6.64804 23.5035 9.04762ZM28.812 27.1429C28.812 25.7031 28.2528 24.3223 27.2572 23.3043C26.2617 22.2862 24.9114 21.7143 23.5035 21.7143H5.80851C4.4006 21.7143 3.05036 22.2862 2.05483 23.3043C1.05929 24.3223 0.5 25.7031 0.5 27.1429V27.4143C0.5 27.4143 0.5 38 14.656 38C28.1467 38 28.7802 28.3878 28.812 27.483V27.1429Z" fill="url(#paint0_linear_10643_3287)"/>
</g>
<defs>
<linearGradient id="paint0_linear_10643_3287" x1="0.5" y1="22" x2="18.9145" y2="43.6375" gradientUnits="userSpaceOnUse">
<stop stop-color="#29C3FF"/>
<stop offset="1" stop-color="#2764E7"/>
</linearGradient>
<clipPath id="clip0_10643_3287">
<rect width="29" height="38" fill="white" transform="translate(0.5)"/>
</clipPath>
</defs>
</svg>
