<svg width="14" height="17" viewBox="0 0 14 17" fill="none" xmlns="http://www.w3.org/2000/svg">
<path d="M12.0982 13.9011C12.2768 13.9011 12.448 13.8302 12.5742 13.7039C12.7005 13.5777 12.7714 13.4065 12.7714 13.2279V12.3891C12.7741 10.5 10.0961 9.02031 7.38571 9.02031C4.67535 9.02031 2 10.5 2 12.3891V13.2279C2 13.4065 2.07093 13.5777 2.19718 13.7039C2.32343 13.8302 2.49467 13.9011 2.67321 13.9011H12.0982ZM9.81198 4.52783C9.81198 4.84645 9.74922 5.16195 9.62729 5.45632C9.50536 5.75069 9.32664 6.01816 9.10134 6.24345C8.87604 6.46875 8.60857 6.64747 8.31421 6.7694C8.01984 6.89133 7.70434 6.95409 7.38571 6.95409C7.06709 6.95409 6.75159 6.89133 6.45722 6.7694C6.16285 6.64747 5.89539 6.46875 5.67009 6.24345C5.44479 6.01816 5.26607 5.75069 5.14414 5.45632C5.02221 5.16195 4.95945 4.84645 4.95945 4.52783C4.95945 3.88434 5.21507 3.26721 5.67009 2.8122C6.1251 2.35719 6.74223 2.10156 7.38571 2.10156C8.0292 2.10156 8.64633 2.35719 9.10134 2.8122C9.55636 3.26721 9.81198 3.88434 9.81198 4.52783Z" stroke="black" stroke-linecap="round" stroke-linejoin="round"/>
</svg>
