<svg width="14" height="15" viewBox="0 0 14 15" fill="none" xmlns="http://www.w3.org/2000/svg">
<path d="M7 1.5C8.2745 1.5 9.3974 1.91105 10.1963 2.65039C10.9895 3.38465 11.5 4.47649 11.5 5.91602C11.4999 6.58007 11.2296 7.39191 10.7744 8.27051C10.3242 9.13936 9.71857 10.0263 9.10352 10.8281C8.4897 11.6284 7.87432 12.3338 7.41211 12.8398C7.25541 13.0114 7.1149 13.1584 7 13.2793C6.88511 13.1584 6.74457 13.0114 6.58789 12.8398C6.12569 12.3338 5.51028 11.6283 4.89648 10.8281C4.28144 10.0263 3.67579 9.13936 3.22559 8.27051C2.82709 7.50137 2.57051 6.78328 2.5127 6.1709L2.5 5.91504C2.50008 4.47577 3.01057 3.38457 3.80371 2.65039C4.6026 1.91106 5.72552 1.50001 7 1.5Z" stroke="black"/>
<circle cx="7" cy="6" r="1.5" fill="black"/>
</svg>
