<svg width="14" height="13" viewBox="0 0 14 13" fill="none" xmlns="http://www.w3.org/2000/svg">
<g clip-path="url(#clip0_10643_3412)">
<path d="M8.68262 0.400391C9.15421 0.400514 9.60695 0.587421 9.94043 0.920898L10.0586 1.05176C10.3177 1.3682 10.4609 1.76612 10.4609 2.17871V2.68359H11.3213C11.5548 2.6836 11.7862 2.72899 12.002 2.81836L12.1602 2.89355C12.314 2.97584 12.4553 3.0803 12.5791 3.2041L12.6963 3.33398C12.807 3.46889 12.8978 3.61945 12.9648 3.78125L13.0234 3.94531C13.0742 4.11249 13.0996 4.28657 13.0996 4.46191V10.8213C13.0996 10.9963 13.074 11.17 13.0234 11.3369L12.9648 11.502C12.8755 11.7178 12.7443 11.9139 12.5791 12.0791C12.4553 12.2029 12.314 12.3074 12.1602 12.3896L12.002 12.4648C11.7862 12.5542 11.5548 12.5996 11.3213 12.5996H2.67871C2.26604 12.5996 1.86823 12.4565 1.55176 12.1973L1.4209 12.0791C1.08733 11.7455 0.900412 11.293 0.900391 10.8213V4.46191C0.9004 3.99017 1.08733 3.53768 1.4209 3.2041L1.55176 3.08594C1.86823 2.82671 2.26603 2.68361 2.67871 2.68359H3.5459V2.17871C3.54592 1.70704 3.73292 1.25445 4.06641 0.920898L4.19727 0.802734C4.5137 0.54349 4.91158 0.400471 5.32422 0.400391H8.68262ZM2.67871 3.55469C2.4682 3.55471 2.26494 3.62751 2.10352 3.75977L2.03711 3.82031C1.86698 3.99045 1.77149 4.22131 1.77148 4.46191V10.8213C1.77151 11.0619 1.86698 11.2928 2.03711 11.4629L2.10352 11.5234C2.26493 11.6557 2.46821 11.7285 2.67871 11.7285H11.3213C11.5619 11.7285 11.7928 11.633 11.9629 11.4629L12.0234 11.3965C12.1557 11.2351 12.2285 11.0318 12.2285 10.8213V4.46191C12.2285 4.25141 12.1557 4.04815 12.0234 3.88672L11.9629 3.82031C11.7928 3.65018 11.5619 3.55471 11.3213 3.55469H2.67871ZM5.32422 1.27148C5.114 1.27156 4.91128 1.34459 4.75 1.47656L4.68262 1.53711C4.51257 1.70722 4.41701 1.93818 4.41699 2.17871V2.68359H9.58984V2.17871C9.58983 1.96808 9.51618 1.76498 9.38379 1.60352L9.32324 1.53711C9.15323 1.36726 8.92293 1.27161 8.68262 1.27148H5.32422Z" fill="black" stroke="black" stroke-width="0.2"/>
</g>
<defs>
<clipPath id="clip0_10643_3412">
<rect width="14" height="13" fill="white"/>
</clipPath>
</defs>
</svg>
