<svg width="46" height="38" viewBox="0 0 46 38" fill="none" xmlns="http://www.w3.org/2000/svg">
<path d="M22.9803 9.04762C22.9803 11.4472 22.0491 13.7485 20.3915 15.4453C18.734 17.142 16.4858 18.0952 14.1417 18.0952C11.7976 18.0952 9.54945 17.142 7.8919 15.4453C6.23434 13.7485 5.30314 11.4472 5.30314 9.04762C5.30314 6.64804 6.23434 4.34674 7.8919 2.64999C9.54945 0.953228 11.7976 0 14.1417 0C16.4858 0 18.734 0.953228 20.3915 2.64999C22.0491 4.34674 22.9803 6.64804 22.9803 9.04762ZM28.2834 27.1429C28.2834 25.7031 27.7247 24.3223 26.7302 23.3043C25.7356 22.2862 24.3868 21.7143 22.9803 21.7143H5.30314C3.89666 21.7143 2.54779 22.2862 1.55325 23.3043C0.558722 24.3223 0 25.7031 0 27.1429V27.4143C0 27.4143 0 38 14.1417 38C27.6188 38 28.2516 28.3878 28.2834 27.483V27.1429Z" fill="url(#paint0_linear_10643_3262)"/>
<path d="M39.3549 15.9734C38.0288 17.3308 36.2303 18.0934 34.355 18.0934C32.4797 18.0934 30.6812 17.3308 29.3552 15.9734C28.0291 14.616 27.2842 12.7749 27.2842 10.8553C27.2842 8.93562 28.0291 7.09458 29.3552 5.73718C30.6812 4.37977 32.4797 3.61719 34.355 3.61719C36.2303 3.61719 38.0288 4.37977 39.3549 5.73718C40.6809 7.09458 41.4259 8.93562 41.4259 10.8553C41.4259 12.7749 40.6809 14.616 39.3549 15.9734Z" fill="url(#paint1_linear_10643_3262)"/>
<path d="M30.8196 27.141V27.4812L30.809 27.8395C30.8019 27.9987 30.7878 28.1905 30.7666 28.4149C30.5639 30.2072 30.0275 31.9431 29.1862 33.5286C30.5403 34.0534 32.2338 34.3791 34.348 34.3791C44.9542 34.3791 44.9542 26.1458 44.9542 26.1458C44.9542 23.6957 43.0133 21.7124 40.6233 21.7124H29.0519C30.1993 23.2785 30.8196 25.1834 30.8196 27.141Z" fill="url(#paint2_linear_10643_3262)"/>
<defs>
<linearGradient id="paint0_linear_10643_3262" x1="-1.51795e-08" y1="22" x2="18.4175" y2="43.6191" gradientUnits="userSpaceOnUse">
<stop stop-color="#29C3FF"/>
<stop offset="1" stop-color="#2764E7"/>
</linearGradient>
<linearGradient id="paint1_linear_10643_3262" x1="22.9765" y1="22.5" x2="39.0042" y2="36.4717" gradientUnits="userSpaceOnUse">
<stop stop-color="#29C3FF"/>
<stop offset="1" stop-color="#2764E7"/>
</linearGradient>
<linearGradient id="paint2_linear_10643_3262" x1="22.9765" y1="22.5" x2="39.0042" y2="36.4717" gradientUnits="userSpaceOnUse">
<stop stop-color="#29C3FF"/>
<stop offset="1" stop-color="#2764E7"/>
</linearGradient>
</defs>
</svg>
