<svg width="16" height="16" viewBox="0 0 16 16" fill="none" xmlns="http://www.w3.org/2000/svg">
<path id="Vector" d="M10.3896 0.725586C10.9676 0.725586 11.522 0.955585 11.9307 1.36426C12.3392 1.77292 12.5684 2.32739 12.5684 2.90527V3.41699H13.501C13.7871 3.417 14.0706 3.47351 14.335 3.58301C14.5994 3.69252 14.8396 3.85331 15.042 4.05566C15.2443 4.25801 15.4051 4.49833 15.5146 4.7627C15.6241 5.02704 15.6797 5.31057 15.6797 5.59668V13.0938C15.6797 13.3799 15.6241 13.6634 15.5146 13.9277C15.4051 14.1921 15.2443 14.4324 15.042 14.6348C14.8396 14.8371 14.5994 14.9979 14.335 15.1074C14.0706 15.2169 13.7871 15.2725 13.501 15.2725H3.3125C2.73464 15.2725 2.18014 15.0433 1.77148 14.6348C1.36282 14.2261 1.13283 13.6717 1.13281 13.0938V5.59668C1.13281 5.01873 1.36281 4.46434 1.77148 4.05566C2.18014 3.64707 2.73461 3.41699 3.3125 3.41699H4.25195V2.90527C4.25195 2.32733 4.48196 1.77293 4.89062 1.36426L5.0498 1.21973C5.43766 0.901744 5.92572 0.725586 6.43164 0.725586H10.3896ZM3.3125 4.60938C3.08333 4.60938 2.86225 4.68902 2.68652 4.83301L2.61426 4.89844C2.42907 5.08363 2.32422 5.33478 2.32422 5.59668V13.0938C2.32423 13.3556 2.42908 13.6068 2.61426 13.792L2.68652 13.8574C2.86224 14.0014 3.08335 14.0811 3.3125 14.0811H13.501C13.7629 14.081 14.014 13.9772 14.1992 13.792C14.3844 13.6068 14.4883 13.3556 14.4883 13.0938V5.59668C14.4883 5.33481 14.3844 5.08362 14.1992 4.89844C14.014 4.71326 13.7629 4.60939 13.501 4.60938H3.3125ZM6.43164 1.91699C6.20262 1.91699 5.98133 1.99681 5.80566 2.14062L5.7334 2.20703C5.54821 2.39222 5.44336 2.64338 5.44336 2.90527V3.41699H11.377V2.90527C11.377 2.67611 11.2973 2.45502 11.1533 2.2793L11.0879 2.20703C10.9027 2.02184 10.6515 1.91699 10.3896 1.91699H6.43164Z" fill="black" stroke="black" stroke-width="0.4"/>
</svg>
