<svg width="16" height="17" viewBox="0 0 16 17" fill="none" xmlns="http://www.w3.org/2000/svg">
<g id="iconamoon:gift-thin">
<g id="Group">
<path id="Vector" d="M2.66699 7.83398V13.1673C2.66699 13.5209 2.80747 13.8601 3.05752 14.1101C3.30756 14.3602 3.6467 14.5007 4.00033 14.5007H12.0003C12.3539 14.5007 12.6931 14.3602 12.9431 14.1101C13.1932 13.8601 13.3337 13.5209 13.3337 13.1673V7.83398" stroke="#1A1A1A" stroke-linecap="round" stroke-linejoin="round"/>
<path id="Vector_2" d="M8 4.16732C8 3.54848 7.75417 2.95499 7.31658 2.5174C6.879 2.07982 6.28551 1.83398 5.66667 1.83398C5.22464 1.83398 4.80072 2.00958 4.48816 2.32214C4.17559 2.6347 4 3.05862 4 3.50065C4 3.94268 4.17559 4.3666 4.48816 4.67916C4.80072 4.99172 5.22464 5.16732 5.66667 5.16732H8M8 4.16732V5.16732M8 4.16732C8 3.54848 8.24583 2.95499 8.68342 2.5174C9.121 2.07982 9.7145 1.83398 10.3333 1.83398C10.7754 1.83398 11.1993 2.00958 11.5118 2.32214C11.8244 2.6347 12 3.05862 12 3.50065C12 3.71952 11.9569 3.93625 11.8731 4.13846C11.7894 4.34067 11.6666 4.5244 11.5118 4.67916C11.3571 4.83393 11.1733 4.95669 10.9711 5.04045C10.7689 5.12421 10.5522 5.16732 10.3333 5.16732H8" stroke="#1A1A1A" stroke-linejoin="round"/>
<path id="Vector_3" d="M8 7.83268V14.4993M2 5.16602H14V7.83268H2V5.16602Z" stroke="#1A1A1A" stroke-linecap="round" stroke-linejoin="round"/>
</g>
</g>
</svg>
