<svg width="14" height="17" viewBox="0 0 14 17" fill="none" xmlns="http://www.w3.org/2000/svg">
<g id="circum:medical-case">
<path id="Vector" d="M12.0982 13.8992C12.2768 13.8992 12.448 13.8282 12.5742 13.702C12.7005 13.5757 12.7714 13.4045 12.7714 13.226V12.3871C12.7741 10.4981 10.0961 9.01836 7.38571 9.01836C4.67535 9.01836 2 10.4981 2 12.3871V13.226C2 13.4045 2.07093 13.5757 2.19718 13.702C2.32343 13.8282 2.49467 13.8992 2.67321 13.8992H12.0982ZM9.81198 4.52587C9.81198 4.8445 9.74922 5.16 9.62729 5.45437C9.50536 5.74873 9.32664 6.0162 9.10134 6.2415C8.87604 6.4668 8.60857 6.64552 8.31421 6.76745C8.01984 6.88938 7.70434 6.95214 7.38571 6.95214C7.06709 6.95214 6.75159 6.88938 6.45722 6.76745C6.16285 6.64552 5.89539 6.4668 5.67009 6.2415C5.44479 6.0162 5.26607 5.74873 5.14414 5.45437C5.02221 5.16 4.95945 4.8445 4.95945 4.52587C4.95945 3.88239 5.21507 3.26526 5.67009 2.81025C6.1251 2.35523 6.74223 2.09961 7.38571 2.09961C8.0292 2.09961 8.64633 2.35523 9.10134 2.81025C9.55636 3.26526 9.81198 3.88239 9.81198 4.52587Z" stroke="#1A1A1A" stroke-linecap="round" stroke-linejoin="round"/>
</g>
</svg>
