<svg width="13" height="14" viewBox="0 0 13 14" fill="none" xmlns="http://www.w3.org/2000/svg">
<path id="Star 1" d="M5.59194 1.96867C5.94936 1.19379 7.05064 1.19379 7.40806 1.96866L8.38157 4.07925C8.52724 4.39505 8.82653 4.6125 9.17189 4.65345L11.48 4.92711C12.3274 5.02758 12.6677 6.07497 12.0412 6.65434L10.3348 8.23241C10.0794 8.46854 9.96511 8.82037 10.0329 9.16149L10.4859 11.4412C10.6522 12.2782 9.76122 12.9255 9.0166 12.5087L6.98844 11.3734C6.68497 11.2035 6.31503 11.2035 6.01156 11.3734L3.9834 12.5087C3.23878 12.9255 2.34782 12.2782 2.51413 11.4412L2.96711 9.16149C3.03489 8.82037 2.92057 8.46854 2.66523 8.23241L0.958783 6.65434C0.332283 6.07497 0.672599 5.02758 1.51999 4.92711L3.82811 4.65345C4.17347 4.6125 4.47276 4.39505 4.61843 4.07925L5.59194 1.96867Z" stroke="#1A1A1A"/>
</svg>
