<svg width="415" height="245" viewBox="0 0 415 245" fill="none" xmlns="http://www.w3.org/2000/svg">
<g clip-path="url(#clip0_11404_170136)">
<g clip-path="url(#clip1_11404_170136)">
<path d="M208.17 223.657C150.026 193.901 149.701 205.244 95.9379 225.539C37.6937 247.524 1.71723 229.863 0.135147 197.724C-4.27571 108.118 100.82 154.094 90.4413 84.6591C82.7935 33.5001 117.196 10.2935 137.582 3.39795C174.408 -9.05856 240.962 12.8554 237.022 66.4421C235.035 93.4846 218.029 108.063 251.441 119.707C262.067 123.411 280.15 121.61 300.1 119.809C345.037 115.753 399.448 111.699 399.448 170.543C399.448 254.663 248.274 244.181 208.17 223.657Z" fill="#E7F4FA"/>
<path d="M338.464 52.2852V52.2681C338.553 52.1943 338.612 52.1377 338.612 52.1377C338.612 52.1377 338.563 52.1881 338.464 52.2852Z" fill="#CCCCCC"/>
<path d="M343.411 216.625C343.354 216.919 335.892 212.303 337.58 209.073C339.268 205.844 344.452 211.302 343.411 216.625Z" fill="#59B45A"/>
<path d="M349.399 223.093C350.277 223.372 351.51 223.172 353.071 222.496L352.893 222.172C351.152 222.926 349.888 223.052 349.141 222.558C347.902 221.735 348.415 219.439 348.419 219.417L348.01 219.355C347.987 219.456 347.446 221.893 348.884 222.848C349.04 222.948 349.212 223.034 349.399 223.093Z" fill="#116851"/>
<path d="M51.2642 198.936H118.698V121.649H51.2642V198.936Z" fill="white"/>
<path d="M51.2642 127.908H118.698V121.649H51.2642V127.908Z" fill="#C1E3FB"/>
<path d="M113.246 125.007C113.246 125.81 113.825 126.457 114.536 126.457C115.252 126.457 115.827 125.81 115.827 125.007C115.827 124.206 115.252 123.558 114.536 123.558C113.825 123.558 113.246 124.206 113.246 125.007Z" fill="#F5F9FC"/>
<path d="M109.369 125.007C109.369 125.81 109.944 126.457 110.659 126.457C111.375 126.457 111.95 125.81 111.95 125.007C111.95 124.206 111.375 123.558 110.659 123.558C109.944 123.558 109.369 124.206 109.369 125.007Z" fill="#F5F9FC"/>
<path d="M105.492 125.007C105.492 125.81 106.063 126.457 106.778 126.457C107.498 126.457 108.078 125.81 108.078 125.007C108.078 124.206 107.498 123.558 106.778 123.558C106.063 123.558 105.492 124.206 105.492 125.007Z" fill="#F5F9FC"/>
<path d="M59.0088 153.477H111.969V149.36H59.0088V153.477Z" fill="#C1E3FB"/>
<path d="M59.0088 147.875H111.969V136.047H59.0088V147.875Z" fill="#C1E3FB"/>
<path d="M59.0088 159.338H111.969V155.224H59.0088V159.338Z" fill="#C1E3FB"/>
<path d="M59.0088 165.203H111.969V161.083H59.0088V165.203Z" fill="#C1E3FB"/>
<path d="M59.0088 178.865H111.969V167.395H59.0088V178.865Z" fill="#C1E3FB"/>
<path d="M59.0088 193.795H111.969V182.331H59.0088V193.795Z" fill="#C1E3FB"/>
<path d="M138.312 240.436C138.312 240.436 24.5703 251.549 11.4934 210.167C-1.58301 168.784 78.6559 176.156 138.293 222.925L138.312 240.436Z" fill="#338672"/>
<path d="M145.356 238.403C122.331 219.731 36.8508 207.263 35.77 207.08L35.7358 207.891C36.8205 208.071 122.094 220.504 144.951 239.037L145.356 238.403Z" fill="#277461"/>
<path d="M84.43 215.836C84.0053 213.271 81.9509 210.44 78.2951 207.391L77.8811 208.02C82.0468 211.502 84.0161 214.605 83.7292 217.241C83.2488 221.596 76.7632 223.37 76.7021 223.39L76.9551 224.188C77.2412 224.109 83.9481 222.263 84.4772 217.424C84.5375 216.909 84.5197 216.382 84.43 215.836Z" fill="#277461"/>
<path d="M59.2766 210.711C58.8523 208.146 56.8013 205.316 53.1464 202.262L52.7276 202.894C56.907 206.376 58.8716 209.48 58.578 212.111C58.1033 216.465 51.6157 218.247 51.5483 218.265L51.8058 219.061C52.0973 218.986 58.8037 217.14 59.3333 212.299C59.3872 211.781 59.3663 211.252 59.2766 210.711Z" fill="#277461"/>
<path d="M44.6622 207.442C44.2381 204.877 42.1738 202.047 38.524 198.998L38.1043 199.626C42.2786 203.104 44.2441 206.214 43.9559 208.845C43.476 213.2 36.9879 214.98 36.9253 214.994L37.187 215.789C37.468 215.715 44.1704 213.873 44.7052 209.031C44.7641 208.514 44.7521 207.987 44.6622 207.442Z" fill="#277461"/>
<path d="M73.04 213.603C72.6853 211.46 70.9688 209.098 67.9294 206.556L67.5157 207.187C70.9443 210.05 72.5751 212.605 72.3297 214.759C71.9402 218.314 66.6027 219.79 66.5488 219.803L66.8054 220.596C67.0438 220.536 72.6385 218.997 73.079 214.944C73.1329 214.509 73.115 214.06 73.04 213.603Z" fill="#277461"/>
<path d="M96.9475 218.669C96.5228 216.104 94.4629 213.274 90.8127 210.225L90.3896 210.854C94.5673 214.328 96.5282 217.433 96.2405 220.069C95.7648 224.42 89.2765 226.206 89.21 226.221L89.4722 227.018C89.7592 226.945 96.4601 225.098 96.9954 220.26C97.0542 219.742 97.0364 219.21 96.9475 218.669Z" fill="#277461"/>
<path d="M108.801 210.576C108.378 208.014 106.322 205.177 102.671 202.126L102.252 202.754C106.422 206.238 108.392 209.346 108.099 211.975C107.623 216.33 101.14 218.107 101.073 218.127L101.331 218.922C101.609 218.851 108.319 217.005 108.849 212.164C108.908 211.646 108.89 211.117 108.801 210.576Z" fill="#178369"/>
<path d="M119.752 214.302C119.446 212.448 117.965 210.407 115.339 208.219L114.924 208.852C117.853 211.286 119.23 213.457 119.035 215.276C118.704 218.299 114.153 219.545 114.109 219.558L114.372 220.355C114.573 220.304 119.4 218.974 119.785 215.467C119.822 215.09 119.818 214.697 119.752 214.302Z" fill="#178369"/>
<path d="M140.558 215.128C91.7069 219.241 64.9421 186.813 64.6763 186.487L66.1653 185.227C66.4248 185.547 92.5733 217.167 140.371 213.14L140.558 215.128Z" fill="#59B45A"/>
<path d="M68.3407 189.002C68.3872 189.387 57.8248 186.355 58.5645 181.767C59.3048 177.179 67.5113 182.062 68.3407 189.002Z" fill="#59B45A"/>
<path d="M74.0398 194.408C74.3127 194.679 64.372 199.18 62.0992 195.108C59.8261 191.037 69.1131 189.518 74.0398 194.408Z" fill="#59B45A"/>
<path d="M83.1456 200.998C83.4713 201.198 74.8435 207.944 71.7249 204.506C68.6058 201.066 77.2695 197.388 83.1456 200.998Z" fill="#59B45A"/>
<path d="M92.7386 206.56C93.0642 206.758 84.4372 213.504 81.3184 210.066C78.1988 206.627 86.8629 202.948 92.7386 206.56Z" fill="#59B45A"/>
<path d="M102.781 210.158C103.142 210.28 96.2096 218.837 92.4364 216.18C88.6647 213.522 96.2916 207.958 102.781 210.158Z" fill="#59B45A"/>
<path d="M113.482 213.268C113.842 213.39 106.909 221.947 103.136 219.289C99.3639 216.631 106.992 211.067 113.482 213.268Z" fill="#59B45A"/>
<path d="M122.639 214.323C123.014 214.359 118.156 224.322 113.91 222.593C109.665 220.864 115.854 213.665 122.639 214.323Z" fill="#59B45A"/>
<path d="M75.4143 195.734C75.7397 195.934 77.343 184.873 72.9315 183.686C68.5197 182.496 69.5383 192.125 75.4143 195.734Z" fill="#59B45A"/>
<path d="M85.9632 202.276C86.2757 202.496 88.5298 191.565 84.1911 190.107C79.854 188.648 80.3042 198.312 85.9632 202.276Z" fill="#59B45A"/>
<path d="M94.9919 207.259C95.3183 207.459 96.9218 196.399 92.5096 195.21C88.0975 194.022 89.1154 203.649 94.9919 207.259Z" fill="#59B45A"/>
<path d="M106.681 211.471C107.029 211.628 107.243 200.427 102.727 199.823C98.212 199.217 100.415 208.651 106.681 211.471Z" fill="#59B45A"/>
<path d="M117.013 213.694C117.37 213.825 116.811 202.624 112.27 202.348C107.73 202.071 110.575 211.332 117.013 213.694Z" fill="#59B45A"/>
<path d="M129.498 212.398C129.498 212.398 70.5368 194.702 72.0222 171.613C73.5073 148.525 112.155 168.516 132.882 203.752L129.498 212.398Z" fill="#178369"/>
<path d="M139.562 218.434C130.362 202.204 84.0159 175.655 83.4273 175.293L83.2246 175.751C83.8164 176.113 130.05 202.592 139.183 218.703L139.562 218.434Z" fill="#116851"/>
<path d="M109.811 191.908C110.143 190.33 109.585 188.21 108.144 185.584L107.76 185.849C109.401 188.844 109.847 191.1 109.084 192.551C107.82 194.944 103.639 194.424 103.598 194.42L103.565 194.94C103.75 194.963 108.077 195.494 109.479 192.834C109.631 192.551 109.74 192.243 109.811 191.908Z" fill="#116851"/>
<path d="M96.3077 182.974C96.6403 181.395 96.0842 179.277 94.6454 176.649L94.2579 176.914C95.9063 179.913 96.3495 182.169 95.5845 183.614C94.3229 186.009 90.1381 185.493 90.0956 185.487L90.0654 186.006C90.2518 186.032 94.5781 186.565 95.9821 183.902C96.1306 183.617 96.2381 183.307 96.3077 182.974Z" fill="#116851"/>
<path d="M88.5277 177.615C88.8611 176.036 88.2972 173.915 86.8593 171.291L86.4733 171.552C88.1201 174.549 88.5625 176.807 87.7998 178.255C86.5351 180.649 82.3512 180.131 82.311 180.124L82.2847 180.644C82.4649 180.668 86.7873 181.201 88.1936 178.54C88.346 178.256 88.4573 177.95 88.5277 177.615Z" fill="#116851"/>
<path d="M103.676 187.911C103.955 186.592 103.488 184.823 102.291 182.636L101.907 182.901C103.258 185.366 103.631 187.225 103.002 188.407C101.971 190.363 98.5261 189.943 98.4913 189.938L98.4619 190.455C98.6143 190.478 102.223 190.923 103.397 188.693C103.526 188.454 103.617 188.192 103.676 187.911Z" fill="#116851"/>
<path d="M116.465 196.517C116.798 194.939 116.237 192.818 114.798 190.194L114.41 190.456C116.059 193.451 116.501 195.705 115.737 197.155C114.476 199.549 110.29 199.033 110.248 199.026L110.221 199.547C110.405 199.574 114.728 200.104 116.133 197.444C116.285 197.16 116.395 196.85 116.465 196.517Z" fill="#116851"/>
<path d="M124.451 201.238C124.783 199.662 124.226 197.538 122.788 194.913L122.401 195.175C124.045 198.173 124.49 200.432 123.724 201.877C122.464 204.271 118.282 203.753 118.239 203.748L118.21 204.268C118.387 204.294 122.716 204.826 124.12 202.163C124.271 201.88 124.381 201.571 124.451 201.238Z" fill="#116851"/>
<path d="M129.991 205.986C130.232 204.846 129.83 203.319 128.795 201.434L128.41 201.7C129.566 203.799 129.879 205.376 129.353 206.377C128.477 208.04 125.543 207.675 125.514 207.672L125.487 208.194C125.616 208.212 128.731 208.595 129.748 206.666C129.854 206.458 129.941 206.23 129.991 205.986Z" fill="#116851"/>
<path d="M147.987 115.361H73.3325V40.4336H147.987V115.361Z" fill="#E8A32B"/>
<path d="M81.2606 107.57H139.564V49.0548H81.2606V107.57ZM140.885 108.896H79.9395V47.728H140.885V108.896Z" fill="white"/>
<path d="M83.9026 51.375H77.2964V44.7442H83.9026V51.375Z" fill="white"/>
<path d="M143.362 51.375H136.756V44.7442H143.362V51.375Z" fill="white"/>
<path d="M77.2964 111.051H83.9026V104.42H77.2964V111.051Z" fill="white"/>
<path d="M136.756 104.42V111.051H143.362V104.42H136.756Z" fill="white"/>
<path d="M81.4834 107.207L93.7027 82.5362L108.187 94.7994L125.144 71.2963L139.341 107.207H81.4834Z" fill="#CA8623"/>
<path d="M103.621 65.8077C103.621 68.9077 101.117 71.4199 98.0288 71.4199C94.9401 71.4199 92.437 68.9077 92.437 65.8077C92.437 62.7078 94.9401 60.1955 98.0288 60.1955C101.117 60.1955 103.621 62.7078 103.621 65.8077Z" fill="#CA8623"/>
<path d="M139.757 108.703L80.1328 48.8606L81.0672 47.9228L140.692 107.765L139.757 108.703Z" fill="white"/>
<path d="M81.2281 108.857L80.2891 107.925L139.595 47.7666L140.535 48.699L81.2281 108.857Z" fill="white"/>
<path d="M415.003 236.789C415.003 241.324 326.07 245 216.367 245C106.663 245 17.7305 241.324 17.7305 236.789C17.7305 232.253 106.663 228.576 216.367 228.576C326.07 228.576 415.003 232.253 415.003 236.789Z" fill="#CDE1E8"/>
<path d="M240.267 69.7697C236.461 76.8609 226.917 77.8585 221.735 71.7075C218.839 68.2714 218.318 63.2554 220.445 59.2929C224.252 52.2017 233.796 51.2034 238.978 57.3551C241.874 60.7913 242.394 65.8072 240.267 69.7697ZM248.215 47.7222L243.472 43.6798L237.353 48.3014C236.895 48.6461 236.301 48.719 235.758 48.5389C235.456 48.438 235.15 48.3472 234.843 48.2641C234.286 48.1143 233.836 47.7051 233.669 47.1516L231.471 39.8733L225.265 40.3267L224.141 47.8418C224.042 48.5032 223.606 49.0474 223.006 49.3401C222.607 49.535 222.216 49.7469 221.83 49.9744C221.243 50.323 220.528 50.3804 219.916 50.0753L213.104 46.6889L209.183 51.5387L213.899 57.5415C214.34 58.1043 214.501 58.8504 214.288 59.5336C214.198 59.8177 214.118 60.1042 214.043 60.3922C213.869 61.0785 213.347 61.6219 212.685 61.8696L205.758 64.4595L206.596 70.6485L213.561 71.2557C214.414 71.3294 215.172 71.8301 215.575 72.5886L215.683 72.7897C216.093 73.535 216.099 74.4371 215.706 75.1917L212.498 81.3404L217.241 85.3829L223.204 80.8793C223.76 80.46 224.478 80.3731 225.141 80.5811L225.174 80.5912C225.851 80.8032 226.396 81.3109 226.601 81.9918L228.674 88.8555L234.88 88.4021L235.916 81.4755C236.016 80.8063 236.472 80.2605 237.09 79.9896C237.455 79.8296 237.814 79.6573 238.167 79.471C238.72 79.1791 239.373 79.1449 239.934 79.4236L246.318 82.5981L250.238 77.7475L246.225 72.6383C245.804 72.1027 245.732 71.3869 245.983 70.7534C246.201 70.2029 246.389 69.6455 246.547 69.0811C246.71 68.4957 247.118 68.0136 247.685 67.8017L254.399 65.291L253.561 59.1027L247.191 58.5476C246.482 58.4855 245.888 58.0267 245.59 57.3792C245.386 56.9351 245.164 56.4988 244.919 56.0718C244.583 55.4826 244.536 54.7722 244.85 54.1706L248.215 47.7222Z" fill="#B7D9F7"/>
<path d="M191.309 61.9738C188.114 67.9237 180.107 68.7614 175.759 63.6002C173.329 60.7169 172.892 56.5083 174.677 53.184C177.871 47.234 185.879 46.3956 190.228 51.5567C192.657 54.4409 193.094 58.6494 191.309 61.9738ZM197.977 43.4749L193.998 40.0831L188.863 43.9609C188.48 44.2497 187.981 44.3111 187.526 44.1605C187.271 44.0758 187.015 43.999 186.758 43.9299C186.29 43.8041 185.913 43.4602 185.772 42.9959L183.928 36.8892L178.721 37.2688L177.778 43.5751C177.695 44.1294 177.328 44.5867 176.826 44.8328C176.491 44.9958 176.162 45.1736 175.839 45.3646C175.346 45.6565 174.746 45.7046 174.233 45.4492L168.516 42.6078L165.227 46.6774L169.183 51.7136C169.554 52.1856 169.69 52.8113 169.51 53.385C169.435 53.6241 169.367 53.864 169.305 54.1055C169.158 54.6815 168.721 55.1373 168.166 55.3453L162.353 57.5191L163.056 62.7113L168.9 63.2206C169.616 63.2835 170.252 63.7027 170.59 64.3393L170.682 64.5078C171.025 65.1335 171.031 65.8905 170.7 66.5232L168.008 71.6828L171.988 75.0739L176.992 71.2954C177.458 70.9445 178.061 70.8707 178.617 71.0454L178.644 71.0539C179.213 71.2317 179.67 71.6579 179.842 72.2293L181.581 77.9883L186.788 77.6087L187.658 71.7953C187.742 71.234 188.124 70.7768 188.643 70.5493C188.949 70.415 189.25 70.2698 189.547 70.1138C190.011 69.8692 190.559 69.8405 191.029 70.0742L196.386 72.7378L199.674 68.6682L196.307 64.3812C195.954 63.9317 195.894 63.3308 196.105 62.799C196.287 62.3379 196.445 61.8697 196.577 61.3962C196.714 60.9047 197.057 60.501 197.533 60.3225L203.166 58.2162L202.463 53.0232L197.118 52.5574C196.524 52.5062 196.025 52.1211 195.775 51.5769C195.604 51.205 195.417 50.8386 195.212 50.4807C194.93 49.9862 194.891 49.3907 195.154 48.8853L197.977 43.4749Z" fill="#B7D9F7"/>
<path d="M212.018 33.7968C210.22 37.1459 205.712 37.618 203.264 34.7121C201.896 33.0887 201.651 30.7193 202.655 28.8483C204.453 25.4992 208.961 25.0271 211.409 27.933C212.776 29.5556 213.023 31.925 212.018 33.7968ZM215.771 23.3828L213.532 21.4738L210.641 23.6561C210.425 23.8191 210.145 23.8541 209.888 23.7687C209.745 23.7213 209.601 23.6778 209.455 23.639C209.193 23.5684 208.98 23.3751 208.902 23.1127L207.863 19.6758L204.931 19.89L204.401 23.4387C204.354 23.7516 204.148 24.0086 203.864 24.1468C203.677 24.2391 203.491 24.3393 203.31 24.4464C203.031 24.611 202.694 24.6382 202.405 24.4946L199.187 22.8945L197.335 25.1855L199.562 28.0207C199.771 28.2862 199.848 28.6395 199.746 28.9617C199.704 29.096 199.666 29.2311 199.631 29.3677C199.548 29.6914 199.301 29.9484 198.99 30.0649L195.718 31.2892L196.113 34.2121L199.403 34.4986C199.806 34.5335 200.164 34.7703 200.354 35.1282L200.406 35.2229C200.599 35.5754 200.603 36.0016 200.416 36.3579L198.901 39.2623L201.141 41.1713L203.958 39.0441C204.22 38.8462 204.56 38.805 204.873 38.9036L204.889 38.9083C205.208 39.0084 205.466 39.2483 205.563 39.5697L206.542 42.8125L209.473 42.5982L209.963 39.3259C210.01 39.01 210.225 38.7522 210.517 38.6241C210.689 38.5488 210.859 38.4673 211.026 38.3788C211.288 38.2414 211.595 38.2251 211.86 38.357L214.875 39.8562L216.727 37.5652L214.832 35.1515C214.633 34.8984 214.599 34.5607 214.718 34.2618C214.821 34.0017 214.909 33.7386 214.984 33.4715C215.061 33.1951 215.254 32.9676 215.521 32.8667L218.693 31.6812L218.297 28.7583L215.288 28.4959C214.954 28.4664 214.673 28.2505 214.532 27.9439C214.435 27.735 214.33 27.5285 214.215 27.3267C214.056 27.0487 214.034 26.7126 214.182 26.4285L215.771 23.3828Z" fill="#B7D9F7"/>
<path d="M399.418 208.248V222.701L415.003 215.474L399.418 208.248Z" fill="#E8A32B"/>
<path d="M337.865 218.76C337.865 223.637 333.617 227.594 328.392 227.594H112.159C106.923 227.594 102.681 223.637 102.681 218.76V91.2188C102.681 86.3402 106.923 82.3785 112.159 82.3785H328.392C333.617 82.3785 337.865 86.3402 337.865 91.2188V218.76Z" fill="#2537A2"/>
<path d="M328.393 228.336H112.159C106.524 228.336 101.941 224.038 101.941 218.76V91.2189C101.941 85.9343 106.524 81.6357 112.159 81.6357H328.393C334.022 81.6357 338.605 85.9343 338.605 91.2189V218.76C338.605 224.038 334.022 228.336 328.393 228.336Z" fill="#2537A2"/>
<path d="M342.818 218.76C342.818 223.637 338.57 227.594 333.345 227.594H117.111C111.875 227.594 107.633 223.637 107.633 218.76V91.2188C107.633 86.3402 111.875 82.3785 117.111 82.3785H333.345C338.57 82.3785 342.818 86.3402 342.818 91.2188V218.76Z" fill="#4D6AC4"/>
<path d="M333.345 228.336H117.111C111.476 228.336 106.894 224.038 106.894 218.76V91.2189C106.894 85.9343 111.476 81.6357 117.111 81.6357H333.345C338.975 81.6357 343.558 85.9343 343.558 91.2189V218.76C343.558 224.038 338.975 228.336 333.345 228.336Z" fill="#4D6AC4"/>
<path d="M334.622 220.186H113.908V91.6394H334.622V220.186Z" fill="#C5E1EA"/>
<path d="M331.179 220.186H113.908V91.6394H331.179V220.186Z" fill="#E7F4FA"/>
<path d="M362.473 233.771H84.981V219.561H362.473V233.771Z" fill="#4D6AC4"/>
<path d="M363.23 234.514H84.2231V218.818H363.23V234.514Z" fill="#4D6AC4"/>
<path d="M133.49 172.687C133.49 176.851 136.841 180.229 140.99 180.229H305.873C310.026 180.229 313.385 176.851 313.385 172.687V68.9118C313.385 64.7482 310.026 61.3718 305.873 61.3718H140.99C136.841 61.3718 133.49 64.7482 133.49 68.9118V172.687Z" fill="#C5E1EA"/>
<path d="M140.99 61.3715H305.873C310.026 61.3715 313.385 64.7479 313.385 68.9114V82.9082H133.49V68.9114C133.49 64.7479 136.841 61.3715 140.99 61.3715Z" fill="#B7D9F7"/>
<path d="M295.176 72.2138C295.176 74.2696 296.842 75.9473 298.909 75.9473C300.967 75.9473 302.636 74.2696 302.636 72.2138C302.636 70.1348 300.967 68.4672 298.909 68.4672C296.842 68.4672 295.176 70.1348 295.176 72.2138Z" fill="white"/>
<path d="M285.751 72.2138C285.751 74.2696 287.426 75.9473 289.491 75.9473C291.545 75.9473 293.219 74.2696 293.219 72.2138C293.219 70.1348 291.545 68.4672 289.491 68.4672C287.426 68.4672 285.751 70.1348 285.751 72.2138Z" fill="white"/>
<path d="M276.665 72.2138C276.665 74.2696 278.332 75.9473 280.398 75.9473C282.452 75.9473 284.121 74.2696 284.121 72.2138C284.121 70.1348 282.452 68.4672 280.398 68.4672C278.332 68.4672 276.665 70.1348 276.665 72.2138Z" fill="white"/>
<path d="M140.753 172.687C140.753 176.851 144.106 180.229 148.253 180.229H313.136C317.29 180.229 320.648 176.851 320.648 172.687V68.9118C320.648 64.7482 317.29 61.3718 313.136 61.3718H148.253C144.106 61.3718 140.753 64.7482 140.753 68.9118V172.687Z" fill="white"/>
<path d="M148.253 61.3715H313.136C317.29 61.3715 320.648 64.7479 320.648 68.9114V82.9082H140.753V68.9114C140.753 64.7479 144.106 61.3715 148.253 61.3715Z" fill="#C1E3FB"/>
<path d="M302.439 72.2138C302.439 74.2696 304.107 75.9473 306.173 75.9473C308.232 75.9473 309.9 74.2696 309.9 72.2138C309.9 70.1348 308.232 68.4672 306.173 68.4672C304.107 68.4672 302.439 70.1348 302.439 72.2138Z" fill="white"/>
<path d="M293.016 72.2138C293.016 74.2696 294.689 75.9473 296.755 75.9473C298.809 75.9473 300.483 74.2696 300.483 72.2138C300.483 70.1348 298.809 68.4672 296.755 68.4672C294.689 68.4672 293.016 70.1348 293.016 72.2138Z" fill="white"/>
<path d="M283.929 72.2138C283.929 74.2696 285.596 75.9473 287.661 75.9473C289.716 75.9473 291.384 74.2696 291.384 72.2138C291.384 70.1348 289.716 68.4672 287.661 68.4672C285.596 68.4672 283.929 70.1348 283.929 72.2138Z" fill="white"/>
<path d="M304.623 137.947H156.436C155.585 137.947 154.889 137.248 154.889 136.395V95.651C154.889 94.7971 155.585 94.0983 156.436 94.0983H304.623C305.473 94.0983 306.17 94.7971 306.17 95.651V136.395C306.17 137.248 305.473 137.947 304.623 137.947Z" fill="#E1F3F9"/>
<path d="M304.939 147.264H154.889V143.05H304.939V147.264Z" fill="#A9D1EA"/>
<path d="M304.939 157.098H154.889V152.884H304.939V157.098Z" fill="#A9D1EA"/>
<path d="M321.203 238.9H222.114V224.034H321.203V238.9Z" fill="#70ABFF"/>
<path d="M310.149 224.035H211.06V206.546H310.149V224.035Z" fill="#70ABFF"/>
<path d="M296.727 206.545H197.637V189.055H296.727V206.545Z" fill="#70ABFF"/>
<path d="M283.699 189.055H184.609V171.564H283.699V189.055Z" fill="#70ABFF"/>
<path d="M271.855 171.564H172.766V151.452H271.855V171.564Z" fill="#70ABFF"/>
<path d="M330.677 238.9H231.589V221.41H330.677V238.9Z" fill="#80BAFA"/>
<path d="M319.624 221.41H220.535V203.921H319.624V221.41Z" fill="#5D9FED"/>
<path d="M306.202 203.92H207.112V186.43H306.202V203.92Z" fill="#80BAFA"/>
<path d="M293.173 186.432H194.084V168.941H293.173V186.432Z" fill="#5D9FED"/>
<path d="M281.33 168.941H182.241V151.452H281.33V168.941Z" fill="#80BAFA"/>
<path d="M269.142 215.65C269.142 215.65 269.945 219.676 269.664 220.335C268.829 222.295 261.897 223.4 259.418 222.377C259.073 222.233 258.67 221.651 259.288 220.795C259.907 219.939 263.706 218.498 263.264 216.841C262.822 215.185 269.142 215.65 269.142 215.65Z" fill="#E8A32B"/>
<path d="M268.34 189.206C268.34 189.206 271.861 166.318 271.758 162.505C271.606 156.903 266.711 153.895 260.403 155.129C252.091 156.756 253.142 190.821 260.675 195.082C266.554 198.408 268.34 189.206 268.34 189.206Z" fill="#6C4967"/>
<path d="M260.274 216.531C258.428 209.655 255.456 187.905 258.032 183.011C260.817 177.718 267.468 182.265 268.316 190.096C268.866 195.173 270.497 212.387 270.616 217.085C270.644 218.225 267.129 218.457 265.346 218.48C265.303 218.48 260.807 218.518 260.274 216.531Z" fill="#6C4967"/>
<path d="M241.407 196.501C241.407 196.501 242.509 200.456 242.279 201.134C241.592 203.152 234.762 204.777 232.215 203.942C231.859 203.826 231.415 203.276 231.966 202.376C232.518 201.476 236.2 199.751 235.634 198.134C235.07 196.515 241.407 196.501 241.407 196.501Z" fill="#E8A32B"/>
<path d="M243.158 173.132C243.158 173.132 259.606 169.551 262.918 168.115C267.786 166.006 269.287 156.387 264.78 152.256C261.681 149.416 228.791 161.398 230.396 169.795C231.603 176.111 243.158 173.132 243.158 173.132Z" fill="#6C4967"/>
<path d="M233.254 198.159C231.433 191.867 228.387 171.896 230.777 167.325C233.361 162.386 239.981 162.93 240.868 170.126C241.442 174.789 242.903 194.106 243.064 198.431C243.103 199.48 239.505 199.799 237.815 199.861C237.773 199.863 233.781 199.978 233.254 198.159Z" fill="#6C4967"/>
<path d="M264.812 163.21C265.49 164.978 267.379 169.354 269.915 168.296C270.254 168.156 270.101 167.593 269.755 167.737C267.651 168.615 265.94 164.54 265.369 163.051C265.236 162.704 264.677 162.859 264.812 163.21Z" fill="#5B3C58"/>
<path d="M251.288 161.98C249.435 162.344 244.739 163.068 244.281 160.35C244.22 159.986 244.775 159.817 244.838 160.188C245.216 162.442 249.565 161.729 251.127 161.421C251.488 161.35 251.655 161.908 251.288 161.98Z" fill="#5B3C58"/>
<path d="M279.349 145.938C279.349 145.938 270.286 142.572 268.294 138.153C266.302 133.734 269.679 131.294 269.679 131.294C269.679 131.294 276.805 140.193 282.072 141.637C287.34 143.083 279.349 145.938 279.349 145.938Z" fill="#CC8C71"/>
<path d="M264.33 128.49C264.33 128.49 263.429 128.295 263.43 132.916C263.432 138.638 272.296 143.301 272.296 143.301L277.937 138.688C277.937 138.688 270.157 129.355 264.33 128.49Z" fill="#EF7BAB"/>
<path d="M277.943 145.341C281.407 147.301 289.704 147.477 289.704 147.477L289.501 144.521L279.103 140.512C279.103 140.512 274.48 143.377 277.943 145.341Z" fill="#CC8C71"/>
<path d="M292.652 144.205C293.99 144.038 295.305 143.718 296.645 143.579C297.022 143.54 297.404 143.514 297.777 143.579C297.917 143.603 298.061 143.643 298.166 143.739C298.271 143.836 298.321 144.004 298.248 144.127C298.177 144.246 298.003 144.309 297.998 144.449C297.992 144.637 298.276 144.669 298.391 144.818C298.485 144.939 298.44 145.127 298.335 145.238C298.23 145.349 298.079 145.405 297.935 145.455C297.559 145.587 297.183 145.72 296.808 145.853C296.939 146.035 297.139 146.166 297.358 146.214C297.45 146.233 297.548 146.239 297.632 146.285C297.716 146.329 297.781 146.429 297.747 146.519L297.632 146.636C297.052 147.01 296.343 147.121 295.653 147.15C294.965 147.179 294.271 147.136 293.589 147.238C293.269 147.287 292.922 147.39 292.751 147.667C292.542 148.006 292.688 148.444 292.838 148.814C292.959 149.11 293.078 149.407 293.199 149.705C293.291 149.931 293.354 150.252 293.14 150.371C293.013 150.441 292.853 150.389 292.723 150.323C292.08 149.995 291.657 149.364 291.174 148.825C290.288 147.838 289.117 147.112 287.84 146.758C287.736 146.73 287.627 146.702 287.536 146.641C287.409 146.554 287.333 146.411 287.274 146.269C287.037 145.704 286.995 145.06 287.156 144.468C287.18 144.377 287.211 144.284 287.275 144.213C287.35 144.129 287.46 144.089 287.568 144.057C288.41 143.805 289.004 144.082 289.826 144.214C290.76 144.362 291.716 144.322 292.652 144.205Z" fill="#CC8C71"/>
<path d="M254.438 129.015C254.438 129.015 259.337 127.639 264.262 128.154C264.262 128.154 266.137 128.666 266.616 129.095C270.642 132.688 271.883 138.623 272.237 150.605C272.299 152.7 272.368 155.5 272.421 157.737C272.467 159.708 270.734 161.24 268.791 160.951L260.273 159.687C256.749 159.164 252.284 158.519 247.06 157.736C245.083 157.441 243.894 155.411 244.539 153.512C244.888 152.487 245.261 151.162 245.645 149.452C246.266 146.673 246.745 145.677 246.061 137.155C245.57 131.049 252.363 129.531 252.363 129.531L254.438 129.015Z" fill="#FA8FB8"/>
<path d="M272.14 125.291C272.718 127.291 272.011 129.254 270.562 129.675C269.113 130.097 267.47 128.818 266.892 126.819C266.314 124.819 267.02 122.856 268.469 122.434C269.918 122.012 271.561 123.292 272.14 125.291Z" fill="#DD8B12"/>
<path d="M268.025 122.623L269.638 121.807L271.916 129.572L270.273 129.76L269.83 129.433L268.025 122.623Z" fill="#DD8B12"/>
<path d="M273.929 124.77C274.554 126.93 273.79 129.051 272.225 129.507C270.659 129.962 268.885 128.58 268.26 126.42C267.636 124.26 268.399 122.139 269.964 121.683C271.529 121.227 273.305 122.609 273.929 124.77Z" fill="#F1A52B"/>
<path d="M273.424 124.976C273.852 126.567 273.265 128.112 272.111 128.425C270.958 128.738 269.676 127.701 269.246 126.11C268.819 124.518 269.405 122.974 270.559 122.661C271.711 122.347 272.995 123.385 273.424 124.976Z" fill="#DD8B12"/>
<path d="M296.514 128.087L289.422 107.431L271.133 122.493L271.139 122.517C270.145 122.777 269.667 124.245 270.071 125.796C270.473 127.347 271.606 128.394 272.599 128.134L272.696 128.1L272.698 128.108L296.514 128.087Z" fill="#FFB725"/>
<path d="M276.776 126.859C276.782 126.945 276.775 127.03 276.755 127.114C276.63 127.644 276.226 129.795 277.725 130.251C279 130.638 281.414 130.743 282.712 130.836C283.432 130.889 284.297 130.553 284.601 129.894C284.842 129.371 284.946 128.694 284.34 127.778C284.016 127.289 284.252 126.626 284.814 126.462L284.888 126.44C285.289 126.323 285.715 126.51 285.902 126.886C286.504 128.107 287.528 130.759 285.801 131.976C283.481 133.61 276.857 132.06 276.076 131.868L275.901 131.804C275.445 131.575 273.634 130.388 274.835 126.466C276.322 121.613 276.716 126.006 276.776 126.859Z" fill="#F1A52B"/>
<path d="M272.599 128.134L272.696 128.1L272.698 128.108L296.514 128.087L293.149 118.285L269.944 125.04C269.964 125.287 270.004 125.54 270.071 125.796C270.474 127.347 271.606 128.394 272.599 128.134Z" fill="#F1A52B"/>
<path d="M300.849 115.345C302.721 121.824 301.28 127.938 297.631 129C293.982 130.062 289.505 125.671 287.633 119.193C285.761 112.714 287.201 106.6 290.851 105.538C294.5 104.476 298.976 108.867 300.849 115.345Z" fill="#DD8B12"/>
<path d="M289.74 106.057L293.738 103.771L301.096 128.935L296.901 129.213L295.696 128.086L289.74 106.057Z" fill="#DD8B12"/>
<path d="M305.355 114.035C307.377 121.033 305.82 127.638 301.878 128.786C297.935 129.933 293.1 125.19 291.077 118.19C289.054 111.192 290.61 104.587 294.553 103.439C298.496 102.291 303.332 107.035 305.355 114.035Z" fill="#F1A52B"/>
<path d="M304.056 114.412C305.712 120.138 304.438 125.542 301.212 126.481C297.987 127.42 294.03 123.539 292.375 117.812C290.72 112.086 291.994 106.682 295.219 105.743C298.445 104.804 302.402 108.685 304.056 114.412Z" fill="#F9B35F"/>
<path d="M295.218 105.744C294.234 106.03 293.432 106.736 292.838 107.738C295.625 108.3 298.539 111.757 299.9 116.464C301.05 120.442 300.786 124.262 299.437 126.54C300.041 126.662 300.638 126.649 301.212 126.482C304.438 125.543 305.712 120.14 304.056 114.413C302.402 108.686 298.445 104.805 295.218 105.744Z" fill="#DD8B12"/>
<path d="M267.333 148.492C263.902 148.775 257.9 147.466 254.506 143.467C251.112 139.468 253.652 136.013 253.652 136.013C253.652 136.013 263.556 143.2 269.215 143.223C274.877 143.245 269.793 148.291 267.333 148.492Z" fill="#CC8C71"/>
<path d="M247.246 133.448C243.881 140.491 259.108 147.6 259.108 147.6L264.061 140.796C264.061 140.796 250.528 126.581 247.246 133.448Z" fill="#EF7BAB"/>
<path d="M266.42 148.219C270.508 150.643 280.718 135.425 280.718 135.425L277.499 134.908L266.027 142.702C266.027 142.702 263.132 146.269 266.42 148.219Z" fill="#CC8C71"/>
<path d="M276.918 134.887C276.929 134.532 276.723 134.143 276.647 133.802C276.495 133.123 276.568 132.427 276.653 131.745C276.7 131.365 276.354 130.51 276.777 130.26C277.47 129.849 277.66 131.429 277.823 131.752C277.972 132.048 278.282 132.305 278.608 132.244C278.823 132.203 278.989 132.037 279.134 131.871C279.591 131.345 279.959 130.75 280.359 130.179C280.568 129.882 280.793 129.604 281.019 129.322C281.188 129.111 281.331 128.762 281.545 128.604C281.714 128.479 282.004 128.493 282.099 128.709C282.183 128.903 282.018 129.028 281.933 129.185C281.742 129.538 281.56 129.896 281.382 130.254C281.343 130.333 281.114 130.666 281.155 130.756C281.355 131.189 281.98 130.303 282.086 130.168C282.351 129.827 282.64 129.48 283.069 129.345L283.239 129.349C283.316 129.403 283.294 129.521 283.259 129.607C283.051 130.116 282.663 130.537 282.467 131.051C282.434 131.134 282.412 131.238 282.47 131.305C282.705 131.578 283.231 131.087 283.418 130.942C283.535 130.85 283.691 130.747 283.82 130.822C283.904 130.871 283.936 130.982 283.92 131.079C283.904 131.176 283.85 131.26 283.797 131.343C283.643 131.585 283.501 131.853 283.317 132.073C283.228 132.18 282.938 132.472 283.055 132.622L283.155 132.666C283.29 132.675 283.411 132.589 283.53 132.526C283.649 132.462 283.807 132.419 283.913 132.503C284.046 132.607 284.002 132.818 283.931 132.97C283.674 133.518 283.22 133.972 282.817 134.415C282.387 134.889 281.936 135.342 281.463 135.776C280.838 136.35 280.177 136.887 279.487 137.382C278.886 137.814 278.167 138.269 277.391 138.205C277.172 138.186 276.959 138.123 276.751 138.056C276.477 137.966 276.201 137.864 275.967 137.696C275.732 137.529 275.538 137.286 275.484 137.001V136.883L275.576 136.767C275.868 136.515 276.175 136.278 276.427 135.986C276.674 135.7 276.871 135.336 276.918 134.887Z" fill="#CC8C71"/>
<path d="M275.901 131.805C275.901 131.805 277.448 132.239 278.608 132.244C279.768 132.249 277.921 130.896 277.921 130.896C277.921 130.896 276.844 129.533 276.236 129.525C275.631 129.516 275.901 131.805 275.901 131.805Z" fill="#F1A52B"/>
<path d="M255.833 120.835C255.833 120.835 262.022 123.267 261.583 123.777C261.142 124.286 261.6 125.513 261.454 126.614C261.299 127.808 261.848 129.179 262.658 130.528C263.224 131.473 261.848 132.297 260.724 132.356C255.88 132.609 253.19 130.278 254.425 128.788C257.203 125.441 255.833 120.835 255.833 120.835Z" fill="#CC8C71"/>
<path d="M261.454 126.614C261.6 125.514 261.142 124.286 261.583 123.778C262.022 123.268 255.345 120.645 255.345 120.645C255.345 120.645 256.223 121.956 256.147 123.717C257.9 125.931 259.979 127.244 261.607 128.229C261.464 127.715 261.398 127.046 261.454 126.614Z" fill="#BF7C64"/>
<path d="M263.453 113.85C265.672 116.273 266.779 123.669 263.644 126.648C261.922 128.284 256.94 125.535 255.061 121.138C254.816 120.566 254.47 117.453 256.269 114.379C257.079 112.986 261.146 111.331 263.453 113.85Z" fill="#CC8B6E"/>
<path d="M265.543 119.853C265.474 120.287 265.607 115.489 263.189 114.803C262.206 114.524 262.264 115.694 261.087 115.613C260.083 115.545 257.421 112.953 257.629 119.487C257.64 119.8 257.317 120.12 257.146 120.376C256.933 120.689 257.325 121.538 257.261 121.918C257.2 122.283 256.342 121.005 256.308 121.374C256.256 121.934 256.921 123.613 256.147 123.716C255.225 123.837 254.57 120.505 254.62 117.487C254.632 116.711 254.476 113.659 254.525 113.013C254.633 111.638 261.154 110.519 263.883 110.928C265.495 111.169 264.696 113.479 265.018 115.038C265.334 116.565 265.8 118.196 265.543 119.853Z" fill="#282738"/>
<path d="M258.013 121.159C258.013 121.159 256.446 119.165 255.37 119.512C254.291 119.862 255.269 123.01 257.401 122.912C259.529 122.813 258.504 121.707 258.013 121.159Z" fill="#CC8B6E"/>
<path d="M258.887 120.434L258.964 120.473C259.05 120.513 259.136 120.548 259.23 120.566C259.59 120.635 259.778 120.411 259.894 120.11C259.967 119.921 260.261 120.059 260.188 120.247C259.931 120.914 259.269 121.053 258.675 120.671C258.501 120.559 258.714 120.322 258.887 120.434Z" fill="#1E100C"/>
<path d="M262.375 119.551C262.451 119.641 262.554 119.723 262.659 119.781C262.999 119.971 263.219 119.77 263.38 119.464C263.473 119.284 263.768 119.42 263.674 119.601C263.485 119.961 263.179 120.271 262.726 120.148C262.482 120.082 262.267 119.914 262.106 119.729C261.971 119.575 262.24 119.398 262.375 119.551Z" fill="#1E100C"/>
<path d="M263.114 117.954C262.595 117.794 262.147 118.021 261.908 118.505C261.795 118.732 261.46 118.533 261.57 118.308C261.886 117.668 262.523 117.363 263.218 117.576C263.459 117.651 263.354 118.028 263.114 117.954Z" fill="#552B19"/>
<path d="M259.875 118.967C259.418 118.672 258.926 118.769 258.566 119.171C258.397 119.358 258.127 119.075 258.294 118.888C258.77 118.359 259.466 118.237 260.077 118.632C260.289 118.769 260.086 119.104 259.875 118.967Z" fill="#552B19"/>
<path d="M261.192 119.149C261.091 119.494 261.046 119.893 261.151 120.237C261.305 120.74 261.875 120.957 262.191 121.369C262.625 121.934 262.205 122.281 261.516 122.485C261.349 122.534 261.267 122.323 261.433 122.274C262.978 121.816 261.163 121.035 260.919 120.389C260.767 119.984 260.806 119.515 260.925 119.102C260.966 118.963 261.232 119.008 261.192 119.149Z" fill="#BF7C64"/>
<path d="M260.219 123.158C260.219 123.158 260.13 124.503 261.242 124.5C262.354 124.498 262.468 123.292 262.468 123.292L260.219 123.158Z" fill="#FAFFFF"/>
<path d="M258.117 122.831C258.254 123.228 258.687 123.437 259.082 123.299C259.477 123.161 259.686 122.728 259.548 122.33C259.411 121.934 258.979 121.724 258.583 121.862C258.188 122 257.979 122.434 258.117 122.831Z" fill="#C1775D"/>
<path d="M264.458 120.896C264.125 120.633 263.643 120.691 263.381 121.025C263.118 121.358 263.176 121.843 263.509 122.106C263.842 122.37 264.324 122.312 264.587 121.977C264.849 121.643 264.792 121.159 264.458 120.896Z" fill="#C1775D"/>
<path d="M116.363 170.688C117.084 170.911 123.934 175.547 126.19 174.408C127.825 173.584 126.653 167.851 126.653 167.851C126.653 167.851 124.692 169.405 119.525 165.023C115.171 161.331 116.363 170.688 116.363 170.688Z" fill="#7C4930"/>
<path d="M126.81 174.076C130.386 171.882 137.819 161.708 137.819 161.708L135.06 161.491L123.571 170.186C123.571 170.186 123.234 176.268 126.81 174.076Z" fill="#7C4930"/>
<path d="M134.332 161.598C134.344 161.304 134.177 160.979 134.117 160.695C133.997 160.13 134.064 159.553 134.141 158.988C134.184 158.673 133.904 157.96 134.257 157.755C134.837 157.422 134.981 158.735 135.113 159.005C135.234 159.252 135.488 159.468 135.76 159.421C135.937 159.389 136.078 159.252 136.199 159.116C136.584 158.684 136.895 158.193 137.233 157.723C137.409 157.479 137.598 157.25 137.789 157.017C137.93 156.843 138.052 156.555 138.231 156.426C138.373 156.325 138.614 156.339 138.69 156.52C138.759 156.681 138.62 156.783 138.548 156.913C138.386 157.203 138.232 157.498 138.081 157.795C138.048 157.86 137.854 158.134 137.888 158.209C138.049 158.571 138.577 157.842 138.666 157.73C138.888 157.45 139.132 157.164 139.489 157.056L139.63 157.062C139.694 157.106 139.675 157.203 139.645 157.276C139.467 157.696 139.142 158.041 138.974 158.466L138.974 158.679C139.167 158.906 139.609 158.504 139.764 158.385C139.863 158.31 139.993 158.226 140.099 158.29C140.169 158.33 140.194 158.424 140.179 158.503C140.166 158.584 140.12 158.654 140.076 158.721C139.944 158.922 139.824 159.141 139.67 159.324C139.595 159.411 139.352 159.651 139.447 159.777L139.53 159.814C139.641 159.822 139.742 159.753 139.842 159.701C139.942 159.65 140.073 159.616 140.16 159.686C140.27 159.773 140.232 159.947 140.172 160.074C139.952 160.525 139.571 160.899 139.233 161.263C138.871 161.652 138.492 162.024 138.096 162.379C137.354 163.046 136.465 163.556 135.787 164.287C135.684 164.397 135.584 164.513 135.458 164.594C135.218 164.747 134.912 164.755 134.633 164.705C134.107 164.61 133.593 164.286 133.341 163.805C133.261 163.652 133.075 163.353 133.149 163.195C133.203 163.08 133.42 162.966 133.517 162.883C133.656 162.764 133.793 162.643 133.914 162.506C134.121 162.271 134.288 161.971 134.332 161.598Z" fill="#7C4930"/>
<path d="M108.207 159.854C105.46 158.854 102.49 158.933 101.514 161.254C100.96 162.571 102.036 165.231 103.464 166.446C106.21 168.78 113.615 172.907 119.782 173.493C122.041 173.708 125.366 168.874 122.234 166.562C118.123 163.528 112.077 161.262 108.207 159.854Z" fill="#FA8FB8"/>
<path d="M75.1834 232.619C75.1834 232.619 71.481 234.119 71.0964 234.702C69.9509 236.436 72.7686 242.703 74.9281 244.182C75.2302 244.39 75.9189 244.406 76.2838 243.442C76.6482 242.478 75.7826 238.594 77.3656 238.069C78.949 237.543 75.1834 232.619 75.1834 232.619Z" fill="#E8A32B"/>
<path d="M96.3664 215.433C96.3664 215.433 91.1692 197.753 90.3825 193.87C87.9799 182.018 99.626 181.526 105.983 183.58C110.354 184.992 112.624 221.11 106.457 225.789C100.863 230.033 96.3664 215.433 96.3664 215.433Z" fill="#6C4967"/>
<path d="M79.2197 240.351C85.7969 238.177 105.064 228.953 107.661 224.221C110.469 219.106 103.21 216.098 96.391 219.6C91.9719 221.87 77.1081 229.761 73.2269 232.182C72.2854 232.77 73.2112 235.601 74.1466 237.073C74.1696 237.11 77.319 240.979 79.2197 240.351Z" fill="#6C4967"/>
<path d="M119.606 230.866C119.606 230.866 117.566 234.428 117.624 235.143C117.794 237.269 124.019 240.533 126.695 240.354C127.068 240.329 127.634 239.905 127.32 238.896C127.006 237.886 123.858 235.305 124.803 233.875C125.749 232.445 119.606 230.866 119.606 230.866Z" fill="#E8A32B"/>
<path d="M125.7 204.906C125.7 204.906 106.396 199.026 103.066 196.898C98.1709 193.773 99.1463 185.629 104.729 181.951C108.568 179.421 140.744 195.702 140.502 203.458C140.283 210.493 125.7 204.906 125.7 204.906Z" fill="#6C4967"/>
<path d="M127.738 234.536C131.671 228.604 141.392 208.924 140.503 203.457C139.541 197.548 131.789 199.734 128.499 206.891C126.367 211.53 119.356 227.337 117.753 231.756C117.364 232.828 120.899 234.302 122.583 234.895C122.624 234.91 126.602 236.251 127.738 234.536Z" fill="#6C4967"/>
<path d="M98.9205 194.032C97.9489 195.742 95.3282 199.942 92.8878 198.458C92.5606 198.259 92.8058 197.706 93.1376 197.909C95.1627 199.139 97.5536 195.222 98.3728 193.782C98.5631 193.446 99.1131 193.692 98.9205 194.032Z" fill="#5B3C58"/>
<path d="M108.854 194.083C109.962 195.377 110.27 197.584 109.768 199.359C109.642 199.812 110.353 199.965 110.481 199.514C111.05 197.495 110.741 195.174 109.346 193.545C109.041 193.189 108.553 193.731 108.854 194.083Z" fill="#5B3C58"/>
<path d="M108.596 161.671C106.395 156.685 97.335 159.318 91.1384 161.005C86.9622 162.141 84.7863 164.372 85.8908 172.142C86.3256 175.199 87.202 184.572 89.21 189.119C89.5712 189.937 89.9116 191.15 90.6402 191.664C94.8296 194.623 116.003 188.21 114.653 183.53C114.653 183.53 113.3 172.325 108.596 161.671Z" fill="#FA8FB8"/>
<path d="M112.869 188.773C114.686 189.512 119.334 191.182 120.336 188.502C120.47 188.142 119.936 187.86 119.801 188.224C118.969 190.45 114.676 188.859 113.144 188.236C112.788 188.091 112.508 188.627 112.869 188.773Z" fill="#5B3C58"/>
<path d="M97.5223 163.761C102.951 171.228 106.148 181.382 103.928 190.498C103.812 190.975 104.548 191.169 104.665 190.69C106.931 181.384 103.728 171.008 98.1837 163.382C97.8975 162.987 97.2338 163.364 97.5223 163.761Z" fill="#EF7BAB"/>
<path d="M91.8037 153.931C91.8037 153.931 98.4575 154.582 98.1574 155.157C97.8549 155.73 98.6114 156.73 98.7468 157.767C98.8969 158.891 99.7787 159.998 100.909 161.021C101.7 161.736 100.565 162.832 99.4832 163.169C94.8189 164.618 91.6041 163.178 92.4349 161.513C94.3014 157.772 91.8037 153.931 91.8037 153.931Z" fill="#7C4930"/>
<path d="M98.7466 157.766C98.6113 156.729 97.8548 155.729 98.1572 155.156C98.4573 154.581 91.2783 153.88 91.2783 153.88C91.2783 153.88 92.4664 154.85 92.8362 156.469C95.0918 158.856 97.895 159.309 99.7321 159.793C99.4621 159.362 98.8008 158.171 98.7466 157.766Z" fill="#56301B"/>
<path d="M97.4772 145.665C100.255 147.307 103.201 153.749 100.892 157.245C99.6237 159.166 94.0683 157.923 91.1258 154.401C90.7422 153.943 89.619 151.201 90.5998 147.955C91.0384 146.486 94.5904 143.957 97.4772 145.665Z" fill="#7C4930"/>
<path d="M101.032 150.594C101.076 151.005 99.9942 146.612 97.461 146.597C96.4322 146.592 96.7834 147.64 95.6146 147.864C94.6167 148.055 91.3656 146.369 93.2167 152.254C93.3056 152.537 93.0712 152.908 92.9684 153.184C92.8407 153.522 93.4363 154.195 93.4704 154.556C93.5029 154.903 92.3426 153.959 92.4021 154.303C92.4926 154.824 93.5655 156.182 92.8361 156.47C91.9674 156.812 90.4869 153.95 89.7737 151.195C89.5904 150.487 88.6676 147.753 88.5539 147.153C88.3118 145.877 94.3947 143.218 97.1616 142.901C98.7945 142.715 98.5972 145.014 99.3058 146.35C99.9996 147.659 100.866 149.023 101.032 150.594Z" fill="#282738"/>
<path d="M94.0118 153.676C94.0118 153.676 91.9806 152.26 91.0168 152.847C90.0522 153.435 91.8004 156.051 93.8571 155.423C95.9085 154.799 94.6291 154.052 94.0118 153.676Z" fill="#7C4930"/>
<path d="M98.0208 145.245C98.0757 145.721 98.505 146.064 98.98 146.008C99.4549 145.953 99.7952 145.522 99.7411 145.046C99.6862 144.57 99.2569 144.227 98.7819 144.283C98.3078 144.337 97.9666 144.768 98.0208 145.245Z" fill="#282738"/>
<path d="M95.9962 143.553C96.0983 144.448 96.9051 145.09 97.7962 144.987C98.688 144.884 99.3277 144.075 99.2256 143.18C99.1228 142.285 98.3168 141.643 97.4249 141.745C96.5338 141.849 95.8933 142.657 95.9962 143.553Z" fill="#282738"/>
<path d="M93.1904 145.152C94.1395 145.907 95.5202 145.748 96.2736 144.796C97.027 143.843 96.8684 142.457 95.9193 141.702C94.9702 140.946 93.5895 141.104 92.8361 142.058C92.0827 143.01 92.2413 144.395 93.1904 145.152Z" fill="#282738"/>
<path d="M90.081 144.594C90.1793 145.448 90.9474 146.06 91.7982 145.962C92.6483 145.864 93.2586 145.093 93.1604 144.239C93.0629 143.386 92.2941 142.773 91.444 142.871C90.5931 142.97 89.9836 143.741 90.081 144.594Z" fill="#282738"/>
<path d="M87.2375 146.874C87.3597 147.939 88.3173 148.701 89.3778 148.579C90.4375 148.457 91.1987 147.494 91.0765 146.431C90.9542 145.367 89.9959 144.604 88.9361 144.726C87.8764 144.849 87.1153 145.811 87.2375 146.874Z" fill="#282738"/>
<path d="M87.437 149.175C87.5252 149.946 88.2198 150.5 88.9879 150.41C89.7568 150.322 90.3075 149.626 90.2193 148.854C90.1312 148.083 89.4366 147.529 88.6684 147.619C87.8996 147.707 87.3488 148.404 87.437 149.175Z" fill="#282738"/>
<path d="M88.4696 150.466C88.5578 151.234 89.2501 151.786 90.0159 151.698C90.7809 151.609 91.3301 150.915 91.2419 150.146C91.1537 149.378 90.4622 148.827 89.6964 148.915C88.9314 149.004 88.3822 149.698 88.4696 150.466Z" fill="#282738"/>
<path d="M99.1071 146.399C99.1628 146.886 99.6013 147.236 100.087 147.18C100.573 147.125 100.921 146.684 100.865 146.196C100.81 145.709 100.371 145.358 99.8852 145.416C99.3995 145.471 99.0506 145.911 99.1071 146.399Z" fill="#282738"/>
<path d="M88.5967 152.228C88.671 152.873 89.2511 153.336 89.8947 153.262C90.5375 153.187 90.9985 152.604 90.925 151.958C90.8507 151.313 90.2698 150.85 89.627 150.924C88.9835 150.999 88.5225 151.583 88.5967 152.228Z" fill="#282738"/>
<path d="M95.4109 152.409L95.4898 152.446C95.5772 152.482 95.6631 152.516 95.7583 152.531C96.1203 152.587 96.3005 152.357 96.4065 152.053C96.473 151.862 96.7708 151.99 96.7043 152.18C96.4699 152.854 95.8132 153.016 95.2075 152.654C95.0296 152.547 95.2354 152.304 95.4109 152.409Z" fill="#201714"/>
<path d="M98.8641 151.41C98.9445 151.497 99.0497 151.575 99.1557 151.63C99.5015 151.808 99.7157 151.6 99.865 151.29C99.9524 151.107 100.251 151.234 100.163 151.417C99.9865 151.783 99.6918 152.102 99.2354 151.995C98.9894 151.937 98.7689 151.776 98.6019 151.598C98.4619 151.447 98.7249 151.262 98.8641 151.41Z" fill="#201714"/>
<path d="M99.477 149.579C98.9533 149.436 98.5139 149.679 98.2919 150.171C98.1875 150.401 97.8448 150.213 97.9485 149.984C98.2424 149.335 98.8682 149.009 99.569 149.199C99.8111 149.265 99.7199 149.645 99.477 149.579Z" fill="#56301B"/>
<path d="M96.2775 150.699C95.8118 150.419 95.3237 150.533 94.9772 150.946C94.8148 151.139 94.5363 150.865 94.6964 150.673C95.1543 150.128 95.8459 149.984 96.4693 150.358C96.6836 150.487 96.4933 150.828 96.2775 150.699Z" fill="#56301B"/>
<path d="M97.6699 151.051C97.5817 151.399 97.5492 151.798 97.666 152.138C97.8362 152.635 98.4125 152.833 98.742 153.233C99.1937 153.784 98.7853 154.143 98.1046 154.37C97.9399 154.425 97.8501 154.217 98.0149 154.162C99.541 153.654 97.7039 152.934 97.4394 152.297C97.2739 151.899 97.2971 151.429 97.403 151.014C97.4386 150.872 97.7055 150.909 97.6699 151.051Z" fill="#56301B"/>
<path d="M98.7698 156.602C98.7698 156.602 99.4815 155.859 98.8286 155.311C98.1765 154.764 97.519 155.415 97.519 155.415L98.7698 156.602Z" fill="#FAFFFF"/>
<path d="M94.7225 154.83C94.8734 155.222 95.3112 155.416 95.7018 155.265C96.0917 155.114 96.2858 154.674 96.135 154.283C95.9849 153.891 95.5463 153.696 95.1557 153.847C94.7659 153.998 94.5717 154.438 94.7225 154.83Z" fill="#56301B"/>
<path d="M100.747 152.878C100.407 152.626 99.9263 152.701 99.6756 153.042C99.425 153.385 99.4985 153.866 99.8396 154.118C100.181 154.37 100.661 154.295 100.912 153.954C101.162 153.611 101.089 153.129 100.747 152.878Z" fill="#56301B"/>
<path d="M67.6658 226.96C66.8853 226.303 66.7819 225.124 67.437 224.34L140.259 137.176C140.914 136.392 142.089 136.289 142.869 136.947C143.651 137.603 143.754 138.783 143.099 139.567L70.2764 226.73C69.6216 227.514 68.4468 227.617 67.6658 226.96Z" fill="#80BAFA"/>
<path d="M86.1847 242.546C85.4035 241.889 85.3006 240.71 85.9558 239.925L158.778 152.762C159.433 151.978 160.608 151.875 161.388 152.532C162.17 153.189 162.273 154.369 161.618 155.152L88.7953 242.316C88.1402 243.1 86.966 243.203 86.1847 242.546Z" fill="#80BAFA"/>
<path d="M148.863 168.539L130.767 153.311C130.26 152.884 130.194 152.118 130.618 151.61C131.043 151.102 131.805 151.034 132.312 151.461L150.408 166.69C150.915 167.117 150.981 167.882 150.557 168.39C150.132 168.899 149.37 168.966 148.863 168.539Z" fill="#80BAFA"/>
<path d="M139.805 179.382L121.709 164.151C121.203 163.726 121.135 162.96 121.561 162.452C121.985 161.943 122.747 161.877 123.254 162.303L141.35 177.533C141.857 177.959 141.924 178.723 141.499 179.232C141.074 179.741 140.312 179.807 139.805 179.382Z" fill="#80BAFA"/>
<path d="M132.041 188.674L113.945 173.445C113.438 173.019 113.372 172.254 113.796 171.746C114.221 171.236 114.984 171.17 115.489 171.596L133.586 186.826C134.093 187.252 134.16 188.017 133.734 188.526C133.31 189.034 132.548 189.101 132.041 188.674Z" fill="#80BAFA"/>
<path d="M122.983 199.518L104.887 184.289C104.38 183.862 104.313 183.097 104.738 182.589C105.163 182.08 105.925 182.013 106.432 182.44L124.527 197.669C125.035 198.095 125.101 198.861 124.677 199.369C124.252 199.877 123.489 199.945 122.983 199.518Z" fill="#80BAFA"/>
<path d="M112.63 211.909L94.5346 196.679C94.0279 196.253 93.9606 195.488 94.3853 194.98C94.8107 194.471 95.5726 194.404 96.0793 194.83L114.176 210.06C114.682 210.486 114.749 211.251 114.324 211.76C113.899 212.268 113.137 212.335 112.63 211.909Z" fill="#80BAFA"/>
<path d="M103.572 222.75L85.476 207.521C84.9693 207.094 84.9028 206.331 85.3275 205.821C85.7529 205.313 86.5141 205.245 87.0215 205.672L105.117 220.901C105.624 221.328 105.69 222.093 105.266 222.601C104.841 223.11 104.079 223.177 103.572 222.75Z" fill="#80BAFA"/>
<path d="M95.8078 232.044L77.7121 216.814C77.2054 216.388 77.1383 215.622 77.5636 215.114C77.9883 214.606 78.7502 214.539 79.2568 214.965L97.3533 230.194C97.8599 230.621 97.9265 231.385 97.5018 231.894C97.0771 232.403 96.3144 232.47 95.8078 232.044Z" fill="#80BAFA"/>
<path d="M83.7804 182.886C83.8036 183.688 81.5 192.167 83.406 194.052C84.7875 195.417 90.1201 192.286 90.1201 192.286C90.1201 192.286 87.8994 190.838 90.5216 184.142C92.7307 178.501 83.7804 182.886 83.7804 182.886Z" fill="#7C4930"/>
<path d="M83.9506 194.563C87.3634 197.417 100.065 201.441 100.065 201.441L99.3428 198.588L86.7376 189.976C86.7376 189.976 80.5417 191.707 83.9506 194.563Z" fill="#7C4930"/>
<path d="M98.9855 197.89C99.2849 197.802 99.5533 197.523 99.8163 197.366C100.341 197.052 100.94 196.924 101.532 196.809C101.861 196.745 102.479 196.221 102.804 196.507C103.334 196.977 102.07 197.568 101.845 197.793C101.639 197.999 101.51 198.33 101.65 198.586C101.742 198.755 101.926 198.85 102.104 198.925C102.667 199.166 103.264 199.313 103.849 199.492C104.153 199.586 104.446 199.7 104.744 199.812C104.965 199.896 105.295 199.921 105.485 200.057C105.635 200.164 105.702 200.413 105.548 200.55C105.41 200.674 105.26 200.57 105.106 200.542C104.761 200.477 104.413 200.422 104.065 200.371C103.989 200.359 103.648 200.258 103.585 200.317C103.279 200.604 104.188 200.886 104.33 200.937C104.686 201.066 105.054 201.216 105.283 201.539L105.327 201.682C105.303 201.761 105.199 201.775 105.117 201.77C104.636 201.734 104.18 201.523 103.699 201.499C103.62 201.495 103.527 201.503 103.487 201.571C103.324 201.842 103.876 202.151 104.048 202.267C104.157 202.341 104.286 202.444 104.258 202.573C104.24 202.656 104.156 202.713 104.071 202.726C103.986 202.739 103.9 202.717 103.818 202.695C103.574 202.632 103.313 202.586 103.078 202.492C102.965 202.447 102.643 202.283 102.549 202.421L102.54 202.517C102.57 202.632 102.674 202.711 102.759 202.794C102.845 202.877 102.923 202.997 102.883 203.109C102.833 203.25 102.645 203.271 102.499 203.252C101.972 203.185 101.468 202.929 100.99 202.711C100.478 202.48 99.9764 202.225 99.4875 201.947C98.5686 201.426 97.7548 200.705 96.7934 200.271C96.6487 200.205 96.4987 200.143 96.3749 200.044C96.1397 199.855 96.0276 199.549 95.9827 199.25C95.8984 198.689 96.0477 198.061 96.443 197.643C96.5683 197.51 96.8034 197.222 96.9867 197.242C97.1206 197.258 97.3093 197.437 97.4245 197.506C97.5901 197.606 97.7579 197.703 97.9366 197.778C98.2422 197.907 98.5988 197.972 98.9855 197.89Z" fill="#7C4930"/>
<path d="M91.8368 170.984C91.9002 167.876 90.8127 164.913 88.1587 164.719C86.6535 164.61 85.2983 164.406 84.5712 166.258C83.1719 169.818 80.6278 180.875 82.1408 187.286C82.6946 189.634 88.6607 191.336 89.9053 187.396C91.539 182.222 91.7471 175.361 91.8368 170.984Z" fill="#EF7BAB"/>
</g>
</g>
<defs>
<clipPath id="clip0_11404_170136">
<path d="M0 20C0 8.95431 8.9543 0 20 0H395C406.046 0 415 8.9543 415 20V225C415 236.046 406.046 245 395 245H20C8.95432 245 0 236.046 0 225V20Z" fill="white"/>
</clipPath>
<clipPath id="clip1_11404_170136">
<rect width="415" height="245" fill="white"/>
</clipPath>
</defs>
</svg>
