<svg width="422" height="298" viewBox="0 0 422 298" fill="none" xmlns="http://www.w3.org/2000/svg">
<path opacity="0.38" d="M196.401 15.236C265.404 18.9455 268.372 93.1429 260.952 122.079C253.532 151.016 309.922 157.694 316.6 205.18C323.277 252.666 279.501 272.7 248.339 273.441C217.176 274.183 192.691 255.634 187.497 232.633C182.304 209.632 167.464 198.502 141.495 194.05C115.526 189.598 68.7818 154.726 76.9437 109.465C76.9437 109.465 78.8547 61.3065 124.06 29.3328C154.48 7.81685 196.401 15.236 196.401 15.236Z" fill="#E2E7FF"/>
<path d="M151.765 128.941C151.765 128.941 149.885 104.97 156.935 88.988C159.755 85.2281 161.635 86.6377 161.635 86.6377C161.635 86.6377 162.575 96.5085 160.225 105.909C157.875 115.31 156.465 133.641 156.465 133.641L151.765 128.941Z" fill="#61A27D"/>
<path d="M150.354 127.062C150.354 127.062 149.884 115.781 138.133 105.91C126.383 96.039 124.032 96.039 124.032 96.039C124.032 96.039 133.433 95.5687 140.013 99.7996C146.594 104.03 148.944 115.781 149.414 117.661C149.885 119.541 152.705 127.062 152.705 127.062L150.354 127.062Z" fill="#578B71"/>
<path d="M157.978 128.791C157.978 128.791 160.181 117.718 173.311 109.774C186.443 101.832 188.765 102.194 188.765 102.194C188.765 102.194 179.548 100.281 172.395 103.447C165.241 106.613 161.109 117.862 160.354 119.647C159.601 121.432 155.655 128.428 155.655 128.428L157.978 128.791Z" fill="#578B71"/>
<path d="M152.705 127.064C152.705 127.064 140.484 86.6413 129.673 77.2401C130.142 75.8298 142.834 80.06 146.594 90.4012C150.354 100.742 151.294 116.253 152.705 120.484C154.115 124.714 155.995 128.475 155.995 128.475" fill="#7CC97D"/>
<path d="M151.765 128.94C151.765 128.94 156.465 106.849 168.686 99.3281C169.626 102.148 155.996 125.18 157.405 135.521C158.815 145.861 151.765 128.94 151.765 128.94Z" fill="#7CC97D"/>
<path d="M145.053 153.839H163.129C164.241 146.3 165.176 139.521 165.349 136.93C165.705 131.589 163.905 127.063 163.01 125.18H145.172C144.277 127.063 142.477 131.589 142.833 136.93C143.005 139.521 143.94 146.3 145.053 153.839Z" fill="#A9A7E7"/>
<path d="M309.654 108.826H276.502V153.678H309.654V108.826Z" fill="#24ADB2"/>
<path d="M306.24 108.826H273.089V153.678H306.24V108.826Z" fill="#26C6DA"/>
<path d="M297.952 104.275H264.801V153.678H297.952V104.275Z" fill="#E1543C"/>
<path d="M294.54 104.275H256.514V153.678H294.54V104.275Z" fill="#FF634D"/>
<path d="M294.541 104.275H288.04V153.678H294.541V104.275Z" fill="#EB594D"/>
<path d="M104.733 116.625C104.733 116.625 99.5334 119.225 97.2582 126.701C94.9831 134.176 107.334 154.327 107.334 153.352C107.334 152.377 119.685 146.851 119.685 146.851L113.51 124.1L104.733 116.625Z" fill="#5161B3"/>
<path d="M234.624 156.073L227.757 137.926H210.591L217.458 156.073" fill="#4F57A0"/>
<path d="M172.334 141.526H269.937L271.644 132.371H174.041" fill="#E2E7FF"/>
<path d="M182.679 86.0393L174.041 132.37H271.643L280.081 87.1117C280.417 85.3124 279.036 83.6504 277.205 83.6504H185.554C184.146 83.6504 182.937 84.6545 182.679 86.0393Z" fill="#243FA7"/>
<path d="M230.756 149.53L256.595 130.273L231.244 128.811L207.355 147.336L230.756 149.53Z" fill="white"/>
<path d="M223.525 143.273L230.025 139.698C230.025 139.698 236.302 137.098 236.485 137.098C236.668 137.098 237.216 137.707 236.546 138.987C235.875 140.267 234.108 140.571 234.108 140.571L232.95 143.801L238.963 142.948L240.344 142.623C240.344 142.623 239.369 145.061 238.963 145.629C238.557 146.198 236.281 147.661 236.281 147.661C236.281 147.661 231.975 151.236 230.431 151.642C228.887 152.048 223.525 152.292 223.525 152.292L220.112 152.21L216.943 152.861C216.943 152.861 215.319 149.855 215.562 145.629L223.525 143.273Z" fill="#FF8D68"/>
<path d="M262.039 158.226L280.89 281.081H285.44L273.089 157.576L262.039 158.226Z" fill="#E2E7FF"/>
<path d="M300.391 158.226L319.241 281.081H323.791L311.441 157.576L300.391 158.226Z" fill="#E2E7FF"/>
<path d="M189.886 158.226L171.036 281.081H166.485L178.836 157.576L189.886 158.226Z" fill="#C2D3EB"/>
<path d="M151.534 158.226L132.683 281.081H128.133L140.484 157.576L151.534 158.226Z" fill="#C2D3EB"/>
<path d="M314.041 156.924H144.385V162.774H314.041V156.924Z" fill="#A9A7E7"/>
<path d="M317.29 159.53H149.584C147.789 159.53 146.334 158.075 146.334 156.28C146.334 154.484 147.789 153.029 149.584 153.029H317.29C319.085 153.029 320.541 154.484 320.541 156.28C320.541 158.075 319.085 159.53 317.29 159.53Z" fill="#FFC757"/>
<path d="M155.201 268.729C155.201 268.729 156.267 266.119 160.724 266.583C165.181 267.047 165.733 267.873 166.351 270.06C166.97 272.247 168.618 274.554 169.664 275.014C170.709 275.475 174.577 277.844 177.665 278.204C180.752 278.565 181.184 280.42 180.545 281.304C179.906 282.188 168.369 283.435 165.8 283.219C165.8 283.219 157.115 283.473 155.04 282.892C152.966 282.312 155.072 269.588 155.201 268.729Z" fill="#201360"/>
<path d="M156.384 250.014L155.046 270.386C155.046 270.386 158.222 271.409 160.639 273.18C164.21 275.797 167.135 272.628 167.135 272.628L167.941 259.81L156.384 250.014Z" fill="#FF8D68"/>
<path d="M182.247 214.128L169.084 270.681C169.084 270.681 162.259 271.656 153.971 267.756C153.971 267.756 161.284 214.617 161.771 211.204C162.259 207.791 181.272 211.204 182.247 214.128Z" fill="#5161B3"/>
<path d="M128.891 67.8166C128.891 67.8166 134.295 68.8235 137.846 76.7819C141.398 84.7404 140.544 102.211 138.673 104.384C136.802 106.557 130.654 106.183 122.016 103.954C112.89 101.599 109.255 92.5146 107.253 86.4969C103.416 74.9723 112.813 62.2264 128.891 67.8166Z" fill="#FF8D68"/>
<path d="M113.888 114.399L116.996 99.5106C116.996 99.5106 124.996 96.5893 130.457 101.689L132.315 103.956L132.947 113.474C132.947 113.474 124.561 115.738 113.888 114.399Z" fill="#FF8D68"/>
<path d="M113.715 205.956C113.715 205.956 131.132 211.052 151.79 210.349C172.448 209.646 175.181 203.789 175.826 198.204C176.47 192.619 160.4 189.222 153.41 187.387C146.42 185.552 122.521 178.679 116.057 185.65C109.595 192.621 108.091 201.192 113.715 205.956Z" fill="#201360"/>
<path d="M203.467 268.729C203.467 268.729 204.533 266.119 208.99 266.583C213.447 267.047 213.999 267.873 214.617 270.06C215.236 272.247 216.884 274.554 217.93 275.014C218.975 275.475 222.843 277.844 225.931 278.204C229.018 278.565 229.45 280.42 228.811 281.304C228.172 282.188 216.635 283.435 214.066 283.219C214.066 283.219 205.381 283.473 203.306 282.892C201.231 282.312 203.338 269.588 203.467 268.729Z" fill="#201360"/>
<path d="M198.336 251.504L203.211 271.33C203.211 271.33 207.111 270.354 209.386 272.305C211.661 274.255 215.887 272.955 215.887 272.955L212.311 257.354L198.336 251.504Z" fill="#FF8D68"/>
<path d="M158.034 185.203C159.009 185.203 192.16 196.253 198.661 201.129C205.161 206.329 215.562 264.263 216.211 265.562C216.861 266.862 206.786 270.438 200.285 269.462C199.961 268.162 184.684 219.329 184.684 216.079C184.684 216.079 158.684 214.779 147.633 212.829C136.583 210.878 129.107 210.554 124.557 198.528C120.007 186.503 146.658 185.528 146.658 185.528L158.034 185.203Z" fill="#5161B3"/>
<path d="M214.748 142.463C214.748 142.463 221.086 142.301 221.573 142.951C222.061 143.601 224.336 149.452 222.224 151.889C220.436 153.189 220.436 153.189 220.436 153.189H214.911L214.748 142.463Z" fill="#E2E7FF"/>
<path d="M112.775 112.235L114.482 107.847C114.482 107.847 124.719 104.678 133.495 108.578C135.689 110.772 136.908 114.185 136.908 114.185L112.775 112.235Z" fill="#E2E7FF"/>
<path d="M110.583 112.724C110.583 112.724 111.883 110.449 114.158 110.124C116.433 109.799 126.833 108.499 133.659 110.449C136.259 111.424 137.559 112.724 137.559 112.724C137.559 112.724 147.309 115.974 150.559 117.924C153.809 119.874 154.784 134.825 155.434 139.7C156.084 144.575 154.134 149.775 154.134 149.775C154.134 149.775 161.935 181.626 161.935 186.177C161.935 190.727 159.335 195.927 150.234 199.177C141.134 202.427 116.433 201.127 107.982 195.927C105.382 190.727 101.482 128.974 100.832 123.124C100.182 117.274 110.583 112.724 110.583 112.724Z" fill="#5161B3"/>
<path d="M145.197 116.624C145.197 116.624 147.634 115.161 153.485 119.062C159.335 122.962 175.423 137.588 177.373 138.563C179.323 139.538 216.862 141.488 216.862 141.488C216.862 141.488 222.225 148.314 216.375 153.676C216.375 153.676 180.136 155.139 173.31 154.651C166.485 154.164 143.734 141.001 143.734 141.001C143.734 141.001 134.471 127.349 145.197 116.624Z" fill="#5161B3"/>
<path d="M137.384 138.137C137.384 138.137 167.776 154.093 171.322 154.599C174.868 155.105 188.291 154.599 188.291 154.599" stroke="#1B2048" stroke-width="0.8263" stroke-miterlimit="10"/>
<path d="M178.414 142.191C178.414 142.191 179.427 147.764 175.881 151.056" stroke="#1B2048" stroke-width="0.8263" stroke-miterlimit="10"/>
<path d="M180.693 140.67C180.693 140.67 183.733 145.482 182.213 149.028" stroke="#1B2048" stroke-width="0.8263" stroke-miterlimit="10"/>
<path d="M137.13 131.805C137.13 131.805 134.597 122.941 143.461 117.115" stroke="#1B2048" stroke-width="0.8263" stroke-miterlimit="10"/>
<path d="M104.459 123.449C104.459 123.449 102.686 139.152 102.686 146.497" stroke="#1B2048" stroke-width="0.8263" stroke-miterlimit="10"/>
<path d="M113.576 113.062C113.576 113.062 125.227 112.049 134.851 113.062" stroke="#1B2048" stroke-width="0.8263" stroke-miterlimit="10"/>
<path d="M189.812 215.132C189.812 215.132 195.384 213.359 197.41 204.748" stroke="#1B2048" stroke-width="0.8263" stroke-miterlimit="10"/>
<path d="M193.61 215.895C193.61 215.895 196.903 214.881 198.423 210.322" stroke="#1B2048" stroke-width="0.8263" stroke-miterlimit="10"/>
<path d="M173.349 225.771L164.99 267.561" stroke="#1B2048" stroke-width="0.8263" stroke-miterlimit="10"/>
<path d="M136.665 78.3552C136.665 78.3552 137.64 82.7426 133.74 85.6681L133.983 90.5431C133.983 90.5431 135.446 94.9306 134.471 95.4182C133.496 95.9058 133.252 95.174 133.252 95.174C133.252 95.174 130.083 90.0549 129.108 89.8114C128.133 89.5673 131.302 96.6368 131.302 96.6368C131.302 96.6368 128.133 101.512 122.283 102.243L123.501 100.537C123.501 100.537 120.82 102.243 116.676 101.999C112.532 101.755 109.363 95.4182 109.363 95.4182C109.363 95.4182 110.094 97.1243 109.363 97.8561C108.632 98.5871 104.488 92.2493 104.244 84.2054L103.025 86.6432C103.025 86.6432 103.269 81.0365 105.463 74.6987C107.657 68.3609 117.408 63.7293 122.77 63.7293C128.133 63.7293 133.496 64.2169 134.958 63.7293C136.421 63.2418 135.689 67.3858 135.689 67.3858C135.689 67.3858 136.42 65.6796 136.665 64.2169C137.64 63.4859 139.102 69.3361 138.615 71.5298C138.127 73.7236 138.127 73.7236 138.127 73.7236C138.127 73.7236 139.833 71.5298 140.078 70.3105C141.053 70.0671 140.809 75.4297 136.665 78.3552Z" fill="#3A3A3A"/>
<path d="M133.128 90.5012C133.128 90.5012 132.143 87.2378 129.44 88.9537C126.737 90.6695 130.576 98.3534 132.837 97.6907C135.098 97.0279 133.722 91.7419 133.128 90.5012Z" fill="#FF634D"/>
<path d="M232.056 147.013L238.962 145.632L240.344 142.625" stroke="#E66657" stroke-width="1.2805" stroke-miterlimit="10"/>
<path d="M238.718 145.793C238.718 145.793 235.225 148.718 234.737 148.962C234.249 149.206 232.056 149.774 232.056 149.774" stroke="#E66657" stroke-width="1.2805" stroke-miterlimit="10"/>
<path d="M132.033 98.748C132.033 98.748 131.057 102.16 136.908 104.111" stroke="#E66657" stroke-width="1.2805" stroke-miterlimit="10"/>
<path d="M265.289 124.424H213.287L219.787 90.623H271.789L265.289 124.424Z" fill="#2E60BE"/>
<path d="M196.578 102.323C196.391 103.292 197.133 104.191 198.12 104.191H254.733C255.486 104.191 256.133 103.656 256.275 102.916L257.108 98.584H197.296L196.578 102.323Z" fill="#26C6F8"/>
<path d="M261.605 65.3105H204.992C204.239 65.3105 203.592 65.845 203.45 66.585L197.296 98.5821H257.108L263.147 67.1788C263.334 66.2091 262.591 65.3105 261.605 65.3105Z" fill="#CAE5FF"/>
<path d="M222.899 104.216C223.645 102.161 224.105 100.691 224.105 100.691C224.105 100.691 225.812 91.7657 218.206 94.0553C218.206 94.0553 215.568 96.0346 214.326 100.226C213.94 101.527 213.48 102.917 213.028 104.216H222.899Z" fill="#387AB6"/>
<path d="M238.652 104.219C238.512 99.8186 238.239 96.2898 237.764 95.3388C236.367 92.7774 230.663 90.4492 230.663 90.4492L222.863 91.6133C222.863 91.6133 219.603 92.5443 218.555 94.8733C218.204 95.656 217.352 99.4628 216.442 104.22L238.652 104.219Z" fill="#DCE4FF"/>
<path d="M224.195 85.1669C224.195 85.1669 223.723 88.6558 222.686 91.2019C222.686 91.2019 222.403 93.1819 226.552 92.3336C230.701 91.4847 230.135 89.4103 230.135 89.4103V81.207L224.195 85.1669Z" fill="#FF8D68"/>
<path d="M218.371 76.5388C218.371 76.5388 218.418 84.3393 220.656 88.0971C222.185 89.6778 227.395 87.1951 229.587 83.8414C231.779 80.4877 231.737 75.4423 230.002 72.6334C228.267 69.8245 222.553 70.6693 220.878 71.6396C219.204 72.6093 218.276 75.2913 218.371 76.5388Z" fill="#FF8D68"/>
<path d="M228.897 80.9457C228.897 80.9457 230.368 78.6789 231.352 80.0285C232.336 81.3781 228.928 84.1387 228.667 83.0884C228.407 82.0381 228.897 80.9457 228.897 80.9457Z" fill="#FBA894"/>
<path d="M218.37 76.5403C218.37 76.5403 215.633 74.1342 218.934 71.0225C220.82 69.6081 221.763 70.6453 223.742 70.2681C225.722 69.8908 229.306 70.2681 230.626 72.3425C231.946 74.4169 231.474 79.2258 231.097 79.6975C230.72 80.1692 229.589 80.4519 229.589 81.3002C229.589 82.1491 229.4 82.8091 229.117 82.8091C228.834 82.8091 228.834 81.3947 228.834 80.3575C228.834 79.3202 228.646 77.3403 228.174 75.9259C227.702 74.5114 225.534 74.6059 224.685 74.7942C223.837 74.9824 223.275 77.1548 218.37 76.5403Z" fill="#713336"/>
<path opacity="0.53" d="M228.646 78.8846C228.646 78.8846 228.707 78.8535 228.801 78.8142C228.801 78.8115 228.801 78.8066 228.801 78.8066L228.646 78.8846Z" fill="#505E83"/>
<path d="M228.801 78.8155C228.818 78.9699 229.312 83.4864 227.519 84.745C225.657 85.987 225.579 84.396 224.104 84.1629C222.63 83.9298 221.426 84.0077 220.767 84.9781C220.185 85.9484 220.302 86.3753 219.758 86.1035C219.642 86.4139 220.457 88.3152 221.699 88.82C222.941 89.3242 225.89 87.7725 227.209 86.6084C228.528 85.4442 229.343 84.707 229.576 83.6981C229.809 82.6891 229.692 80.7485 229.964 79.3906C230.12 78.3644 229.181 78.6575 228.801 78.8155ZM222.009 87.1511C220.224 86.7628 220.457 85.3663 222.281 84.7843C222.281 84.7843 224.221 83.8919 224.881 85.2498C225.152 86.1422 223.794 87.5394 222.009 87.1511Z" fill="#713336"/>
<path d="M230.139 88.8184C230.139 88.8184 227.869 91.6707 224.143 92.0197C223.387 91.7286 222.979 90.3314 222.979 90.3314L222.397 91.2045C222.397 91.2045 222.106 92.9507 222.397 93.6493C222.746 93.7072 224.027 92.8341 224.027 92.8341C224.027 92.8341 224.9 94.0568 225.54 94.2893C226.18 94.5217 230.255 91.7866 230.662 90.4473C230.663 90.448 230.634 89.4873 230.139 88.8184Z" fill="white"/>
<path d="M239.247 104.219C239.044 99.8814 238.784 96.5656 238.54 95.8822C237.609 93.7091 234.116 90.9154 230.663 90.4492C230.663 90.4492 229.365 96.4373 228.089 104.219H239.247Z" fill="#387AB6"/>
<path d="M219.156 104.218C220.985 96.4546 222.398 91.8457 222.398 91.8457C221.35 91.9623 219.487 92.7767 218.207 94.0574C217.512 95.4477 216.432 99.4407 215.316 104.218H219.156Z" fill="#387AB6"/>
<path d="M238.55 104.219C238.677 100.066 238.444 96.2258 237.766 95.3382C235.554 93.4755 233.226 93.592 232.062 95.6878C231.425 96.8333 230.58 100.83 229.945 104.219L238.55 104.219Z" fill="#387AB6"/>
<path d="M224.028 92.834C223.368 95.5229 222.821 98.2421 222.326 100.966" stroke="#87B8EB" stroke-width="0.3595" stroke-miterlimit="10"/>
<path d="M266.76 71.4878C272.247 66.6427 273.633 59.2462 269.854 54.9674C266.076 50.6885 258.565 51.1476 253.078 55.9927C247.591 60.8379 246.205 68.2343 249.984 72.5132C253.762 76.7921 261.273 76.333 266.76 71.4878Z" fill="#6787FF"/>
<path d="M273.998 76.3088C273.556 78.0777 271.765 79.5122 269.996 79.5122C268.227 79.5122 267.15 78.0777 267.591 76.3088C268.032 74.5399 269.824 73.1055 271.593 73.1055C273.362 73.1055 274.438 74.5392 273.998 76.3088Z" fill="#6787FF"/>
<path d="M256.896 69.6816C256.528 69.6816 256.195 69.5409 255.984 69.2602L252.959 65.2307C252.537 64.6686 252.764 63.7576 253.467 63.1956C254.169 62.6335 255.08 62.6335 255.502 63.1956L257.763 66.2072L265.841 59.7419C266.543 59.1798 267.454 59.1798 267.876 59.7419C268.298 60.3039 268.071 61.2149 267.369 61.777L258.02 69.2602C257.667 69.5409 257.264 69.6816 256.896 69.6816Z" fill="white"/>
<path d="M173.911 44.2261H170.083C169.121 44.2261 168.537 43.4468 168.776 42.4861L169.731 38.6579C169.971 37.6966 170.944 36.918 171.905 36.918H175.733C176.694 36.918 177.279 37.6973 177.039 38.6579L176.085 42.4861C175.845 43.4475 174.872 44.2261 173.911 44.2261Z" fill="#BFD9FF"/>
<path d="M171.113 55.4448H167.285C166.324 55.4448 165.739 54.6655 165.979 53.7049L166.933 49.8767C167.173 48.916 168.146 48.1367 169.107 48.1367H172.935C173.896 48.1367 174.481 48.916 174.241 49.8767L173.287 53.7049C173.047 54.6655 172.074 55.4448 171.113 55.4448Z" stroke="#A9A7E7" stroke-width="0.75" stroke-miterlimit="10"/>
<path d="M183.294 55.4448H179.465C178.504 55.4448 177.919 54.6655 178.159 53.7049L179.114 49.8767C179.354 48.916 180.327 48.1367 181.288 48.1367H185.116C186.077 48.1367 186.662 48.916 186.422 49.8767L185.467 53.7049C185.228 54.6655 184.255 55.4448 183.294 55.4448Z" fill="#26C6DA"/>
<path d="M195.474 55.4448H191.646C190.685 55.4448 190.1 54.6655 190.34 53.7049L191.294 49.8767C191.534 48.916 192.508 48.1367 193.468 48.1367H197.296C198.257 48.1367 198.843 48.916 198.603 49.8767L197.648 53.7049C197.409 54.6655 196.436 55.4448 195.474 55.4448Z" fill="white"/>
<path d="M168.25 66.9331H164.421C163.461 66.9331 162.875 66.1538 163.115 65.1931L164.07 61.365C164.31 60.4036 165.283 59.625 166.244 59.625H170.072C171.033 59.625 171.618 60.4043 171.378 61.365L170.423 65.1931C170.184 66.1538 169.21 66.9331 168.25 66.9331Z" fill="#26C6DA"/>
<path d="M165.192 79.2046H161.364C160.403 79.2046 159.818 78.4253 160.058 77.4646L161.012 73.6364C161.252 72.6758 162.225 71.8965 163.186 71.8965H167.014C167.975 71.8965 168.56 72.6758 168.32 73.6364L167.366 77.4646C167.126 78.426 166.153 79.2046 165.192 79.2046Z" fill="white"/>
<path d="M180.43 66.9331H176.602C175.641 66.9331 175.056 66.1538 175.296 65.1931L176.25 61.365C176.49 60.4036 177.464 59.625 178.424 59.625H182.252C183.213 59.625 183.799 60.4043 183.559 61.365L182.604 65.1931C182.365 66.1538 181.392 66.9331 180.43 66.9331Z" fill="#EDF4FF"/>
<path d="M175.094 88.3374H171.266C170.305 88.3374 169.72 87.5581 169.96 86.5974L170.915 82.7692C171.155 81.8086 172.128 81.0293 173.088 81.0293H176.916C177.878 81.0293 178.463 81.8086 178.223 82.7692L177.268 86.5974C177.029 87.5581 176.056 88.3374 175.094 88.3374Z" stroke="#A9A7E7" stroke-width="0.75" stroke-miterlimit="10"/>
<path d="M290.259 73.462H288.854C288.501 73.462 288.286 73.1758 288.374 72.8234L288.725 71.4179C288.813 71.0648 289.17 70.7793 289.523 70.7793H290.928C291.281 70.7793 291.496 71.0655 291.407 71.4179L291.057 72.8234C290.969 73.1765 290.612 73.462 290.259 73.462Z" fill="#CAE5FF"/>
<path d="M289.233 77.5831H287.827C287.474 77.5831 287.26 77.2969 287.348 76.9445L287.698 75.539C287.787 75.1859 288.144 74.9004 288.496 74.9004H289.902C290.255 74.9004 290.469 75.1866 290.381 75.539L290.031 76.9445C289.943 77.2969 289.586 77.5831 289.233 77.5831Z" fill="#CAE5FF"/>
<path d="M293.704 77.5831H292.299C291.946 77.5831 291.731 77.2969 291.82 76.9445L292.17 75.539C292.258 75.1859 292.615 74.9004 292.968 74.9004H294.373C294.726 74.9004 294.941 75.1866 294.853 75.539L294.502 76.9445C294.415 77.2969 294.058 77.5831 293.704 77.5831Z" fill="#CAE5FF"/>
<path d="M298.176 77.5831H296.771C296.418 77.5831 296.203 77.2969 296.291 76.9445L296.642 75.539C296.73 75.1859 297.087 74.9004 297.44 74.9004H298.845C299.198 74.9004 299.413 75.1866 299.324 75.539L298.974 76.9445C298.886 77.2969 298.529 77.5831 298.176 77.5831Z" fill="#CAE5FF"/>
<path d="M288.181 81.8057H286.776C286.422 81.8057 286.208 81.5195 286.296 81.1671L286.647 79.7616C286.735 79.4086 287.092 79.123 287.444 79.123H288.85C289.203 79.123 289.418 79.4092 289.329 79.7616L288.979 81.1671C288.891 81.5195 288.534 81.8057 288.181 81.8057Z" fill="#CAE5FF"/>
<path d="M287.058 86.3096H285.652C285.299 86.3096 285.085 86.0234 285.173 85.671L285.523 84.2656C285.612 83.9125 285.969 83.627 286.321 83.627H287.727C288.08 83.627 288.294 83.9131 288.206 84.2656L287.856 85.671C287.768 86.0241 287.41 86.3096 287.058 86.3096Z" fill="#CAE5FF"/>
<path d="M292.653 81.8057H291.247C290.894 81.8057 290.68 81.5195 290.768 81.1671L291.118 79.7616C291.206 79.4086 291.564 79.123 291.916 79.123H293.322C293.675 79.123 293.889 79.4092 293.801 79.7616L293.451 81.1671C293.363 81.5195 293.005 81.8057 292.653 81.8057Z" fill="#CAE5FF"/>
<path d="M290.693 89.6632H289.287C288.934 89.6632 288.72 89.377 288.808 89.0245L289.158 87.6191C289.247 87.266 289.604 86.9805 289.956 86.9805H291.362C291.715 86.9805 291.929 87.2667 291.841 87.6191L291.491 89.0245C291.403 89.3776 291.046 89.6632 290.693 89.6632Z" fill="#CAE5FF"/>
<path opacity="0.9" d="M289.809 126.714H243.605C243.119 126.714 242.764 126.256 242.887 125.785L247.2 109.213C247.285 108.886 247.58 108.658 247.918 108.658H294.122C294.607 108.658 294.963 109.117 294.84 109.587L290.527 126.159C290.442 126.486 290.147 126.714 289.809 126.714Z" fill="#BFD9FF"/>
<path d="M249.942 112.203H266.02" stroke="#A9C2FF" stroke-width="1.076" stroke-miterlimit="10" stroke-linecap="round" stroke-linejoin="round"/>
<path d="M248.705 119.627H264.783" stroke="#A9C2FF" stroke-width="1.076" stroke-miterlimit="10" stroke-linecap="round" stroke-linejoin="round"/>
<path d="M255.466 116.82H271.543" stroke="#A9C2FF" stroke-width="1.076" stroke-miterlimit="10" stroke-linecap="round" stroke-linejoin="round"/>
<path d="M249.529 114.678H254.353" stroke="#A9C2FF" stroke-width="1.076" stroke-miterlimit="10" stroke-linecap="round" stroke-linejoin="round"/>
<path d="M248.87 116.82H253.693" stroke="#A9C2FF" stroke-width="1.076" stroke-miterlimit="10" stroke-linecap="round" stroke-linejoin="round"/>
<path d="M268.574 112.203H274.304" stroke="#A9C2FF" stroke-width="1.076" stroke-miterlimit="10" stroke-linecap="round" stroke-linejoin="round"/>
<path d="M271.382 123.105H262.825C262.782 123.105 262.751 123.065 262.762 123.023L263.145 121.552C263.152 121.523 263.179 121.502 263.209 121.502H271.765C271.809 121.502 271.84 121.543 271.829 121.585L271.447 123.056C271.439 123.085 271.413 123.105 271.382 123.105Z" stroke="#84AEE5" stroke-width="0.3587" stroke-miterlimit="10"/>
<path d="M260.748 123.105H252.191C252.147 123.105 252.116 123.065 252.127 123.023L252.51 121.552C252.518 121.523 252.544 121.502 252.573 121.502H261.13C261.174 121.502 261.205 121.543 261.194 121.585L260.811 123.056C260.804 123.085 260.777 123.105 260.748 123.105Z" stroke="#84AEE5" stroke-width="0.3587" stroke-miterlimit="10"/>
<path d="M286.421 120.973C285.983 120.389 284.204 119.964 283.712 119.38C283.461 119.082 283.461 118.527 283.521 118.056C283.696 117.944 283.841 117.833 283.928 117.729C284.075 117.513 284.242 117.211 284.409 116.88C284.459 116.93 284.527 116.968 284.614 116.966C284.848 116.959 285.737 115.748 285.508 115.468C285.377 115.307 285.165 115.447 285.008 115.596C285.243 115.056 285.408 114.643 285.408 114.643H285.399C285.421 114.575 285.442 114.507 285.459 114.438C285.812 113.023 284.951 111.875 283.536 111.875C282.121 111.875 280.688 113.023 280.335 114.438C280.317 114.507 280.304 114.576 280.293 114.643H280.284C280.284 114.643 280.243 115.056 280.21 115.596C280.126 115.447 279.984 115.308 279.773 115.468C279.404 115.749 279.69 116.959 279.92 116.966C280.006 116.969 280.093 116.93 280.167 116.88C280.169 117.211 280.185 117.513 280.225 117.729C280.268 117.856 280.391 117.995 280.553 118.131C280.377 118.585 280.108 119.098 279.729 119.38C278.946 119.964 276.955 120.389 276.225 120.973C275.569 121.499 274.983 123.033 274.872 123.337H286.597C286.636 123.033 286.816 121.499 286.421 120.973Z" fill="#387AB6"/>
<path d="M227.16 120.802H189.246C185.918 120.802 183.892 118.103 184.722 114.775C185.552 111.447 188.923 108.748 192.251 108.748H230.165C233.493 108.748 235.519 111.447 234.689 114.775C233.859 118.103 230.488 120.802 227.16 120.802Z" fill="white"/>
<path d="M193.268 116.345L191.642 117.101C191.489 117.172 191.36 117.057 191.423 116.906L192.097 115.306C192.122 115.246 192.118 115.185 192.085 115.142L191.205 114.008C191.122 113.902 191.229 113.716 191.385 113.694L193.051 113.46C193.113 113.451 193.174 113.414 193.215 113.36L194.296 111.904C194.398 111.766 194.593 111.766 194.627 111.904L194.983 113.36C194.996 113.414 195.039 113.452 195.097 113.46L196.646 113.694C196.791 113.716 196.806 113.902 196.669 114.008L195.224 115.142C195.17 115.184 195.135 115.246 195.13 115.306L195.006 116.906C194.994 117.057 194.807 117.172 194.69 117.101L193.441 116.345C193.393 116.317 193.329 116.317 193.268 116.345Z" fill="#FFA402"/>
<path d="M201.273 116.345L199.647 117.101C199.494 117.172 199.365 117.057 199.428 116.906L200.102 115.306C200.127 115.246 200.122 115.185 200.089 115.142L199.209 114.008C199.127 113.902 199.234 113.716 199.39 113.694L201.056 113.46C201.118 113.451 201.179 113.414 201.22 113.36L202.301 111.904C202.403 111.766 202.598 111.766 202.632 111.904L202.988 113.36C203.001 113.414 203.044 113.452 203.102 113.46L204.651 113.694C204.796 113.716 204.811 113.902 204.675 114.008L203.229 115.142C203.176 115.184 203.14 115.246 203.136 115.306L203.011 116.906C202.999 117.057 202.812 117.172 202.695 117.101L201.446 116.345C201.398 116.317 201.333 116.317 201.273 116.345Z" fill="#FFA402"/>
<path d="M209.277 116.345L207.651 117.101C207.498 117.172 207.368 117.057 207.432 116.906L208.106 115.306C208.131 115.246 208.126 115.185 208.093 115.142L207.213 114.008C207.131 113.902 207.237 113.716 207.394 113.694L209.059 113.46C209.122 113.451 209.183 113.414 209.224 113.36L210.305 111.904C210.407 111.766 210.602 111.766 210.635 111.904L210.991 113.36C211.004 113.414 211.047 113.452 211.105 113.46L212.654 113.694C212.799 113.716 212.814 113.902 212.677 114.008L211.232 115.142C211.178 115.184 211.143 115.246 211.138 115.306L211.013 116.906C211.002 117.057 210.815 117.172 210.697 117.101L209.448 116.345C209.402 116.317 209.337 116.317 209.277 116.345Z" fill="#FFA402"/>
<path d="M217.282 116.345L215.656 117.101C215.503 117.172 215.373 117.057 215.437 116.906L216.111 115.306C216.136 115.246 216.131 115.185 216.098 115.142L215.218 114.008C215.135 113.902 215.242 113.716 215.399 113.694L217.064 113.46C217.126 113.451 217.188 113.414 217.228 113.36L218.31 111.904C218.412 111.766 218.607 111.766 218.64 111.904L218.996 113.36C219.009 113.414 219.052 113.452 219.11 113.46L220.659 113.694C220.804 113.716 220.819 113.902 220.683 114.008L219.237 115.142C219.184 115.184 219.148 115.246 219.144 115.306L219.019 116.906C219.007 117.057 218.82 117.172 218.703 117.101L217.454 116.345C217.407 116.317 217.343 116.317 217.282 116.345Z" fill="#FFA402"/>
<path d="M225.286 116.345L223.661 117.101C223.508 117.172 223.378 117.057 223.442 116.906L224.115 115.306C224.14 115.246 224.136 115.185 224.103 115.142L223.223 114.008C223.14 113.902 223.247 113.716 223.404 113.694L225.069 113.46C225.131 113.451 225.192 113.414 225.233 113.36L226.314 111.904C226.416 111.766 226.611 111.766 226.645 111.904L227.001 113.36C227.014 113.414 227.057 113.452 227.115 113.46L228.664 113.694C228.809 113.716 228.824 113.902 228.687 114.008L227.242 115.142C227.188 115.184 227.153 115.246 227.148 115.306L227.023 116.906C227.011 117.057 226.824 117.172 226.707 117.101L225.458 116.345C225.412 116.317 225.348 116.317 225.286 116.345Z" fill="#C2D4D9"/>
<path d="M133.932 97.5522C135.663 97.5522 137.067 95.5962 137.067 93.1833C137.067 90.7705 135.663 88.8145 133.932 88.8145C132.201 88.8145 130.798 90.7705 130.798 93.1833C130.798 95.5962 132.201 97.5522 133.932 97.5522Z" fill="#5161B3"/>
<path d="M134.407 93.5625C134.407 93.5625 143.145 103.25 143.145 104.77C143.145 106.289 140.295 106.099 140.295 106.099" stroke="#5161B3" stroke-width="1.1018" stroke-miterlimit="10"/>
<path d="M140.96 106.097C140.96 106.727 140.449 107.237 139.82 107.237C139.19 107.237 138.68 106.727 138.68 106.097C138.68 105.467 139.19 104.957 139.82 104.957C140.449 104.957 140.96 105.467 140.96 106.097Z" fill="#5161B3"/>
<path d="M118.872 219.49C121.975 224.844 131.711 228.753 143.248 228.753C154.785 228.753 164.521 224.844 167.624 219.49H118.872Z" fill="#4F57A0"/>
<path d="M184.685 192.023L178.835 218.999H175.26L178.51 192.674L184.685 192.023Z" fill="#A9A7E7"/>
<path d="M195.41 194.299H143.04V187.799H190.209C193.082 187.799 195.409 190.127 195.409 192.999L195.41 194.299Z" fill="#7A82CC"/>
<path d="M100.181 216.079L87.5059 155.12C87.0025 152.699 88.8514 150.426 91.3244 150.426H133.266C135.576 150.426 137.569 152.047 138.039 154.308L150.882 216.078" fill="#A9A7E7"/>
<path d="M186.314 222.765H106.666C103.978 222.765 101.613 220.991 100.861 218.41L100.181 216.078H186.314V222.765H186.314Z" fill="#A9A7E7"/>
<path d="M147.147 225.826H140.81V282.379H147.147V225.826Z" fill="#E2E7FF"/>
<path d="M147.147 236.308L140.81 241.427V225.826H147.147V236.308Z" fill="#4F57A0"/>
<path d="M146.954 273.949H144.636H144.056H141.738L117.98 283.382H170.712L146.954 273.949Z" fill="#E2E7FF"/>
<path d="M93.0947 154.594H130.794" stroke="#4F57A0" stroke-miterlimit="10"/>
<path d="M134.702 158.961L141.139 191.374" stroke="#4F57A0" stroke-miterlimit="10"/>
<path d="M142.288 197.123L143.667 206.548" stroke="#4F57A0" stroke-miterlimit="10"/>
<path d="M318.038 100.114H287.681C286.115 100.114 284.919 98.7155 285.164 97.1686L285.393 95.7135C285.589 94.4749 286.657 93.5625 287.91 93.5625H318.268C319.833 93.5625 321.029 94.9618 320.785 96.508L320.555 97.9631C320.359 99.2017 319.292 100.114 318.038 100.114Z" fill="#CAE5FF"/>
<path d="M288.952 96.8926H315.158" stroke="white" stroke-width="2" stroke-miterlimit="10"/>
<path d="M207.463 62.4141H199.188C195.252 62.4141 191.383 65.6043 190.546 69.5401C189.71 73.4758 192.222 76.6661 196.158 76.6661H197.955C199.962 81.4191 204.703 80.8039 204.703 80.8039C203.807 79.0171 203.616 77.5868 203.622 76.6661H204.434C208.369 76.6661 212.238 73.4758 213.075 69.5401C213.911 65.605 211.399 62.4141 207.463 62.4141Z" fill="#FF634D"/>
<path d="M195.667 68.1602H203.483" stroke="white" stroke-width="2" stroke-miterlimit="10"/>
<path d="M195.007 71.2637H207.707" stroke="white" stroke-width="2" stroke-miterlimit="10"/>
</svg>
