<svg width="352" height="253" viewBox="0 0 352 253" fill="none" xmlns="http://www.w3.org/2000/svg">
<g clip-path="url(#clip0_11404_170502)">
<path d="M321.423 231.054C321.423 231.054 388.498 154.551 317.287 133.627C299.35 128.357 293.092 54.5711 213.418 91.4641C181.733 106.136 136.108 88.3811 92.4166 98.0854C52.2909 106.998 51.3685 132.706 56.4419 141.961C61.9855 152.074 39.879 164.164 17.2387 172.468C-18.2748 185.494 7.83988 231.271 41.3899 231.49C74.9397 231.709 321.423 231.054 321.423 231.054Z" fill="#EBF3FA"/>
<path d="M35.4131 109.111H45.834C48.5755 109.111 50.8184 106.868 50.8184 104.127V95.543C50.8184 92.8015 48.5753 90.5586 45.834 90.5586H35.4131C32.6718 90.5586 30.4287 92.8015 30.4287 95.543V104.127C30.4286 106.868 32.6716 109.111 35.4131 109.111Z" fill="#A6D9F1"/>
<path d="M45.4989 94.8125H35.7488C34.2268 94.8125 32.9814 96.0577 32.9814 97.5798V99.9685C32.9814 101.403 34.091 102.577 35.4919 102.71L34.3122 106.139L40.4754 102.736H45.4989C47.0209 102.736 48.2663 101.491 48.2663 99.9685V97.5798C48.2663 96.0577 47.0209 94.8125 45.4989 94.8125Z" fill="#E69D43"/>
<path d="M45.8504 98.4028H35.1103C34.7934 98.4028 34.5342 98.1436 34.5342 97.8267V97.7988C34.5342 97.4819 34.7934 97.2227 35.1103 97.2227H45.8503C46.1671 97.2227 46.4264 97.4819 46.4264 97.7988V97.8267C46.4265 98.1436 46.1671 98.4028 45.8504 98.4028Z" fill="#CA5F00"/>
<path d="M45.8504 100.313H35.1103C34.7934 100.313 34.5342 100.054 34.5342 99.7368V99.7089C34.5342 99.392 34.7934 99.1328 35.1103 99.1328H45.8503C46.1671 99.1328 46.4264 99.392 46.4264 99.7089V99.7368C46.4265 100.054 46.1671 100.313 45.8504 100.313Z" fill="#CA5F00"/>
<path d="M291.748 64.4531H281.327C278.586 64.4531 276.343 66.696 276.343 69.4375V78.0215C276.343 80.763 278.586 83.0059 281.327 83.0059H291.748C294.49 83.0059 296.732 80.763 296.732 78.0215V69.4375C296.732 66.6962 294.489 64.4531 291.748 64.4531Z" fill="#A6D9F1"/>
<path d="M291.956 73.5789C291.39 75.0717 286.534 78.9915 286.534 78.9915C286.534 78.9915 284.952 77.7059 283.486 76.3212C282.389 75.2963 281.365 74.2172 281.122 73.5788C280.546 72.0953 281.158 69.9733 283.28 69.6138C285.393 69.254 286.534 71.466 286.534 71.466C286.534 71.466 287.676 69.254 289.798 69.6138C290.167 69.6768 290.49 69.7935 290.769 69.9556C292.091 70.6929 292.424 72.3563 291.956 73.5789Z" fill="#D6716B"/>
<path d="M291.957 73.5804C291.39 75.0731 286.535 78.9929 286.535 78.9929C286.535 78.9929 284.953 77.7073 283.487 76.3226C289.269 74.7042 290.509 71.3594 290.77 69.957C292.092 70.6943 292.424 72.3577 291.957 73.5804Z" fill="#AA443E"/>
<path d="M30.4287 66.4822C30.4287 66.4822 41.9012 65.0528 48.9115 71.5112C55.922 77.9695 68.9817 72.0835 74.2399 71.5112C83.3824 70.5162 90.5496 73.5074 92.6753 76.7953V86.6588H30.4287V66.4822Z" fill="#EE9849"/>
<path d="M39.8014 50.6094H39.3208V66.0115H39.8014V50.6094Z" fill="#A6C7F9"/>
<path d="M58.6682 57.2188H58.1875V72.6209H58.6682V57.2188Z" fill="#A6C7F9"/>
<path d="M78.1354 53.7344H77.6548V69.1365H78.1354V53.7344Z" fill="#A6C7F9"/>
<path d="M45.1693 52.969H41.4842C41.2638 52.969 41.0835 52.7888 41.0835 52.5685C41.0835 52.3482 41.2637 52.168 41.4842 52.168H45.1693C45.3894 52.168 45.5698 52.3482 45.5698 52.5685C45.5696 52.7888 45.3894 52.969 45.1693 52.969Z" fill="#A6C7F9"/>
<path d="M45.1693 54.4143H41.4842C41.2638 54.4143 41.0835 54.2341 41.0835 54.0138C41.0835 53.7935 41.2637 53.6133 41.4842 53.6133H45.1693C45.3894 53.6133 45.5698 53.7935 45.5698 54.0138C45.5696 54.2341 45.3894 54.4143 45.1693 54.4143Z" fill="#A6C7F9"/>
<path d="M63.7551 60.8245H60.0699C59.8498 60.8245 59.6694 60.6443 59.6694 60.424C59.6694 60.2036 59.8498 60.0234 60.0699 60.0234H63.7551C63.9752 60.0234 64.1556 60.2036 64.1556 60.424C64.1556 60.6443 63.9752 60.8245 63.7551 60.8245Z" fill="#A6C7F9"/>
<path d="M63.7551 62.2385H60.0699C59.8498 62.2385 59.6694 62.0583 59.6694 61.838C59.6694 61.6177 59.8498 61.4375 60.0699 61.4375H63.7551C63.9752 61.4375 64.1556 61.6177 64.1556 61.838C64.1556 62.0583 63.9752 62.2385 63.7551 62.2385Z" fill="#A6C7F9"/>
<path d="M83.5427 55.016H79.8575C79.6374 55.016 79.457 54.8357 79.457 54.6154C79.457 54.395 79.6372 54.2148 79.8575 54.2148H83.5427C83.763 54.2148 83.9432 54.3952 83.9432 54.6154C83.9432 54.8357 83.763 55.016 83.5427 55.016Z" fill="#A6C7F9"/>
<path d="M83.5427 56.426H79.8575C79.6374 56.426 79.457 56.2458 79.457 56.0255C79.457 55.8052 79.6372 55.625 79.8575 55.625H83.5427C83.763 55.625 83.9432 55.8052 83.9432 56.0255C83.9432 56.2458 83.763 56.426 83.5427 56.426Z" fill="#A6C7F9"/>
<path d="M317.887 174.707H261.561V141.426H262.261V174.007H317.887V174.707Z" fill="#A6C7F9"/>
<path d="M279.167 162.673C272.272 157.184 264.939 162.673 264.939 162.673V172.056H316.488V147.801C302.479 148.155 286.062 168.161 279.167 162.673Z" fill="#A6C7F9"/>
<path d="M265.53 143.961H289.549C289.874 143.961 290.139 143.696 290.139 143.371C290.139 143.047 289.874 142.781 289.549 142.781H265.53C265.205 142.781 264.939 143.047 264.939 143.371C264.939 143.696 265.205 143.961 265.53 143.961Z" fill="#A6C7F9"/>
<path d="M265.53 146.848H289.549C289.874 146.848 290.139 146.583 290.139 146.258C290.139 145.933 289.874 145.668 289.549 145.668H265.53C265.205 145.668 264.939 145.933 264.939 146.258C264.939 146.583 265.205 146.848 265.53 146.848Z" fill="#A6C7F9"/>
<path d="M265.422 149.567H281.327C281.592 149.567 281.81 149.35 281.81 149.084V148.87C281.81 148.604 281.592 148.387 281.327 148.387H265.422C265.157 148.387 264.939 148.604 264.939 148.87V149.084C264.939 149.35 265.157 149.567 265.422 149.567Z" fill="#A6C7F9"/>
<path d="M234.273 2.39453H225.255V58.5691H234.273V2.39453Z" fill="#A6C7F9"/>
<path d="M249.047 -13.2617H240.029V58.571H249.047V-13.2617Z" fill="#A6C7F9"/>
<path d="M265.166 15.9805H256.148V58.5703H265.166V15.9805Z" fill="#A6C7F9"/>
<path d="M280.852 -3.66797H271.834V58.5746H280.852V-3.66797Z" fill="#A6C7F9"/>
<path d="M296.62 24.3164H287.603V58.5703H296.62V24.3164Z" fill="#A6C7F9"/>
<path d="M264.477 7.59766H256.84C256.405 7.59766 256.05 7.95315 256.05 8.38769C256.05 8.82222 256.405 9.17771 256.84 9.17771H264.477C264.911 9.17771 265.267 8.82222 265.267 8.38769C265.267 7.95315 264.911 7.59766 264.477 7.59766Z" fill="#A6C7F9"/>
<path d="M258.579 10.4766H256.84C256.405 10.4766 256.05 10.8321 256.05 11.2666C256.05 11.7011 256.405 12.0566 256.84 12.0566H258.579C259.014 12.0566 259.369 11.7011 259.369 11.2666C259.369 10.8321 259.014 10.4766 258.579 10.4766Z" fill="#A6C7F9"/>
<path d="M295.93 15.9844H288.293C287.859 15.9844 287.503 16.3399 287.503 16.7744C287.503 17.2089 287.859 17.5644 288.293 17.5644H295.93C296.364 17.5644 296.72 17.2089 296.72 16.7744C296.72 16.3399 296.364 15.9844 295.93 15.9844Z" fill="#A6C7F9"/>
<path d="M290.032 18.8555H288.293C287.859 18.8555 287.503 19.211 287.503 19.6455C287.503 20.08 287.859 20.4355 288.293 20.4355H290.032C290.467 20.4355 290.822 20.08 290.822 19.6455C290.822 19.211 290.467 18.8555 290.032 18.8555Z" fill="#A6C7F9"/>
<path d="M220.575 46.8672H114.434V206.94H220.575V46.8672Z" fill="#D2E4FF"/>
<path d="M210.145 55.8203H124.689V151.072H210.145V55.8203Z" fill="#F3F9FF"/>
<path d="M156.081 187.384C159.329 179.542 155.605 170.552 147.763 167.303C139.921 164.055 130.931 167.779 127.682 175.621C124.434 183.463 128.158 192.454 136 195.702C143.842 198.95 152.832 195.226 156.081 187.384Z" fill="#F3F9FF"/>
<path d="M154.865 181.5C154.865 174.325 149.049 168.508 141.875 168.508C134.699 168.508 128.883 174.325 128.883 181.5C128.883 188.674 134.699 194.491 141.875 194.491C144.839 194.491 147.569 193.5 149.754 191.829L141.875 181.5L154.015 186.133C154.564 184.694 154.865 183.132 154.865 181.5Z" fill="#A8D29F"/>
<path d="M209.195 185.056C211.145 176.795 206.03 168.517 197.769 166.567C189.509 164.616 181.231 169.732 179.281 177.992C177.33 186.253 182.445 194.53 190.706 196.481C198.966 198.431 207.244 193.316 209.195 185.056Z" fill="#F3F9FF"/>
<path d="M194.239 168.508C187.063 168.508 181.247 174.325 181.247 181.5C181.247 185.051 182.67 188.267 184.98 190.612L194.239 181.5L206.379 186.133C206.928 184.694 207.229 183.132 207.229 181.5C207.229 174.325 201.413 168.508 194.239 168.508Z" fill="#A8D29F"/>
<path d="M192.34 174.91H186.81C186.593 174.91 186.415 175.088 186.415 175.305C186.415 175.523 186.593 175.7 186.81 175.7H192.34C192.557 175.7 192.735 175.523 192.735 175.305C192.735 175.088 192.557 174.91 192.34 174.91Z" fill="#82B378"/>
<path d="M192.34 176.16H186.81C186.593 176.16 186.415 176.338 186.415 176.555C186.415 176.772 186.593 176.95 186.81 176.95H192.34C192.557 176.95 192.735 176.772 192.735 176.555C192.735 176.338 192.557 176.16 192.34 176.16Z" fill="#82B378"/>
<path d="M189.094 177.41H186.81C186.593 177.41 186.415 177.588 186.415 177.805C186.415 178.022 186.593 178.2 186.81 178.2H189.094C189.311 178.2 189.489 178.022 189.489 177.805C189.489 177.588 189.311 177.41 189.094 177.41Z" fill="#82B378"/>
<path d="M139.869 174.91H134.339C134.122 174.91 133.944 175.088 133.944 175.305C133.944 175.523 134.122 175.7 134.339 175.7H139.869C140.087 175.7 140.264 175.523 140.264 175.305C140.264 175.088 140.087 174.91 139.869 174.91Z" fill="#82B378"/>
<path d="M139.869 176.16H134.339C134.122 176.16 133.944 176.338 133.944 176.555C133.944 176.772 134.122 176.95 134.339 176.95H139.869C140.087 176.95 140.264 176.772 140.264 176.555C140.264 176.338 140.087 176.16 139.869 176.16Z" fill="#82B378"/>
<path d="M136.623 177.41H134.339C134.122 177.41 133.944 177.588 133.944 177.805C133.944 178.022 134.122 178.2 134.339 178.2H136.623C136.84 178.2 137.018 178.022 137.018 177.805C137.018 177.588 136.84 177.41 136.623 177.41Z" fill="#82B378"/>
<path d="M90.5015 218.16L92.3168 225.806L95.0362 225.791L95.1359 218.16H90.5015Z" fill="#FFB27D"/>
<path d="M113.375 218.483L118.54 225.803L120.554 223.218L117.445 217.477L113.375 218.483Z" fill="#FFB27D"/>
<path d="M99.9456 117.684C99.0069 117.151 97.8818 117.092 97.0951 117.139C97.2977 116.93 97.6963 116.853 97.6963 116.853C97.2083 116.781 96.1192 117.265 96.1192 117.265C89.3319 114.65 88.2651 124.643 88.4079 126.965C88.5494 129.287 86.1271 130.045 82.5958 131.874C75.8583 135.365 75.2666 140.038 75.2666 140.038C75.319 140.069 75.3739 140.105 75.4322 140.145C75.7665 139.578 76.4546 138.515 77.0349 138.354C77.0129 138.406 76.3491 139.819 76.1015 140.628C78.0892 142.14 81.8075 145.49 84.399 147.866C84.3875 147.401 84.4059 146.742 84.5755 146.394L84.8957 148.322C86.2823 149.597 87.2387 150.494 87.2387 150.494C87.0674 148.617 95.7243 138.716 100.241 135.751C101.34 134.132 101.731 131.273 101.76 131.048C101.571 133.315 101.183 134.587 100.836 135.303C104.66 131.783 102.434 119.098 99.9456 117.684Z" fill="#163560"/>
<path d="M99.973 135.898C99.9956 135.908 97.7923 137.052 96.135 136.599C94.5761 136.174 93.5576 134.152 93.5789 134.148C94.2391 134.017 94.4294 133.109 94.4155 129.211L94.7139 129.27L99.7322 130.263C99.7322 130.263 99.6181 131.843 99.6147 133.33C99.6113 134.58 99.687 135.764 99.973 135.898Z" fill="#FFB27D"/>
<path d="M94.2983 119.318C94.2983 119.318 96.7739 116.682 99.8819 119.183C99.8819 119.183 98.073 118.87 94.2983 119.318Z" fill="#E37970"/>
<path d="M99.7321 130.263C99.7321 130.263 99.6181 131.843 99.6146 133.33C96.8065 133.251 95.3222 130.689 94.7139 129.27L99.7321 130.263Z" fill="#D68D5D"/>
<path d="M94.1956 128.721C94.1956 128.721 92.724 126.396 92.3707 124.408C92.1185 122.988 92.8415 117.727 98.129 118.484C98.129 118.484 99.6646 118.636 101.108 119.611C102.256 120.386 103.913 122.06 102.061 126.651L101.579 128.202L94.1956 128.721Z" fill="#163560"/>
<path d="M119.734 221.215L117.074 221.296L114.194 221.384C114.194 221.384 107.544 213.979 103.813 202.109C103.726 201.833 103.634 201.554 103.537 201.271C101.495 195.318 97.2629 187.846 95.0323 181.082C94.6774 180.004 94.3584 178.99 94.0725 178.031C93.981 177.723 93.8915 177.421 93.8068 177.124C92.1631 171.413 91.6872 167.663 91.2485 163.656L107.355 163.785C107.355 163.785 109.955 191.143 119.734 221.215Z" fill="#80BDCC"/>
<path d="M105.1 154.531C105.059 162.196 106.224 165.484 106.224 165.484C106.224 165.484 99.3282 168.988 91.1321 166.409C91.0356 166.378 84.3457 164.851 84.3457 164.851C84.483 164.541 85.7026 159.376 85.8363 159.092C87.5667 155.375 88.8807 153.746 89.086 152.604C89.4668 150.471 89.4751 148.264 89.2852 146.182C88.7852 140.672 87.2978 136.099 87.2978 136.099C89.5311 135.59 91.6803 134.721 94.0046 133.85C94.5393 134.515 96.1158 135.188 97.5336 135.156C99.1663 135.121 99.6761 134.43 99.6161 133.652C101.356 134.62 102.739 135.541 102.739 135.541C104.218 138.11 107.216 140.604 107.434 144.544C107.487 145.513 105.101 154.317 105.1 154.531Z" fill="#E7F1FD"/>
<path d="M91.2485 155.382C90.5445 156.378 89.1947 162.435 85.8364 163.196C87.5668 158.88 88.8808 156.987 89.0861 155.66C89.4669 153.182 89.4752 150.619 89.2853 148.201C90.4095 146.231 91.2485 144.88 91.2485 144.88C91.3368 144.561 93.0351 139.31 93.5793 144.004C94.1222 148.699 92.035 154.267 91.2485 155.382Z" fill="#5F9AA8"/>
<path d="M100.67 131.676C100.67 131.676 94.026 131.786 94.0214 127.647C94.0168 123.508 93.1562 120.735 97.3981 120.49C101.64 120.245 102.466 121.823 102.803 123.205C103.141 124.586 102.398 131.541 100.67 131.676Z" fill="#FFB27D"/>
<path d="M102.606 120.898C101.581 119.655 100.805 119.926 100.37 120.299C98.9342 118.153 94.3963 121.256 94.3963 121.256C93.952 124.226 91.8105 125.927 91.8105 125.927C91.8105 125.927 93.0216 126.675 95.8133 125.957C98.0105 125.392 99.6048 122.265 100.184 120.958C100.579 121.309 101.413 122.121 101.663 122.916C101.994 123.97 102.143 126.139 102.776 126.066C102.776 126.065 104.146 122.765 102.606 120.898Z" fill="#163560"/>
<path d="M92.2255 225.375C92.2255 225.375 92.4445 226.889 91.8792 228.51C91.8792 228.51 91.4341 230.538 93.4313 230.575C95.4286 230.613 95.9185 230.425 95.6922 229.181C95.4661 227.938 95.0361 225.787 95.0361 225.787L92.2255 225.375Z" fill="#FFB27D"/>
<path d="M95.8811 231.574C95.8811 231.574 95.8789 231.575 95.8746 231.578H91.7423C91.738 231.575 91.7358 231.574 91.7358 231.574C91.5098 230.513 91.8791 228.515 91.8791 228.515C94.1408 230.678 95.5563 228.461 95.5563 228.461C95.9235 229.386 95.8811 231.574 95.8811 231.574Z" fill="#C45446"/>
<path d="M125.367 229.48C125.367 229.48 121.684 225.298 120.554 223.219L117.816 224.621L123.936 230.369L125.368 230.181L125.367 229.48Z" fill="#FFB27D"/>
<path d="M127.625 231.566H122.516C122.067 231.161 121.637 230.344 121.112 229.273C120.811 228.659 120.136 228.321 119.444 228.135V231.566H118.387L117.408 227.918C116.757 226.696 117.246 225.575 117.705 224.609C118.238 224.608 119.785 224.994 122.505 228.119C123.399 229.145 124.386 229.512 125.367 229.481C125.38 229.49 125.394 229.497 125.407 229.503C126.956 230.213 127.461 231.087 127.625 231.566Z" fill="#C45446"/>
<path d="M127.377 138.543C127.377 138.543 123.016 140.982 121.458 141.685C120.904 141.935 119.9 142.402 118.875 142.881C118.256 143.17 117.629 143.464 117.087 143.72C116.171 144.15 115.081 143.914 114.423 143.145C112.062 140.388 105.95 134.411 99.6384 133.662L99.6165 133.652C99.6165 133.652 99.6176 133.655 99.6194 133.659C99.6167 133.659 99.614 133.659 99.6113 133.658L99.6462 133.726C100.001 134.608 103.461 143.253 103.568 145.077C103.681 146.999 104.021 176.505 104.021 176.505C104.021 176.505 103.794 177.861 106.395 177.296C108.995 176.731 109.673 176.165 109.673 176.165C109.673 176.165 107.186 157.964 107.864 151.634C107.997 150.391 107.877 148.995 107.599 147.554C111.443 149.882 115.975 150.918 115.975 150.918C115.975 150.918 117.666 150.18 120.292 148.553C121.395 147.868 122.674 146.777 123.933 145.624C125.453 144.23 128.07 140.862 128.07 140.862L127.377 138.543Z" fill="#739AF0"/>
<path d="M117.074 221.292L114.195 221.38C114.195 221.38 107.544 213.975 103.813 202.105C103.726 201.829 103.635 201.55 103.537 201.268C101.496 195.314 97.2632 187.842 95.0326 181.078C94.6777 180.001 94.3587 178.987 94.0727 178.027C93.9812 177.719 93.8918 177.417 93.8071 177.12L96.1788 175.32C96.1788 175.32 103.3 186.852 105.504 197.703C107.419 207.129 115.089 218.472 117.074 221.292Z" fill="#5F9AA8"/>
<path d="M96.4266 198.715C96.4673 203.993 96.2005 216.125 95.5131 221.148H92.9627C91.553 221.148 90.8498 221.128 90.8498 221.128C89.1258 212.394 87.8991 205.168 87.0061 198.942C86.2736 193.832 85.6225 189.451 85.1215 185.68C84.6173 181.885 84.2669 178.707 84.1415 176.022C84.1222 175.599 84.1076 175.188 84.0996 174.788C84.0917 174.387 84.0895 173.997 84.0928 173.618L98.0092 172.262C97.8341 181.508 96.404 195.648 96.4266 198.715Z" fill="#80BDCC"/>
<path d="M92.9628 221.146C91.5532 221.146 90.8499 221.125 90.8499 221.125C89.1259 212.392 87.8992 205.166 87.0062 198.939C86.2737 193.829 85.6226 189.449 85.1216 185.677C84.6174 181.882 84.267 178.704 84.1416 176.02L89.248 179.023C89.248 179.023 85.9888 180.173 87.2323 188.878C88.4759 197.583 91.232 219.913 92.9628 221.146Z" fill="#5F9AA8"/>
<path d="M93.62 175.937C93.62 175.937 92.6398 179.479 89.2484 179.027C85.8568 178.575 81.0342 176.54 81.0342 176.54C81.0342 176.54 82.4835 171.96 84.2855 165.944C86.4674 158.66 89.1682 149.27 90.441 143.347C90.7983 141.688 91.0425 140.302 91.1328 139.309L94.0049 133.848C94.0049 133.848 98.1419 143.266 98.3679 145.64C98.5942 148.014 93.62 175.937 93.62 175.937Z" fill="#739AF0"/>
<path d="M105.732 148.292C104.1 148.506 103.474 149.374 103.272 150.544C103.164 151.176 102.838 151.799 102.562 152.241C100.936 152.328 97.0635 152.539 93.8103 152.745L93.542 157.012C96.2144 156.679 99.4986 156.001 103.278 154.707C103.569 154.657 103.932 154.477 104.386 154.105C106.728 152.187 108.058 148.974 108.062 148.514C108.066 148.054 107.364 148.077 105.732 148.292Z" fill="#FFB27D"/>
<path d="M93.4693 150.614C93.3178 154.458 92.4135 161.919 84.3496 165.913C84.3281 165.924 84.3067 165.935 84.2852 165.944C86.467 158.66 89.1678 149.27 90.4406 143.348C91.9216 145.561 93.5517 148.498 93.4693 150.614Z" fill="#4A75CB"/>
<path d="M94.0051 133.848C94.0051 133.848 87.5467 134.567 85.4492 138.03C81.2544 144.954 82.7493 154.662 85.3737 157.625C85.3737 157.625 88.2791 158.452 93.4177 157.492C93.4807 157.48 93.544 157.468 93.6075 157.455C93.6075 157.455 95.2467 153.442 93.777 152.651C93.777 152.651 89.4435 152.877 89.8957 151.445C90.348 150.013 94.0051 133.848 94.0051 133.848Z" fill="#739AF0"/>
<path d="M132.052 135.64C128.341 135.163 127.404 138.539 127.404 138.539L128.097 140.857C129.241 141.015 130.242 140.717 131.164 139.397C132.087 138.077 132.341 138.584 132.927 137.602C133.722 136.27 132.478 135.773 132.052 135.64Z" fill="#FFB27D"/>
<path d="M121.457 141.684C120.903 141.934 119.9 142.401 118.874 142.88C119.423 143.855 120.109 145.625 120.292 148.552C121.394 147.868 122.822 146.729 124.041 145.532C125.996 143.613 128.07 140.861 128.07 140.861L127.377 138.543C127.377 138.543 123.015 140.982 121.457 141.684Z" fill="#FFB27D"/>
<path d="M227.23 168.742C227.23 168.742 224.591 169.42 222.914 168.915C221.236 168.409 218.349 169.239 217.884 169.851C217.419 170.463 217.59 170.706 218.419 170.917C219.249 171.128 222.188 172.382 224.12 171.656C226.052 170.93 228.572 170.904 228.572 170.904L227.23 168.742Z" fill="#E49963"/>
<path d="M250.037 145.816C250.037 145.816 247.073 166.886 242.164 168.773C239.742 169.704 229.038 171.815 225.871 172.027C225.871 172.027 225.096 171.397 225.285 168.836C225.285 168.836 236.5 164.719 238.093 162.48C240.464 159.147 236.621 148.866 239.596 145.736C242.572 142.606 247.583 141.261 250.037 145.816Z" fill="#C45446"/>
<path d="M249.659 227V222.406H256.891C257.086 222.406 257.246 222.247 257.246 222.051V221.316C257.246 221.12 257.086 220.961 256.891 220.961H249.659V194.811C249.659 194.077 249.058 193.477 248.325 193.477H246.893C246.16 193.477 245.559 194.077 245.559 194.811V220.961H238.327C238.132 220.961 237.972 221.12 237.972 221.316V222.051C237.972 222.247 238.132 222.406 238.327 222.406H245.559V227C240.327 227.396 236.134 229.28 234.958 231.714H260.26C259.084 229.28 254.891 227.396 249.659 227Z" fill="#2B478B"/>
<path d="M249.039 190.207C248.174 191.674 247.174 193.049 246.143 194.35C242.957 198.373 239.488 201.689 238.884 204.824C238.764 205.449 238.573 206.122 238.324 206.83C238.072 207.548 237.76 208.303 237.4 209.084C236.048 212.021 234.026 215.312 232.007 218.303C228.517 223.474 225.236 227.789 225.236 227.789L219.218 227.532C219.459 226.929 222.084 219.789 225.595 211.064C227.021 207.522 228.537 203.754 230 200.121C230.195 199.635 230.389 199.152 230.582 198.673C231.03 197.561 231.47 196.467 231.899 195.401C235.196 187.208 237.822 180.684 237.822 180.684C237.822 180.684 251 175.692 252.368 178.926C253.497 181.594 252.578 184.206 249.039 190.207Z" fill="#163560"/>
<path d="M225.048 226.691C225.048 226.691 224.74 231.657 223.779 231.729C223.651 231.738 218.906 231.738 218.906 231.738L212.849 231.703C212.849 231.703 212.888 230.243 214.659 229.935C216.429 229.626 219.393 228.382 220.466 226.042C221.594 223.58 225.048 226.691 225.048 226.691Z" fill="#163560"/>
<path d="M238.983 212.508C238.983 212.508 243.169 215.198 242.763 216.071C242.709 216.187 240.396 220.331 240.396 220.331L237.412 225.602C237.412 225.602 236.157 224.856 236.751 223.16C237.344 221.463 237.703 218.269 236.182 216.192C234.583 214.006 238.983 212.508 238.983 212.508Z" fill="#163560"/>
<path d="M233.32 178.312C233.32 178.312 216.779 188.615 214.933 195.539C213.087 202.463 236.935 217.234 236.935 217.234C236.935 217.234 239.551 214.926 240.013 213.233C240.013 213.233 229.233 200.318 226.894 197.423C225.458 195.645 248.129 191.268 250.898 186.96C253.668 182.652 252.676 179.027 252.676 179.027L233.32 178.312Z" fill="#1C468A"/>
<path d="M264.535 191.547H230.683C230.006 191.547 229.452 192.101 229.452 192.778V199.548C229.452 200.225 230.006 200.779 230.683 200.779H264.535C265.212 200.779 265.766 200.225 265.766 199.548V192.778C265.766 192.101 265.212 191.547 264.535 191.547Z" fill="#EE9849"/>
<path d="M240.968 142.208C239.343 143.214 238.448 144.491 238.448 144.491C242.411 145.516 248.98 141.844 248.98 141.844C248.98 141.844 246.429 140.131 245.484 136.365C245.436 136.175 245.393 135.98 245.354 135.781C245.231 135.146 245.154 134.46 245.14 133.719L243.32 135.349L240.293 138.061C240.293 138.061 240.361 139.186 240.74 141.122C240.806 141.459 240.881 141.822 240.968 142.208Z" fill="#E49963"/>
<path d="M253.156 160.899C252.588 168.533 253.543 180.139 252.899 182.149C252.343 183.884 245.804 182.857 243.276 182.278C242.341 182.064 241.208 181.757 240.038 181.395C236.774 180.385 233.217 178.941 232.835 177.87C232.821 177.828 232.808 177.787 232.8 177.747C232.765 177.591 232.773 177.445 232.807 177.297C232.934 176.751 233.424 176.16 233.482 174.808C233.547 173.298 233.537 171.521 233.594 169.609C233.597 169.393 233.6 169.159 233.623 168.944L233.624 168.866C233.625 168.825 233.626 168.785 233.627 168.744C233.682 166.612 233.793 164.37 233.923 162.147C234.005 160.751 234.1 159.368 234.209 158.044C234.494 154.624 234.878 151.583 235.385 149.66C236.215 146.526 238.045 144.482 239.71 142.984L240.915 141.951C242.259 142.244 243.848 142.05 245.285 141.369C246.841 140.63 247.378 140.101 247.649 140.3C251.242 143.072 253.826 151.566 253.156 160.899Z" fill="#E37970"/>
<path d="M240.057 181.411C236.793 180.401 233.236 178.957 232.855 177.886C232.84 177.844 232.827 177.803 232.819 177.763C232.821 177.613 232.823 177.463 232.826 177.313C232.953 176.768 233.444 176.176 233.501 174.824C233.566 173.314 233.556 171.537 233.613 169.625C233.616 169.409 233.619 169.175 233.642 168.96L233.643 168.882C233.644 168.841 233.645 168.801 233.646 168.76L245.975 163.168C245.975 163.168 246.686 173.105 240.057 181.411Z" fill="#C45446"/>
<path d="M240.292 138.056C240.292 138.056 240.361 139.181 240.739 141.116C243.695 140.161 245.036 137.492 245.483 136.359C245.611 136.039 245.666 135.842 245.666 135.842C245.666 135.842 245.551 135.817 245.354 135.775C244.938 135.687 244.156 135.521 243.319 135.344L240.292 138.056Z" fill="#D68D5D"/>
<path d="M239.096 138.027C239.096 138.027 245.589 138.759 245.983 134.708C246.377 130.657 247.48 128.024 243.351 127.385C239.222 126.746 238.265 128.213 237.805 129.533C237.344 130.854 237.417 137.732 239.096 138.027Z" fill="#E49963"/>
<path d="M245.955 134.989C245.955 134.989 245.544 129.612 239.633 129.055C235.584 128.673 237.841 125.189 238.273 124.633C238.273 124.633 241.375 125.058 244.554 125.583C251.228 126.686 246.611 134.151 245.955 134.989Z" fill="#2B478B"/>
<path d="M209.667 159.14L209.099 159.324L213.934 174.207L214.503 174.022L209.667 159.14Z" fill="#4A75CB"/>
<path d="M230.369 172.871L213.95 173.223L213.971 174.205L230.39 173.853L230.369 172.871Z" fill="#4A75CB"/>
<path d="M228.588 171.98C228.588 171.98 226.04 172.945 224.317 172.628C222.594 172.31 219.816 173.454 219.421 174.113C219.026 174.772 219.223 174.995 220.071 175.113C220.919 175.232 223.978 176.154 225.818 175.219C227.659 174.285 230.16 173.981 230.16 173.981L228.588 171.98Z" fill="#E49963"/>
<path d="M248.729 146.684C248.729 146.684 248.105 167.952 243.435 170.368C241.13 171.561 230.723 174.839 227.6 175.399C227.6 175.399 226.76 174.859 226.665 172.292C226.665 172.292 237.358 166.964 238.694 164.562C240.684 160.989 235.73 151.194 238.343 147.755C240.955 144.316 245.787 142.427 248.729 146.684Z" fill="#E37970"/>
<mask id="mask0_11404_170502" style="mask-type:luminance" maskUnits="userSpaceOnUse" x="114" y="29" width="107" height="122">
<path d="M220.575 29.5039H114.434V150.662H220.575V29.5039Z" fill="white"/>
</mask>
<g mask="url(#mask0_11404_170502)">
<path d="M137.946 117.004L136.867 118.751C136.307 119.394 136.158 119.754 135.714 119.972C134.643 120.499 132.665 121.852 132.516 124.693C132.516 124.693 132.549 126.301 133.627 125.78C134.706 125.259 134.235 125.307 135.767 124.605C137.299 123.903 137.867 121.67 138.001 120.909L139.252 119.267L137.946 117.004Z" fill="#D9935C"/>
<path d="M206.228 91.4102C206.228 91.4102 207.371 88.6087 208.629 88.4943C209.887 88.3799 213.889 87.7509 214.175 88.3227C214.461 88.8945 214.175 90.9526 213.317 91.696C212.46 92.4392 207.142 93.6399 207.142 93.6399L206.228 91.4102Z" fill="#D9935C"/>
<path d="M161.348 133.409C161.95 136.786 162.808 140.276 163.553 143.906C164.751 149.742 165.655 155.942 164.73 162.617C164.611 163.477 164.547 164.425 164.533 165.444C164.353 177.244 169.625 198.627 169.625 198.627C169.625 198.627 171.057 199.244 173.457 199.126C174.693 199.064 176.589 198.268 176.589 198.268C176.589 198.268 177.088 185.01 177.118 167.181C177.139 154.257 179.677 137.24 180.189 127.241C180.5 121.19 179.826 113.128 179.826 113.128C179.826 113.128 169.317 104.677 165.542 109.001C161.813 113.273 159.097 120.776 161.348 133.409Z" fill="#80BDCC"/>
<path d="M164.73 162.618C164.611 163.477 164.547 164.425 164.533 165.445C172.404 154.042 174.144 129.176 174.144 129.176L165.5 133.371C165.5 133.371 164.552 138.034 163.554 143.906C164.751 149.742 165.655 155.942 164.73 162.618Z" fill="#5F9AA8"/>
<path d="M147.835 199.229C147.835 199.229 149.532 200.032 150.754 200.277C151.976 200.521 154.516 200.044 154.516 200.044C154.973 194.91 156.037 186.881 158.105 177.821C160.46 167.507 163.963 155.319 168.848 143.776C169.891 141.311 174.193 129.643 174.923 126.699C177.131 117.802 174.914 118.761 174.914 118.761L155.618 116.496C155.618 116.496 153.241 117.718 152.146 130.281C151.818 134.044 151.778 150.289 151.284 153.368C150.817 156.285 150.269 158.71 149.627 160.285C146.042 169.084 147.835 199.229 147.835 199.229Z" fill="#80BDCC"/>
<path d="M177.362 58.7184C178.014 53.3955 176.351 44.8779 165.727 46.239C155.103 47.6001 151.755 58.041 153.898 62.6835C156.04 67.3259 150.813 68.4454 149.172 73.4378C147.763 77.7266 147.271 83.0516 144.99 85.4415C137.635 93.1464 152.051 104.995 160.741 102.496C176.571 97.9456 178.609 97.2664 178.048 84.829C177.76 78.4566 172.802 75.9875 175.95 74.1439C183.554 69.69 175.887 70.7632 177.362 58.7184Z" fill="#B74B42"/>
<path d="M161.746 72.6487L164.673 80.2119L170.99 80.52L174.141 75.8139C172.152 74.3011 171.312 72.0325 171.004 70.0017C170.752 68.3768 170.822 66.9065 170.892 66.108C170.934 65.7018 170.976 65.4637 170.976 65.4637L163.105 63.0688L163.077 63.0547C162.979 65.1415 162.867 66.7801 162.741 68.0545C162.292 72.5505 161.746 72.6487 161.746 72.6487Z" fill="#D9935C"/>
<path d="M174.168 72.3851C173.761 72.3851 166.862 70.9811 155.211 73.9617C155.211 73.9617 161.592 103.197 159.424 108.707C157.257 114.218 156.433 119.108 156.433 119.108L179.949 119.4C179.949 119.4 179.62 100.486 180.704 93.7925C181.788 87.0987 174.168 72.3851 174.168 72.3851Z" fill="#D9935C"/>
<path d="M155.695 95.7377C155.354 94.6639 154.963 93.5951 154.549 92.5001C154.07 91.2242 151.915 77.9199 153.49 76.1241C155.154 74.2275 160.823 72.7967 160.823 72.7967C161.985 74.6168 165.962 79.1385 170.898 78.3238C173.56 77.8847 174.101 73.0993 174.162 72.4552L174.144 72.383C174.144 72.383 174.152 72.384 174.167 72.3862C174.168 72.3843 174.168 72.3828 174.168 72.3828C174.187 72.3867 174.205 72.3905 174.225 72.3945C175.002 72.5095 181.191 73.5163 183.026 76.6767C185.738 81.3426 188.69 95.3443 191.591 95.1377C192.923 95.0422 206.323 90.0058 206.323 90.0058C206.323 90.0058 208.555 92.097 208.128 94.6631C208.128 94.6631 201.512 99.0936 195.916 101.921C195.141 102.313 194.385 102.673 193.67 102.987C191.653 103.872 189.953 104.385 189.025 104.166C188.759 104.103 188.476 103.983 188.183 103.812C186.97 103.111 185.552 101.571 184.194 99.8167C183.292 98.6492 182.415 97.3875 181.641 96.2128C181.624 96.1877 181.609 96.1635 181.593 96.1385C181.261 100.59 180.928 105.434 181.272 109.23C181.535 112.117 181.726 118.372 181.23 119.988C180.197 123.356 172.605 124.247 165.521 123.895C162.18 123.729 159.821 123.538 158.103 123.142C155.612 122.57 154.473 121.568 153.653 119.59C152.871 117.706 156.487 108.863 156.831 104.993C157.147 101.449 156.596 98.5713 155.695 95.7377Z" fill="#E69D43"/>
<path d="M160.822 72.7969C160.822 72.7969 155.228 73.0181 152.634 75.4318C149.702 78.1611 145.336 94.8497 144.158 102.977C144.158 102.977 138.238 114.259 136.354 118.734C136.354 118.734 136.707 119.346 137.413 119.807C138.097 120.255 138.961 120.432 138.961 120.432C138.961 120.432 149.64 108.512 150.341 106.628C151.043 104.743 161.539 88.5229 160.822 72.7969Z" fill="#E69D43"/>
<path d="M153.653 119.592C154.473 121.57 155.612 122.573 158.103 123.144C161.434 122.504 163.631 116.376 164.761 113.36C166.065 109.884 159.275 92.0139 157.401 92.1769C156.008 92.2974 155.741 94.577 155.695 95.7405C156.596 98.5742 157.147 101.452 156.831 104.996C156.487 108.866 152.871 117.709 153.653 119.592Z" fill="#E58638"/>
<path d="M181.641 96.216C182.415 97.3906 183.291 98.6522 184.194 99.8198C185.488 101.414 186.918 102.955 188.183 103.816C188.476 103.987 188.758 104.106 189.025 104.169C189.953 104.389 191.652 103.875 193.67 102.99C192.469 103.078 191.29 103.036 190.131 102.937C188.101 102.765 187.511 100.566 184.302 97.2707C182.383 95.3007 181.8 95.6043 181.641 96.216Z" fill="#E58638"/>
<path d="M163.104 63.0703C164.294 65.017 167.165 69.0227 171.003 70.0031C170.751 68.3781 170.821 66.9079 170.891 66.1094C170.933 65.7032 170.975 65.4651 170.975 65.4651L163.104 63.0703Z" fill="#CC7C46"/>
<path d="M173.042 65.9991C173.042 65.9991 163.579 67.8994 162.486 61.9883C161.393 56.0771 159.436 52.3411 165.431 50.878C171.427 49.4147 173.021 51.4528 173.866 53.3371C174.71 55.2214 175.475 65.3524 173.042 65.9991Z" fill="#D9935C"/>
<path d="M160.654 51.2688C162.255 49.4673 164.565 49.1168 166.249 49.1461C165.234 47.915 169.317 45.2181 173.985 49.8183C175.996 51.8002 175.693 55.696 174.615 57.9566C174.615 57.9566 172.961 53.1126 169.95 52.0559C169.28 51.8207 168.644 51.4288 168.059 50.9625C167.693 51.8834 166.955 53.1867 165.471 54.8084C162.359 58.2105 162.966 65.0905 162.966 65.0905C162.966 65.0905 157.856 54.4168 160.654 51.2688Z" fill="#B74B42"/>
<path d="M170.094 63.0906C170.094 63.0906 170.347 63.7922 172.128 63.4737C172.128 63.4737 173.624 63.2066 173.486 62.4192C173.486 62.4192 171.961 62.0241 170.094 63.0906Z" fill="white"/>
</g>
<path d="M351.675 232.251H18.7642C18.5856 232.251 18.4395 232.105 18.4395 231.926C18.4395 231.748 18.5856 231.602 18.7642 231.602H351.675C351.854 231.602 352 231.748 352 231.926C352 232.105 351.854 232.251 351.675 232.251Z" fill="#202F4E"/>
<path d="M194.68 83.0087H286.34C286.532 83.0087 286.687 82.8537 286.687 82.6622V82.6552C286.687 82.4638 286.532 82.3086 286.34 82.3086H194.68C194.488 82.3086 194.333 82.4637 194.333 82.6552V82.6622C194.333 82.8537 194.488 83.0087 194.68 83.0087Z" fill="#A6D9F1"/>
<path d="M272.363 72.5457H227.267C226.188 72.5457 225.312 71.6707 225.312 70.5914V70.5519C225.312 69.4727 226.188 68.5977 227.267 68.5977H272.363C273.442 68.5977 274.317 69.4725 274.317 70.5519V70.5914C274.317 71.6707 273.442 72.5457 272.363 72.5457Z" fill="#A6D9F1"/>
<path d="M272.363 79.2254H227.267C226.188 79.2254 225.312 78.3504 225.312 77.2711V77.2316C225.312 76.1524 226.188 75.2773 227.267 75.2773H272.363C273.442 75.2773 274.317 76.1524 274.317 77.2316V77.2711C274.317 78.3504 273.442 79.2254 272.363 79.2254Z" fill="#A6D9F1"/>
<path d="M202.289 119.739H302.863C303.054 119.739 303.209 119.584 303.209 119.392V119.386C303.209 119.194 303.054 119.039 302.863 119.039H202.289C202.097 119.039 201.942 119.194 201.942 119.386V119.392C201.942 119.584 202.097 119.739 202.289 119.739Z" fill="#A6D9F1"/>
<path d="M291.981 128.444H255.798C254.719 128.444 253.844 127.569 253.844 126.49V126.45C253.844 125.371 254.719 124.496 255.798 124.496H291.981C293.06 124.496 293.935 125.371 293.935 126.45V126.49C293.935 127.569 293.06 128.444 291.981 128.444Z" fill="#A6D9F1"/>
<path d="M291.981 135.128H255.798C254.719 135.128 253.844 134.253 253.844 133.173V133.134C253.844 132.055 254.719 131.18 255.798 131.18H291.981C293.06 131.18 293.935 132.055 293.935 133.134V133.173C293.935 134.253 293.06 135.128 291.981 135.128Z" fill="#A6D9F1"/>
<path d="M129.264 109.114H40.8259C40.6346 109.114 40.4795 108.959 40.4795 108.767V108.761C40.4795 108.569 40.6346 108.414 40.8259 108.414H129.263C129.455 108.414 129.61 108.569 129.61 108.761V108.767C129.61 108.959 129.455 109.114 129.264 109.114Z" fill="#A6D9F1"/>
<path d="M54.8024 98.6512H90.985C92.0643 98.6512 92.9393 97.7762 92.9393 96.6969V96.6574C92.9393 95.5781 92.0643 94.7031 90.985 94.7031H54.8024C53.7232 94.7031 52.8481 95.5781 52.8481 96.6574V96.6969C52.8483 97.7763 53.7232 98.6512 54.8024 98.6512Z" fill="#A6D9F1"/>
<path d="M54.8024 105.335H90.985C92.0643 105.335 92.9393 104.46 92.9393 103.381V103.341C92.9393 102.262 92.0643 101.387 90.985 101.387H54.8024C53.7232 101.387 52.8481 102.262 52.8481 103.341V103.381C52.8483 104.46 53.7232 105.335 54.8024 105.335Z" fill="#A6D9F1"/>
<path d="M312.8 137.592H302.379C299.637 137.592 297.395 135.349 297.395 132.607V124.023C297.395 121.282 299.637 119.039 302.379 119.039H312.8C315.541 119.039 317.784 121.282 317.784 124.023V132.607C317.784 135.349 315.541 137.592 312.8 137.592Z" fill="#A6D9F1"/>
<path d="M314.363 127.024C312.273 125.919 309.401 124.602 307.588 124.602C305.775 124.602 302.903 125.919 300.813 127.024C300.333 127.278 300.035 127.772 300.035 128.316C300.035 128.858 300.333 129.353 300.813 129.607C302.903 130.712 305.775 132.029 307.588 132.029C309.402 132.029 312.273 130.712 314.363 129.607C314.843 129.353 315.141 128.859 315.141 128.316C315.141 127.772 314.843 127.278 314.363 127.024ZM310.873 126.36C310.829 128.135 309.373 129.565 307.588 129.565C305.803 129.565 304.347 128.135 304.303 126.36C305.493 125.876 306.711 125.493 307.588 125.493C308.465 125.493 309.683 125.876 310.873 126.36ZM313.947 128.819C312.411 129.631 309.327 131.138 307.588 131.138C305.849 131.138 302.765 129.631 301.23 128.819C300.825 128.605 300.825 128.026 301.23 127.812C301.8 127.51 302.585 127.112 303.435 126.732C303.661 128.823 305.437 130.457 307.588 130.457C309.739 130.457 311.515 128.823 311.741 126.732C312.591 127.112 313.376 127.51 313.947 127.812C314.351 128.026 314.351 128.605 313.947 128.819Z" fill="#E69D43"/>
<path d="M307.588 128.32C308.12 128.32 308.551 127.889 308.551 127.357C308.551 126.825 308.12 126.395 307.588 126.395C307.057 126.395 306.626 126.825 306.626 127.357C306.626 127.889 307.057 128.32 307.588 128.32Z" fill="#CA5F00"/>
</g>
<defs>
<clipPath id="clip0_11404_170502">
<path d="M0 20C0 8.9543 8.9543 0 20 0H332C343.046 0 352 8.95431 352 20V233C352 244.046 343.046 253 332 253H20C8.95431 253 0 244.046 0 233V20Z" fill="white"/>
</clipPath>
</defs>
</svg>
