<svg width="424" height="288" viewBox="0 0 424 288" fill="none" xmlns="http://www.w3.org/2000/svg">
<g clip-path="url(#clip0_11404_170664)">
<g clip-path="url(#clip1_11404_170664)">
<path d="M424 0H0V288H424V0Z" fill="white"/>
<path d="M44.3423 261.827C-9.35606 188.352 16.6511 90.8067 50.273 67.8563C99.0608 34.5537 132.29 73.2271 182.844 73.1729C237.197 73.1149 232.237 15.3613 308.228 21.019C382.246 26.5299 410.949 102.697 414.814 159.428C418.754 217.244 405.964 248.601 398.309 261.827H44.3423Z" fill="#FCE0DB"/>
<path d="M332.286 262.371C332.904 261.876 342.997 242.42 349.679 251.699C349.679 251.699 359.702 217.675 373.437 219.284C387.172 220.892 375.541 246.132 375.541 246.132C375.541 246.132 387.296 241.306 384.574 254.05C384.574 254.05 399.546 251.328 398.433 262.092L332.286 262.371Z" fill="#7FC6A6"/>
<path d="M392.78 233.625C394.612 231.415 395.137 228.829 393.954 227.847C392.77 226.866 390.325 227.862 388.493 230.072C386.661 232.281 386.136 234.868 387.32 235.849C388.504 236.83 390.948 235.834 392.78 233.625Z" fill="#7FC6A6"/>
<path d="M391.274 238.757C390.189 240.065 389.878 241.596 390.579 242.177C391.28 242.758 392.727 242.168 393.811 240.86C394.896 239.552 395.207 238.021 394.506 237.44C393.805 236.86 392.358 237.449 391.274 238.757Z" fill="#7FC6A6"/>
<path d="M374.997 248.62C374.961 248.613 374.929 248.592 374.908 248.56C374.863 248.494 374.881 248.404 374.947 248.36C375.067 248.28 377.916 246.401 380.417 246.944C380.418 246.944 380.418 246.944 380.418 246.944C380.496 246.961 380.545 247.038 380.528 247.115C380.511 247.193 380.435 247.242 380.357 247.225C380.357 247.225 380.356 247.225 380.356 247.225C377.975 246.708 375.135 248.58 375.107 248.599C375.073 248.622 375.033 248.628 374.997 248.62Z" fill="black"/>
<path d="M376.911 248.834C376.876 248.827 376.843 248.806 376.822 248.773C376.778 248.707 376.796 248.618 376.862 248.574C376.917 248.538 378.233 247.686 380.57 247.831C380.649 247.836 380.709 247.904 380.704 247.983C380.699 248.063 380.631 248.123 380.552 248.118C378.31 247.979 377.033 248.805 377.021 248.813C376.987 248.836 376.948 248.842 376.911 248.834Z" fill="black"/>
<path d="M341.229 254.391C341.193 254.391 341.157 254.377 341.129 254.35C341.072 254.295 341.071 254.204 341.126 254.147C341.226 254.043 343.612 251.604 346.171 251.604C346.254 251.605 346.316 251.667 346.316 251.747C346.316 251.827 346.252 251.891 346.172 251.891C346.172 251.891 346.171 251.891 346.171 251.891C343.733 251.891 341.356 254.322 341.332 254.347C341.304 254.376 341.267 254.391 341.229 254.391Z" fill="black"/>
<path d="M343.146 254.195C343.11 254.195 343.073 254.181 343.045 254.154C342.989 254.098 342.987 254.008 343.043 253.951C343.088 253.904 344.194 252.792 346.508 252.439C346.588 252.427 346.66 252.481 346.672 252.559C346.684 252.638 346.63 252.711 346.552 252.723C344.339 253.061 343.259 254.141 343.249 254.152C343.22 254.18 343.183 254.195 343.146 254.195Z" fill="black"/>
<path d="M280.734 149.707L277.143 144.479L278.216 143.743L281.806 148.971L280.734 149.707ZM273.553 139.252L269.963 134.024L271.036 133.287L274.626 138.515L273.553 139.252ZM266.373 128.796L262.782 123.568L263.855 122.831L267.445 128.059L266.373 128.796ZM259.192 118.34L255.602 113.112L256.674 112.376L260.265 117.604L259.192 118.34ZM252.012 107.884L248.421 102.656L249.494 101.92L253.084 107.148L252.012 107.884Z" fill="white"/>
<path d="M65.3935 134.509C65.3935 134.509 56.0506 119.064 33.6357 123.069C33.6357 123.069 48.7255 145.444 65.3935 134.509Z" fill="#3E9896"/>
<path d="M79.9839 138.586C79.9839 138.586 77.2007 107.627 39.4888 96.8867C39.4888 96.8867 45.9263 142.912 79.9839 138.586Z" fill="#80C4A4"/>
<path d="M60.6124 91.0168C66.5203 90.7052 86.7663 89.8514 100.611 91.9035C102.407 92.1696 103.551 90.0179 102.308 88.6942C101.582 87.9201 100.342 87.2895 98.2577 87.1436C98.2577 87.1436 98.9756 74.2206 89.2127 73.3647C78.0156 72.3829 77.8799 85.0791 77.8799 85.0791C77.8799 85.0791 72.7906 80.2483 69.1201 86.3729C69.1201 86.3729 62.7766 82.7071 59.5769 89.4779C59.2278 90.2161 59.7968 91.0598 60.6124 91.0168Z" fill="white"/>
<path d="M175.103 103.064C172.459 102.912 166.26 102.648 160.871 103.103C158.642 103.29 156.717 101.51 156.767 99.2734C156.788 98.358 157.116 97.2931 157.966 96.0866C161.238 91.4404 166.925 95.8775 166.87 98.236C166.87 98.236 168.02 94.6847 171.512 95.3065C175.005 95.9281 173.77 101.093 173.77 101.093C173.77 101.093 174.897 100.855 175.678 101.388C176.446 101.912 176.032 103.117 175.103 103.064Z" fill="white"/>
<path d="M373.084 81.8223C369.441 81.6136 360.902 81.2498 353.479 81.8756C350.408 82.1345 347.756 79.6816 347.825 76.6007C347.853 75.3397 348.306 73.8728 349.476 72.2106C353.983 65.8104 361.818 71.9226 361.743 75.1715C361.743 75.1715 363.327 70.2795 368.137 71.1359C372.948 71.9923 371.247 79.107 371.247 79.107C371.247 79.107 372.799 78.779 373.875 79.5135C374.934 80.2358 374.363 81.8956 373.084 81.8223Z" fill="white"/>
<path d="M168.74 196.742H138.141V260.839H168.74V196.742Z" fill="#230C1E"/>
<path d="M245.592 220.038V132.234C245.592 128.062 242.21 124.68 238.037 124.68H67.766C63.5934 124.68 60.2109 128.062 60.2109 132.234V220.038H245.592Z" fill="#230C1E"/>
<path d="M60.2109 220.039V234.11C60.2109 237.036 62.1457 239.409 64.5325 239.409H241.271C243.657 239.409 245.592 237.036 245.592 234.11V220.039H60.2109Z" fill="#5B2750"/>
<path d="M241.253 216.227V132.47C241.253 130.274 239.409 128.494 237.134 128.494H68.6696C66.3946 128.494 64.5503 130.274 64.5503 132.47V216.227H241.253Z" fill="#DCF4FF"/>
<path d="M194.831 262.669C195.35 259.639 193.315 257.184 190.286 257.184H116.648C113.618 257.184 110.741 259.639 110.222 262.669H194.831Z" fill="#5B2750"/>
<path d="M241.271 239.63H64.5328C62.0277 239.63 59.9897 237.154 59.9897 234.11V132.234C59.9897 127.947 63.4782 124.459 67.7662 124.459V124.902C63.7225 124.902 60.4326 128.191 60.4326 132.234V234.11C60.4326 236.909 62.2719 239.187 64.5326 239.187H241.271L241.271 239.63Z" fill="#21111D"/>
<path d="M218.986 224.326L214.77 230.201L215.129 230.459L219.346 224.584L218.986 224.326Z" fill="#21111D"/>
<path d="M218.985 227.26L214.768 232.975L215.124 233.238L219.341 227.523L218.985 227.26Z" fill="#21111D"/>
<path d="M147.386 240.665L145.287 244.338L145.671 244.558L147.77 240.885L147.386 240.665Z" fill="#21111D"/>
<path d="M147.546 243.22L145.648 246.455L146.03 246.679L147.928 243.444L147.546 243.22Z" fill="#21111D"/>
<path d="M241.474 216.447H64.5503V216.004H241.031V132.468C241.031 130.398 239.283 128.714 237.134 128.714V128.271C239.527 128.271 241.474 130.154 241.474 132.468V216.447Z" fill="#21111D"/>
<path d="M208.113 122.319L213.912 122.402C214.919 122.138 216.904 121.476 219.266 120.832C219.93 122.787 220.493 124.279 220.74 124.231L220.83 124.677C220.854 124.79 220.921 124.884 221.011 124.944C221.45 127.001 221.946 129.628 222.505 131.8C222.902 133.342 223.285 133.074 222.295 134.249C221.722 134.929 218.417 137.567 217.047 137.891L208.112 140.856C207.513 138.133 198.421 131.017 198.769 130.494L208.113 122.319Z" fill="#FE9F73"/>
<path d="M158.904 223.627L159.102 223.369L158.067 165.334C158.067 165.334 177.158 178.136 182.879 178.381C188.601 178.626 212.256 143.519 212.256 143.519C207.27 132.078 196.774 130.493 196.774 130.493L177.24 151.904L154.354 131.146C151.303 129.294 127.845 128.893 127.845 128.893C127.845 128.893 103.45 128.358 97.8095 135.716C93.6308 141.168 83.8183 162.5 82.0748 176.338C80.3311 190.176 82.0748 199.138 92.6457 200.773L96.4911 200.855L96.7869 223.628C96.7869 223.627 118.092 228.422 158.904 223.627Z" fill="#E9516A"/>
<path d="M102.344 180.299L101.909 179.784L106.161 176.19L107.785 156.479L108.456 156.534L106.81 176.524L102.344 180.299Z" fill="#21111D"/>
<path d="M96.4841 201.19L92.5942 201.105C87.406 200.302 84.0799 197.732 82.4263 193.247C80.9915 189.356 80.7736 183.97 81.7406 176.295L82.4091 176.379C80.4382 192.021 83.4127 198.993 92.675 200.435L96.498 200.516L96.4841 201.19Z" fill="#21111D"/>
<path d="M177.477 157.63L176.917 152.066L154.757 131.965C153.132 130.492 149.975 130.473 149.944 130.473V129.799C149.944 129.799 149.944 129.799 149.944 129.799C150.088 129.799 153.392 129.818 155.21 131.466L177.562 151.74L178.147 157.563L177.477 157.63Z" fill="#21111D"/>
<path d="M177.489 152.129L176.991 151.675L196.648 130.129L196.829 130.158C196.933 130.175 207.324 131.992 212.562 143.377L211.95 143.658C207.238 133.418 198.262 131.148 196.895 130.858L177.489 152.129Z" fill="#21111D"/>
<path d="M133.392 225.964C133.192 225.964 132.995 225.963 132.802 225.961L132.808 225.287C141.222 225.377 156.254 223.606 158.563 223.329L157.728 159.753L158.402 159.744L159.245 223.924L158.945 223.961C158.78 223.981 142.634 225.964 133.392 225.964Z" fill="#21111D"/>
<path d="M119.2 104.628C119.2 104.628 123.813 101.652 128.495 102.408C131.207 102.846 133.327 104.986 133.794 107.692L134.251 110.338L119.623 106.873C119.623 106.873 117.644 108.264 117.763 107.924C117.883 107.585 119.2 104.628 119.2 104.628Z" fill="#FE9F73"/>
<path d="M133.742 107.395L135.669 118.555C135.669 118.555 136.523 122.514 133.12 123.615L134.69 128.822C135.273 130.758 134.418 132.855 132.622 133.785C131.744 134.239 130.672 134.645 129.415 134.862C125.427 135.55 122.75 132.932 122.16 131.495C121.569 130.057 121.333 122.74 121.333 122.74L120.605 119.251L118.71 105.57L133.742 107.395Z" fill="#FE9F73"/>
<path d="M124.941 113.187C124.899 113.187 124.856 113.172 124.823 113.142C124.755 113.078 124.751 112.972 124.814 112.903C124.837 112.879 127.115 110.467 129.263 112.138C129.337 112.195 129.35 112.301 129.293 112.374C129.236 112.448 129.13 112.461 129.056 112.404C127.153 110.924 125.146 113.042 125.061 113.133C125.029 113.168 124.985 113.186 124.941 113.187Z" fill="#4C222E"/>
<path d="M132.257 111.091C132.21 111.1 132.16 111.09 132.12 111.059C132.046 111.003 132.032 110.897 132.089 110.823C132.144 110.752 133.444 109.082 134.615 109.732C134.696 109.777 134.726 109.88 134.68 109.961C134.635 110.043 134.533 110.072 134.451 110.027C133.534 109.517 132.368 111.013 132.356 111.028C132.331 111.062 132.295 111.083 132.257 111.091Z" fill="#4C222E"/>
<path d="M128.498 114.41C128.546 114.685 128.361 114.947 128.086 114.995C127.81 115.042 127.549 114.857 127.501 114.582C127.454 114.307 127.638 114.045 127.914 113.998C128.189 113.95 128.451 114.135 128.498 114.41Z" fill="black"/>
<path d="M133.711 112.998C133.759 113.273 133.574 113.535 133.299 113.582C133.023 113.63 132.762 113.445 132.714 113.17C132.666 112.895 132.851 112.633 133.126 112.586C133.402 112.538 133.664 112.723 133.711 112.998Z" fill="black"/>
<path d="M119.17 104.455C119.17 104.455 114.914 104.981 114.48 108.858C114.047 112.735 116.209 114.371 116.436 115.466C116.663 116.56 117.197 124.11 122.312 122.657L121.603 110.156L118.947 105.589L119.17 104.455Z" fill="#4C222E"/>
<path d="M124.351 114.949C124.636 116.6 123.528 118.17 121.876 118.456C120.224 118.741 118.654 117.633 118.369 115.981C118.084 114.33 119.192 112.759 120.844 112.474C122.495 112.189 124.066 113.297 124.351 114.949Z" fill="#FE9F73"/>
<path d="M121.455 117.335C120.834 117.442 120.338 117.047 120.121 116.604C119.864 116.08 119.956 115.512 120.357 115.156C120.948 114.631 121.594 114.791 121.937 114.94C121.749 114.623 121.504 114.411 121.206 114.308C120.56 114.086 119.87 114.448 119.863 114.452C119.823 114.474 119.771 114.458 119.749 114.417C119.727 114.376 119.743 114.325 119.784 114.303C119.814 114.287 120.544 113.903 121.259 114.148C121.673 114.29 121.993 114.613 122.211 115.106L122.333 115.383L122.085 115.209C122.05 115.184 121.219 114.616 120.469 115.282C120.053 115.651 120.103 116.185 120.272 116.53C120.448 116.888 120.854 117.268 121.425 117.169C121.431 117.168 121.437 117.167 121.443 117.166C121.488 117.158 121.531 117.188 121.54 117.234C121.548 117.279 121.518 117.323 121.472 117.332C121.467 117.333 121.461 117.334 121.455 117.335Z" fill="#F07162"/>
<path d="M124.445 121.623C124.445 121.623 125.831 128.257 134.278 127.455L133.12 123.614C133.12 123.614 127.9 125.633 124.445 121.623Z" fill="#F07162"/>
<path d="M130.837 117.469C130.802 117.475 130.766 117.458 130.748 117.426C130.726 117.384 130.742 117.333 130.783 117.312L132.353 116.473L131.151 112.645C131.137 112.601 131.161 112.553 131.206 112.54C131.25 112.524 131.297 112.55 131.311 112.595L132.556 116.556L130.862 117.46C130.854 117.465 130.846 117.468 130.837 117.469Z" fill="#F07162"/>
<path d="M121.37 123.691L120.978 117.965L122.401 117.879L123.374 123.512L121.37 123.691Z" fill="#FE9F73"/>
<path d="M121.633 110.331C121.633 110.331 134.205 107.386 134.475 104.275C134.744 101.165 131.743 101.602 131.743 101.602C131.743 101.602 131.573 97.2773 127.952 99.1924C124.331 101.107 117.194 102.17 115.81 106.071C114.425 109.972 121.633 110.331 121.633 110.331Z" fill="#4C222E"/>
<path d="M121.253 109.58L121.726 112.322C121.726 112.322 123.068 113.752 123.069 115.862C123.069 115.862 123.895 116.013 123.919 115.348C123.944 114.683 122.363 110.363 123.777 109.284C125.191 108.205 120.619 108.124 120.496 108.215C120.372 108.306 118.039 110.055 118.368 109.939C118.697 109.824 121.253 109.58 121.253 109.58Z" fill="#4C222E"/>
<path d="M153.157 187.429C156.235 184.717 153.01 184.261 153.01 184.261C154.512 182.636 154.163 181.878 153.611 181.528C153.207 181.272 152.699 181.244 152.253 181.417C150.838 181.967 146.523 183.66 143.886 184.878C142.012 184.745 142.61 181.586 143.448 179.967C143.88 179.133 143.91 177.755 141.876 179.143C140.214 180.276 137.716 184.009 137.716 184.009L127.27 183.006L128.826 197.399C128.826 197.399 140.751 197.232 142.548 197.22C144.345 197.207 150.362 195.158 152.179 193.577C155.477 190.706 153.403 190.56 153.403 190.56C156.549 187.258 153.157 187.429 153.157 187.429Z" fill="#FE9F73"/>
<path d="M149.239 186.637C149.148 186.644 149.059 186.593 149.023 186.504C148.977 186.394 149.03 186.268 149.14 186.222C150.686 185.584 152.866 184.097 152.887 184.083C152.985 184.015 153.12 184.041 153.188 184.139C153.255 184.237 153.23 184.372 153.131 184.439C153.041 184.501 150.893 185.966 149.305 186.621C149.283 186.63 149.261 186.635 149.239 186.637Z" fill="#F07162"/>
<path d="M149.454 189.365C149.352 189.373 149.256 189.307 149.228 189.205C149.197 189.09 149.266 188.972 149.381 188.941C151.346 188.413 153.016 187.263 153.033 187.252C153.132 187.183 153.266 187.208 153.334 187.306C153.402 187.404 153.378 187.538 153.28 187.606C153.209 187.655 151.533 188.81 149.493 189.358C149.48 189.361 149.467 189.364 149.454 189.365Z" fill="#F07162"/>
<path d="M150.177 192.437C150.077 192.445 149.983 192.383 149.953 192.284C149.919 192.17 149.984 192.049 150.098 192.015C151.782 191.511 153.258 190.399 153.272 190.388C153.367 190.315 153.503 190.334 153.575 190.429C153.647 190.524 153.629 190.66 153.533 190.732C153.471 190.779 151.98 191.902 150.222 192.429C150.207 192.433 150.192 192.436 150.177 192.437Z" fill="#F07162"/>
<path d="M111.781 176.695L133.404 178.08C133.404 178.08 135.529 184.781 132.975 198.368C132.727 199.687 132.205 201.942 132.205 201.942C132.205 201.942 121.532 202.793 119.857 199.326C118.805 197.15 121.105 187.747 121.105 187.747L111.781 176.695Z" fill="#E9516A"/>
<path d="M132.464 202.289L96.481 201.191L96.5014 200.517L131.943 201.598C132.449 199.502 135.694 185.392 133.164 178.403L106.464 176.694L106.507 176.021L133.64 177.759L133.718 177.96C136.665 185.6 132.701 201.36 132.531 202.027L132.464 202.289Z" fill="#21111D"/>
<path d="M129.748 118.834C129.797 118.821 132.91 118.5 132.91 118.5C132.91 118.5 132.621 119.821 131.464 119.943C130.307 120.066 129.748 118.834 129.748 118.834Z" fill="#FBFDFA"/>
<path d="M197.75 105.148C197.75 105.148 188.956 108.92 192.719 117.372C196.229 125.252 203.625 121.479 205.529 120.527C207.433 119.575 197.75 105.148 197.75 105.148Z" fill="#91D3E2"/>
<path d="M207.788 121.557C207.788 121.557 211.72 128.191 212.684 133.906C213.584 139.235 214.556 139.903 216.444 139.22C218.332 138.537 222.71 136.127 222.295 134.248C221.879 132.37 218.462 123.073 213.843 118.829C209.224 114.585 207.788 121.557 207.788 121.557Z" fill="#52B6C6"/>
<path d="M220.8 80.3379C220.8 80.3379 208.59 95.4471 204.582 100.102L202.859 105.139L208.227 117.03L213.777 118.129L239.005 116.443L237.728 113.9L230.147 103L224.245 89.8595L221.334 81.5875L220.8 80.3379Z" fill="#52B6C6"/>
<path d="M204.582 100.102C204.582 100.102 205.405 111.188 213.777 118.13C213.777 118.13 214.329 118.833 213.721 119.526L209.508 121.893C209.508 121.893 207.611 123.197 205.036 120.66C202.461 118.122 197.523 112.195 197.372 104.233C197.372 104.233 197.283 102.091 199.65 101.059L202.773 99.5589C202.773 99.5589 204.172 98.9409 204.582 100.102Z" fill="#D4EBF2"/>
<path d="M220.8 80.3384C220.8 80.3384 223.968 76.3729 226.266 75.8233C228.565 75.2736 231.659 77.694 233.802 79.7723C235.946 81.8505 242.435 90.5234 244.563 96.9825C246.69 103.442 249.133 112.801 246.225 114.774C243.316 116.747 239.004 116.443 239.004 116.443C239.004 116.443 232.63 113.376 225.893 100.327C219.157 87.2776 220.8 80.3384 220.8 80.3384Z" fill="#91D3E2"/>
<path d="M244.053 115.754C244.053 115.754 246.457 109.971 241.107 97.5284C232.683 77.9386 224.395 76.8555 224.395 76.8555C224.395 76.8555 220 82.5436 230.556 100.828C239.254 115.893 244.053 115.754 244.053 115.754Z" fill="#3B9DA8"/>
<path d="M226.568 93.0112C227.569 95.3151 228.871 97.9099 230.556 100.827C231.398 102.287 232.204 103.602 232.973 104.79C235.053 103.378 238.229 100.387 235.286 95.7459C232.56 91.4455 228.661 92.1828 226.568 93.0112Z" fill="#D4EBF2"/>
<path d="M216.085 139.433C215.479 139.595 215.021 139.562 214.633 139.335C213.745 138.818 213.155 137.249 212.593 133.922C211.829 129.398 209.226 124.336 208.113 122.319C207.113 122.29 206.098 121.795 205.095 120.846C201.939 122.377 199.223 122.748 197.02 121.948C195.148 121.267 193.672 119.741 192.634 117.41C191.21 114.211 191.388 111.309 193.163 108.784C194.536 106.831 196.49 105.68 197.324 105.251C197.3 104.91 197.285 104.569 197.279 104.235C197.278 104.215 197.214 102.019 199.613 100.973L202.733 99.4747C202.766 99.4598 203.49 99.1458 204.078 99.3993C204.312 99.5006 204.491 99.6775 204.61 99.9262C208.67 95.1963 220.607 80.4292 220.728 80.2793C220.858 80.1167 223.941 76.2804 226.245 75.7322C228.582 75.1734 231.68 77.5841 233.867 79.7049C236.043 81.8142 242.515 90.4702 244.651 96.9528C246.985 104.037 249.162 112.893 246.277 114.85C243.429 116.782 239.2 116.548 239.005 116.536L213.939 118.212C214.022 118.364 214.127 118.627 214.092 118.937C216.524 121.257 218.525 124.864 219.778 127.488C221.213 130.494 222.167 133.24 222.386 134.229C222.624 135.309 221.377 136.473 220.288 137.259C219.001 138.188 217.446 138.958 216.476 139.309C216.339 139.358 216.209 139.399 216.085 139.433ZM205.13 120.622L205.177 120.667C206.178 121.629 207.185 122.123 208.169 122.134L208.223 122.135L208.25 122.182C209.353 124.175 212.002 129.304 212.776 133.891C213.32 137.114 213.904 138.694 214.727 139.175C215.148 139.421 215.652 139.408 216.413 139.134C218.222 138.479 222.602 136.071 222.204 134.269C221.987 133.288 221.039 130.561 219.61 127.568C218.358 124.947 216.356 121.338 213.93 119.039L213.894 119.005L213.902 118.957C213.969 118.534 213.706 118.19 213.703 118.186L213.596 118.048L213.77 118.037L239.004 116.349L239.011 116.35C239.054 116.353 243.325 116.628 246.172 114.696C247.433 113.841 247.775 111.445 247.19 107.574C246.76 104.731 245.846 101.177 244.474 97.0111C242.348 90.5569 235.903 81.9386 233.737 79.8385C231.583 77.7502 228.543 75.3741 226.287 75.9132C226.264 75.9189 226.24 75.9247 226.217 75.9311C223.981 76.5301 220.904 80.3569 220.873 80.3959C220.75 80.5474 208.615 95.5599 204.652 100.162L204.547 100.284L204.494 100.133C204.397 99.8584 204.232 99.6692 204.004 99.5706C203.492 99.3489 202.817 99.6408 202.81 99.6437L199.69 101.142C197.409 102.137 197.461 104.144 197.465 104.229C197.471 104.582 197.488 104.941 197.514 105.299L197.519 105.361L197.464 105.389C196.104 106.078 189.49 109.893 192.804 117.335C193.821 119.617 195.26 121.111 197.083 121.773C199.25 122.56 201.938 122.183 205.072 120.65L205.13 120.622Z" fill="#1D1D1B"/>
<path d="M205.049 120.801C201.189 117.147 199.295 113.132 198.387 110.406C197.402 107.451 197.329 105.329 197.329 105.308L197.515 105.303C197.515 105.324 197.588 107.424 198.566 110.354C199.468 113.058 201.347 117.041 205.176 120.666L205.049 120.801Z" fill="#1D1D1B"/>
<path d="M213.716 118.199C211.701 116.448 209.961 114.407 208.547 112.133C207.415 110.315 206.487 108.344 205.79 106.276C204.601 102.753 204.49 100.131 204.489 100.105L204.675 100.098C204.676 100.124 204.787 102.724 205.968 106.222C207.058 109.449 209.308 114.122 213.838 118.058L213.716 118.199Z" fill="#1D1D1B"/>
<path d="M208.886 122.153C208.49 122.259 208.228 122.311 208.186 122.319L208.151 122.136C208.193 122.128 212.411 121.292 213.915 118.922L214.073 119.022C212.889 120.886 210.176 121.807 208.886 122.153Z" fill="#1D1D1B"/>
<path d="M244.006 115.868C243.736 115.94 242.856 116.012 241.147 114.712C239.285 113.298 236.007 109.894 230.965 101.713C228.471 97.6668 226.569 93.8423 225.312 90.3457C224.304 87.5453 223.706 84.9471 223.532 82.6232C223.236 78.6513 224.271 76.8801 224.315 76.8066L224.474 76.9024C224.464 76.92 223.422 78.7119 223.72 82.6343C223.995 86.2597 225.503 92.4956 231.123 101.615C236.107 109.701 239.35 113.092 241.193 114.514C243.184 116.049 244.002 115.674 244.01 115.67L244.096 115.835C244.09 115.838 244.06 115.853 244.006 115.868Z" fill="#1D1D1B"/>
<path d="M202.187 104.72L200.553 107.213L200.708 107.315L202.342 104.822L202.187 104.72Z" fill="#1D1D1B"/>
<path d="M201.002 103.687L199.368 106.18L199.524 106.282L201.158 103.789L201.002 103.687Z" fill="#1D1D1B"/>
<path d="M218.53 88.82L216.896 91.3125L217.051 91.4145L218.685 88.922L218.53 88.82Z" fill="#1D1D1B"/>
<path d="M217.345 87.7846L215.711 90.2773L215.867 90.3793L217.501 87.8866L217.345 87.7846Z" fill="#1D1D1B"/>
<path d="M207.902 125.254L214.143 125.555L214.438 127.058L214.831 128.36L214.272 129.314L210.134 129.716L207.646 128.241L207.902 125.254Z" fill="#FE9F73"/>
<path d="M206.887 130.482C206.768 130.44 206.68 130.289 206.683 130.113C206.686 129.911 206.808 129.754 206.955 129.762L213.636 129.013C214.268 129.045 214.802 128.424 214.852 127.6C214.878 127.158 214.774 126.732 214.558 126.399C214.341 126.066 214.046 125.874 213.723 125.858L207.575 125.552C207.428 125.542 207.31 125.374 207.312 125.173C207.315 124.971 207.436 124.813 207.584 124.821L213.733 125.127C214.197 125.15 214.642 125.438 214.953 125.918C215.27 126.405 215.422 127.029 215.384 127.674C215.311 128.88 214.539 129.79 213.626 129.744L206.944 130.494C206.925 130.492 206.906 130.488 206.887 130.482Z" fill="#F07162"/>
<path d="M222.059 123.872C222.538 124.934 222.091 125.785 221.917 125.87L216.533 128.502C215.88 128.821 215.001 128.416 214.549 127.532C214.054 126.564 214.245 125.465 214.949 125.121L220.31 122.5C220.31 122.5 221.58 122.809 222.059 123.872Z" fill="#FE9F73"/>
<path d="M223.476 126.9C223.97 127.955 223.841 129.033 223.669 129.122L217.936 132.114C217.292 132.45 216.41 132.065 215.946 131.189C215.438 130.228 215.612 129.12 216.306 128.757L222.185 125.689C222.185 125.689 222.983 125.845 223.476 126.9Z" fill="#FE9F73"/>
<path d="M222.51 125.927C222.599 125.844 222.619 125.678 222.549 125.525C222.468 125.348 222.3 125.256 222.173 125.319L216.386 128.183C215.841 128.449 215.13 128.106 214.769 127.399C214.576 127.021 214.503 126.607 214.566 126.232C214.628 125.858 214.815 125.577 215.093 125.441L220.4 122.847C220.526 122.783 220.565 122.59 220.485 122.414C220.405 122.237 220.237 122.145 220.11 122.207L214.803 124.801C214.403 124.997 214.122 125.419 214.032 125.959C213.94 126.507 214.046 127.113 214.329 127.666C214.857 128.7 215.889 129.208 216.677 128.822L222.465 125.958C222.481 125.95 222.497 125.939 222.51 125.927Z" fill="#F07162"/>
<path d="M220.016 120.363C220.527 121.411 220.369 122.496 220.197 122.584L214.445 125.516C213.812 125.839 212.947 125.481 212.478 124.63C211.94 123.655 212.114 122.516 212.824 122.154L218.191 119.418C218.789 119.114 219.72 119.756 220.016 120.363Z" fill="#FE9F73"/>
<path d="M220.373 122.844C220.461 122.76 220.478 122.593 220.407 122.44C220.325 122.265 220.156 122.175 220.03 122.24L214.289 125.202C213.748 125.478 213.036 125.145 212.669 124.442C212.472 124.066 212.396 123.651 212.454 123.275C212.513 122.899 212.696 122.614 212.972 122.473L218.238 119.789C218.362 119.723 218.4 119.529 218.318 119.353C218.237 119.178 218.068 119.087 217.942 119.152L212.677 121.836C212.28 122.039 212.003 122.466 211.919 123.009C211.833 123.56 211.944 124.166 212.232 124.716C212.77 125.745 213.804 126.238 214.586 125.839L220.328 122.876C220.344 122.867 220.359 122.857 220.373 122.844Z" fill="#F07162"/>
<path d="M223.593 129.33C223.685 129.245 223.702 129.073 223.627 128.918C223.543 128.744 223.374 128.658 223.249 128.726L217.713 131.749C217.171 132.032 216.532 131.745 216.164 131.049C215.965 130.674 215.887 130.26 215.943 129.882C215.999 129.505 216.18 129.218 216.456 129.074L222.335 126.007C222.461 125.942 222.496 125.745 222.413 125.57C222.33 125.395 222.162 125.306 222.036 125.371L216.157 128.439C215.761 128.645 215.488 129.076 215.407 129.621C215.325 130.173 215.439 130.779 215.729 131.327C216.27 132.348 217.231 132.792 218.015 132.382L223.555 129.358C223.568 129.35 223.581 129.341 223.593 129.33Z" fill="#F07162"/>
<path d="M224.489 130.519C224.957 131.497 224.846 132.506 224.688 132.592L219.389 135.466C218.794 135.789 217.971 135.441 217.532 134.629C217.051 133.74 217.202 132.702 217.845 132.353L223.279 129.406C223.279 129.406 224.021 129.541 224.489 130.519Z" fill="#FE9F73"/>
<path d="M224.73 132.684C224.821 132.6 224.839 132.428 224.764 132.274C224.68 132.099 224.511 132.012 224.386 132.08L219.088 134.954C218.597 135.22 217.943 134.929 217.598 134.291C217.414 133.949 217.338 133.57 217.386 133.222C217.434 132.875 217.598 132.609 217.847 132.474L223.281 129.526C223.405 129.46 223.439 129.263 223.355 129.088C223.271 128.913 223.102 128.826 222.977 128.894L217.543 131.841C217.173 132.042 216.92 132.453 216.849 132.968C216.777 133.491 216.89 134.062 217.168 134.576C217.687 135.537 218.664 135.981 219.392 135.586L224.691 132.712C224.705 132.704 224.718 132.695 224.73 132.684Z" fill="#F07162"/>
<path d="M163.04 216.004H96.0171V220.038H163.04V216.004Z" fill="#230C1E"/>
<path d="M168.749 220.039H93.127V233.225H168.749V220.039Z" fill="#5B2750"/>
<path d="M330.979 211.132C329.336 211.137 328.12 210.658 327.303 209.694C325.345 207.384 326.784 203.322 328.335 200.322C330.037 197.03 331.734 194.422 333.377 192.57C336.758 188.759 339.422 188.877 341.061 189.646C346.241 192.078 348.754 195.091 348.531 198.603C348.199 203.84 341.561 208.319 335.535 210.265C333.756 210.839 332.241 211.129 330.979 211.132ZM339.148 192.03C337.048 192.036 333.956 195.562 330.828 201.611C329.075 205.001 328.87 207.202 329.444 207.88C329.663 208.138 330.688 208.881 334.673 207.594C339.93 205.897 345.503 202.004 345.731 198.426C345.908 195.627 342.641 193.487 339.868 192.186C339.644 192.081 339.403 192.029 339.148 192.03Z" fill="#ED2B47"/>
<path d="M323.694 211.108C322.432 211.112 320.916 210.831 319.133 210.267C313.096 208.357 306.432 203.916 306.069 198.681C305.826 195.171 308.322 192.143 313.488 189.681C315.123 188.902 317.786 188.768 321.189 192.56C322.842 194.403 324.554 197.001 326.275 200.283C327.844 203.274 329.306 207.327 327.362 209.648C326.55 210.618 325.337 211.104 323.694 211.108ZM314.695 192.214C311.93 193.531 308.675 195.69 308.869 198.488C309.117 202.064 314.713 205.926 319.98 207.592C323.973 208.855 324.993 208.107 325.21 207.847C325.78 207.166 325.562 204.966 323.79 201.586C320.242 194.822 316.757 191.231 314.695 192.214Z" fill="#ED2B47"/>
<path d="M357.388 209.629L298.14 209.801L298.293 262.457L357.54 262.285L357.388 209.629Z" fill="#FEC786"/>
<path d="M359.155 209.625L296.373 209.807L296.419 225.5L359.2 225.318L359.155 209.625Z" fill="#F7597F"/>
<path d="M296.053 225.865L296.006 209.807C296.006 209.606 296.169 209.442 296.37 209.441C296.37 209.441 296.371 209.441 296.371 209.441C296.572 209.441 296.735 209.604 296.736 209.805L296.78 225.133L359.197 224.953C359.197 224.953 359.197 224.953 359.198 224.953C359.399 224.953 359.562 225.115 359.563 225.316C359.563 225.518 359.4 225.682 359.199 225.682L296.053 225.865Z" fill="black"/>
<path d="M298.291 262.822C298.09 262.822 297.926 262.659 297.926 262.458L297.819 225.495C297.818 225.293 297.981 225.13 298.183 225.129C298.183 225.129 298.183 225.129 298.184 225.129C298.385 225.129 298.548 225.291 298.548 225.493L298.655 262.456C298.656 262.657 298.493 262.821 298.292 262.822C298.291 262.822 298.291 262.822 298.291 262.822Z" fill="black"/>
<path d="M357.506 251.559C357.305 251.559 357.141 251.396 357.141 251.195L357.066 225.323C357.065 225.121 357.228 224.958 357.43 224.957C357.43 224.957 357.43 224.957 357.431 224.957C357.632 224.957 357.795 225.12 357.796 225.321L357.871 251.193C357.871 251.394 357.708 251.558 357.507 251.559C357.506 251.559 357.506 251.559 357.506 251.559Z" fill="black"/>
<path d="M354.203 216.867C354.11 216.867 354.017 216.831 353.945 216.76L350.162 212.986C350.019 212.844 350.019 212.613 350.161 212.47C350.304 212.328 350.535 212.328 350.677 212.47L354.461 216.244C354.603 216.386 354.604 216.617 354.461 216.759C354.39 216.831 354.297 216.867 354.203 216.867Z" fill="black"/>
<path d="M353.139 220.249C353.046 220.249 352.952 220.214 352.881 220.143L349.097 216.369C348.955 216.227 348.954 215.996 349.097 215.853C349.239 215.711 349.47 215.71 349.613 215.853L353.396 219.626C353.539 219.768 353.539 219.999 353.397 220.142C353.326 220.214 353.232 220.249 353.139 220.249Z" fill="black"/>
<path d="M358.818 237.306L358.811 234.604L296.233 234.785L296.24 237.487L358.818 237.306Z" fill="#ED2B47"/>
<path d="M328.803 209.713L326.1 209.721L326.253 262.377L328.955 262.369L328.803 209.713Z" fill="#ED2B47"/>
<g opacity="0.5">
<path d="M357.416 225.112L338.03 225.168L338.138 262.343L357.524 262.287L357.416 225.112Z" fill="#F7597F"/>
</g>
<g opacity="0.5">
<path d="M359.154 209.622L337.371 209.686L337.417 225.379L359.2 225.316L359.154 209.622Z" fill="#F7597F"/>
</g>
<path d="M276.525 219.984C274.832 219.989 273.579 219.496 272.736 218.501C270.718 216.12 272.201 211.933 273.8 208.841C275.555 205.447 277.304 202.759 278.997 200.849C282.483 196.92 285.229 197.042 286.919 197.835C292.258 200.342 294.849 203.449 294.619 207.069C294.277 212.467 287.434 217.085 281.222 219.09C279.388 219.682 277.826 219.981 276.525 219.984ZM284.946 200.293C282.782 200.299 279.595 203.934 276.37 210.169C274.563 213.664 274.351 215.933 274.943 216.631C275.169 216.898 276.226 217.663 280.333 216.337C285.752 214.588 291.498 210.574 291.732 206.886C291.915 204 288.547 201.795 285.689 200.453C285.458 200.345 285.209 200.292 284.946 200.293Z" fill="#FEC369"/>
<path d="M269.016 221.228C267.715 221.232 266.152 220.943 264.314 220.361C258.09 218.392 251.221 213.814 250.847 208.418C250.597 204.799 253.169 201.677 258.494 199.139C260.18 198.337 262.925 198.199 266.433 202.108C268.138 204.008 269.902 206.686 271.676 210.069C273.294 213.153 274.801 217.33 272.796 219.724C271.96 220.723 270.709 221.223 269.016 221.228ZM259.739 201.751C256.889 203.109 253.534 205.334 253.733 208.218C253.989 211.905 259.758 215.886 265.187 217.603C269.303 218.906 270.355 218.134 270.579 217.866C271.167 217.164 270.942 214.897 269.115 211.412C265.457 204.44 261.865 200.737 259.739 201.751Z" fill="#FEC369"/>
<path d="M309.457 214.138L236.614 214.35L236.754 262.822L309.597 262.611L309.457 214.138Z" fill="#7FC6A6"/>
<path d="M311.63 214.13L234.442 214.354L234.469 223.533L311.657 223.309L311.63 214.13Z" fill="#47B580"/>
<path d="M236.748 261.853C236.514 261.853 236.324 261.663 236.324 261.429L236.214 223.529C236.213 223.295 236.403 223.104 236.637 223.104C236.638 223.104 236.638 223.104 236.639 223.104C236.873 223.104 237.063 223.293 237.064 223.527L237.173 261.427C237.174 261.661 236.985 261.852 236.75 261.853C236.749 261.853 236.749 261.853 236.748 261.853Z" fill="black"/>
<path d="M234.043 223.96L234.015 214.356C234.014 214.121 234.204 213.93 234.439 213.93C234.439 213.93 234.44 213.93 234.44 213.93C234.674 213.93 234.864 214.119 234.865 214.353L234.89 223.108L311.653 222.885C311.654 222.885 311.654 222.885 311.655 222.885C311.889 222.885 312.079 223.075 312.08 223.309C312.08 223.543 311.891 223.734 311.656 223.735L234.043 223.96Z" fill="black"/>
<path d="M309.569 253.881C309.335 253.881 309.145 253.692 309.144 253.458L309.057 223.319C309.056 223.084 309.246 222.893 309.48 222.893C309.481 222.893 309.481 222.893 309.482 222.893C309.716 222.893 309.906 223.082 309.906 223.316L309.994 253.455C309.994 253.69 309.805 253.881 309.57 253.881C309.57 253.881 309.569 253.881 309.569 253.881Z" fill="black"/>
<path d="M298.243 252.371C298.162 252.371 298.081 252.348 298.009 252.3L291.93 248.273C291.734 248.144 291.681 247.88 291.81 247.684C291.94 247.489 292.204 247.435 292.399 247.565L298.478 251.592C298.674 251.722 298.727 251.985 298.598 252.181C298.516 252.304 298.381 252.371 298.243 252.371Z" fill="black"/>
<path d="M297.518 255.264C297.437 255.264 297.356 255.241 297.283 255.193L291.204 251.166C291.009 251.036 290.955 250.773 291.085 250.577C291.214 250.381 291.478 250.328 291.674 250.457L297.753 254.485C297.948 254.614 298.002 254.878 297.872 255.074C297.79 255.197 297.655 255.264 297.518 255.264Z" fill="black"/>
<path d="M310.31 239.614L310.303 237.127L235.319 237.344L235.326 239.832L310.31 239.614Z" fill="#FEC369"/>
<path d="M273.99 214.243L271.502 214.25L271.643 262.722L274.13 262.715L273.99 214.243Z" fill="#FEC369"/>
<g opacity="0.5">
<path d="M309.484 223.319L286.017 223.387L286.131 262.68L309.598 262.612L309.484 223.319Z" fill="#4CB7D8"/>
</g>
<g opacity="0.5">
<path d="M311.63 214.132L285.248 214.209L285.274 223.388L311.656 223.312L311.63 214.132Z" fill="#3AA1C9"/>
</g>
<path d="M323.909 54.234C323.909 58.8988 322.293 63.1863 319.589 66.5674C316.476 70.461 311.922 73.1521 306.734 73.8306C305.885 73.9435 305.019 74.0006 304.14 74.0006C304.089 74.0006 304.037 74.0006 303.986 73.9995C303.187 73.9938 302.4 73.9407 301.626 73.8413C301.418 73.8161 301.211 73.7863 301.005 73.7535C295.931 72.9456 291.501 70.2063 288.491 66.3147C285.906 62.974 284.37 58.7832 284.37 54.2341C284.37 43.3167 293.221 34.4668 304.14 34.4668C315.058 34.4667 323.909 43.3166 323.909 54.234Z" fill="#E9516A"/>
<path d="M300.41 52.2984C300.41 52.2984 301.255 59.8946 302.39 59.9707C303.525 60.0468 301.607 68.9429 298.599 64.5845C297.546 63.0575 297.593 53.0639 300.107 50.9265C302.621 48.7891 300.41 52.2984 300.41 52.2984Z" fill="#2F0E1B"/>
<path d="M299.998 50.3922C299.998 50.3922 298.953 57.5688 299.893 58.8459C299.893 58.8459 300.353 59.5251 301.474 59.5614L301.386 63.779L306.457 63.1993L306.627 51.2042C306.627 51.2042 305.181 48.2388 305.179 48.3611C305.178 48.4832 299.998 50.3922 299.998 50.3922Z" fill="#FE9F73"/>
<path d="M301.542 56.3791C301.557 56.3793 301.57 56.3649 301.574 56.3433C301.578 56.3186 301.567 56.2942 301.55 56.2884C301.341 56.2222 301.214 55.8567 301.178 55.7375C301.479 55.5177 301.664 55.229 301.73 54.8789C301.837 54.3084 301.587 53.7876 301.576 53.7657C301.566 53.7449 301.546 53.7399 301.531 53.7543C301.516 53.7688 301.512 53.7974 301.522 53.8182C301.525 53.8233 301.766 54.3277 301.667 54.857C301.604 55.1903 301.421 55.4654 301.122 55.6748L301.096 55.6933L301.106 55.7318C301.111 55.7545 301.252 56.2881 301.535 56.3778C301.537 56.3787 301.539 56.3791 301.542 56.3791Z" fill="#FB554B"/>
<path d="M301.453 60.9948L301.473 59.5601C301.473 59.5601 303.901 59.4517 305.403 58.5352C305.403 58.5352 303.355 60.4483 301.453 60.9948Z" fill="#FB554B"/>
<path d="M304.897 54.0003C304.919 54.0005 304.943 53.9923 304.961 53.9755C304.998 53.9409 305 53.8829 304.965 53.8459C304.953 53.8337 303.795 52.6148 302.708 53.4654C302.668 53.4966 302.661 53.5543 302.692 53.594C302.723 53.6339 302.781 53.641 302.821 53.6097C303.775 52.8634 304.788 53.9254 304.831 53.9709C304.849 53.99 304.872 53.9998 304.897 54.0003Z" fill="#2F0E1B"/>
<path d="M301.124 53.7556C301.149 53.7561 301.175 53.7457 301.193 53.725C301.227 53.6872 301.224 53.6292 301.186 53.5955C301.152 53.5653 300.345 52.8552 299.821 53.2921C299.782 53.3245 299.777 53.3822 299.809 53.4211C299.842 53.4601 299.9 53.4656 299.938 53.4329C300.341 53.0977 301.057 53.7261 301.064 53.7324C301.081 53.7477 301.102 53.7553 301.124 53.7556Z" fill="#2F0E1B"/>
<path d="M303.055 54.4863C303.053 54.6274 303.166 54.7433 303.307 54.7453C303.448 54.7473 303.564 54.6346 303.566 54.4935C303.568 54.3523 303.455 54.2364 303.314 54.2344C303.173 54.2324 303.057 54.3451 303.055 54.4863Z" fill="#010103"/>
<path d="M300.064 54.4511C300.062 54.5922 300.175 54.7081 300.316 54.7102C300.457 54.7122 300.573 54.5994 300.575 54.4583C300.577 54.3172 300.464 54.2013 300.323 54.1992C300.182 54.1974 300.066 54.3101 300.064 54.4511Z" fill="#010103"/>
<path d="M302.8 56.8047C302.772 56.8031 300.994 57.0011 300.994 57.0011C300.994 57.0011 301.316 57.7038 301.977 57.632C302.638 57.5601 302.8 56.8047 302.8 56.8047Z" fill="#FBFDFA"/>
<path d="M302.196 50.5304L303.428 48.8223C303.428 48.8223 301.449 50.0601 301.613 50.1111C301.778 50.162 302.196 50.5304 302.196 50.5304Z" fill="#FC8759"/>
<path d="M305.891 49.7215C305.891 49.7215 305.538 52.3976 299.126 52.9379C299.126 52.9379 297.637 48.9777 302.292 47.6539C306.949 46.33 307.371 49.9002 307.277 49.8674C307.183 49.8344 305.891 49.7215 305.891 49.7215Z" fill="#2F0E1B"/>
<path d="M304.924 51.2214C304.924 51.2214 305.948 52.9847 306.498 54.254C306.498 54.254 304.517 65.4608 308.833 64.8327L309.605 64.8222C313.423 64.7699 310.78 56.5082 310.715 52.1232C310.675 49.3779 307.342 46.5906 305.173 48.2632C303.004 49.9357 304.924 51.2214 304.924 51.2214Z" fill="#2F0E1B"/>
<path d="M305.561 55.623C305.549 56.414 306.182 57.0643 306.973 57.0754C307.764 57.0866 308.414 56.4545 308.425 55.6635C308.437 54.8725 307.804 54.2222 307.013 54.2111C306.222 54.1999 305.572 54.832 305.561 55.623Z" fill="#FE9F73"/>
<path d="M307.086 56.5289C307.387 56.5331 307.591 56.3102 307.66 56.0854C307.742 55.8196 307.656 55.5586 307.441 55.4208C307.135 55.2247 306.852 55.3329 306.698 55.4266C306.762 55.2751 306.857 55.1648 306.983 55.0983C307.266 54.9482 307.61 55.0656 307.614 55.0669C307.638 55.0752 307.664 55.0626 307.672 55.0387C307.681 55.0148 307.668 54.9885 307.644 54.9802C307.628 54.9747 307.258 54.8484 306.94 55.0172C306.756 55.1147 306.63 55.2898 306.564 55.5376L306.522 55.6966L306.64 55.5823C306.655 55.5683 306.997 55.2452 307.392 55.498C307.61 55.6377 307.626 55.8871 307.573 56.0582C307.518 56.2377 307.356 56.444 307.081 56.4368C307.056 56.4357 307.034 56.4559 307.034 56.4814C307.033 56.5067 307.053 56.5278 307.078 56.5285C307.081 56.5288 307.084 56.5288 307.086 56.5289Z" fill="#FB554B"/>
<path d="M299.711 49.1777C299.711 49.1777 297.488 51.5235 297.998 58.2699L299.53 51.6138L299.711 49.1777Z" fill="#2F0E1B"/>
<path d="M306.734 73.8304C305.885 73.9433 305.019 74.0004 304.14 74.0004C304.089 74.0004 304.037 74.0004 303.985 73.9994C303.187 73.9936 302.399 73.9405 301.626 73.8411L301.74 73.3594L303.506 65.9408L303.985 63.9313L304.095 63.4681L304.288 62.6582H312.706C313.6 62.6582 314.831 63.247 314.884 63.2731C316.027 63.8812 317.783 65.0443 319.589 66.5674C316.476 70.461 311.922 73.1519 306.734 73.8304Z" fill="#7FC6A6"/>
<path d="M303.986 62.6582V73.9994C303.187 73.9936 302.4 73.9405 301.626 73.8411C301.418 73.8159 301.211 73.7861 301.005 73.7533C295.931 72.9454 291.501 70.2061 288.491 66.3145C290.394 64.939 292.235 63.888 293.39 63.2731C293.442 63.247 294.674 62.6582 295.567 62.6582H303.986Z" fill="#7FC6A6"/>
<path d="M299.11 62.6582H309.759C309.759 62.6582 307.834 65.9915 304.154 65.9771C302.467 65.9705 300.662 65.35 299.11 62.6582Z" fill="#FE9F73"/>
<path d="M291.78 66.8894C291.83 66.8894 291.879 66.8656 291.91 66.8214C293.107 65.1024 294.129 65.0985 294.128 65.0988H294.129C294.216 65.0988 294.287 65.0281 294.287 64.9407C294.288 64.853 294.217 64.7817 294.129 64.7812C294.129 64.7812 294.129 64.7812 294.129 64.7812C294.07 64.7812 292.927 64.8062 291.649 66.6399C291.6 66.7119 291.617 66.8108 291.689 66.8609C291.717 66.8803 291.748 66.8894 291.78 66.8894Z" fill="#0D060E"/>
<path d="M292.12 68.5048C292.179 68.5048 292.235 68.4725 292.262 68.4168C293.179 66.5727 294.195 66.3897 294.205 66.388C294.291 66.3742 294.351 66.2934 294.338 66.2073C294.325 66.1212 294.246 66.0614 294.159 66.0739C294.111 66.0807 292.977 66.2652 291.978 68.2753C291.939 68.3537 291.971 68.4491 292.049 68.4881C292.072 68.4995 292.096 68.5048 292.12 68.5048Z" fill="#0D060E"/>
<path d="M304.14 74.6931C304.084 74.6931 304.028 74.693 303.972 74.692C303.158 74.6861 302.337 74.6309 301.538 74.5281C301.339 74.5042 301.127 74.4743 300.896 74.4372C295.75 73.6179 291.149 70.8838 287.943 66.7384C285.152 63.1311 283.677 58.8072 283.677 54.2346C283.677 48.7697 285.806 43.6319 289.67 39.7677C293.535 35.9034 298.674 33.7754 304.14 33.7754C309.605 33.7754 314.743 35.9036 318.608 39.7678C322.473 43.632 324.601 48.7698 324.601 54.2348C324.601 58.9282 323.055 63.3423 320.129 67.0004C316.803 71.1607 312.077 73.8303 306.823 74.5175C305.948 74.6339 305.045 74.6931 304.14 74.6931ZM304.14 35.1594C293.62 35.1594 285.062 43.7166 285.062 54.2348C285.062 58.4982 286.437 62.529 289.038 65.892C292.028 69.7577 296.317 72.3071 301.114 73.0708C301.328 73.105 301.522 73.1326 301.709 73.1549C302.458 73.2513 303.224 73.3027 303.991 73.3083C304.046 73.3094 304.093 73.3094 304.14 73.3093C304.984 73.3093 305.826 73.2541 306.642 73.1454C311.541 72.5046 315.947 70.0156 319.049 66.1361C321.776 62.726 323.217 58.6106 323.217 54.2348C323.217 43.7166 314.659 35.1594 304.14 35.1594Z" fill="white"/>
<path d="M323.223 161.764C323.223 164.819 322.621 167.732 321.529 170.393C321.503 170.455 321.477 170.517 321.452 170.579C321.446 170.593 321.44 170.606 321.435 170.618C320.397 173.07 318.944 175.301 317.161 177.223C317.108 177.28 317.055 177.337 317.001 177.392C316.945 177.453 316.888 177.512 316.829 177.572C312.696 181.847 306.898 184.505 300.479 184.505C296.971 184.505 293.648 183.711 290.68 182.293C290.125 182.028 289.582 181.74 289.053 181.432C288.963 181.379 288.873 181.327 288.785 181.273C288.544 181.128 288.306 180.98 288.07 180.826C287.989 180.773 287.909 180.72 287.83 180.667C286.191 179.568 284.704 178.263 283.405 176.788C282.933 176.253 282.486 175.696 282.067 175.118C281.156 173.863 280.369 172.511 279.727 171.082C278.447 168.239 277.735 165.085 277.735 161.764C277.735 149.205 287.918 139.023 300.479 139.023C313.041 139.023 323.223 149.205 323.223 161.764Z" fill="#FEC786"/>
<path d="M293.265 151.286C293.265 151.286 291.526 147.282 296.109 143.97C300.691 140.658 301.398 146.339 303.162 146.879C304.926 147.418 308.125 146.804 309.283 150.116C310.44 153.429 309.752 155.847 311.609 156.38C313.465 156.913 319.528 161.699 317.885 167.88C316.241 174.061 310.21 173.656 310.21 173.656C310.21 173.656 286.507 174.391 284.978 168.211C283.449 162.032 285.77 159.392 288.8 157.347C290.663 156.09 294.388 155.072 293.265 151.286Z" fill="#2D0F28"/>
<path d="M295.697 153.242C295.697 153.242 293.603 161.647 294.854 163.675C294.854 163.675 295.458 164.749 297.132 164.942L296.617 170.278L304.148 171.005L305.838 153.499L295.697 153.242Z" fill="#FE9F73"/>
<path d="M297.511 160.175C297.542 160.178 297.573 160.159 297.583 160.127C297.594 160.091 297.574 160.052 297.538 160.041C297.105 159.903 296.879 159.332 296.816 159.147C297.476 158.873 297.901 158.474 298.08 157.961C298.371 157.126 297.903 156.3 297.883 156.265C297.864 156.232 297.822 156.221 297.789 156.24C297.756 156.259 297.745 156.301 297.764 156.334C297.768 156.342 298.22 157.142 297.949 157.917C297.779 158.405 297.361 158.784 296.706 159.043L296.648 159.066L296.665 159.126C296.675 159.161 296.91 159.986 297.496 160.172C297.501 160.174 297.506 160.175 297.511 160.175Z" fill="#FB554B"/>
<path d="M296.925 167.088L297.133 164.941C297.133 164.941 300.782 165.078 303.144 163.891C303.144 163.891 299.842 166.504 296.925 167.088Z" fill="#F07162"/>
<path d="M302.065 156.965C302.099 156.968 302.134 156.959 302.163 156.936C302.223 156.888 302.233 156.802 302.186 156.742C302.17 156.722 300.585 154.754 298.852 155.894C298.789 155.936 298.771 156.021 298.813 156.085C298.855 156.148 298.94 156.166 299.004 156.124C300.525 155.124 301.912 156.84 301.97 156.913C301.994 156.944 302.029 156.961 302.065 156.965Z" fill="#2F0E1B"/>
<path d="M297.324 156.203C297.362 156.207 297.402 156.195 297.432 156.166C297.487 156.113 297.489 156.026 297.437 155.971C297.39 155.921 296.269 154.758 295.43 155.348C295.368 155.392 295.353 155.478 295.397 155.54C295.44 155.603 295.526 155.618 295.589 155.574C296.233 155.121 297.227 156.151 297.237 156.161C297.261 156.186 297.292 156.2 297.324 156.203Z" fill="#2F0E1B"/>
<path d="M295.651 157.117C295.631 157.328 295.785 157.515 295.997 157.536C296.208 157.556 296.395 157.401 296.416 157.19C296.436 156.979 296.281 156.792 296.07 156.771C295.859 156.751 295.672 156.905 295.651 157.117Z" fill="#010103"/>
<path d="M299.457 157.425C299.437 157.636 299.591 157.824 299.802 157.844C300.013 157.865 300.201 157.71 300.221 157.499C300.242 157.288 300.087 157.1 299.876 157.08C299.665 157.059 299.477 157.214 299.457 157.425Z" fill="#010103"/>
<path d="M303.74 159.547C303.625 160.731 304.492 161.782 305.676 161.897C306.859 162.011 307.911 161.144 308.025 159.961C308.14 158.778 307.273 157.726 306.089 157.612C304.906 157.497 303.854 158.364 303.74 159.547Z" fill="#FE9F73"/>
<path d="M305.913 161.092C306.363 161.136 306.696 160.827 306.827 160.499C306.983 160.111 306.886 159.709 306.581 159.476C306.146 159.145 305.71 159.272 305.467 159.393C305.581 159.174 305.738 159.021 305.934 158.937C306.376 158.747 306.878 158.965 306.883 158.968C306.918 158.983 306.958 158.967 306.974 158.933C306.99 158.898 306.974 158.857 306.939 158.842C306.916 158.831 306.377 158.597 305.88 158.81C305.592 158.934 305.381 159.18 305.253 159.543L305.17 159.776L305.361 159.62C305.385 159.601 305.937 159.159 306.497 159.586C306.806 159.822 306.799 160.198 306.699 160.448C306.594 160.71 306.326 160.998 305.915 160.954C305.878 160.949 305.843 160.977 305.839 161.015C305.835 161.053 305.862 161.087 305.9 161.091C305.904 161.091 305.909 161.092 305.913 161.092Z" fill="#FB554B"/>
<path d="M295.697 153.243C295.697 153.243 296.668 150.008 301.116 150.071C305.564 150.134 305.838 153.5 305.838 153.5L300.704 154.035L296.024 153.251L295.697 153.243Z" fill="#FE9F73"/>
<path d="M295.967 150.449C295.967 150.449 298.452 153.401 302.073 153.135C302.073 153.135 302.841 157.6 305.437 157.648C308.034 157.696 307.213 151.534 307.213 151.534C307.213 151.534 302.585 149.107 302.28 149.078C301.975 149.048 296.893 148.25 296.893 148.25L295.967 150.449Z" fill="#2D0F28"/>
<path d="M296.742 161.06C296.782 161.048 299.356 160.783 299.356 160.783C299.356 160.783 299.117 161.875 298.16 161.977C297.204 162.078 296.742 161.06 296.742 161.06Z" fill="#FBFDFA"/>
<path d="M318.014 169.274C319.196 169.515 320.358 169.958 321.452 170.58C321.446 170.593 321.44 170.606 321.435 170.618C320.397 173.07 318.944 175.301 317.161 177.223C317.108 177.28 317.055 177.337 317.001 177.392C316.945 177.453 316.888 177.512 316.829 177.572C312.696 181.847 306.898 184.505 300.479 184.505C296.971 184.505 293.648 183.712 290.68 182.293C290.125 182.028 289.582 181.74 289.053 181.432C288.963 181.38 288.873 181.327 288.785 181.273C288.544 181.129 288.306 180.98 288.07 180.827C287.989 180.773 287.909 180.72 287.83 180.667C286.191 179.569 284.704 178.263 283.405 176.788C282.933 176.253 282.486 175.696 282.067 175.118C281.156 173.863 280.369 172.512 279.727 171.083C280.851 170.333 283.056 169.776 285.572 169.364C287.524 169.044 289.663 168.811 291.63 168.644C293.679 168.469 295.54 168.365 296.806 168.307C297.855 168.259 298.494 168.242 298.494 168.242C298.494 168.242 301.066 168.254 304.405 168.339C305.912 168.377 307.577 168.43 309.233 168.501C309.238 168.501 309.242 168.502 309.244 168.502H309.245C310.513 168.558 311.775 168.625 312.958 168.706C314.708 168.827 316.283 168.978 317.442 169.17C317.534 169.184 317.623 169.199 317.709 169.215C317.719 169.216 317.729 169.218 317.738 169.221C317.808 169.233 317.875 169.245 317.941 169.258C317.965 169.263 317.99 169.268 318.014 169.274Z" fill="#ED2B47"/>
<path d="M321.529 170.394C321.502 170.457 321.477 170.519 321.451 170.581C321.446 170.594 321.44 170.607 321.435 170.62C321.009 170.397 320.575 170.21 320.136 170.066C319.375 169.816 318.442 169.592 317.341 169.396C316.117 169.18 314.69 168.999 313.067 168.854C313 168.848 312.95 168.789 312.956 168.721C312.956 168.717 312.957 168.712 312.958 168.708C312.97 168.647 313.027 168.603 313.089 168.61C314.745 168.758 316.199 168.944 317.443 169.167C317.533 169.183 317.622 169.2 317.709 169.216C317.719 169.217 317.729 169.22 317.738 169.222C317.832 169.239 317.924 169.257 318.014 169.275C318.857 169.443 319.591 169.629 320.213 169.834C320.657 169.98 321.097 170.168 321.529 170.394Z" fill="#010103"/>
<path d="M291.629 168.645C291.629 168.645 300.283 177.27 309.245 168.504C309.245 168.504 299.003 167.352 291.629 168.645Z" fill="#FE9F73"/>
<path d="M300.48 184.531C300.416 184.531 300.351 184.531 300.287 184.53C299.351 184.523 298.405 184.459 297.486 184.341C297.258 184.314 297.014 184.279 296.748 184.237C290.828 183.294 285.535 180.149 281.847 175.38C278.636 171.229 276.939 166.255 276.939 160.995C276.939 154.707 279.388 148.797 283.834 144.351C288.28 139.905 294.192 137.457 300.48 137.457C306.768 137.457 312.679 139.905 317.125 144.351C321.571 148.797 324.02 154.707 324.02 160.995C324.02 166.394 322.241 171.472 318.876 175.681C315.049 180.467 309.612 183.538 303.567 184.329C302.56 184.463 301.521 184.531 300.48 184.531ZM300.48 139.049C288.377 139.049 278.531 148.894 278.531 160.995C278.531 165.899 280.113 170.537 283.106 174.406C286.546 178.853 291.479 181.786 296.999 182.665C297.245 182.704 297.469 182.736 297.683 182.762C298.545 182.872 299.426 182.932 300.308 182.938C300.371 182.939 300.425 182.939 300.48 182.939C301.451 182.939 302.419 182.876 303.359 182.751C308.995 182.014 314.063 179.15 317.632 174.687C320.769 170.764 322.428 166.029 322.428 160.995C322.428 148.894 312.582 139.049 300.48 139.049Z" fill="white"/>
<path d="M340.469 112.52C340.469 117.576 342.417 122.178 345.603 125.615C345.648 125.663 345.694 125.711 345.739 125.758C345.787 125.809 345.835 125.859 345.884 125.91C349.386 129.531 354.296 131.783 359.734 131.783C362.705 131.783 365.52 131.11 368.034 129.909C370.393 128.781 372.487 127.186 374.196 125.246C374.596 124.793 374.974 124.321 375.33 123.831C377.637 120.655 378.999 116.747 378.999 112.52C378.999 101.882 370.373 93.2578 359.734 93.2578C349.093 93.2577 340.469 101.882 340.469 112.52Z" fill="#7FC6A6"/>
<path d="M363.646 121.502C363.646 121.502 363.791 121.777 364.044 122.263C364.137 122.439 364.244 122.643 364.364 122.873C364.772 123.654 365.329 124.719 365.967 125.941C366.021 126.046 366.077 126.153 366.133 126.261C366.723 127.391 367.373 128.639 368.034 129.909C370.393 128.78 372.487 127.186 374.196 125.245C374.596 124.792 374.974 124.321 375.33 123.83C375.089 123.596 374.829 123.398 374.549 123.239C371.703 121.628 366.342 121.486 364.386 121.49C363.92 121.491 363.646 121.502 363.646 121.502Z" fill="#5B2750"/>
<path d="M374.196 125.245C373.291 123.933 372.172 123.025 370.79 122.834C369.275 122.624 366.862 122.437 364.397 122.284C364.28 122.277 364.162 122.27 364.044 122.263C360.539 122.051 357.013 121.908 355.893 121.866C355.657 121.856 355.528 121.852 355.528 121.852C355.528 121.852 355.496 121.86 355.443 121.873C355.138 121.952 354.131 122.204 354.529 122.02C350.562 122.721 347.741 124.147 345.739 125.757C345.787 125.809 345.835 125.859 345.885 125.909C349.386 129.53 354.296 131.782 359.734 131.782C362.706 131.782 365.52 131.11 368.034 129.909C370.393 128.78 372.487 127.186 374.196 125.245Z" fill="#5B2750"/>
<path d="M359.452 129.527C359.295 129.543 359.135 129.557 358.972 129.569C358.879 129.575 358.798 129.505 358.792 129.412C358.785 129.319 358.853 129.239 358.949 129.232C365.942 128.741 367.241 123.622 367.251 123.571C367.268 123.481 367.354 123.418 367.444 123.434C367.535 123.449 367.597 123.532 367.584 123.622C367.577 123.675 366.286 128.82 359.452 129.527Z" fill="#0D060E"/>
<path d="M355.474 121.665C350.881 122.308 347.734 123.904 345.603 125.614C345.648 125.662 345.693 125.71 345.738 125.757C345.786 125.809 345.834 125.859 345.884 125.91C347.946 124.263 350.986 122.722 355.412 122.084C355.513 122.069 355.616 122.055 355.718 122.041C355.812 122.028 355.882 121.954 355.892 121.866C355.895 121.849 355.895 121.831 355.893 121.813C355.878 121.702 355.776 121.624 355.665 121.638C355.601 121.647 355.537 121.655 355.474 121.665Z" fill="#0D060E"/>
<path d="M353.858 106.623L353.629 115.459C353.629 115.459 353.437 118.296 355.913 118.716L355.351 122.493C355.142 123.898 355.949 125.268 357.291 125.732C357.948 125.958 358.734 126.132 359.629 126.155C362.47 126.229 364.064 124.138 364.328 123.079C364.593 122.02 364.015 116.913 364.015 116.913L364.166 114.414L364.094 104.717L353.858 106.623Z" fill="#FE9F73"/>
<path d="M361.739 116.453C361.739 116.453 361.449 121.203 355.499 121.503L355.913 118.717C355.913 118.717 359.745 119.59 361.739 116.453Z" fill="#F07162"/>
<path d="M360.597 111.436C360.626 111.437 360.656 111.427 360.68 111.405C360.728 111.361 360.732 111.286 360.688 111.238C360.672 111.221 359.087 109.513 357.568 110.673C357.516 110.713 357.506 110.787 357.546 110.839C357.585 110.891 357.66 110.901 357.712 110.861C359.058 109.834 360.454 111.333 360.512 111.397C360.535 111.422 360.566 111.435 360.597 111.436Z" fill="#2D0F28"/>
<path d="M364.708 110.3L362.14 110.765L361.666 111.232C361.666 111.232 361.998 106.955 362.501 106.126C363.004 105.297 364.708 110.3 364.708 110.3Z" fill="#2F0E1B"/>
<path d="M355.736 110.6C355.769 110.601 355.802 110.587 355.826 110.561C355.87 110.513 355.867 110.438 355.819 110.394C355.772 110.351 354.668 109.357 353.938 109.95C353.888 109.991 353.88 110.066 353.921 110.117C353.962 110.168 354.037 110.175 354.088 110.134C354.659 109.669 355.649 110.56 355.659 110.569C355.681 110.589 355.708 110.599 355.736 110.6Z" fill="#2D0F28"/>
<path d="M358.191 111.852C358.185 112.048 358.34 112.211 358.536 112.216C358.733 112.221 358.896 112.066 358.901 111.87C358.906 111.674 358.751 111.511 358.555 111.506C358.359 111.501 358.196 111.656 358.191 111.852Z" fill="#010103"/>
<path d="M354.425 111.399C354.42 111.595 354.575 111.758 354.771 111.763C354.967 111.768 355.131 111.613 355.136 111.417C355.141 111.221 354.986 111.058 354.79 111.053C354.594 111.048 354.431 111.203 354.425 111.399Z" fill="#010103"/>
<path d="M361.127 111.804C361.096 112.981 362.025 113.959 363.202 113.99C364.379 114.02 365.357 113.091 365.388 111.915C365.418 110.738 364.489 109.76 363.313 109.729C362.136 109.699 361.157 110.628 361.127 111.804Z" fill="#FE9F73"/>
<path d="M363.6 113.052C364.042 113.064 364.347 112.739 364.453 112.409C364.578 112.018 364.456 111.633 364.142 111.427C363.678 111.122 363.245 111.298 363.022 111.437C363.12 111.197 363.269 111.025 363.466 110.924C363.891 110.703 364.408 110.885 364.413 110.887C364.444 110.898 364.478 110.882 364.489 110.851C364.5 110.821 364.484 110.787 364.453 110.776C364.43 110.767 363.884 110.574 363.412 110.818C363.139 110.959 362.95 111.215 362.848 111.58L362.792 111.785L362.946 111.639C362.968 111.618 363.487 111.139 364.076 111.526C364.403 111.74 364.422 112.116 364.34 112.373C364.254 112.639 364.01 112.944 363.603 112.934C363.599 112.934 363.595 112.933 363.591 112.933C363.559 112.933 363.532 112.958 363.53 112.99C363.529 113.023 363.554 113.051 363.587 113.052C363.591 113.052 363.596 113.052 363.6 113.052Z" fill="#FB554B"/>
<path d="M356.876 114.215C356.901 114.215 356.924 114.2 356.933 114.176C356.944 114.145 356.928 114.111 356.898 114.1L355.721 113.677L356.169 110.895C356.174 110.863 356.152 110.832 356.12 110.827C356.087 110.821 356.057 110.844 356.052 110.876L355.589 113.755L356.858 114.211C356.864 114.213 356.87 114.215 356.876 114.215Z" fill="#FB554B"/>
<path d="M357.765 115.391C357.729 115.383 355.423 115.27 355.423 115.27C355.423 115.27 355.688 116.231 356.545 116.276C357.402 116.32 357.765 115.391 357.765 115.391Z" fill="#FBFDFA"/>
<path d="M364.708 110.3C364.708 110.3 365.535 106.171 364.305 104.592C363.075 103.013 355.855 100.118 354.952 100.868C354.048 101.618 354.907 102.58 354.907 102.58C354.907 102.58 352.004 101.565 351.274 104.143C350.544 106.722 356.812 107.989 360.599 106.872C360.599 106.872 363.064 107.66 364.708 110.3Z" fill="#2F0E1B"/>
<path d="M359.774 132.989C359.72 132.989 359.665 132.989 359.611 132.988C358.818 132.982 358.017 132.929 357.239 132.828C357.045 132.805 356.838 132.776 356.613 132.74C351.598 131.941 347.115 129.277 343.991 125.237C341.271 121.722 339.834 117.509 339.834 113.053C339.834 107.727 341.908 102.72 345.674 98.9547C349.441 95.1891 354.448 93.1152 359.774 93.1152C365.1 93.1152 370.107 95.1891 373.874 98.9547C377.64 102.72 379.714 107.727 379.714 113.052C379.714 117.626 378.207 121.928 375.356 125.492C372.115 129.547 367.51 132.148 362.39 132.818C361.536 132.931 360.656 132.989 359.774 132.989ZM359.774 94.4639C349.523 94.4639 341.183 102.803 341.183 113.053C341.183 117.207 342.523 121.135 345.058 124.412C347.971 128.179 352.151 130.664 356.826 131.408C357.034 131.441 357.224 131.468 357.405 131.49C358.136 131.584 358.882 131.634 359.629 131.64C359.682 131.641 359.728 131.641 359.774 131.641C360.597 131.641 361.417 131.587 362.213 131.481C366.987 130.856 371.28 128.431 374.303 124.65C376.96 121.327 378.365 117.317 378.365 113.053C378.365 102.803 370.025 94.4639 359.774 94.4639Z" fill="white"/>
<path d="M247.974 89.6537L247.34 88.5177L252.879 85.4286L253.513 86.5646L247.974 89.6537ZM259.052 83.4757L258.419 82.3397L263.958 79.2506L264.592 80.3866L259.052 83.4757ZM270.131 77.2977L269.497 76.1616L275.037 73.0726L275.67 74.2086L270.131 77.2977ZM281.21 71.1195L280.576 69.9835L286.115 66.8945L286.749 68.0307L281.21 71.1195Z" fill="white"/>
<path d="M348.022 97.2269L344.627 92.6658L345.671 91.8891L349.066 96.4501L348.022 97.2269ZM340.84 87.5784L337.054 82.491L338.097 81.7144L341.884 86.8018L340.84 87.5784ZM333.266 77.4038L329.48 72.3166L330.523 71.5398L334.31 76.6271L333.266 77.4038ZM325.693 67.2292L321.906 62.142L322.949 61.3652L326.736 66.4525L325.693 67.2292Z" fill="white"/>
<path d="M321.764 150.564L320.919 149.575L325.744 145.458L326.589 146.448L321.764 150.564ZM331.414 142.331L330.569 141.342L335.394 137.225L336.238 138.215L331.414 142.331ZM341.063 134.098L340.219 133.109L345.044 128.992L345.888 129.982L341.063 134.098Z" fill="white"/>
<path d="M339.922 110.984L336.699 110.506L336.89 109.219L340.113 109.697L339.922 110.984ZM330.425 109.576L324.151 108.646L324.342 107.359L330.616 108.289L330.425 109.576ZM317.877 107.715L311.603 106.785L311.794 105.498L318.068 106.429L317.877 107.715ZM305.329 105.855L299.055 104.924L299.246 103.638L305.52 104.568L305.329 105.855ZM292.781 103.994L286.507 103.064L286.697 101.777L292.971 102.708L292.781 103.994ZM280.233 102.134L273.959 101.203L274.149 99.9166L280.423 100.847L280.233 102.134ZM267.685 100.273L261.41 99.3427L261.601 98.0559L267.875 98.9863L267.685 100.273ZM255.136 98.4125L248.862 97.4821L249.053 96.1953L255.327 97.1257L255.136 98.4125Z" fill="white"/>
<path d="M394.907 177.321C394.907 181.662 393.234 185.613 390.498 188.564C390.459 188.606 390.421 188.647 390.382 188.687C390.341 188.732 390.299 188.774 390.257 188.818C387.25 191.927 383.034 193.861 378.365 193.861C375.813 193.861 373.397 193.283 371.238 192.252C369.212 191.283 367.414 189.914 365.947 188.248C365.603 187.858 365.279 187.454 364.973 187.033C362.992 184.306 361.823 180.95 361.823 177.321C361.823 168.186 369.229 160.781 378.365 160.781C387.501 160.781 394.907 168.186 394.907 177.321Z" fill="#52B6C6"/>
<path d="M375.006 185.033C375.006 185.033 374.881 185.27 374.664 185.687C374.584 185.838 374.492 186.014 374.389 186.211C374.039 186.881 373.561 187.796 373.013 188.845C372.966 188.936 372.919 189.027 372.87 189.12C372.364 190.09 371.805 191.161 371.238 192.252C369.213 191.283 367.415 189.914 365.947 188.248C365.604 187.858 365.279 187.454 364.974 187.033C365.18 186.832 365.403 186.661 365.644 186.525C368.088 185.141 372.691 185.019 374.371 185.024C374.771 185.024 375.006 185.033 375.006 185.033Z" fill="#DCF4FF"/>
<path d="M365.947 188.248C366.724 187.121 367.685 186.342 368.872 186.177C370.173 185.997 372.245 185.836 374.361 185.706C374.461 185.699 374.563 185.693 374.664 185.687C377.673 185.505 380.701 185.383 381.663 185.346C381.866 185.338 381.976 185.334 381.976 185.334C381.976 185.334 382.004 185.341 382.049 185.353C382.311 185.42 383.176 185.637 382.834 185.479C386.241 186.08 388.663 187.305 390.382 188.687C390.341 188.732 390.3 188.774 390.257 188.818C387.25 191.927 383.034 193.861 378.365 193.861C375.814 193.861 373.397 193.283 371.238 192.252C369.212 191.283 367.414 189.914 365.947 188.248Z" fill="#DCF4FF"/>
<path d="M378.607 191.923C378.742 191.937 378.879 191.949 379.019 191.959C379.099 191.965 379.168 191.905 379.174 191.825C379.179 191.745 379.122 191.676 379.039 191.67C373.034 191.249 371.919 186.853 371.911 186.809C371.896 186.732 371.822 186.678 371.744 186.692C371.666 186.705 371.613 186.775 371.624 186.853C371.631 186.899 372.739 191.317 378.607 191.923Z" fill="#0D060E"/>
<path d="M382.022 185.172C385.966 185.725 388.668 187.095 390.498 188.564C390.459 188.605 390.421 188.646 390.382 188.686C390.341 188.731 390.299 188.774 390.257 188.817C388.486 187.403 385.876 186.08 382.076 185.533C381.988 185.52 381.9 185.508 381.812 185.495C381.733 185.484 381.672 185.421 381.663 185.345C381.661 185.331 381.661 185.315 381.662 185.3C381.675 185.205 381.763 185.138 381.859 185.15C381.913 185.157 381.968 185.164 382.022 185.172Z" fill="#0D060E"/>
<path d="M378.26 189.598C376.053 189.624 374.275 187.166 374.359 184.207L374.579 179.985L381.546 179.949L381.873 184.238C382.077 187.247 380.51 189.572 378.26 189.598Z" fill="#FE9F73"/>
<path d="M374.495 182.924C375.743 185.949 381.181 185.673 381.732 182.686L381.546 179.949L374.579 179.985L374.495 182.924Z" fill="#F07162"/>
<path d="M382.274 175.46C382.279 176.518 383.142 177.372 384.201 177.367C385.26 177.361 386.113 176.499 386.108 175.44C386.102 174.382 385.24 173.528 384.181 173.533C383.122 173.539 382.268 174.401 382.274 175.46Z" fill="#FE9F73"/>
<path d="M384.339 176.632C384.741 176.63 385.008 176.326 385.095 176.024C385.198 175.666 385.076 175.319 384.785 175.14C384.37 174.886 383.994 175.038 383.791 175.167C383.872 174.963 383.997 174.813 384.163 174.721C384.538 174.513 385.002 174.661 385.007 174.663C385.039 174.673 385.074 174.655 385.084 174.623C385.095 174.591 385.077 174.556 385.045 174.546C385.024 174.539 384.525 174.379 384.104 174.613C383.86 174.748 383.696 174.986 383.614 175.319L383.562 175.533L383.718 175.377C383.736 175.358 384.186 174.917 384.721 175.245C385.016 175.426 385.044 175.76 384.977 175.99C384.908 176.232 384.697 176.512 384.328 176.509C384.295 176.509 384.267 176.536 384.267 176.57C384.266 176.604 384.293 176.632 384.327 176.632C384.331 176.632 384.335 176.632 384.339 176.632Z" fill="#F07162"/>
<path d="M383.686 174.116C384.494 163.847 368.484 159.563 372.467 177.384C374.516 185.088 384.05 184.129 383.686 174.116Z" fill="#FE9F73"/>
<path d="M373.257 175.506C373.263 176.565 372.409 177.428 371.35 177.433C370.292 177.438 369.429 176.585 369.423 175.526C369.418 174.468 370.272 173.605 371.33 173.6C372.389 173.594 373.252 174.448 373.257 175.506Z" fill="#FE9F73"/>
<path d="M371.204 176.7C370.802 176.702 370.532 176.401 370.442 176.099C370.335 175.742 370.454 175.395 370.743 175.213C371.156 174.954 371.532 175.102 371.738 175.229C371.654 175.026 371.528 174.877 371.36 174.786C370.984 174.582 370.521 174.735 370.517 174.737C370.484 174.748 370.45 174.73 370.439 174.698C370.428 174.666 370.445 174.631 370.477 174.62C370.498 174.613 370.996 174.449 371.419 174.678C371.664 174.811 371.831 175.047 371.916 175.379L371.97 175.593L371.813 175.438C371.794 175.42 371.34 174.983 370.809 175.317C370.515 175.501 370.491 175.834 370.56 176.064C370.631 176.305 370.845 176.583 371.214 176.577C371.247 176.576 371.276 176.603 371.276 176.637C371.277 176.671 371.25 176.699 371.216 176.699C371.212 176.699 371.208 176.699 371.204 176.7Z" fill="#F07162"/>
<path d="M376.075 174.272C376.076 174.488 375.901 174.664 375.685 174.665C375.469 174.666 375.293 174.492 375.292 174.276C375.291 174.06 375.465 173.884 375.681 173.883C375.897 173.882 376.073 174.056 376.075 174.272Z" fill="#010103"/>
<path d="M380.112 174.327C380.113 174.543 380.29 174.717 380.506 174.716C380.722 174.715 380.896 174.539 380.895 174.323C380.894 174.107 380.718 173.932 380.502 173.934C380.285 173.935 380.111 174.111 380.112 174.327Z" fill="#010103"/>
<path d="M382.116 173.639C382.043 173.64 381.969 173.615 381.909 173.564C380.989 172.792 379.664 173.23 379.651 173.234C379.484 173.291 379.303 173.202 379.246 173.036C379.189 172.87 379.277 172.689 379.443 172.632C379.511 172.608 381.119 172.069 382.319 173.077C382.454 173.19 382.471 173.391 382.358 173.525C382.295 173.6 382.206 173.639 382.116 173.639Z" fill="#2D0F28"/>
<path d="M374.136 173.65C374.043 173.65 373.951 173.611 373.888 173.533C373.776 173.397 373.797 173.196 373.933 173.085C375.147 172.095 376.747 172.656 376.815 172.68C376.98 172.74 377.066 172.923 377.006 173.088C376.946 173.253 376.763 173.339 376.599 173.28C376.586 173.275 375.267 172.819 374.336 173.578C374.277 173.626 374.207 173.65 374.136 173.65Z" fill="#2D0F28"/>
<path d="M376.987 178.412C377.024 178.405 379.358 178.342 379.358 178.342C379.358 178.342 379.068 179.308 378.201 179.334C377.333 179.36 376.987 178.412 376.987 178.412Z" fill="#FBFDFA"/>
<path d="M383.714 166.459C382.381 164.036 373.54 162.909 371.631 166.374C371.22 167.119 371.285 173.186 371.596 173.686C371.906 174.185 372.6 174.392 372.6 174.392C372.6 174.392 372.657 169.462 372.946 168.814C373.236 168.166 374.922 166.848 376.172 167.935C376.826 168.504 377.3 168.589 377.605 168.542C377.898 168.632 378.409 168.614 379.157 167.976C380.419 166.901 382.091 168.236 382.374 168.887C382.657 169.538 382.664 174.468 382.664 174.468C382.664 174.468 383.36 174.268 383.676 173.771C383.991 173.275 384.124 167.205 383.714 166.459Z" fill="#2D0F28"/>
<path d="M378.954 176.611C378.978 176.609 379 176.592 379.006 176.567C379.014 176.535 378.995 176.503 378.963 176.495L377.755 176.2L377.905 173.4C377.907 173.368 377.882 173.34 377.85 173.338C377.817 173.335 377.789 173.361 377.788 173.394L377.632 176.291L378.935 176.61C378.941 176.611 378.948 176.612 378.954 176.611Z" fill="#F07162"/>
<path d="M380.861 178.512C380.847 177.761 380.354 177.088 379.629 176.891C378.943 176.705 378.109 176.73 377.383 176.791C374.334 176.649 375.423 182.696 377.612 182.968C380.922 183.412 380.902 180.686 380.861 178.512ZM376.52 178.065C376.741 177.624 378.625 177.485 379.586 177.807C379.865 177.9 380.062 178.153 380.079 178.446C380.146 179.595 379.424 181.87 378.539 179.802L377.938 179.822C377.126 182.61 376.04 178.774 376.52 178.065Z" fill="#2D0F28"/>
<path d="M378.165 194.889C378.117 194.889 378.068 194.889 378.021 194.888C377.322 194.883 376.616 194.835 375.93 194.747C375.76 194.727 375.578 194.701 375.379 194.669C370.96 193.966 367.01 191.618 364.257 188.058C361.861 184.961 360.594 181.248 360.594 177.322C360.594 172.629 362.422 168.218 365.74 164.899C369.059 161.581 373.471 159.754 378.165 159.754C382.858 159.754 387.27 161.581 390.588 164.899C393.907 168.218 395.734 172.629 395.734 177.322C395.734 181.352 394.407 185.142 391.895 188.283C389.038 191.856 384.981 194.148 380.469 194.738C379.718 194.838 378.942 194.889 378.165 194.889ZM378.165 160.942C369.132 160.942 361.783 168.29 361.783 177.322C361.783 180.983 362.963 184.444 365.197 187.331C367.764 190.651 371.447 192.84 375.567 193.496C375.75 193.525 375.917 193.549 376.077 193.568C376.721 193.651 377.378 193.695 378.036 193.7C378.084 193.7 378.124 193.7 378.165 193.7C378.889 193.7 379.612 193.653 380.314 193.56C384.52 193.01 388.303 190.872 390.967 187.541C393.308 184.613 394.546 181.079 394.546 177.322C394.546 168.29 387.198 160.942 378.165 160.942Z" fill="white"/>
<path d="M360.569 177.973L355.914 177.79L355.965 176.49L360.62 176.673L360.569 177.973ZM349.576 177.54L343.238 177.291L343.289 175.991L349.627 176.241L349.576 177.54ZM336.9 177.042L330.563 176.793L330.614 175.493L336.951 175.742L336.9 177.042ZM324.225 176.543L317.887 176.294L317.938 174.994L324.276 175.243L324.225 176.543Z" fill="white"/>
<path d="M374.653 160.297L373.561 154.603L374.839 154.358L375.931 160.052L374.653 160.297ZM372.367 148.375L371.173 142.147L372.451 141.902L373.645 148.13L372.367 148.375ZM369.979 135.918L368.785 129.69L370.063 129.445L371.257 135.674L369.979 135.918Z" fill="white"/>
<path d="M119.739 262.11C117.957 260.328 104.06 235.388 94.4385 248.214C94.4385 248.214 78.7148 212.051 58.804 219.132C58.804 219.132 46.1092 226.48 55.3296 244.785C55.3296 244.785 24.5948 242.825 24.9956 262.11H119.739Z" fill="#7FC6A6"/>
<path d="M73.7549 225.961C73.8163 225.961 73.8769 225.934 73.9177 225.882C73.9884 225.792 73.9728 225.662 73.8831 225.591C73.6774 225.43 68.7973 221.625 64.3366 221.089C64.2224 221.076 64.1201 221.157 64.1065 221.27C64.0929 221.384 64.1739 221.487 64.2874 221.5C68.6316 222.021 73.5778 225.878 73.6272 225.917C73.665 225.947 73.7103 225.961 73.7549 225.961Z" fill="#7FC6A6"/>
<path d="M73.7547 228.36C73.8149 228.36 73.8748 228.334 73.9156 228.284C73.9876 228.195 73.9739 228.065 73.8852 227.993C73.8519 227.966 70.5075 225.28 66.2405 224.036C66.1314 224.004 66.0159 224.067 65.9839 224.176C65.9519 224.286 66.015 224.401 66.1248 224.433C70.309 225.653 73.592 228.288 73.6248 228.314C73.6628 228.345 73.7089 228.36 73.7547 228.36Z" fill="#7FC6A6"/>
<path d="M403.928 261.922H17.6587V262.821H403.928V261.922Z" fill="#223749"/>
<path d="M246.176 223.893C251.68 218.391 251.68 209.469 246.176 203.966C240.672 198.463 231.749 198.463 226.246 203.966C220.742 209.469 220.742 218.391 226.246 223.893C231.749 229.396 240.672 229.396 246.176 223.893Z" fill="white"/>
<path d="M233.595 221.108L228.28 213.717C228.029 213.367 228.108 212.88 228.458 212.628C228.808 212.377 229.296 212.456 229.547 212.806L233.653 218.514L243.916 205.496C244.182 205.158 244.673 205.1 245.012 205.367C245.35 205.634 245.408 206.124 245.141 206.462L233.595 221.108Z" fill="#5AB3BF"/>
</g>
</g>
<defs>
<clipPath id="clip0_11404_170664">
<path d="M0 20C0 8.9543 8.95431 0 20 0H404C415.046 0 424 8.95431 424 20V268C424 279.046 415.046 288 404 288H20C8.9543 288 0 279.046 0 268V20Z" fill="white"/>
</clipPath>
<clipPath id="clip1_11404_170664">
<rect width="424" height="288" fill="white"/>
</clipPath>
</defs>
</svg>
