<svg width="415" height="231" viewBox="0 0 415 231" fill="none" xmlns="http://www.w3.org/2000/svg">
<g clip-path="url(#clip0_11404_171856)">
<path d="M197.399 210.879C142.264 182.823 141.956 193.519 90.974 212.654C35.7436 233.382 1.62857 216.73 0.128146 186.428C-4.05436 101.944 95.6045 145.293 85.7616 79.8259C78.5101 31.5911 111.132 9.71083 130.464 3.20972C165.385 -8.53471 228.495 12.1266 224.759 62.6499C222.875 88.1469 206.749 101.892 238.433 112.871C271.206 124.227 378.781 80.6891 378.781 160.801C378.781 240.114 235.428 230.23 197.399 210.879Z" fill="#E7F4FA"/>
<path d="M260.782 169.209C260.782 171.604 262.721 173.547 265.121 173.547H360.494C362.896 173.547 364.839 171.604 364.839 169.209V109.525C364.839 107.131 362.896 105.19 360.494 105.19H265.121C262.721 105.19 260.782 107.131 260.782 109.525V169.209Z" fill="#D4E6ED"/>
<path d="M265.121 105.19H360.494C362.896 105.19 364.839 107.131 364.839 109.525V117.576H260.782V109.525C260.782 107.131 262.721 105.19 265.121 105.19Z" fill="#BFD7F5"/>
<path d="M354.307 111.423C354.307 112.605 355.272 113.57 356.466 113.57C357.657 113.57 358.622 112.605 358.622 111.423C358.622 110.227 357.657 109.268 356.466 109.268C355.272 109.268 354.307 110.227 354.307 111.423Z" fill="white"/>
<path d="M348.856 111.423C348.856 112.605 349.823 113.57 351.019 113.57C352.207 113.57 353.175 112.605 353.175 111.423C353.175 110.227 352.207 109.268 351.019 109.268C349.823 109.268 348.856 110.227 348.856 111.423Z" fill="white"/>
<path d="M343.6 111.423C343.6 112.605 344.564 113.57 345.759 113.57C346.947 113.57 347.912 112.605 347.912 111.423C347.912 110.227 346.947 109.268 345.759 109.268C344.564 109.268 343.6 110.227 343.6 111.423Z" fill="white"/>
<path d="M264.984 169.209C264.984 171.604 266.923 173.547 269.323 173.547H364.696C367.099 173.547 369.041 171.604 369.041 169.209V109.525C369.041 107.131 367.099 105.19 364.696 105.19H269.323C266.923 105.19 264.984 107.131 264.984 109.525V169.209Z" fill="white"/>
<path d="M269.323 105.19H364.696C367.099 105.19 369.041 107.131 369.041 109.525V117.576H264.984V109.525C264.984 107.131 266.923 105.19 269.323 105.19Z" fill="#C9E1F9"/>
<path d="M358.508 111.423C358.508 112.605 359.473 113.57 360.668 113.57C361.858 113.57 362.823 112.605 362.823 111.423C362.823 110.227 361.858 109.268 360.668 109.268C359.473 109.268 358.508 110.227 358.508 111.423Z" fill="#969924"/>
<path d="M353.058 111.423C353.058 112.605 354.025 113.57 355.221 113.57C356.409 113.57 357.377 112.605 357.377 111.423C357.377 110.227 356.409 109.268 355.221 109.268C354.025 109.268 353.058 110.227 353.058 111.423Z" fill="#FEC000"/>
<path d="M347.801 111.423C347.801 112.605 348.766 113.57 349.961 113.57C351.148 113.57 352.114 112.605 352.114 111.423C352.114 110.227 351.148 109.268 349.961 109.268C348.766 109.268 347.801 110.227 347.801 111.423Z" fill="#DC4026"/>
<path d="M112.285 207.36C112.285 207.36 108.071 83.881 63.0468 76.1192C18.0223 68.3574 36.8762 153.171 93.9996 209.98L112.285 207.36Z" fill="#20997C"/>
<path d="M111.144 215.207C88.4483 193.368 63.5426 103.71 63.2021 102.581L64.0434 102.422C64.3824 103.556 89.2211 192.998 111.75 214.679L111.144 215.207Z" fill="#178369"/>
<path d="M79.1085 153.367C76.3716 153.3 73.1298 151.526 69.4385 148.072L70.0383 147.534C74.2512 151.47 77.7653 153.11 80.477 152.405C84.9569 151.235 85.9084 144.022 85.9206 143.953L86.7893 144.104C86.7468 144.421 85.7514 151.881 80.7737 153.179C80.2436 153.32 79.6905 153.381 79.1085 153.367Z" fill="#178369"/>
<path d="M70.2619 127.205C67.525 127.137 64.2833 125.368 60.5869 121.915L61.1885 121.371C65.405 125.322 68.9196 126.957 71.6256 126.247C76.106 125.081 77.0647 117.865 77.0733 117.79L77.9398 117.946C77.9031 118.269 76.9077 125.728 71.9267 127.026C71.3937 127.162 70.8386 127.22 70.2619 127.205Z" fill="#178369"/>
<path d="M64.8148 112.047C62.0773 111.979 58.8342 110.196 55.144 106.748L55.7402 106.204C59.9531 110.149 63.4736 111.785 66.1799 111.079C70.6604 109.909 71.6166 102.692 71.6222 102.623L72.4894 102.783C72.4513 103.096 71.4596 110.551 66.479 111.854C65.9466 111.995 65.3958 112.061 64.8148 112.047Z" fill="#178369"/>
<path d="M75.1913 141.508C72.9045 141.452 70.2 139.97 67.1221 137.099L67.7241 136.561C71.1903 139.799 74.0843 141.161 76.299 140.574C79.9572 139.62 80.7559 133.682 80.7624 133.622L81.6253 133.777C81.5965 134.042 80.7675 140.264 76.5979 141.348C76.1507 141.472 75.6789 141.52 75.1913 141.508Z" fill="#178369"/>
<path d="M83.808 166.346C81.0711 166.278 77.8292 164.499 74.1387 161.05L74.7372 160.502C78.9456 164.451 82.4597 166.084 85.1714 165.378C89.6485 164.212 90.6108 156.995 90.6165 156.921L91.4859 157.081C91.4491 157.399 90.4537 164.854 85.4754 166.157C84.9431 166.298 84.3849 166.36 83.808 166.346Z" fill="#178369"/>
<path d="M88.1163 181.594C85.3815 181.526 82.1339 179.753 78.4404 176.304L79.0397 175.76C83.256 179.701 86.7751 181.341 89.479 180.631C93.9596 179.465 94.9132 172.254 94.9248 172.179L95.7912 172.335C95.7559 172.643 94.7613 180.107 89.78 181.406C89.2478 181.547 88.6925 181.608 88.1163 181.594Z" fill="#178369"/>
<path d="M93.5278 192.758C91.5493 192.71 89.2128 191.432 86.563 188.95L87.1651 188.411C90.1153 191.18 92.572 192.327 94.444 191.844C97.554 191.033 98.2231 185.972 98.2303 185.922L99.0996 186.084C99.073 186.308 98.3563 191.677 94.7479 192.619C94.3604 192.715 93.9484 192.769 93.5278 192.758Z" fill="#178369"/>
<path d="M97.2819 214.914C94.7841 161.98 57.2049 138.209 56.8268 137.973L55.7197 139.758C56.0894 139.987 92.7386 163.22 95.1816 215.014L97.2819 214.914Z" fill="#59B45A"/>
<path d="M59.9636 141.519C60.3716 141.51 55.7364 130.657 51.0494 132.141C46.3622 133.626 52.6019 141.677 59.9636 141.519Z" fill="#59B45A"/>
<path d="M66.4001 146.806C66.7211 147.058 70.0385 135.734 65.4714 133.914C60.9043 132.094 60.6092 142.268 66.4001 146.806Z" fill="#59B45A"/>
<path d="M74.5482 155.563C74.8024 155.881 80.6451 145.626 76.6211 142.804C72.5977 139.983 69.9612 149.815 74.5482 155.563Z" fill="#59B45A"/>
<path d="M81.6865 164.999C81.94 165.316 87.7834 155.061 83.76 152.239C79.736 149.418 77.0992 159.251 81.6865 164.999Z" fill="#59B45A"/>
<path d="M86.8418 175.209C87.019 175.576 94.9893 166.863 91.6898 163.223C88.3911 159.584 83.6418 168.591 86.8418 175.209Z" fill="#59B45A"/>
<path d="M91.5768 186.2C91.7547 186.567 99.7242 177.853 96.4255 174.213C93.1253 170.575 88.3767 179.582 91.5768 186.2Z" fill="#59B45A"/>
<path d="M93.9503 195.846C94.0403 196.243 103.768 189.539 101.372 185.253C98.9755 180.968 92.3204 188.681 93.9503 195.846Z" fill="#59B45A"/>
<path d="M67.9758 148.08C68.2302 148.398 56.9045 151.783 55.051 147.238C53.1967 142.694 63.3901 142.331 67.9758 148.08Z" fill="#59B45A"/>
<path d="M76.2738 158.389C76.5468 158.691 65.4472 162.754 63.3213 158.328C61.1955 153.902 71.3484 152.927 76.2738 158.389Z" fill="#59B45A"/>
<path d="M82.731 167.306C82.9845 167.625 71.6594 171.009 69.806 166.465C67.9513 161.919 78.1444 161.558 82.731 167.306Z" fill="#59B45A"/>
<path d="M88.7555 179.188C88.9665 179.537 77.3007 181.455 76.0424 176.711C74.7834 171.967 84.9396 172.904 88.7555 179.188Z" fill="#59B45A"/>
<path d="M92.5119 189.916C92.6985 190.279 80.9267 191.369 80.007 186.549C79.0865 181.728 89.1512 183.378 92.5119 189.916Z" fill="#59B45A"/>
<path d="M92.8956 203.482C92.8956 203.482 66.2202 143.01 42.32 148.084C18.4202 153.156 44.6667 191.528 84.3383 208.408L92.8956 203.482Z" fill="#178369"/>
<path d="M100.596 213.348C82.3713 205.945 48.2067 160.317 47.7461 159.742L48.1974 159.455C48.6574 160.035 82.7329 205.551 100.824 212.901L100.596 213.348Z" fill="#116851"/>
<path d="M68.7641 185.489C67.1621 186.084 64.8717 185.805 61.9302 184.658L62.1524 184.208C65.5086 185.514 67.9257 185.651 69.333 184.615C71.6575 182.9 70.5323 178.501 70.5233 178.458L71.0616 178.344C71.1114 178.539 72.2679 183.091 69.6844 184.995C69.4103 185.2 69.1045 185.363 68.7641 185.489Z" fill="#116851"/>
<path d="M57.5586 172.377C55.9567 172.971 53.6674 172.696 50.7236 171.55L50.9459 171.096C54.3069 172.409 56.7234 172.544 58.1261 171.507C60.4509 169.795 59.3303 165.391 59.3179 165.346L59.8559 165.235C59.9096 165.432 61.0663 169.983 58.4818 171.888C58.2046 172.09 57.8957 172.253 57.5586 172.377Z" fill="#116851"/>
<path d="M50.8801 164.856C49.2789 165.45 46.9854 165.167 44.0459 164.023L44.2651 163.57C47.6229 164.881 50.0425 165.014 51.4467 163.979C53.771 162.264 52.6478 157.861 52.6357 157.82L53.1748 157.712C53.2254 157.902 54.3834 162.451 51.7998 164.358C51.5241 164.564 51.2202 164.729 50.8801 164.856Z" fill="#116851"/>
<path d="M63.7383 179.523C62.4 180.02 60.4885 179.787 58.0386 178.835L58.2619 178.384C61.0231 179.459 63.0161 179.579 64.1635 178.726C66.0608 177.327 65.144 173.701 65.1344 173.665L65.6704 173.555C65.7146 173.715 66.6807 177.513 64.516 179.106C64.285 179.28 64.0239 179.417 63.7383 179.523Z" fill="#116851"/>
<path d="M74.5019 191.921C72.9001 192.516 70.6081 192.235 67.6689 191.09L67.8883 190.635C71.244 191.949 73.66 192.082 75.0666 191.045C77.3901 189.334 76.2709 184.929 76.2572 184.885L76.7981 184.778C76.8507 184.97 78.0052 189.52 75.4239 191.427C75.1487 191.631 74.839 191.796 74.5019 191.921Z" fill="#116851"/>
<path d="M80.5402 199.76C78.9398 200.355 76.6466 200.078 73.7051 198.933L73.9255 198.481C77.284 199.788 79.7047 199.925 81.1063 198.887C83.4313 197.175 82.3084 192.775 82.2976 192.73L82.8364 192.62C82.8875 192.805 84.0457 197.362 81.4607 199.266C81.1856 199.472 80.8773 199.635 80.5402 199.76Z" fill="#116851"/>
<path d="M86.2701 204.977C85.1127 205.407 83.4619 205.207 81.3501 204.382L81.5734 203.931C83.9271 204.852 85.6168 204.949 86.5892 204.236C88.2025 203.046 87.4139 199.959 87.4074 199.929L87.9483 199.821C87.985 199.957 88.8169 203.233 86.945 204.614C86.7426 204.759 86.5164 204.886 86.2701 204.977Z" fill="#116851"/>
<path d="M415.001 223.26C415.001 227.536 325.863 231.002 215.907 231.002C105.95 231.002 16.813 227.536 16.813 223.26C16.813 218.984 105.95 215.517 215.907 215.517C325.863 215.517 415.001 218.984 415.001 223.26Z" fill="#CDE1E8"/>
<path d="M320.384 206.262C320.384 210.862 316.357 214.592 311.402 214.592H106.355C101.391 214.592 97.3682 210.862 97.3682 206.262V86.0112C97.3682 81.4119 101.391 77.6773 106.355 77.6773H311.402C316.357 77.6773 320.384 81.4119 320.384 86.0112V206.262Z" fill="#142480"/>
<path d="M311.403 215.291H106.356C101.013 215.291 96.667 211.239 96.667 206.261V86.0105C96.667 81.0281 101.013 76.9758 106.356 76.9758H311.403C316.74 76.9758 321.086 81.0281 321.086 86.0105V206.261C321.086 211.239 316.74 215.291 311.403 215.291Z" fill="#2537A2"/>
<path d="M325.081 206.262C325.081 210.862 321.053 214.592 316.099 214.592H111.052C106.087 214.592 102.065 210.862 102.065 206.262V86.0112C102.065 81.4119 106.087 77.6773 111.052 77.6773H316.099C321.053 77.6773 325.081 81.4119 325.081 86.0112V206.262Z" fill="#4D6AC4"/>
<path d="M316.099 215.291H111.053C105.71 215.291 101.364 211.239 101.364 206.261V86.0105C101.364 81.0281 105.71 76.9758 111.053 76.9758H316.099C321.436 76.9758 325.782 81.0281 325.782 86.0105V206.261C325.782 211.239 321.436 215.291 316.099 215.291Z" fill="#4D6AC4"/>
<path d="M317.31 207.607H108.014V86.4086H317.31V207.607Z" fill="#C5E1EA"/>
<path d="M314.044 207.607H108.014V86.4086H314.044V207.607Z" fill="#E7F4FA"/>
<path d="M343.719 220.416H80.5845V207.017H343.719V220.416Z" fill="#4D6AC4"/>
<path d="M344.438 221.115H79.8657V206.316H344.438V221.115Z" fill="#4D6AC4"/>
<path d="M126.583 162.822C126.583 166.748 129.761 169.932 133.695 169.932H290.047C293.986 169.932 297.171 166.748 297.171 162.822V64.9779C297.171 61.0528 293.986 57.8687 290.047 57.8687H133.695C129.761 57.8687 126.583 61.0528 126.583 64.9779V162.822Z" fill="#C5E1EA"/>
<path d="M133.695 57.8696H290.047C293.986 57.8696 297.171 61.0537 297.171 64.9788V78.1758H126.583V64.9788C126.583 61.0537 129.761 57.8696 133.695 57.8696Z" fill="#B7D9F7"/>
<path d="M279.904 68.0921C279.904 70.0299 281.485 71.6133 283.444 71.6133C285.396 71.6133 286.978 70.0299 286.978 68.0921C286.978 66.1321 285.396 64.5594 283.444 64.5594C281.485 64.5594 279.904 66.1321 279.904 68.0921Z" fill="white"/>
<path d="M270.968 68.0921C270.968 70.0299 272.555 71.6133 274.514 71.6133C276.462 71.6133 278.049 70.0299 278.049 68.0921C278.049 66.1321 276.462 64.5594 274.514 64.5594C272.555 64.5594 270.968 66.1321 270.968 68.0921Z" fill="white"/>
<path d="M262.351 68.0921C262.351 70.0299 263.932 71.6133 265.891 71.6133C267.838 71.6133 269.421 70.0299 269.421 68.0921C269.421 66.1321 267.838 64.5594 265.891 64.5594C263.932 64.5594 262.351 66.1321 262.351 68.0921Z" fill="white"/>
<path d="M133.471 162.822C133.471 166.748 136.65 169.932 140.583 169.932H296.935C300.874 169.932 304.058 166.748 304.058 162.822V64.9779C304.058 61.0528 300.874 57.8687 296.935 57.8687H140.583C136.65 57.8687 133.471 61.0528 133.471 64.9779V162.822Z" fill="white"/>
<path d="M140.583 57.8696H296.935C300.874 57.8696 304.058 61.0537 304.058 64.9788V78.1758H133.471V64.9788C133.471 61.0537 136.65 57.8696 140.583 57.8696Z" fill="#C1E3FB"/>
<path d="M286.792 68.0921C286.792 70.0299 288.373 71.6133 290.332 71.6133C292.284 71.6133 293.866 70.0299 293.866 68.0921C293.866 66.1321 292.284 64.5594 290.332 64.5594C288.373 64.5594 286.792 66.1321 286.792 68.0921Z" fill="white"/>
<path d="M277.855 68.0921C277.855 70.0299 279.444 71.6133 281.402 71.6133C283.35 71.6133 284.937 70.0299 284.937 68.0921C284.937 66.1321 283.35 64.5594 281.402 64.5594C279.444 64.5594 277.855 66.1321 277.855 68.0921Z" fill="white"/>
<path d="M269.24 68.0921C269.24 70.0299 270.82 71.6133 272.778 71.6133C274.727 71.6133 276.308 70.0299 276.308 68.0921C276.308 66.1321 274.727 64.5594 272.778 64.5594C270.82 64.5594 269.24 66.1321 269.24 68.0921Z" fill="white"/>
<path d="M118.315 64.4062H85.8142C82.4931 64.4062 79.7764 61.6951 79.7764 58.3817V52.5813C79.7764 49.2672 82.4931 46.5553 85.8142 46.5553H118.315C121.636 46.5553 124.353 49.2672 124.353 52.5813V58.3817C124.353 61.6951 121.636 64.4062 118.315 64.4062Z" fill="#FEB801"/>
<path d="M94.3291 63.5601V69.1836L102.848 63.5601H94.3291Z" fill="#FEB801"/>
<path d="M95.3645 55.7824C95.3645 57.2839 94.1458 58.5 92.6419 58.5C91.1373 58.5 89.918 57.2839 89.918 55.7824C89.918 54.2816 91.1373 53.0648 92.6419 53.0648C94.1458 53.0648 95.3645 54.2816 95.3645 55.7824Z" fill="#E08B03"/>
<path d="M104.381 55.7824C104.381 57.2839 103.161 58.5 101.658 58.5C100.153 58.5 98.9336 57.2839 98.9336 55.7824C98.9336 54.2816 100.153 53.0648 101.658 53.0648C103.161 53.0648 104.381 54.2816 104.381 55.7824Z" fill="#E08B03"/>
<path d="M113.397 55.7824C113.397 57.2839 112.178 58.5 110.673 58.5C109.169 58.5 107.95 57.2839 107.95 55.7824C107.95 54.2816 109.169 53.0648 110.673 53.0648C112.178 53.0648 113.397 54.2816 113.397 55.7824Z" fill="#E08B03"/>
<path d="M289.078 43.4863H259.557C255.418 43.4863 252.032 40.1068 252.032 35.9761V33.1471C252.032 29.0164 255.418 25.6368 259.557 25.6368H289.078C293.218 25.6368 296.604 29.0164 296.604 33.1471V35.9761C296.604 40.1068 293.218 43.4863 289.078 43.4863Z" fill="#2F2E6A"/>
<path d="M266.582 42.6409V48.2637L275.1 42.6409H266.582Z" fill="#2F2E6A"/>
<path d="M267.619 34.8644C267.619 36.3652 266.399 37.582 264.895 37.582C263.391 37.582 262.172 36.3652 262.172 34.8644C262.172 33.3637 263.391 32.1468 264.895 32.1468C266.399 32.1468 267.619 33.3637 267.619 34.8644Z" fill="#F0F8FF"/>
<path d="M276.633 34.8644C276.633 36.3652 275.415 37.582 273.91 37.582C272.406 37.582 271.188 36.3652 271.188 34.8644C271.188 33.3637 272.406 32.1468 273.91 32.1468C275.415 32.1468 276.633 33.3637 276.633 34.8644Z" fill="#F0F8FF"/>
<path d="M285.649 34.8644C285.649 36.3652 284.429 37.582 282.925 37.582C281.422 37.582 280.202 36.3652 280.202 34.8644C280.202 33.3637 281.422 32.1468 282.925 32.1468C284.429 32.1468 285.649 33.3637 285.649 34.8644Z" fill="#F0F8FF"/>
<path d="M51.6457 211.676C55.261 211.676 58.219 208.725 58.219 205.116V196.837C58.219 193.229 55.261 190.278 51.6457 190.278C48.0303 190.278 45.0723 193.229 45.0723 196.837V205.116C45.0723 208.725 48.0303 211.676 51.6457 211.676Z" fill="#5FB7FF"/>
<path d="M52.9808 208.1H55.5293C58.1981 208.1 60.3816 205.921 60.3816 203.257V198.697C60.3816 196.034 58.1981 193.855 55.5293 193.855H52.9808C50.3119 193.855 48.1284 196.034 48.1284 198.697V203.257C48.1284 205.921 50.3119 208.1 52.9808 208.1Z" fill="white"/>
<path d="M63.6294 223.92H81.7489C87.1536 223.92 91.5349 219.548 91.5349 214.154V185.62C91.5349 183.056 89.4512 180.977 86.8821 180.977H58.4959C55.9261 180.977 53.8433 183.056 53.8433 185.62V214.154C53.8433 219.548 58.2247 223.92 63.6294 223.92Z" fill="#5FB7FF"/>
<path d="M37.6226 193.859L37.2745 182.33L24.9448 188.471L37.6226 193.859Z" fill="#FA8FB8"/>
<path d="M335.603 95.249C335.603 95.249 319.033 90.501 314.81 98.6495C310.587 106.798 316.698 114.06 306.259 114.266C295.821 114.473 295.822 114.473 295.822 114.473L306.46 118.815L295.518 124.173C295.518 124.173 311.254 128.446 317.909 124.134C324.564 119.82 320.203 105.614 335.167 111.091L335.603 95.249Z" fill="#FC636B"/>
<path d="M295.518 124.173C295.518 124.173 311.254 128.446 317.909 124.134C324.564 119.82 320.203 105.614 335.167 111.091L335.459 100.488C333.063 100.4 330.29 100.288 327.211 100.15C316.738 99.6823 321.43 115.972 312.804 119.398C309.972 120.522 306.46 118.815 306.46 118.815L295.518 124.173Z" fill="#EC3B59"/>
<path d="M345.828 170.775C345.828 170.775 353.296 167.064 354.731 162.978C356.166 158.894 353.175 156.993 353.175 156.993C353.175 156.993 347.655 165.468 343.284 167.171C338.915 168.874 345.828 170.775 345.828 170.775Z" fill="#FFBE9E"/>
<path d="M357.364 153.114C362.061 157.526 352.401 167.525 352.401 167.525L346.548 163.771C346.548 163.771 352.786 148.811 357.364 153.114Z" fill="#EC3B59"/>
<path d="M344.227 170.649C341.002 169.377 334.242 163.162 334.242 163.162L336.816 162.344L347.178 167.281C347.178 167.281 347.509 171.946 344.227 170.649Z" fill="#FFBE9E"/>
<path d="M337.29 162.256C337.238 161.967 337.358 161.625 337.379 161.336C337.42 160.765 337.274 160.208 337.12 159.662C337.035 159.358 337.214 158.618 336.836 158.467C336.218 158.218 336.255 159.529 336.162 159.811C336.076 160.072 335.854 160.319 335.58 160.309C335.399 160.303 335.241 160.188 335.104 160.071C334.664 159.698 334.288 159.259 333.889 158.843C333.683 158.628 333.464 158.428 333.244 158.226C333.08 158.075 332.919 157.808 332.725 157.705C332.571 157.625 332.335 157.672 332.285 157.86C332.239 158.029 332.389 158.11 332.478 158.227C332.679 158.491 332.871 158.76 333.061 159.03C333.104 159.09 333.332 159.333 333.31 159.411C333.199 159.788 332.577 159.144 332.474 159.047C332.215 158.802 331.935 158.555 331.567 158.498C331.518 158.49 331.463 158.488 331.427 158.522C331.371 158.574 331.404 158.668 331.443 158.735C331.677 159.124 332.046 159.418 332.27 159.813C332.307 159.877 332.339 159.959 332.299 160.021C332.141 160.271 331.648 159.937 331.478 159.842C331.37 159.781 331.229 159.716 331.133 159.793C331.07 159.844 331.058 159.939 331.083 160.015C331.108 160.092 331.162 160.155 331.216 160.215C331.373 160.394 331.521 160.594 331.699 160.752C331.785 160.827 332.058 161.029 331.982 161.166C331.967 161.193 331.936 161.208 331.906 161.214C331.796 161.238 331.687 161.183 331.58 161.147C331.475 161.11 331.341 161.094 331.264 161.176C331.168 161.276 331.229 161.442 331.307 161.558C331.585 161.971 332.014 162.287 332.398 162.598C332.808 162.931 333.235 163.245 333.674 163.54C334.258 163.93 334.865 164.286 335.492 164.604C336.039 164.882 336.683 165.164 337.31 165.016C337.488 164.974 337.655 164.897 337.817 164.816C338.031 164.71 338.243 164.592 338.415 164.427C338.587 164.261 338.716 164.039 338.725 163.8C338.727 163.768 338.725 163.734 338.711 163.705C338.693 163.668 338.656 163.643 338.621 163.622C338.351 163.452 338.07 163.297 337.827 163.09C337.59 162.887 337.385 162.615 337.29 162.256Z" fill="#FFBE9E"/>
<path d="M390.882 216.605C390.882 216.605 393.228 218.894 393.339 219.453C393.669 221.121 389.577 224.977 387.475 225.421C387.181 225.483 386.653 225.282 386.675 224.439C386.699 223.597 388.566 220.933 387.526 220.042C386.488 219.151 390.882 216.605 390.882 216.605Z" fill="#E8A32B"/>
<path d="M377.832 195.788C377.832 195.788 379.238 181.673 378.95 178.646C378.526 174.198 373.199 148.523 369.467 173.394C368.941 176.891 366.446 202.62 371.843 205.16C376.739 207.464 377.832 195.788 377.832 195.788Z" fill="#5B5196"/>
<path d="M385.407 221.188C381.087 217.494 369.318 204.515 368.817 200.13C368.276 195.389 374.729 195.38 378.82 200.154C381.471 203.247 390.309 213.845 392.504 216.884C393.037 217.622 391.452 219.473 390.283 220.293C390.254 220.314 386.656 222.255 385.407 221.188Z" fill="#5B5196"/>
<path d="M364.53 219.781C364.53 219.781 365.59 222.88 365.435 223.43C364.977 225.066 359.581 226.665 357.504 226.116C357.214 226.04 356.833 225.621 357.235 224.879C357.637 224.138 360.507 222.602 359.982 221.339C359.457 220.075 364.53 219.781 364.53 219.781Z" fill="#E8A32B"/>
<path d="M362.292 195.329C362.292 195.329 369.927 183.365 371.038 180.533C372.671 176.373 370.096 171.32 364.948 171.577C361.408 171.754 349.042 196.302 352.712 200.999C356.039 205.258 362.292 195.329 362.292 195.329Z" fill="#5F509B"/>
<path d="M357.573 221.406C355.386 216.164 350.749 199.285 352.284 195.145C353.944 190.671 359.708 193.567 361.201 199.669C362.169 203.623 365.267 217.059 365.852 220.761C365.995 221.659 363.744 222.597 362.329 222.803C362.294 222.808 358.204 222.921 357.573 221.406Z" fill="#5B5196"/>
<path d="M351.845 157.304C351.097 152.53 357.23 149.248 362.684 147.519C366.359 146.354 369.109 146.379 371.595 150.457C373.179 153.057 378.304 165.321 378.19 169.291C378.19 169.291 373.972 175.411 359.014 177.805C359.014 177.805 353.445 167.508 351.845 157.304Z" fill="#FC636B"/>
<path d="M359.423 142.283C359.423 142.283 354.751 145.973 355.251 146.257C355.754 146.538 355.669 147.647 356.066 148.485C356.495 149.395 356.366 150.645 356.011 151.952C355.762 152.866 357.14 153.135 358.112 152.865C362.305 151.698 364.02 149.076 362.597 148.236C359.399 146.348 359.423 142.283 359.423 142.283Z" fill="#FFBE9E"/>
<path d="M356.066 148.486C355.669 147.648 355.754 146.539 355.251 146.257C354.751 145.974 359.792 141.994 359.792 141.994C359.792 141.994 359.368 143.288 359.871 144.673C359.348 147.556 357.437 149.309 356.293 150.555C356.408 149.882 356.22 148.815 356.066 148.486Z" fill="#FF9C81"/>
<path d="M351.195 138.858C349.905 141.419 350.795 147.638 354.207 149.131C356.081 149.95 359.646 146.348 360.157 142.306C360.224 141.781 359.746 139.197 357.45 137.251C356.415 136.367 352.536 136.195 351.195 138.858Z" fill="#FFBE9E"/>
<path d="M350.902 144.243C351.068 144.57 349.765 140.777 351.656 139.546C352.425 139.046 352.665 139.996 353.649 139.599C354.488 139.26 356.114 136.44 357.558 141.715C357.626 141.968 357.981 142.133 358.19 142.288C358.449 142.479 358.326 143.267 358.474 143.552C358.617 143.827 359.032 142.564 359.153 142.849C359.335 143.281 359.185 144.81 359.87 144.673C360.202 144.607 360.326 143.96 360.463 143.696C360.849 142.949 361.372 142.307 361.602 141.481C361.856 140.572 361.763 139.592 361.496 138.687C361.233 137.79 360.783 136.921 360.067 136.319C359.32 135.691 358.301 135.395 357.333 135.526C356.761 135.604 356.195 135.863 355.615 135.864C355.103 135.865 354.627 136.034 354.111 136.037C353.7 136.04 353.48 135.897 353.127 135.728C352.358 135.361 351.411 135.346 350.666 135.758C349.921 136.171 349.422 137.022 349.498 137.869C349.541 138.347 349.738 138.886 349.444 139.267C349.338 139.405 349.178 139.498 349.086 139.646C348.998 139.787 348.982 139.96 348.982 140.126C348.983 140.997 349.371 141.839 349.938 142.503C350.164 142.768 350.425 143.017 350.559 143.345C350.681 143.643 350.755 143.952 350.902 144.243Z" fill="#53424D"/>
<path d="M357.645 143.156C357.645 143.156 358.486 141.122 359.49 141.095C360.497 141.069 360.444 143.859 358.602 144.383C356.763 144.906 357.363 143.733 357.645 143.156Z" fill="#FFBE9E"/>
<path d="M355.788 143.339C355.816 143.301 355.754 143.378 355.741 143.39C355.688 143.443 355.636 143.493 355.571 143.531C355.323 143.682 355.122 143.569 354.954 143.38C354.848 143.261 354.669 143.443 354.774 143.561C355.148 143.981 355.676 143.9 356.009 143.455C356.107 143.325 355.884 143.21 355.788 143.339Z" fill="#201714"/>
<path d="M352.967 143.652C352.934 143.739 352.881 143.829 352.82 143.9C352.62 144.133 352.401 144.046 352.2 143.865C352.081 143.759 351.901 143.94 352.02 144.048C352.259 144.26 352.57 144.404 352.872 144.189C353.033 144.073 353.146 143.89 353.214 143.71C353.271 143.558 353.024 143.503 352.967 143.652Z" fill="#201714"/>
<path d="M351.981 142.683C352.321 142.423 352.715 142.466 353.024 142.756C353.169 142.892 353.363 142.653 353.22 142.519C352.81 142.134 352.254 142.086 351.801 142.434C351.644 142.555 351.824 142.804 351.981 142.683Z" fill="#4D2F20"/>
<path d="M354.654 142.534C354.91 142.192 355.301 142.127 355.677 142.322C355.854 142.414 355.976 142.132 355.801 142.041C355.303 141.782 354.755 141.885 354.412 142.343C354.293 142.502 354.535 142.693 354.654 142.534Z" fill="#4D2F20"/>
<path d="M353.731 143.03C353.9 143.256 354.043 143.537 354.059 143.819C354.084 144.23 353.722 144.548 353.602 144.937C353.438 145.473 353.842 145.611 354.409 145.572C354.545 145.561 354.548 145.384 354.411 145.394C353.144 145.483 354.27 144.408 354.273 143.866C354.275 143.527 354.116 143.193 353.914 142.923C353.846 142.831 353.662 142.938 353.731 143.03Z" fill="#7C4930"/>
<path d="M355.552 145.708C355.552 145.708 355.988 146.672 355.166 146.977C354.343 147.283 353.927 146.427 353.927 146.427L355.552 145.708Z" fill="#FAFFFF"/>
<path d="M357.017 144.89C357.024 145.22 356.762 145.493 356.432 145.5C356.102 145.508 355.827 145.246 355.821 144.917C355.813 144.587 356.075 144.314 356.405 144.306C356.736 144.299 357.009 144.56 357.017 144.89Z" fill="#FF9C81"/>
<path d="M351.797 145.214C351.97 144.929 352.342 144.839 352.628 145.011C352.914 145.186 353.005 145.557 352.831 145.842C352.658 146.128 352.284 146.218 351.999 146.045C351.713 145.871 351.623 145.499 351.797 145.214Z" fill="#FF9C81"/>
<path d="M376.395 165.129C376.395 165.129 376.439 156.803 373.432 153.684C370.424 150.565 367.376 152.374 367.376 152.374C367.376 152.374 372.47 161.11 372.024 165.77C371.578 170.431 376.395 165.129 376.395 165.129Z" fill="#FFBE9E"/>
<path d="M365.794 146.893C371.858 144.697 376.449 157.808 376.449 157.808L370.453 161.33C370.453 161.33 359.881 149.033 365.794 146.893Z" fill="#EC3B59"/>
<path d="M375.562 166.498C372.97 168.797 364.363 172.02 364.363 172.02L364.792 169.357L373.876 162.351C373.876 162.351 378.2 164.157 375.562 166.498Z" fill="#FFBE9E"/>
<path d="M364.926 168.897C364.645 168.814 364.393 168.552 364.145 168.403C363.651 168.109 363.087 167.988 362.529 167.88C362.22 167.819 361.639 167.326 361.333 167.593C360.832 168.033 362.021 168.59 362.232 168.8C362.426 168.994 362.547 169.303 362.415 169.543C362.328 169.702 362.154 169.79 361.987 169.861C361.455 170.085 360.893 170.221 360.342 170.388C360.055 170.476 359.779 170.581 359.499 170.685C359.289 170.764 358.978 170.787 358.799 170.913C358.658 171.015 358.594 171.246 358.739 171.376C358.869 171.492 359.009 171.395 359.154 171.368C359.481 171.309 359.808 171.258 360.136 171.211C360.208 171.2 360.529 171.106 360.588 171.161C360.876 171.43 360.019 171.693 359.886 171.741C359.55 171.862 359.203 172 358.986 172.302C358.957 172.342 358.932 172.39 358.945 172.437C358.967 172.51 359.065 172.525 359.142 172.519C359.596 172.487 360.025 172.291 360.479 172.268C360.553 172.265 360.641 172.273 360.679 172.337C360.831 172.59 360.31 172.878 360.147 172.987C360.045 173.056 359.924 173.152 359.949 173.272C359.966 173.351 360.046 173.405 360.125 173.417C360.205 173.429 360.286 173.409 360.364 173.389C360.594 173.33 360.84 173.287 361.062 173.2C361.168 173.158 361.472 173.005 361.56 173.134C361.578 173.16 361.576 173.194 361.568 173.224C361.54 173.333 361.442 173.405 361.362 173.484C361.28 173.56 361.207 173.673 361.244 173.778C361.291 173.909 361.468 173.93 361.606 173.913C362.101 173.851 362.576 173.612 363.028 173.41C363.511 173.193 363.984 172.955 364.445 172.697C365.058 172.352 365.65 171.972 366.217 171.557C366.713 171.196 367.256 170.748 367.405 170.122C367.448 169.946 367.454 169.763 367.454 169.581C367.456 169.342 367.446 169.101 367.376 168.873C367.305 168.645 367.165 168.429 366.955 168.314C366.927 168.299 366.896 168.284 366.864 168.284C366.822 168.284 366.784 168.306 366.748 168.326C366.475 168.49 366.209 168.672 365.915 168.794C365.627 168.914 365.291 168.975 364.926 168.897Z" fill="#FFBE9E"/>
<path d="M336.092 224.35H334.242V93.8736H336.092V224.35Z" fill="#6B504F"/>
<path d="M335.294 89.3634L332.614 92.8766L335.294 96.3906L337.719 92.8766L335.294 89.3634Z" fill="#6B504F"/>
<path d="M233.208 136.522C233.208 136.522 227.225 130.342 227.239 125.873C227.254 121.406 230.82 120.586 230.82 120.586C230.82 120.586 233.263 130.73 236.927 133.89C240.591 137.049 233.208 136.522 233.208 136.522Z" fill="#CC8B6E"/>
<path d="M225.937 117.793C220.178 121.127 227.942 132.275 227.942 132.275L234.708 129.874C234.708 129.874 231.551 114.542 225.937 117.793Z" fill="#2F7EDD"/>
<path d="M239.553 137.28C239.553 137.28 244.209 140.358 244.559 140.76C246.806 143.34 248.4 143.95 247.769 144.378C246.607 145.166 243.363 143.141 242.872 142.85C242.271 142.491 240.835 141.414 240.384 140.952C239.932 140.489 239.553 137.28 239.553 137.28Z" fill="#CC8B6E"/>
<path d="M232.307 135.499C234.351 138.431 242.869 142.877 242.869 142.877L242.848 140.094L234.975 131.846C234.975 131.846 230.266 132.565 232.307 135.499Z" fill="#CC8B6E"/>
<path d="M229.162 159.5L205.994 143.191L206.451 139.852L228.478 138.183L229.162 159.5Z" fill="#FC636B"/>
<path d="M198.341 134.355C198.341 134.355 207.017 130.343 208.639 125.978C210.262 121.613 206.742 119.612 206.742 119.612C206.742 119.612 200.404 128.686 195.321 130.534C190.238 132.382 198.341 134.355 198.341 134.355Z" fill="#CC8B6E"/>
<path d="M214.846 115.485C214.846 115.485 212.674 116.202 213.032 120.577C213.472 125.993 205.092 131.217 205.092 131.217L199.17 127.364C199.17 127.364 206.953 116.106 214.846 115.485Z" fill="#2F7EDD"/>
<path d="M209.148 119.651C210.638 114.889 217.817 114.644 223.656 115.526C227.592 116.121 230.126 117.397 230.563 122.304C230.842 125.433 229.98 139.121 228.058 142.745C228.058 142.745 221.354 146.49 206.411 141.895C206.411 141.895 205.964 129.827 209.148 119.651Z" fill="#2F7EDD"/>
<path d="M208.803 128.571C208.669 129.532 207.7 130.015 206.827 130.076C206.565 130.093 206.566 129.685 206.827 129.667C207.539 129.618 208.3 129.24 208.41 128.463C208.445 128.205 208.839 128.315 208.803 128.571Z" fill="#2566BB"/>
<path d="M191.264 132.957C191.264 132.957 185.148 134.39 184.625 134.665C181.272 136.425 179.34 136.483 179.859 137.113C180.816 138.273 185.033 137.391 185.666 137.273C186.442 137.125 188.375 136.558 189.027 136.26C189.681 135.96 191.264 132.957 191.264 132.957Z" fill="#CC8B6E"/>
<path d="M199.681 133.66C196.416 135.832 185.66 137.299 185.66 137.299L186.702 134.59L198.162 129.196C198.162 129.196 202.944 131.485 199.681 133.66Z" fill="#CC8B6E"/>
<path d="M220.318 117.396C220.318 117.396 220.184 133.269 218.455 143.149L216.592 143.264C216.592 143.264 219.196 131.504 218.712 117.396H220.318Z" fill="#FDFEFD"/>
<path d="M228.952 143.595C228.952 143.595 214.734 146.344 205.843 142.111L206.451 139.852C206.451 139.852 216.593 143.539 228.727 141L228.952 143.595Z" fill="#29283B"/>
<path d="M221.876 141.301H220.611L220.312 145.08H222.395L221.876 141.301Z" fill="#FC636B"/>
<path d="M213.048 140.865L212.132 140.578L210.565 144.045L212.446 144.633L213.048 140.865Z" fill="#FF4650"/>
<path d="M219.857 120.278C220.031 120.13 220.046 119.875 219.89 119.709C219.735 119.544 219.468 119.53 219.295 119.678C219.121 119.826 219.105 120.081 219.262 120.246C219.416 120.412 219.684 120.427 219.857 120.278Z" fill="#618BF0"/>
<path d="M219.857 124.063C220.031 123.915 220.046 123.66 219.89 123.495C219.735 123.329 219.468 123.315 219.295 123.463C219.121 123.612 219.105 123.865 219.262 124.032C219.416 124.198 219.684 124.212 219.857 124.063Z" fill="#618BF0"/>
<path d="M219.68 127.407C219.523 127.242 219.258 127.227 219.084 127.375C218.91 127.524 218.895 127.779 219.05 127.944C219.206 128.11 219.473 128.124 219.646 127.976C219.819 127.827 219.835 127.573 219.68 127.407Z" fill="#618BF0"/>
<path d="M218.662 131.967C218.488 132.115 218.473 132.37 218.629 132.536C218.784 132.701 219.051 132.716 219.224 132.568C219.398 132.42 219.413 132.164 219.258 131.999C219.102 131.833 218.836 131.819 218.662 131.967Z" fill="#618BF0"/>
<path d="M218.292 137.205C218.125 137.353 218.111 137.608 218.259 137.773C218.408 137.94 218.663 137.954 218.83 137.805C218.996 137.657 219.01 137.402 218.861 137.237C218.712 137.071 218.457 137.057 218.292 137.205Z" fill="#618BF0"/>
<path d="M223.031 109.194C223.031 109.194 217.018 110.484 217.352 110.974C217.688 111.464 217.102 112.452 217.087 113.408C217.067 114.446 216.377 115.544 215.451 116.592C214.803 117.326 215.955 118.203 216.979 118.394C221.394 119.223 224.181 117.576 223.248 116.151C221.15 112.948 223.031 109.194 223.031 109.194Z" fill="#CC8C71"/>
<path d="M217.086 113.407C217.102 112.451 217.688 111.462 217.352 110.972C217.018 110.483 223.506 109.093 223.506 109.093C223.506 109.093 222.521 110.098 222.353 111.609C220.444 113.274 218.355 114.13 216.727 114.764C216.929 114.343 217.08 113.782 217.086 113.407Z" fill="#BF7C64"/>
<path d="M216.979 102.277C214.613 104.061 212.594 110.224 215.071 113.159C216.431 114.772 221.379 113.059 223.7 109.549C224.002 109.094 224.741 106.483 223.506 103.637C222.951 102.348 219.439 100.422 216.979 102.277Z" fill="#CC8B6E"/>
<path d="M214.247 107.128C214.25 107.506 214.778 103.401 217.092 103.122C218.033 103.009 217.821 103.998 218.913 104.078C219.845 104.147 222.64 102.276 221.564 107.817C221.513 108.083 221.765 108.397 221.888 108.636C222.041 108.93 221.566 109.604 221.573 109.936C221.58 110.255 222.542 109.275 222.522 109.593C222.494 110.076 221.657 111.424 222.353 111.609C223.183 111.828 224.237 109.072 224.6 106.493C224.693 105.831 225.25 103.25 225.292 102.693C225.38 101.507 220.489 98.2565 217.927 98.2594C216.415 98.2609 215.887 101.803 215.38 103.09C214.883 104.352 214.235 105.683 214.247 107.128Z" fill="#53424D"/>
<path d="M220.986 109.194C220.986 109.194 222.695 107.694 223.636 108.126C224.58 108.56 223.256 111.12 221.311 110.765C219.369 110.412 220.461 109.599 220.986 109.194Z" fill="#CC8B6E"/>
<path d="M227.086 125.506C225.643 125.506 224.2 125.506 222.756 125.506C222.825 125.438 222.893 125.369 222.961 125.302C222.866 126.645 222.904 129.362 224.536 129.795C226.077 130.204 227.078 128.783 227.152 127.44C227.19 126.746 227.093 126.021 226.889 125.356C226.812 125.104 227.207 124.997 227.284 125.247C227.887 127.219 227.57 130.464 224.778 130.245C222.616 130.077 222.437 126.922 222.552 125.302C222.56 125.191 222.64 125.097 222.756 125.097C224.2 125.097 225.643 125.097 227.086 125.097C227.349 125.097 227.349 125.506 227.086 125.506Z" fill="#2566BB"/>
<path d="M211.213 124.293C212.709 124.456 214.206 124.619 215.703 124.783C215.814 124.794 215.907 124.866 215.907 124.987C215.929 126.906 215.295 130.159 212.744 129.86C210.165 129.558 210.451 126.259 211.016 124.443C211.094 124.193 211.489 124.299 211.411 124.552C211.071 125.64 210.849 126.98 211.193 128.088C211.512 129.119 212.56 129.733 213.628 129.392C214.522 129.108 214.954 128.162 215.191 127.331C215.377 126.674 215.352 125.998 215.492 125.344C215.516 125.232 215.485 125.108 215.498 124.994C215.428 125.55 215.856 125.058 215.559 125.175C215.481 125.206 215.265 125.143 215.183 125.134C213.86 124.989 212.537 124.846 211.213 124.701C210.955 124.673 210.952 124.265 211.213 124.293Z" fill="#2566BB"/>
<path d="M206.664 197.553C206.664 197.553 205.776 198.589 204.731 199.992C203.686 201.395 202.902 202.859 204.365 203.529C205.828 204.2 207.604 202.554 208.179 201.579C208.754 200.602 209.406 200.708 210.197 200.059C210.998 199.401 210.571 197.006 210.571 197.006L206.664 197.553Z" fill="#FFA60E"/>
<path d="M210.424 199.294C209.582 199.984 208.889 199.871 208.278 200.909C207.666 201.946 205.777 203.699 204.22 202.985C203.911 202.843 203.699 202.667 203.562 202.467C203.578 202.904 203.808 203.274 204.365 203.529C205.828 204.2 207.605 202.554 208.179 201.579C208.754 200.602 209.406 200.708 210.197 200.059C210.454 199.848 210.584 199.456 210.643 199.022C210.581 199.127 210.511 199.222 210.424 199.294Z" fill="#FFA60E"/>
<path d="M220.098 151.456C217.959 154.156 210.843 197.635 210.843 197.635C208.706 199.428 205.499 197.635 205.499 197.635C203.182 175.465 206.048 142.535 206.048 142.535C206.048 142.535 222.236 154.156 220.098 151.456Z" fill="#FC636B"/>
<path d="M208.094 143.248C208.123 145.051 208.066 150.103 205.481 150.102C205.054 150.102 205.053 150.764 205.481 150.764C208.645 150.765 208.792 145.456 208.756 143.248C208.749 142.822 208.086 142.821 208.094 143.248Z" fill="#EC3B59"/>
<path d="M227.978 198.267C227.978 198.267 228.867 199.304 229.912 200.707C230.956 202.109 231.741 203.573 230.278 204.244C228.814 204.915 227.038 203.267 226.463 202.293C225.888 201.316 225.236 201.423 224.445 200.773C223.644 200.115 224.072 197.72 224.072 197.72L227.978 198.267Z" fill="#FFA60E"/>
<path d="M224.219 200.008C225.06 200.699 225.753 200.585 226.364 201.623C226.977 202.661 228.866 204.413 230.422 203.7C230.732 203.558 230.943 203.382 231.08 203.181C231.064 203.618 230.833 203.988 230.278 204.244C228.815 204.915 227.038 203.267 226.463 202.292C225.888 201.316 225.236 201.423 224.446 200.773C224.188 200.562 224.058 200.17 223.999 199.736C224.061 199.842 224.132 199.936 224.219 200.008Z" fill="#FFA60E"/>
<path d="M214.545 152.171C216.682 154.87 223.799 198.349 223.799 198.349C225.937 200.143 229.144 198.349 229.144 198.349C231.459 176.18 228.952 143.595 228.952 143.595C228.952 143.595 212.406 154.87 214.545 152.171Z" fill="#FC636B"/>
<path d="M225.886 143.962C225.85 146.171 225.997 151.479 229.162 151.479C229.589 151.479 229.589 150.817 229.162 150.817C226.575 150.817 226.52 145.767 226.549 143.962C226.556 143.536 225.893 143.536 225.886 143.962Z" fill="#EC3B59"/>
<path d="M219.183 108.517C219.227 108.495 219.134 108.537 219.116 108.543C219.044 108.567 218.972 108.59 218.894 108.596C218.596 108.622 218.462 108.427 218.393 108.174C218.349 108.017 218.099 108.104 218.143 108.261C218.298 108.82 218.823 108.986 219.335 108.726C219.485 108.65 219.333 108.442 219.183 108.517Z" fill="#1E100C"/>
<path d="M216.428 107.521C216.358 107.586 216.268 107.644 216.179 107.683C215.887 107.808 215.725 107.628 215.62 107.368C215.559 107.216 215.31 107.302 215.371 107.455C215.494 107.761 215.717 108.035 216.094 107.974C216.297 107.941 216.485 107.822 216.631 107.686C216.753 107.573 216.549 107.408 216.428 107.521Z" fill="#1E100C"/>
<path d="M215.959 106.174C216.393 106.087 216.737 106.307 216.891 106.717C216.963 106.909 217.252 106.775 217.18 106.586C216.977 106.044 216.485 105.745 215.905 105.862C215.704 105.901 215.758 106.215 215.959 106.174Z" fill="#552B19"/>
<path d="M218.5 107.255C218.894 107.054 219.285 107.172 219.545 107.525C219.666 107.69 219.908 107.484 219.788 107.32C219.445 106.854 218.891 106.7 218.364 106.968C218.181 107.061 218.317 107.348 218.5 107.255Z" fill="#552B19"/>
<path d="M217.419 107.294C217.473 107.58 217.476 107.904 217.363 108.173C217.198 108.566 216.718 108.694 216.429 109.001C216.031 109.421 216.343 109.734 216.885 109.954C217.016 110.008 217.101 109.844 216.969 109.791C215.756 109.297 217.289 108.815 217.539 108.314C217.695 108.001 217.702 107.62 217.639 107.278C217.618 107.161 217.398 107.176 217.419 107.294Z" fill="#BF7C64"/>
<path d="M217.927 110.991C217.927 110.991 217.495 111.995 216.69 111.582C215.884 111.169 216.247 110.257 216.247 110.257L217.927 110.991Z" fill="#FAFFFF"/>
<path d="M219.611 110.513C219.467 110.821 219.1 110.955 218.791 110.811C218.482 110.668 218.347 110.302 218.492 109.993C218.635 109.685 219.003 109.551 219.311 109.694C219.621 109.837 219.754 110.205 219.611 110.513Z" fill="#C1775D"/>
<path d="M214.63 108.436C214.921 108.251 215.307 108.337 215.492 108.628C215.678 108.918 215.592 109.304 215.3 109.489C215.009 109.673 214.622 109.587 214.438 109.296C214.252 109.006 214.338 108.621 214.63 108.436Z" fill="#C1775D"/>
<path d="M271.027 95.8833C271.027 95.8833 277.377 96.1068 277.294 100.569C277.207 105.032 283.862 103.304 284.294 111.062C284.446 113.789 281.264 117.139 277.917 116.509C275.312 116.017 270.979 110.324 271.201 102.207C271.424 94.0878 269.362 97.0958 269.362 97.0958L271.027 95.8833Z" fill="#29283B"/>
<path d="M280.382 150.098L258.688 134.247L259.115 131.001L279.742 129.38L280.382 150.098Z" fill="#2F7EDD"/>
<path d="M259.315 187.08C259.315 187.08 258.484 188.088 257.506 189.45C256.526 190.815 255.793 192.236 257.162 192.889C258.532 193.541 260.196 191.94 260.734 190.992C261.272 190.044 261.883 190.147 262.623 189.516C263.374 188.877 262.974 186.549 262.974 186.549L259.315 187.08Z" fill="#53424D"/>
<path d="M271.894 142.281C269.892 144.903 263.229 187.159 263.229 187.159C261.227 188.902 258.224 187.159 258.224 187.159C256.056 165.612 258.739 133.61 258.739 133.61C258.739 133.61 273.896 144.903 271.894 142.281Z" fill="#2F7EDD"/>
<path d="M279.273 187.773C279.273 187.773 280.106 188.782 281.084 190.145C282.063 191.508 282.797 192.93 281.426 193.582C280.056 194.235 278.393 192.634 277.855 191.686C277.316 190.738 276.706 190.841 275.966 190.21C275.214 189.57 275.615 187.242 275.615 187.242L279.273 187.773Z" fill="#53424D"/>
<path d="M266.695 142.975C268.697 145.598 275.361 187.854 275.361 187.854C277.362 189.597 280.365 187.854 280.365 187.854C282.534 166.307 280.178 132.346 280.178 132.346C280.178 132.346 264.693 145.598 266.695 142.975Z" fill="#2F7EDD"/>
<path d="M280.458 133.462C280.458 133.462 266.911 136.182 258.439 131.993L259.018 129.757C259.018 129.757 268.682 133.406 280.242 130.894L280.458 133.462Z" fill="#130C2D"/>
<path d="M273.715 131.193H272.51L272.225 134.932H274.211L273.715 131.193Z" fill="#1E1240"/>
<path d="M265.305 130.761L264.432 130.478L262.938 133.907L264.73 134.49L265.305 130.761Z" fill="#1E1240"/>
<path d="M259.022 115.792C259.634 114.29 261.037 112.915 262.808 113.383C263.813 113.649 264.119 115.095 264.213 116.381C264.44 119.468 261.486 130.774 257.55 131.137C253.934 131.471 257.088 120.538 259.022 115.792Z" fill="#E9B79C"/>
<path d="M257.257 131.161C253.911 131.442 244.354 128.503 244.354 128.503L246.048 127.085L257.898 126.598C257.898 126.598 260.601 130.875 257.257 131.161Z" fill="#E9B79C"/>
<path d="M240.496 124.501C240.489 125.241 241.049 126.566 242.059 127.656C242.648 128.29 244.398 129.445 244.656 129.622C244.888 129.783 245.081 129.952 245.308 130.086L246.828 128.4C246.358 128.196 245.454 127.991 244.872 127.1C244.738 126.895 244.493 126.224 244.444 125.986C244.385 125.702 243.734 123.885 243.45 124.621C243.343 124.901 243.457 125.425 243.572 125.691C243.59 125.733 243.61 125.778 243.601 125.822C243.587 125.892 243.508 125.932 243.435 125.928C243.364 125.924 243.299 125.887 243.237 125.85C242.799 125.594 242.491 125.386 242.192 125.024C241.81 124.562 241.634 124.064 241.257 123.502C241.166 123.367 240.983 123.177 240.794 123.241C240.54 123.327 240.503 123.877 240.496 124.501Z" fill="#E9B79C"/>
<path d="M264.325 120.745C264.325 120.745 264.466 122.143 263.537 122.026C262.607 121.911 262.658 121.126 262.658 121.126C262.658 121.126 262.241 122.013 261.345 121.533C260.715 121.196 261.054 120.516 261.054 120.516C261.054 120.516 260.762 121.379 259.795 121.007C259.145 120.756 259.499 119.94 259.499 119.94C259.499 119.94 259.237 120.929 258.395 120.582C257.553 120.237 258.335 119.323 258.335 119.323C258.335 119.323 257.655 120.258 256.933 119.878C256.211 119.496 257.487 118.495 257.487 118.495L264.325 120.745Z" fill="#FBFCFB"/>
<path d="M264.317 120.924C264.317 120.924 268.221 111.202 263.937 109.606C259.094 107.801 256.987 118.987 256.987 118.987C256.987 118.987 261.292 121.628 264.317 120.924Z" fill="#E08B03"/>
<path d="M262.499 109.524C267.175 109.323 271.163 108.754 277.911 109.596L278.833 116.211C277.832 117.865 277.11 119.779 276.74 121.149C274.81 128.281 281.015 128.446 280.313 130.087C279.054 133.034 267.734 134.963 262.629 133.469C260.821 132.94 261.05 130.721 261.43 129.895C264.127 124.025 258.78 121.767 259.97 118.276C260.166 117.703 259.598 117.087 259.651 116.464C261.614 110.554 262.499 109.524 262.499 109.524Z" fill="#FEB801"/>
<path d="M271.55 109.039C272.297 109.083 275.124 109.293 275.124 109.293L271.21 114.495C270.487 115.456 269.051 115.546 268.208 114.685L266.544 112.987L264.329 114.58C263.547 115.142 262.464 114.475 262.649 113.544L263.464 109.458C263.464 109.458 268.704 108.874 271.55 109.039Z" fill="#FBFCFB"/>
<path d="M265.333 95.5054C265.333 95.5054 269.392 92.9668 272.472 96.5469C275.549 100.129 272.163 106.308 268.56 107.346C268.215 107.447 270.199 102.547 269.66 101.237C269.604 101.101 269.493 100.976 269.448 100.839C269.413 100.741 269.414 100.623 269.39 100.523C269.328 100.246 269.247 99.9732 269.154 99.7079C268.978 99.1883 268.747 98.6888 268.474 98.2108C268.048 97.4762 267.519 96.7754 266.861 96.2198C266.609 96.0057 266.339 95.8116 266.038 95.6729C265.909 95.6089 265.484 95.4134 265.333 95.5054Z" fill="#29283B"/>
<path d="M270.494 102.155C270.494 102.155 265.394 103.746 265.783 104.212C266.172 104.676 265.785 105.784 265.923 106.782C266.07 107.866 265.605 109.103 264.912 110.319C264.427 111.17 265.254 111.91 266.236 111.972C270.464 112.239 272.134 109.119 272.134 109.119C270.259 107.278 270.494 102.155 270.494 102.155Z" fill="#E9B79C"/>
<path d="M265.923 106.781C265.785 105.783 266.172 104.675 265.782 104.211C265.393 103.745 270.494 102.154 270.494 102.154C270.494 102.154 269.889 103.282 269.973 104.878C268.274 106.578 267.207 107.204 265.798 108.082C265.917 107.618 265.975 107.173 265.923 106.781Z" fill="#C58063"/>
<path d="M265.348 96.0126C263.822 97.6355 260.72 104.307 264.094 106.813C265.533 107.886 269.167 105.859 270.893 102.781C271.601 101.518 271.426 98.8445 270.027 96.6343C269.397 95.6316 267.099 94.1115 265.348 96.0126Z" fill="#E9B79C"/>
<path d="M265.362 97.4542C265.362 97.4542 267.486 102.764 271.622 102.196C271.622 102.196 272.585 97.2019 268.471 95.1103C268.471 95.1103 262.609 93.6282 262.082 101.227C262.082 101.227 264.932 101.333 265.362 97.4542Z" fill="#29283B"/>
<path d="M269.144 102.413C269.144 102.413 270.066 100.911 270.876 101.014C271.69 101.114 271.307 103.313 269.763 103.499C268.222 103.685 268.845 102.832 269.144 102.413Z" fill="#E9B79C"/>
<path d="M270.429 106.992L270.451 106.698L270.443 106.846L270.592 106.821C270.582 106.744 270.532 105.783 270.489 104.937C270.461 104.396 270.433 103.842 270.41 103.425C270.406 103.344 270.335 103.282 270.252 103.286C270.168 103.29 270.104 103.36 270.109 103.441C270.131 103.857 270.16 104.41 270.186 104.95C270.291 106.979 270.291 106.979 270.429 106.992Z" fill="#E8A32B"/>
<path d="M271.373 106.791C271.406 106.789 271.438 106.777 271.464 106.756C271.528 106.703 271.535 106.609 271.481 106.548C271.193 106.217 271.002 105.805 270.882 105.248C270.834 105.028 270.801 104.806 270.767 104.584C270.728 104.328 270.688 104.063 270.627 103.802C270.597 103.679 270.559 103.534 270.475 103.397C270.433 103.328 270.341 103.303 270.269 103.345C270.197 103.386 270.173 103.477 270.215 103.547C270.276 103.648 270.308 103.766 270.332 103.869C270.391 104.119 270.43 104.377 270.468 104.627C270.503 104.855 270.536 105.082 270.585 105.309C270.717 105.916 270.928 106.37 271.252 106.739C271.283 106.776 271.329 106.793 271.373 106.791Z" fill="#E8A32B"/>
<path d="M269.36 106.449L269.529 106.206L269.446 106.328L269.591 106.369C269.595 106.355 269.611 106.315 269.635 106.254C269.817 105.791 270.369 104.387 270.444 103.561C270.452 103.479 270.39 103.407 270.307 103.4C270.229 103.389 270.15 103.453 270.143 103.534C270.096 104.056 269.83 104.935 269.354 106.147C269.288 106.313 269.261 106.382 269.36 106.449Z" fill="#E8A32B"/>
<path d="M269.789 103.455C269.775 103.156 270.011 102.903 270.317 102.889C270.623 102.874 270.883 103.105 270.898 103.404C270.913 103.702 270.676 103.956 270.37 103.97C270.064 103.984 269.804 103.754 269.789 103.455Z" fill="#E8A32B"/>
<path d="M267.26 102.413C267.294 102.392 267.22 102.433 267.206 102.439C267.148 102.465 267.09 102.487 267.026 102.499C266.781 102.541 266.655 102.392 266.579 102.193C266.531 102.068 266.331 102.157 266.379 102.282C266.548 102.722 266.995 102.819 267.401 102.571C267.52 102.499 267.377 102.342 267.26 102.413Z" fill="#1E100C"/>
<path d="M264.904 101.806C264.851 101.864 264.78 101.918 264.71 101.955C264.477 102.077 264.329 101.943 264.223 101.741C264.161 101.622 263.961 101.709 264.023 101.829C264.149 102.067 264.353 102.273 264.661 102.197C264.827 102.155 264.974 102.045 265.084 101.925C265.177 101.824 264.996 101.706 264.904 101.806Z" fill="#1E100C"/>
<path d="M264.415 100.75C264.768 100.649 265.07 100.802 265.227 101.123C265.302 101.272 265.531 101.144 265.458 100.995C265.25 100.572 264.82 100.365 264.348 100.501C264.184 100.548 264.252 100.797 264.415 100.75Z" fill="#552B19"/>
<path d="M266.601 101.442C266.913 101.251 267.245 101.318 267.487 101.585C267.599 101.711 267.785 101.526 267.672 101.402C267.353 101.049 266.883 100.965 266.467 101.22C266.323 101.308 266.456 101.53 266.601 101.442Z" fill="#552B19"/>
<path d="M265.708 101.552C265.773 101.78 265.801 102.043 265.727 102.268C265.618 102.598 265.231 102.736 265.013 103.005C264.715 103.374 264.997 103.605 265.462 103.745C265.575 103.779 265.633 103.641 265.52 103.606C264.477 103.294 265.713 102.794 265.882 102.37C265.989 102.105 265.966 101.795 265.888 101.523C265.863 101.43 265.682 101.458 265.708 101.552Z" fill="#BD7C64"/>
<path d="M266.327 104.178C266.327 104.178 266.398 105.062 265.645 105.07C264.892 105.078 264.805 104.285 264.805 104.285L266.327 104.178Z" fill="#F8FFFF"/>
<path d="M267.762 103.999C267.666 104.259 267.371 104.394 267.105 104.3C266.838 104.206 266.699 103.919 266.796 103.659C266.892 103.399 267.186 103.264 267.453 103.358C267.72 103.451 267.858 103.739 267.762 103.999Z" fill="#C0775D"/>
<path d="M263.481 102.675C263.71 102.504 264.036 102.546 264.21 102.768C264.385 102.99 264.343 103.309 264.115 103.479C263.888 103.649 263.561 103.608 263.386 103.386C263.211 103.164 263.255 102.846 263.481 102.675Z" fill="#C0775D"/>
<path d="M280.108 134.445L247.112 134.418L247.113 133.469L280.108 133.497L280.108 134.445Z" fill="#B8B9BC"/>
<path d="M265.099 134.432L244.119 134.414L241.047 117.808L260.974 117.824L265.099 134.432Z" fill="#B8B9BC"/>
<path d="M264.057 134.432L243.077 134.414L240.006 117.808L259.933 117.824L264.057 134.432Z" fill="#CBCCD1"/>
<path d="M275.923 117.712C275.643 116.028 276.107 114.034 277.869 113.506C278.869 113.206 279.902 114.347 280.67 115.457C282.51 118.121 286.026 129.908 282.859 132.348C279.95 134.591 276.805 123.032 275.923 117.712Z" fill="#E9B79C"/>
<path d="M282.622 132.528C279.916 134.578 270.188 137.057 270.188 137.057L270.876 134.867L280.733 128.067C280.733 128.067 285.325 130.476 282.622 132.528Z" fill="#E9B79C"/>
<path d="M264.905 136.79C265.501 137.276 266.919 137.673 268.42 137.549C269.295 137.478 271.301 136.794 271.603 136.698C271.874 136.613 272.129 136.564 272.377 136.465L271.936 134.136C271.483 134.388 270.765 134.994 269.686 134.895C269.438 134.873 268.743 134.639 268.52 134.526C268.254 134.391 266.38 133.75 266.805 134.456C266.966 134.726 267.463 134.97 267.747 135.048C267.793 135.06 267.842 135.073 267.873 135.108C267.921 135.163 267.904 135.255 267.858 135.311C267.81 135.367 267.741 135.396 267.674 135.423C267.197 135.615 266.841 135.733 266.364 135.744C265.756 135.758 265.245 135.579 264.557 135.525C264.392 135.513 264.127 135.54 264.063 135.735C263.978 135.998 264.403 136.382 264.905 136.79Z" fill="#E9B79C"/>
<path d="M283.095 119.336C283.095 119.336 283.962 120.521 283.106 120.915C282.25 121.309 281.876 120.574 281.876 120.574C281.876 120.574 281.993 121.598 280.971 121.647C280.254 121.68 280.18 120.885 280.18 120.885C280.18 120.885 280.392 121.821 279.368 122.005C278.678 122.127 278.545 121.199 278.545 121.199C278.545 121.199 278.849 122.233 277.945 122.373C277.042 122.512 277.222 121.268 277.222 121.268C277.222 121.268 277.141 122.477 276.322 122.521C275.502 122.565 276.055 120.976 276.055 120.976L283.095 119.336Z" fill="#FBFCFB"/>
<path d="M283.183 119.501C283.183 119.501 281.326 108.634 276.817 109.493C271.718 110.464 275.892 121.689 275.892 121.689C275.892 121.689 280.978 121.76 283.183 119.501Z" fill="#E08B03"/>
<path d="M178.5 143.49C178.5 143.49 171.068 138.908 169.963 134.511C168.857 130.114 172.158 128.418 172.158 128.418C172.158 128.418 179.889 138.078 182.692 142.103C186.239 147.198 178.5 143.49 178.5 143.49Z" fill="#FFBE9E"/>
<path d="M168.161 123.975C162.841 128.128 171.957 139.475 171.957 139.475L178.419 136.117C178.419 136.117 173.347 119.925 168.161 123.975Z" fill="#E08B03"/>
<path d="M153.569 167.416L177.073 150.871L176.611 147.483L154.263 145.79L153.569 167.416Z" fill="#5B5196"/>
<path d="M173.874 126.988C172.363 122.158 165.079 121.91 159.155 122.804C155.161 123.408 152.591 124.702 152.148 129.679C151.865 132.854 152.74 146.741 154.689 150.417C154.689 150.417 161.491 154.217 176.65 149.556C176.65 149.556 177.104 137.312 173.874 126.988Z" fill="#FEB801"/>
<path d="M153.783 151.282C153.783 151.282 168.207 154.07 177.227 149.776L176.611 147.484C176.611 147.484 166.321 151.225 154.011 148.649L153.783 151.282Z" fill="#4F4186"/>
<path d="M160.961 148.955H162.245L162.547 152.789H160.434L160.961 148.955Z" fill="#5B5196"/>
<path d="M169.917 148.511L170.846 148.221L172.436 151.737L170.528 152.334L169.917 148.511Z" fill="#5B5196"/>
<path d="M159.79 116.381C159.79 116.381 165.89 117.69 165.551 118.187C165.209 118.683 165.804 119.686 165.819 120.656C165.84 121.709 166.54 122.823 167.48 123.886C168.137 124.631 166.968 125.519 165.929 125.716C161.45 126.556 158.623 124.885 159.569 123.439C161.698 120.188 159.79 116.381 159.79 116.381Z" fill="#FFBE9E"/>
<path d="M165.819 120.655C165.804 119.685 165.209 118.682 165.551 118.186C165.89 117.689 159.308 116.279 159.308 116.279C159.308 116.279 160.307 117.299 160.477 118.832C162.305 121.299 164.914 122.062 166.566 122.703C166.146 122.125 165.827 121.036 165.819 120.655Z" fill="#FF9C81"/>
<path d="M165.929 109.364C168.329 111.174 170.377 117.426 167.865 120.404C166.485 122.04 161.465 120.302 159.11 116.742C158.804 116.28 158.054 113.632 159.308 110.744C159.871 109.436 163.433 107.482 165.929 109.364Z" fill="#FFBE9E"/>
<path d="M168.701 114.286C168.698 114.67 168.162 110.504 165.814 110.221C164.86 110.107 165.076 111.11 163.967 111.191C163.022 111.261 160.186 109.363 161.278 114.984C161.33 115.255 161.074 115.572 160.949 115.815C160.794 116.114 161.276 116.798 161.268 117.133C161.262 117.458 160.286 116.464 160.305 116.786C160.334 117.276 161.184 118.643 160.477 118.832C160.135 118.922 159.718 118.373 159.468 118.187C158.759 117.665 158.403 117.713 157.804 117.045C157.143 116.308 155.995 115.153 156.379 113.469C156.597 112.515 157.565 112.42 157.84 111.48C159.262 106.612 161.776 106.385 162.659 106.255C163.843 106.081 164.754 106.657 165.946 107.692C166.326 108.022 167.311 108.715 167.762 108.937C167.927 109.018 169.014 109.564 168.801 112.205C168.771 112.568 168.581 112.913 168.607 113.283C168.631 113.619 168.704 113.944 168.701 114.286Z" fill="#29283B"/>
<path d="M161.865 116.381C161.865 116.381 160.131 114.859 159.175 115.298C158.218 115.738 159.561 118.335 161.535 117.976C163.504 117.618 162.397 116.793 161.865 116.381Z" fill="#FFBE9E"/>
<path d="M176.394 206.022C176.394 206.022 177.295 207.074 178.355 208.497C179.416 209.92 180.211 211.405 178.726 212.086C177.242 212.766 175.44 211.095 174.856 210.106C174.274 209.116 173.612 209.224 172.81 208.565C171.996 207.898 172.43 205.467 172.43 205.467L176.394 206.022Z" fill="#53424D"/>
<path d="M162.765 159.258C164.934 161.995 172.154 206.105 172.154 206.105C174.322 207.925 177.576 206.105 177.576 206.105C179.926 183.613 177.018 150.207 177.018 150.207C177.018 150.207 160.596 161.995 162.765 159.258Z" fill="#5B5196"/>
<path d="M174.944 150.93C174.915 152.759 174.972 157.885 177.595 157.884C178.028 157.884 178.028 158.555 177.595 158.555C174.385 158.555 174.235 153.171 174.271 150.93C174.278 150.498 174.951 150.497 174.944 150.93Z" fill="#4F4186"/>
<path d="M154.771 206.746C154.771 206.746 153.869 207.799 152.809 209.221C151.749 210.644 150.953 212.129 152.438 212.81C153.922 213.491 155.724 211.82 156.308 210.831C156.891 209.84 157.552 209.948 158.354 209.29C159.168 208.622 158.734 206.192 158.734 206.192L154.771 206.746Z" fill="#53424D"/>
<path d="M168.398 159.98C166.23 162.718 159.01 206.829 159.01 206.829C156.841 208.647 153.587 206.829 153.587 206.829C151.238 184.336 153.782 151.28 153.782 151.28C153.782 151.28 170.567 162.718 168.398 159.98Z" fill="#5B5196"/>
<path d="M156.894 151.654C156.93 153.895 156.779 159.28 153.57 159.279C153.137 159.279 153.136 158.608 153.57 158.608C156.193 158.609 156.25 153.485 156.221 151.654C156.214 151.222 156.886 151.222 156.894 151.654Z" fill="#4F4186"/>
<path d="M163.693 115.694C163.649 115.671 163.744 115.715 163.761 115.72C163.835 115.745 163.908 115.768 163.987 115.775C164.289 115.801 164.425 115.602 164.496 115.346C164.54 115.187 164.792 115.275 164.749 115.434C164.592 116.001 164.059 116.169 163.539 115.906C163.387 115.828 163.542 115.617 163.693 115.694Z" fill="#201714"/>
<path d="M166.488 114.684C166.56 114.75 166.651 114.809 166.741 114.848C167.037 114.975 167.201 114.792 167.307 114.53C167.37 114.375 167.624 114.462 167.561 114.617C167.435 114.927 167.209 115.206 166.827 115.143C166.621 115.11 166.43 114.989 166.283 114.852C166.159 114.737 166.365 114.57 166.488 114.684Z" fill="#201714"/>
<path d="M166.964 113.319C166.524 113.231 166.174 113.454 166.018 113.87C165.945 114.064 165.652 113.929 165.724 113.737C165.931 113.188 166.43 112.884 167.018 113.002C167.222 113.042 167.168 113.36 166.964 113.319Z" fill="#4D2F20"/>
<path d="M164.385 114.414C163.986 114.21 163.589 114.33 163.325 114.688C163.202 114.856 162.957 114.647 163.079 114.481C163.427 114.008 163.989 113.851 164.524 114.123C164.71 114.218 164.571 114.508 164.385 114.414Z" fill="#4D2F20"/>
<path d="M165.482 114.454C165.428 114.744 165.424 115.074 165.54 115.346C165.708 115.744 166.194 115.875 166.488 116.185C166.891 116.612 166.574 116.93 166.024 117.153C165.892 117.208 165.806 117.041 165.939 116.988C167.171 116.487 165.615 115.998 165.361 115.489C165.203 115.172 165.195 114.784 165.26 114.438C165.282 114.32 165.504 114.335 165.482 114.454Z" fill="#7C4930"/>
<path d="M165.054 117.707C165.054 117.707 164.976 118.812 165.894 118.812C166.813 118.814 166.911 117.823 166.911 117.823L165.054 117.707Z" fill="#FAFFFF"/>
<path d="M163.259 117.719C163.405 118.031 163.778 118.167 164.092 118.022C164.405 117.876 164.541 117.504 164.395 117.191C164.249 116.878 163.876 116.743 163.563 116.888C163.249 117.034 163.113 117.405 163.259 117.719Z" fill="#FF9C81"/>
<path d="M168.313 115.611C168.017 115.423 167.625 115.51 167.437 115.805C167.25 116.1 167.336 116.491 167.632 116.678C167.928 116.866 168.32 116.779 168.508 116.484C168.696 116.19 168.608 115.799 168.313 115.611Z" fill="#FF9C81"/>
<path d="M173.223 134.833H185.79L177.92 147.033H166.066L173.223 134.833Z" fill="#92D9F8"/>
<path d="M154.446 145.68C154.446 145.68 150.541 137.881 151.92 133.562C153.298 129.242 157 129.533 157 129.533C157 129.533 156.267 140.092 158.848 144.263C161.428 148.435 154.446 145.68 154.446 145.68Z" fill="#FFBE9E"/>
<path d="M155.943 123.655C149.23 124.393 150.998 138.829 150.998 138.829L158.263 139.367C158.263 139.367 162.489 122.934 155.943 123.655Z" fill="#E08B03"/>
<path d="M155.863 146.58C159.364 147.543 168.942 146.594 168.942 146.594L167.306 144.291L155.523 141.907C155.523 141.907 152.3 145.601 155.863 146.58Z" fill="#FFBE9E"/>
<path d="M166.965 143.921C167.191 143.713 167.306 143.351 167.47 143.097C167.796 142.592 168.271 142.219 168.744 141.858C169.006 141.658 169.324 140.927 169.736 141.037C170.41 141.218 169.551 142.29 169.451 142.586C169.358 142.857 169.388 143.204 169.624 143.368C169.779 143.476 169.983 143.479 170.172 143.468C170.777 143.433 171.367 143.301 171.963 143.204C172.273 143.154 172.581 143.125 172.893 143.093C173.126 143.07 173.428 142.948 173.655 142.985C173.835 143.015 174.003 143.202 173.926 143.391C173.858 143.56 173.681 143.535 173.532 143.576C173.198 143.671 172.868 143.775 172.538 143.882C172.465 143.905 172.12 143.964 172.09 144.044C171.944 144.429 172.871 144.281 173.018 144.264C173.39 144.222 173.78 144.191 174.124 144.375C174.169 144.399 174.216 144.433 174.225 144.483C174.238 144.562 174.153 144.621 174.078 144.651C173.637 144.83 173.142 144.844 172.706 145.033C172.634 145.064 172.556 145.112 172.549 145.189C172.525 145.498 173.147 145.528 173.35 145.556C173.478 145.573 173.637 145.607 173.669 145.732C173.689 145.814 173.64 145.901 173.571 145.949C173.501 145.997 173.416 146.015 173.333 146.032C173.089 146.083 172.838 146.157 172.59 146.177C172.471 146.187 172.114 146.183 172.092 146.346C172.088 146.379 172.105 146.41 172.126 146.435C172.203 146.523 172.328 146.547 172.441 146.582C172.552 146.617 172.674 146.688 172.687 146.805C172.703 146.95 172.548 147.051 172.41 147.098C171.915 147.27 171.359 147.264 170.841 147.283C170.287 147.303 169.732 147.298 169.179 147.268C168.444 147.228 167.711 147.143 166.986 147.015C166.354 146.905 165.636 146.735 165.204 146.217C165.082 146.071 164.992 145.901 164.907 145.731C164.796 145.508 164.692 145.277 164.653 145.03C164.614 144.783 164.645 144.516 164.789 144.312C164.808 144.283 164.83 144.256 164.861 144.24C164.9 144.221 164.946 144.223 164.989 144.227C165.322 144.255 165.656 144.301 165.989 144.281C166.315 144.26 166.659 144.163 166.965 143.921Z" fill="#FFBE9E"/>
<path d="M181.977 141.631C181.688 141.471 181.27 140.791 180.878 140.959C180.236 141.233 181.24 142.173 181.382 142.451C181.512 142.707 181.531 143.055 181.321 143.251C181.183 143.38 180.981 143.412 180.793 143.428C180.19 143.479 179.586 143.432 178.983 143.42C178.669 143.415 178.36 143.43 178.047 143.444C177.813 143.453 177.496 143.375 177.277 143.445C177.103 143.499 176.964 143.709 177.066 143.885C177.158 144.043 177.33 143.991 177.483 144.012C177.826 144.059 178.169 144.114 178.511 144.173C178.586 144.186 178.936 144.196 178.977 144.27C179.176 144.631 178.238 144.616 178.089 144.62C177.715 144.631 177.325 144.657 177.01 144.887C176.969 144.917 176.928 144.957 176.927 145.007C176.925 145.089 177.018 145.134 177.096 145.154C177.558 145.268 178.05 145.212 178.508 145.337C178.583 145.357 178.668 145.394 178.685 145.47C178.754 145.772 178.143 145.889 177.945 145.945C177.821 145.981 177.669 146.037 177.655 146.165C177.646 146.249 177.708 146.328 177.783 146.366C177.859 146.404 177.946 146.41 178.03 146.415C178.279 146.43 178.537 146.469 178.786 146.453C178.905 146.445 179.258 146.391 179.303 146.55C179.312 146.581 179.3 146.614 179.283 146.641C179.219 146.74 179.098 146.781 178.992 146.832C178.886 146.883 178.776 146.971 178.779 147.088C178.784 147.234 178.953 147.312 179.096 147.339C179.61 147.438 180.16 147.353 180.676 147.299C181.227 147.24 181.87 147.034 182.351 146.758C185.099 145.186 182.496 141.92 181.977 141.631Z" fill="#FFBE9E"/>
<path d="M351.221 83.5646L344.16 92.7754L345.658 82.0703L351.221 83.5646Z" fill="#D6E6F2"/>
<path d="M376.372 84.2285H346.141C343.214 84.2285 340.739 82.0658 340.352 79.1699L339.109 69.8635C338.643 66.3704 341.366 63.2661 344.898 63.2661H377.614C381.146 63.2661 383.87 66.3704 383.403 69.8635L382.161 79.1699C381.774 82.0658 379.299 84.2285 376.372 84.2285Z" fill="#D6E6F2"/>
<path d="M356.581 73.7459C356.581 74.8614 355.675 75.7656 354.558 75.7656C353.44 75.7656 352.534 74.8614 352.534 73.7459C352.534 72.6312 353.44 71.727 354.558 71.727C355.675 71.727 356.581 72.6312 356.581 73.7459Z" fill="#F0F8FF"/>
<path d="M363.28 73.7459C363.28 74.8614 362.374 75.7656 361.256 75.7656C360.139 75.7656 359.233 74.8614 359.233 73.7459C359.233 72.6312 360.139 71.727 361.256 71.727C362.374 71.727 363.28 72.6312 363.28 73.7459Z" fill="#F0F8FF"/>
<path d="M369.978 73.7459C369.978 74.8614 369.072 75.7656 367.954 75.7656C366.836 75.7656 365.931 74.8614 365.931 73.7459C365.931 72.6312 366.836 71.727 367.954 71.727C369.072 71.727 369.978 72.6312 369.978 73.7459Z" fill="#F0F8FF"/>
<path d="M184.659 99.0437L190.279 106.375L189.086 97.8542L184.659 99.0437Z" fill="#D6E6F2"/>
<path d="M164.642 99.5723H188.702C191.032 99.5723 193.001 97.8509 193.309 95.5465L194.299 88.1391C194.67 85.3589 192.502 82.8886 189.691 82.8886H163.653C160.842 82.8886 158.674 85.3589 159.045 88.1391L160.034 95.5465C160.342 97.8509 162.312 99.5723 164.642 99.5723Z" fill="#D6E6F2"/>
<path d="M180.393 91.2308C180.393 92.1184 181.114 92.8379 182.003 92.8379C182.892 92.8379 183.614 92.1184 183.614 91.2308C183.614 90.3431 182.892 89.6236 182.003 89.6236C181.114 89.6236 180.393 90.3431 180.393 91.2308Z" fill="#F0F8FF"/>
<path d="M175.062 91.2308C175.062 92.1184 175.782 92.8379 176.672 92.8379C177.561 92.8379 178.282 92.1184 178.282 91.2308C178.282 90.3431 177.561 89.6236 176.672 89.6236C175.782 89.6236 175.062 90.3431 175.062 91.2308Z" fill="#F0F8FF"/>
<path d="M169.73 91.2308C169.73 92.1184 170.451 92.8379 171.341 92.8379C172.23 92.8379 172.951 92.1184 172.951 91.2308C172.951 90.3431 172.23 89.6236 171.341 89.6236C170.451 89.6236 169.73 90.3431 169.73 91.2308Z" fill="#F0F8FF"/>
<path d="M189.32 224.859H144.071V209.724H189.32V224.859Z" fill="#FEB801"/>
<path d="M189.321 224.859H174.153V209.724H189.321V224.859Z" fill="#E08B03"/>
<path d="M239.697 224.859H194.449V201.075H239.697V224.859Z" fill="#FEB801"/>
<path d="M239.697 224.859H224.529V201.075H239.697V224.859Z" fill="#E08B03"/>
<path d="M290.073 224.859H244.825V189.701H290.073V224.859Z" fill="#FEB801"/>
<path d="M290.073 224.859H274.906V189.701H290.073V224.859Z" fill="#E08B03"/>
</g>
<defs>
<clipPath id="clip0_11404_171856">
<rect width="415" height="231" fill="white"/>
</clipPath>
</defs>
</svg>
