<svg width="253" height="197" viewBox="0 0 253 197" fill="none" xmlns="http://www.w3.org/2000/svg">
<path d="M77.3772 89.6315C84.6668 121.485 99.7607 159.667 106.201 165.863C114.347 173.701 168.259 188.074 170.948 188.366C177.608 189.04 190.946 140.944 183.857 139.916C173.062 138.351 133.816 136.209 131.464 133.785C129.024 131.251 112.461 110.292 95.4275 86.6102C83.6711 70.2461 72.854 69.8676 77.3772 89.6315Z" fill="#AD6359"/>
<path d="M165.602 185.772C166.396 186.176 177.66 191.861 184.625 193.886C189.821 195.398 204.896 199.346 207.122 193.771C208.646 189.97 200.053 186.601 194.03 184.083C190.858 182.756 186.947 179.424 187.882 177.377C189.517 173.799 197.685 177.392 203.057 180.524C213.444 186.581 227.281 197.482 233.627 192.194C236.023 190.195 233.238 186.555 229.163 182.987C235.775 187.146 242.827 190.558 245.576 188.444C247.154 187.239 247.227 185.586 246.348 183.698C248.389 184.363 250.193 184.234 251.451 182.899C253.6 180.642 252.553 177.312 250.201 173.897C250.955 173.818 251.633 173.433 252.153 172.61C256.704 165.648 233.928 145.659 226.05 143.788C202.873 138.26 178.453 139.289 178.453 139.289C169.352 146.588 165.584 185.757 165.602 185.772Z" fill="#AD6359"/>
<path d="M199.682 164.364C205.139 165.222 210.512 167.27 215.14 170.334C221.015 174.225 224.912 178.78 229.842 183.366C229.971 183.487 229.789 183.692 229.658 183.571C227.309 181.391 217.576 173.195 215.062 171.332C210.453 167.919 205.306 165.522 199.661 164.458C199.601 164.446 199.621 164.354 199.682 164.364Z" fill="#141414"/>
<path d="M204 154.496C210.091 156.167 216.332 157.857 221.985 160.748C228.172 163.911 233.014 169.069 237.774 174.032C240.633 177.013 243.43 180.053 246.15 183.162C246.263 183.293 246.09 183.498 245.967 183.367C241.136 178.24 236.154 173.252 231.02 168.431C226.19 163.895 220.804 160.423 214.617 158.058C211.132 156.726 207.551 155.664 203.976 154.605C203.91 154.585 203.932 154.477 204 154.496Z" fill="#141414"/>
<path d="M210.507 145.868C216.425 147.087 221.588 148.129 226.828 151.312C233.765 155.525 240.463 162.623 242.812 165.139C245.408 167.919 247.908 170.782 250.366 173.686C250.466 173.804 250.264 173.982 250.16 173.864C244.544 167.517 238.493 161.49 232.106 155.924C229.054 153.264 225.737 150.948 222.012 149.337C218.33 147.745 214.384 146.844 210.499 145.908C210.473 145.902 210.481 145.863 210.507 145.868Z" fill="#141414"/>
<path d="M174.723 137.32L158.143 190.021C158.143 190.021 113.255 177.164 105.053 168.285C96.8506 159.407 81.7119 113.573 77.2575 91.3575C72.804 69.1421 84 69.6911 94.2889 83.6986C104.578 97.7062 130.193 131.653 131.625 132.39C133.057 133.129 174.723 137.32 174.723 137.32Z" fill="#99D6FF"/>
<path opacity="0.1" d="M174.723 137.32L158.143 190.021C158.143 190.021 113.255 177.164 105.053 168.285C96.8506 159.407 81.7119 113.573 77.2575 91.3575C72.804 69.1421 84 69.6911 94.2889 83.6986C104.578 97.7062 130.193 131.653 131.625 132.39C133.057 133.129 174.723 137.32 174.723 137.32Z" fill="black"/>
<path d="M153.836 166.609C155.844 160.396 157.902 154.196 159.681 147.907C160.692 144.334 161.722 140.764 162.699 137.181C162.736 137.046 162.511 136.964 162.461 137.097C160.199 143.254 157.945 149.434 155.965 155.693C153.994 161.922 151.972 168.133 150.082 174.388C149.007 177.944 148.042 181.519 147.184 185.138C147.167 185.21 147.281 185.252 147.31 185.183C149.778 179.097 151.814 172.866 153.836 166.609Z" fill="#141414"/>
<path d="M135.505 182.778C134.841 182.545 134.178 182.312 133.515 182.079C129.776 180.74 125.963 179.301 122.373 177.828C121.909 177.645 121.453 177.454 121.005 177.263C120.284 176.963 119.563 176.655 118.866 176.348C118.51 176.198 118.17 176.04 117.822 175.89C117.697 175.832 117.573 175.782 117.449 175.724C117.084 175.557 116.727 175.391 116.371 175.225C114.945 174.567 113.594 173.91 112.334 173.245C112.043 173.095 111.745 172.937 111.463 172.779C109.167 171.531 107.26 170.3 105.925 169.127C105.768 168.986 105.61 168.844 105.469 168.703C105.312 168.562 105.179 168.42 105.055 168.287C96.8475 159.411 81.7095 113.576 77.2577 91.3575C77.2079 91.0996 77.1582 90.8417 77.1085 90.5922C77.1002 90.5339 77.0919 90.484 77.0836 90.4258C76.7851 88.7371 76.5199 86.6492 76.3043 84.3866V84.3616C75.6825 73.3063 80.8971 71.5012 87.3386 76.3592C103.463 110.964 128.06 168.104 135.505 182.778Z" fill="#141414"/>
<path d="M112.222 191.625L14.373 192.146C14.4518 190.035 28.3827 128.225 39.4559 105.415C53.6537 76.1683 60.9765 73.82 65.3504 72.2428C70.9446 70.2255 80.9045 71.2279 83.2713 72.3476C85.9532 73.602 94.4913 88.5637 97.5504 99.5333C103.693 121.563 113.597 190.282 112.222 191.625Z" fill="#EBEBEB"/>
<path d="M60.3577 74.5547C60.3577 74.5547 72.7698 120.761 73.4122 123.831C74.3457 128.294 80.5485 191.909 80.5485 191.909L12.3623 192.147C12.3623 192.147 27.2739 133.251 38.3223 107.418C50.4069 79.1623 60.3577 74.5547 60.3577 74.5547Z" fill="#99D6FF"/>
<g opacity="0.1">
<path d="M60.3577 74.5547C60.3577 74.5547 72.7698 120.761 73.4122 123.831C74.3457 128.294 80.5485 191.909 80.5485 191.909L12.3623 192.147C12.3623 192.147 27.2739 133.251 38.3223 107.418C50.4069 79.1623 60.3577 74.5547 60.3577 74.5547Z" fill="black"/>
</g>
<path d="M84.1865 73.0645C84.5538 74.5393 96.0233 112.081 96.8183 121.432C97.7012 131.816 105.545 192.115 105.545 192.115H115.47C115.47 192.115 101.071 105.438 97.1135 96.2831C89.0479 77.6272 84.1865 73.0645 84.1865 73.0645Z" fill="#99D6FF"/>
<path opacity="0.1" d="M84.1865 73.0645C84.5538 74.5393 96.0233 112.081 96.8183 121.432C97.7012 131.816 105.545 192.115 105.545 192.115H115.47C115.47 192.115 101.071 105.438 97.1135 96.2831C89.0479 77.6272 84.1865 73.0645 84.1865 73.0645Z" fill="black"/>
<path d="M47.4825 85.356C31.0953 102.967 -8.73258 169.781 3.90585 181.967C16.6338 194.239 86.6836 177.75 106.385 168.331C112.246 165.53 89.9757 128.867 83.0873 128.011C77.353 127.298 48.0338 140.756 47.1857 139.063C46.2274 137.15 50.8848 123.031 57.9381 97.4728C66.07 68.0028 54.7207 77.5774 47.4825 85.356Z" fill="#AD6359"/>
<path d="M112.202 116.177C126.446 114.187 130.407 115.87 141.54 107.784C148.845 102.478 155.356 104.882 151.189 113.312C144.371 127.102 126.533 133.543 119.706 133.989L112.202 116.177Z" fill="#AD6359"/>
<path d="M74.3682 129.936C74.3682 129.936 90.3724 121.018 105.343 117.39C115.695 114.881 138.824 111.942 160.954 134.84C166.202 140.271 169.843 151.746 158.06 146C149.69 141.918 145.611 136.792 140.311 135.307C140.311 135.307 143.215 150.454 137.588 155.518C135.072 157.781 128.064 163.796 121.942 167.699C121.942 167.699 120.736 166.59 119.408 164.966C119.408 164.966 113.706 169.198 102.971 168.173L74.3682 129.936Z" fill="#AD6359"/>
<path d="M115.603 116.58C120.553 119.17 130.951 124.835 137.851 132.438C145.515 140.883 158.01 159.222 151.739 164.835C147.14 168.95 141.757 162.369 141.757 162.369C141.757 162.369 145.329 171.042 140.365 173.848C135.842 176.405 131.98 171.063 131.98 171.063C131.98 171.063 133.245 176.698 128.416 178.318C122.606 180.268 120.908 168.139 113.323 165.012C111.62 164.309 115.603 116.58 115.603 116.58Z" fill="#AD6359"/>
<path d="M127.607 139.073C131.864 142.274 139.672 152.034 141.832 162.143C141.881 162.372 141.735 162.532 141.645 162.333C136.912 151.709 130.482 142.774 127.526 139.147C127.488 139.097 127.56 139.038 127.607 139.073Z" fill="#141414"/>
<path d="M119.337 147.084C122.727 150.225 130.327 160.645 132.166 170.964C132.208 171.194 132.049 171.345 131.97 171.142C127.479 159.838 121.988 150.951 119.254 147.152C119.217 147.101 119.293 147.043 119.337 147.084Z" fill="#141414"/>
<path d="M140.313 135.212C144.955 136.583 147.974 138.869 151.891 141.599C153.829 142.949 155.793 144.271 157.871 145.398C159.763 146.425 162.551 147.976 164.564 146.368C165.685 145.474 165.669 143.846 165.42 142.563C165.14 141.122 163.721 138.46 162.868 137.264C162.825 137.203 162.93 137.126 162.974 137.186C163.76 138.25 165.307 140.658 165.764 141.905C166.178 143.033 166.5 144.345 166.184 145.54C165.501 148.109 162.483 148.446 160.346 147.739C159.067 147.317 157.856 146.635 156.692 145.965C155.566 145.317 154.473 144.616 153.398 143.887C151.191 142.391 149.073 140.769 146.883 139.248C144.478 137.577 142.817 136.759 140.243 135.367C140.156 135.321 140.221 135.186 140.313 135.212Z" fill="#141414"/>
<path d="M150.034 151.599C148.833 148.943 142.328 137.882 140.218 135.322C140.164 135.257 140.252 135.172 140.313 135.231C143.931 138.672 149.746 147.813 151.101 150.742C152.44 153.636 153.983 157.335 153.983 160.561C153.984 165.427 150.766 166.35 149.578 166.587C148.158 166.871 146.725 166.572 145.45 165.91C144.031 165.172 142.659 163.642 141.709 162.382C141.659 162.315 141.747 162.224 141.804 162.29C143.484 164.207 146.276 166.099 148.912 165.751C150.055 165.601 151.213 165.078 151.911 164.128C152.732 163.01 152.798 161.54 152.686 160.208C152.436 157.193 151.267 154.328 150.034 151.599Z" fill="#141414"/>
<path d="M74.3688 129.937L96.8179 177.326C96.8179 177.326 9.00466 197.116 1.4274 181.779C-6.14985 166.441 27.9544 106.41 43.322 88.9283C61.1319 68.6686 63.4067 75.5588 59.4821 93.5168C55.3735 112.317 47.4414 139.507 47.4414 139.507L74.3688 129.937Z" fill="#99D6FF"/>
<path opacity="0.1" d="M74.3688 129.937L96.8179 177.326C96.8179 177.326 9.00466 197.116 1.4274 181.779C-6.14985 166.441 27.9544 106.41 43.322 88.9283C61.1319 68.6686 63.4067 75.5588 59.4821 93.5168C55.3735 112.317 47.4414 139.507 47.4414 139.507L74.3688 129.937Z" fill="black"/>
<path d="M20.7503 152.124C24.8042 149.271 29.1367 146.81 33.5554 144.576C37.9334 142.363 42.527 140.635 47.1754 139.092C49.8307 138.212 52.5192 137.463 55.2077 136.694C55.2898 136.671 55.3221 136.797 55.2409 136.822C50.5511 138.296 45.9691 140.19 41.4833 142.195C37.0149 144.193 32.5904 146.267 28.1982 148.428C25.7137 149.651 23.2879 150.99 20.8465 152.296C20.7337 152.359 20.6475 152.197 20.7503 152.124Z" fill="#141414"/>
<path d="M74.1331 129.8C73.6912 129.915 49.6778 137.871 48.8894 138.24C48.9897 137.876 53.2973 125.063 53.9423 123.187C54.0069 123 54.0616 122.812 54.1246 122.625C54.5624 121.788 55.0051 120.955 55.4096 120.1C55.9286 119.006 56.4393 117.907 56.9508 116.809C56.9665 116.775 56.9176 116.747 56.9002 116.78C56.339 117.852 55.7769 118.921 55.2214 119.996C54.9644 120.494 54.7249 120.998 54.4869 121.504C54.9097 120.178 55.3159 118.849 55.7213 117.515C56.368 115.386 56.9458 113.245 57.517 111.095C57.5352 111.026 57.4324 111.002 57.4101 111.069C56.1358 114.806 54.7447 118.501 53.4598 122.233C52.1773 125.96 47.2338 139.719 47.2719 139.708C47.3159 139.744 73.7219 130.343 74.2317 130.129C74.4315 130.044 74.3511 129.742 74.1331 129.8Z" fill="#141414"/>
<path d="M75.7533 160.712C73.282 155.423 70.8521 150.112 68.1843 144.914C66.6689 141.961 65.1692 138.998 63.6255 136.06C63.5675 135.948 63.3702 136.033 63.4191 136.151C65.6898 141.558 67.9804 146.975 70.4973 152.278C73.0018 157.553 75.4623 162.85 78.0356 168.094C79.4988 171.075 81.0457 174.001 82.688 176.891C82.7204 176.949 82.8207 176.906 82.7966 176.844C80.705 171.355 78.2412 166.037 75.7533 160.712Z" fill="#141414"/>
<path d="M97.9504 178.068C97.0708 176.609 95.9608 174.506 95.0215 173.085C94.7736 172.71 94.4851 172.789 94.6841 173.182C95.3531 174.506 95.9077 175.996 96.5693 177.355C95.3365 177.601 94.0988 177.82 92.8677 178.079C91.4442 178.379 90.0216 178.685 88.5974 178.979C85.8077 179.556 83.0131 180.105 80.2118 180.624C74.5397 181.675 68.846 182.606 63.1348 183.416C51.6869 185.039 40.1502 186.246 28.5928 186.67C25.3605 186.789 22.1223 186.844 18.8883 186.799C15.6029 186.754 12.053 186.685 9.33632 186.339C9.25011 186.329 9.23187 186.476 9.31892 186.494C12.1368 187.076 14.759 187.434 17.6274 187.575C20.5546 187.72 23.4885 187.783 26.42 187.75C32.2571 187.684 38.0893 187.305 43.9015 186.769C55.4258 185.707 66.9102 184.142 78.3059 182.123C81.4993 181.557 84.6861 180.953 87.8654 180.313C89.4695 179.989 91.0745 179.665 92.672 179.311C94.2696 178.958 98.1005 178.316 97.9504 178.068Z" fill="#141414"/>
<path d="M84.2054 90.3092C78.3973 91.9164 68.0105 83.3051 63.7709 76.1711C63.4832 75.6803 64.0528 70.3914 64.4407 63.9312C64.6613 60.0099 64.8146 55.6385 64.6679 51.6398C64.6339 50.8188 89.8884 56.8081 89.8884 56.8081C89.8884 56.8081 87.7395 65.2822 88.038 72.2523C88.0695 72.8345 88.1466 73.3744 88.2701 73.8868C88.2817 73.9617 88.3066 74.0524 88.3166 74.1572C88.9375 77.2558 89.8179 88.7528 84.2054 90.3092Z" fill="#AD6359"/>
<path d="M66.2083 51.6875C67.6159 58.4055 72.4077 74.585 85.7574 74.3945C86.6867 74.3829 87.5373 74.3047 88.31 74.1608C88.3124 74.0485 88.2818 73.967 88.2677 73.8871C88.1508 73.3697 88.0662 72.8381 88.0306 72.2583C87.7338 65.275 89.8884 56.8026 89.8884 56.8026C89.8884 56.8026 71.6698 52.4811 66.2083 51.6875Z" fill="#141414"/>
<path d="M92.8991 39.6255C92.6223 45.7654 96.7491 50.9403 102.118 51.184C107.486 51.4278 112.063 46.648 112.34 40.5089C112.617 34.369 108.49 29.1941 103.121 28.9503C97.7522 28.7066 93.176 33.4864 92.8991 39.6255Z" fill="#212121"/>
<path d="M89.7317 39.8706C89.4233 46.701 94.0153 52.4582 99.9875 52.7294C105.96 53.0006 111.051 47.6834 111.359 40.853C111.668 34.0227 107.076 28.2655 101.104 27.9943C95.1311 27.7231 90.0401 33.0403 89.7317 39.8706Z" fill="#C7C7C7"/>
<path d="M67.9557 19.7729C63.6125 27.9933 63.3389 54.1267 68.4457 60.9579C75.8497 70.861 90.3982 74.497 99.3964 65.0106C108.118 55.8153 107.874 21.7511 101.943 15.2926C93.2086 5.77954 74.3724 7.62874 67.9557 19.7729Z" fill="#AD6359"/>
<path d="M89.6068 39.9773C89.5911 39.9108 89.4717 40.0638 89.475 40.1362C89.5695 41.8947 89.383 43.9253 87.8095 44.545C87.7614 44.5641 87.768 44.6523 87.8269 44.6432C89.7577 44.3262 89.9782 41.6285 89.6068 39.9773Z" fill="#141414"/>
<path d="M87.9998 38.1748C85.1745 38.0235 85.08 43.705 87.698 43.8456C90.2746 43.9836 90.3683 38.3021 87.9998 38.1748Z" fill="#141414"/>
<path d="M99.4247 40.1945C99.4397 40.1271 99.5607 40.2802 99.5574 40.3517C99.4728 42.1111 99.671 44.1399 101.248 44.7505C101.297 44.7697 101.29 44.8578 101.232 44.8487C99.2996 44.5426 99.0641 41.8465 99.4247 40.1945Z" fill="#141414"/>
<path d="M101.021 38.3825C103.846 38.2153 103.973 43.896 101.356 44.0516C98.7803 44.2046 98.6542 38.5231 101.021 38.3825Z" fill="#141414"/>
<path d="M85.4641 33.6379C86.2583 33.5954 86.9837 33.4232 87.7655 33.3001C88.6467 33.1604 89.363 33.1412 90.047 32.5065C90.4134 32.1663 90.4324 31.4301 90.1365 31.0416C89.4476 30.1374 88.3259 30.0384 87.2573 30.1624C86.0983 30.2971 85.2403 30.6989 84.4278 31.5366C83.6403 32.3485 84.4171 33.6936 85.4641 33.6379Z" fill="#141414"/>
<path d="M103.689 34.2785C102.906 34.1371 102.207 33.8758 101.448 33.6554C100.59 33.4067 99.8828 33.2977 99.2835 32.5823C98.9618 32.1988 99.0348 31.4668 99.3771 31.1174C100.173 30.3064 101.298 30.3496 102.343 30.6067C103.476 30.8854 104.277 31.3911 104.979 32.3245C105.659 33.2278 104.721 34.4648 103.689 34.2785Z" fill="#141414"/>
<path d="M86.4084 56.2838C86.8221 56.703 87.2316 57.277 87.8667 57.3419C88.476 57.4034 89.1964 57.1397 89.7602 56.9309C89.8157 56.9101 89.8704 56.97 89.8339 57.0224C89.3672 57.6904 88.4022 58.0972 87.5914 57.9408C86.7997 57.7886 86.4184 57.0931 86.2377 56.3611C86.2128 56.258 86.3471 56.223 86.4084 56.2838Z" fill="#141414"/>
<path d="M88.3389 51.0442C89.2956 52.5882 90.7248 53.4474 92.2809 53.7777C92.9756 53.9299 93.7084 53.9665 94.428 53.9125C94.569 53.9116 94.7107 53.8983 94.8392 53.8717C94.9677 53.8584 95.083 53.8451 95.2247 53.8185C95.4303 53.7918 95.5455 53.6246 95.5837 53.4308L95.5828 53.4183C95.5828 53.3543 95.5829 53.3019 95.5696 53.2378C95.5696 53.2378 95.5696 53.2378 95.5696 53.2245L95.5688 53.0698C95.6284 51.7155 95.5306 49.6517 95.5306 49.6517C96.0197 49.9079 98.5176 51.0858 98.4894 50.3763C98.2374 44.51 97.958 37.985 96.4724 32.2012C96.4334 32.0073 96.1383 32.0473 96.1516 32.2411C96.1715 37.8885 97.1804 43.4952 97.2906 49.1692C96.4923 48.8498 95.1924 48.2609 94.4861 48.2633C94.2937 48.3158 94.7439 52.2471 94.6693 52.8535C94.6693 52.8535 94.6693 52.8793 94.6568 52.9184C92.3828 53.1713 90.6842 52.4551 88.5063 50.8895C88.3762 50.7864 88.2352 50.9028 88.3389 51.0442Z" fill="#141414"/>
<path d="M93.6435 53.2127C93.6435 53.2127 92.419 54.814 90.7693 55.3722C90.1624 55.5802 89.51 55.655 88.831 55.4612C87.4366 55.0686 87.4225 53.7776 87.6986 52.6787C87.9224 51.7745 88.3543 51 88.3543 51C88.3543 51 90.3672 52.9549 93.6435 53.2127Z" fill="#141414"/>
<path d="M90.7693 55.3713C90.1624 55.5792 89.51 55.6541 88.831 55.4603C87.4366 55.0676 87.4225 53.7766 87.6986 52.6777C89.1966 52.8566 90.6665 53.9047 90.7693 55.3713Z" fill="#FF98B9"/>
<path opacity="0.2" d="M64.6956 38.2313C66.4091 37.9568 70.4937 32.1571 72.2305 29.8512C74.0569 27.4613 74.968 15.1932 75.1271 12.3965C72.146 14.1326 69.6241 16.5923 67.9511 19.77C66.0046 23.4485 64.8904 30.7047 64.6956 38.2313Z" fill="#141414"/>
<path d="M96.3115 22.5851C94.248 24.8278 91.1748 25.9142 88.1688 25.3269C85.2407 24.7546 82.3839 22.62 81.4181 19.7244C81.3891 19.6378 81.2556 19.6828 81.2846 19.7693C82.3176 22.8663 84.7101 25.4666 88.0237 26.0314C91.1334 26.5613 94.5357 25.2262 96.4748 22.7323C96.5593 22.6217 96.4085 22.4803 96.3115 22.5851Z" fill="#141414"/>
<path d="M87.8816 0.469457C82.7715 0.418714 77.9938 3.10558 76.0166 6.53697C74.8153 8.62159 74.5774 10.7694 74.8502 12.9705C74.8618 13.0595 75.0442 13.047 75.0392 12.9572C74.856 9.47839 76.6889 5.58117 80.4693 3.27778C84.102 1.06506 88.8482 0.494406 92.8897 2.18057C94.9995 3.05983 96.6866 4.47564 97.5214 6.16014C97.6151 6.34897 98.0014 6.24 97.9251 6.04784C96.6418 2.80529 92.5067 0.515209 87.8816 0.469457Z" fill="#141414"/>
<path d="M117.189 12.5211C116.463 9.97234 114.775 7.75296 112.583 6.29306C109.511 4.24754 105.959 4.4214 102.434 4.66763C102.338 4.67428 102.348 4.82319 102.443 4.81653C105.445 4.61689 108.501 4.59027 111.209 6.09092C113.416 7.31375 115.233 9.29521 116.158 11.6593C118.078 16.5673 115.93 22.5092 111.263 24.9631C108.621 26.3531 105.398 26.5802 102.591 25.5712C102.481 25.5313 102.394 25.6935 102.506 25.7376C107.631 27.7348 113.807 25.5587 116.322 20.5859C117.563 18.132 117.947 15.1814 117.189 12.5211Z" fill="#141414"/>
<path d="M66.1035 24.8063C66.1035 24.8063 61.5845 15.468 65.8283 10.3097C68.2333 7.38653 75.8396 8.05866 75.8396 8.05866C75.8396 8.05866 78.4543 3.75134 84.8195 2.53184C91.2519 1.29987 98.6998 5.31355 98.6998 5.31355C98.6998 5.31355 104.883 2.0552 110.44 5.5157C118.187 10.3413 116.759 22.3973 108.655 25.9942C102.963 28.5197 95.5512 23.2765 95.5512 23.2765C94.8175 23.3489 87.1764 27.5988 81.7679 20.6986C81.7679 20.6986 77.0251 24.6275 73.0051 21.6054C73.0051 21.6054 70.7659 25.6856 66.1035 24.8063Z" fill="#141414"/>
<path d="M69.362 41.387C69.362 41.387 65.0644 32.2042 61.008 33.6042C56.9507 35.0042 59.1974 47.6242 63.267 50.0033C67.3359 52.3824 69.6049 48.6458 69.6049 48.6458L69.362 41.387Z" fill="#AD6359"/>
<path d="M61.7416 37.2054C61.6728 37.1871 61.6421 37.2828 61.6985 37.3186C64.5346 39.0871 65.6513 42.2032 66.2681 45.3401C65.5559 44.0507 64.4285 43.2156 62.7298 44.0366C62.6411 44.0798 62.6958 44.2179 62.7845 44.2146C64.0803 44.163 64.9433 44.5365 65.6148 45.687C66.0898 46.5014 66.3435 47.4713 66.6295 48.3656C66.7257 48.6642 67.243 48.6034 67.1933 48.2699C67.1891 48.2457 67.1841 48.2191 67.18 48.195C67.9303 44.3061 65.8486 38.3226 61.7416 37.2054Z" fill="#141414"/>
<path d="M78.7457 59.8139L70.5749 56.2802L64.009 48.0731L65.2708 47.0566L71.5855 54.9492L79.3857 58.3224L78.7457 59.8139Z" fill="#C7C7C7"/>
<path d="M77.8723 58.5057C78.6706 56.1208 85.3401 57.0001 84.1306 60.6153C82.9177 64.2388 77.0706 60.9006 77.8723 58.5057Z" fill="black"/>
<path d="M60.8874 33.3549C60.8874 33.3549 59.9953 19.9363 63.9133 12.5362C68.2748 4.29751 86.3458 -3.54518 98.6999 5.31486C98.6999 5.31486 78.5729 1.7038 69.2 13.1284C65.2513 17.9415 65.3517 33.7134 65.3517 33.7134L60.8874 33.3549Z" fill="#C7C7C7"/>
<path d="M62.7097 52.6377C68.6879 52.5783 73.4795 46.9873 73.4121 40.1497C73.3446 33.3122 68.4436 27.8175 62.4654 27.8768C56.4872 27.9362 51.6956 33.5273 51.763 40.3648C51.8305 47.2023 56.7315 52.6971 62.7097 52.6377Z" fill="#C7C7C7"/>
<path d="M70.2544 39.7816C70.315 45.9273 66.0082 50.9533 60.6345 51.0066C55.2608 51.0598 50.8553 46.1211 50.7948 39.9754C50.7343 33.8297 55.0402 28.8045 60.414 28.7504C65.7877 28.6972 70.1931 33.6359 70.2544 39.7816Z" fill="#212121"/>
<path d="M88.2199 73.7538L82.3695 88.5574L63.9876 69.9414L58.8286 75.964C58.8286 75.964 76.8598 105.59 76.9668 104.248L82.9805 91.4838L91.7814 100.306L90.9723 78.0619L88.2199 73.7538Z" fill="#EBEBEB"/>
<path d="M92.0002 89.2872C91.744 85.6187 91.5882 81.9178 91.1629 78.2651C91.1479 78.1354 90.9448 78.0788 90.9142 78.2319C90.1971 81.778 91.2516 95.8005 91.2507 99.1637C91.2383 99.1512 91.2234 99.1379 91.2126 99.1255C90.8453 98.7436 83.0575 91.3643 82.9813 91.4824C81.6739 93.5105 77.261 102.806 76.9601 103.651C74.1091 98.945 62.0112 80.3963 58.6412 75.9492C58.5442 75.822 58.3469 75.9285 58.4223 76.0774C60.945 81.0493 76.5762 105.527 76.7959 105.462C76.9468 105.577 82.4316 94.1285 83.0832 91.9674C84.403 93.577 92.2671 101.909 92.292 101.363C92.4553 97.6814 92.2564 92.9598 92.0002 89.2872Z" fill="#141414"/>
</svg>
