<svg width="216" height="107" viewBox="0 0 216 107" fill="none" xmlns="http://www.w3.org/2000/svg">
<path d="M67.8765 96.1406H62.1877V99.8673H67.8765V96.1406Z" fill="#212121"/>
<path d="M75.2544 95.8926H69.5657V99.6193H75.2544V95.8926Z" fill="#212121"/>
<path d="M82.6304 95.6465H76.9417V99.3732H82.6304V95.6465Z" fill="#212121"/>
<path d="M90.0083 95.4004H84.3196V99.1271H90.0083V95.4004Z" fill="#212121"/>
<path d="M97.3853 95.1543H91.6965V98.881H97.3853V95.1543Z" fill="#212121"/>
<path d="M104.762 94.9082H99.0735V98.6349H104.762V94.9082Z" fill="#212121"/>
<path d="M112.139 94.6621H106.45V98.3888H112.139V94.6621Z" fill="#212121"/>
<path d="M119.517 94.416H113.828V98.1427H119.517V94.416Z" fill="#212121"/>
<path d="M126.894 94.1699H121.205V97.8966H126.894V94.1699Z" fill="#212121"/>
<path d="M128.287 102.011H60.7949V97.4762L128.287 95.5879V102.011Z" fill="black"/>
<path d="M194.16 84.1281H82.7412L100.461 0.896484H211.88L194.16 84.1281Z" fill="#212121"/>
<path d="M198.282 84.1281H86.8623L104.582 0.896484H216.001L198.282 84.1281Z" fill="black"/>
<path d="M161.061 37.69C160.458 41.5074 156.886 44.6027 153.081 44.6027C149.276 44.6027 146.681 41.5082 147.283 37.69C147.886 33.8727 151.458 30.7773 155.263 30.7773C159.069 30.7773 161.663 33.8727 161.061 37.69Z" fill="#141414"/>
<path d="M166.77 105.866H111.971V101.596L166.77 99.8184V105.866Z" fill="#212121"/>
<path d="M181.669 105.859H152.247L134.528 59.2207H163.95L181.669 105.859Z" fill="#212121"/>
<path d="M186.512 105.859H157.09L139.37 59.2207H168.792L186.512 105.859Z" fill="#141414"/>
<path d="M58.7113 107.001C58.7113 107.001 7.03757 107.001 2.21432 107.001C-2.60892 107.001 4.36895 93.2252 21.9649 87.9396C39.5617 82.6548 64.2616 101.833 58.7113 107.001Z" fill="black"/>
<path d="M36.5408 107.001C36.5739 105.439 36.8566 103.881 37.3109 102.378C37.7611 100.871 38.4102 99.4208 39.2144 98.059C40.0144 96.694 41.0423 95.4611 42.2121 94.4039C43.3528 93.3025 44.7713 92.5463 46.1839 91.9258C45.5754 92.4241 44.8873 92.7726 44.3344 93.3175L43.4614 94.057L42.6606 94.8714C41.6276 95.9802 40.6784 97.1706 39.9223 98.4891C39.1373 99.7868 38.4807 101.166 37.9194 102.589C37.3764 104.018 36.8914 105.483 36.5408 107.001Z" fill="#141414"/>
<path d="M43.2351 93.8926C44.9155 94.41 46.5313 95.1112 48.1097 95.8899C49.689 96.6676 51.2103 97.571 52.6553 98.595C54.0886 99.6298 55.4615 100.786 56.5923 102.177C57.1502 102.876 57.6576 103.621 58.0505 104.427C58.4178 105.242 58.6955 106.114 58.7113 107C58.5082 106.142 58.1633 105.341 57.6932 104.622C57.2464 103.89 56.705 103.22 56.1139 102.6C54.9218 101.366 53.5863 100.268 52.1753 99.2721C50.7767 98.2556 49.2952 97.3506 47.808 96.4497C47.0627 96.0005 46.3041 95.5721 45.5381 95.1545C44.7821 94.7136 44.0069 94.3135 43.2351 93.8926Z" fill="#141414"/>
</svg>
