<svg width="24" height="25" viewBox="0 0 24 25" fill="none" xmlns="http://www.w3.org/2000/svg">
<path d="M19.875 23C20.1734 23 20.4595 22.8796 20.6705 22.6653C20.8815 22.4509 21 22.1602 21 21.8571V20.4331C21.0045 17.2263 16.5292 14.7143 12 14.7143C7.47075 14.7143 3 17.2263 3 20.4331V21.8571C3 22.1602 3.11853 22.4509 3.32951 22.6653C3.54048 22.8796 3.82663 23 4.125 23H19.875ZM16.0545 7.11886C16.0545 7.65975 15.9496 8.19535 15.7459 8.69508C15.5421 9.1948 15.2435 9.64886 14.867 10.0313C14.4905 10.4138 14.0435 10.7172 13.5516 10.9242C13.0597 11.1312 12.5324 11.2377 12 11.2377C11.4676 11.2377 10.9403 11.1312 10.4484 10.9242C9.95649 10.7172 9.50953 10.4138 9.13303 10.0313C8.75654 9.64886 8.45789 9.1948 8.25413 8.69508C8.05037 8.19535 7.9455 7.65975 7.9455 7.11886C7.9455 6.02647 8.37267 4.97882 9.13303 4.20639C9.8934 3.43395 10.9247 3 12 3C13.0753 3 14.1066 3.43395 14.867 4.20639C15.6273 4.97882 16.0545 6.02647 16.0545 7.11886Z" stroke="#151515" stroke-width="2" stroke-linecap="round" stroke-linejoin="round"/>
</svg>
