<svg width="21" height="24" viewBox="0 0 21 24" fill="none" xmlns="http://www.w3.org/2000/svg">
<g id="line-md:instagram">
<path id="Vector" d="M16 7C16.5523 7 17 6.55228 17 6C17 5.44772 16.5523 5 16 5C15.4477 5 15 5.44772 15 6C15 6.55228 15.4477 7 16 7Z" fill="black"/>
<g id="Group">
<path id="Vector_2" d="M14.7222 2C17.6356 2 20 4.36444 20 7.27778V15.7222C20 18.6356 17.6356 21 14.7222 21H6.27778C3.36444 21 1 18.6356 1 15.7222V7.27778C1 4.36444 3.36444 2 6.27778 2H10.5H14.7222Z" stroke="black" stroke-width="1.5" stroke-linecap="round" stroke-linejoin="round"/>
<path id="Vector_3" d="M10.4996 7.27734C12.8323 7.27734 14.7218 9.16679 14.7218 11.4996C14.7218 13.8323 12.8323 15.7218 10.4996 15.7218C8.16679 15.7218 6.27734 13.8323 6.27734 11.4996C6.27734 9.16679 8.16679 7.27734 10.4996 7.27734Z" stroke="black" stroke-width="1.5" stroke-linecap="round" stroke-linejoin="round"/>
</g>
</g>
</svg>
