<svg width="20" height="24" viewBox="0 0 20 24" fill="none" xmlns="http://www.w3.org/2000/svg">
<g id="streamline:linkedin">
<path id="Vector" d="M4.86955 3.94561C4.87361 4.4766 4.6737 4.98789 4.31304 5.36893C3.95239 5.74997 3.45997 5.97013 2.94226 5.98181C2.42564 5.96257 1.93598 5.74051 1.57449 5.36154C1.21301 4.98257 1.00734 4.47567 1 3.94561C1.02233 3.42904 1.23547 2.94053 1.59617 2.5792C1.95688 2.21787 2.43812 2.0108 2.94226 2C3.44491 2.01101 3.92445 2.2186 4.28274 2.58029C4.64102 2.94197 4.85094 3.4304 4.86955 3.94561ZM1.20815 8.62766C2.35865 8.60333 3.5109 8.60282 4.6614 8.62766L4.66122 21.2138H1.20798L1.20815 8.62766ZM7.6564 8.62766C8.75807 8.62766 9.85973 8.62766 10.9614 8.62766L10.9612 10.7138C11.3421 10.191 11.9998 9.58618 12.4998 9.21383C12.9998 8.84149 13.5626 8.62804 14.2812 8.62804C14.9998 8.62804 15.5274 8.6848 16.1115 8.90904C16.6957 9.13329 17.2273 9.48102 17.6719 9.92966C18.1165 10.3783 18.464 10.9178 18.692 11.5132C18.92 12.1085 19.0234 12.7464 18.9953 13.3853V21.1678H15.5556V15.0883C15.5817 14.7755 15.5418 14.4605 15.4387 14.1649C15.3356 13.8692 15.1716 13.5998 14.958 13.3749C14.7443 13.15 14.486 12.9748 14.2005 12.8614C13.915 12.7479 13.609 12.6988 13.3033 12.7173C12.9988 12.7091 12.6961 12.7674 12.4153 12.8882C12.1344 13.0091 11.8818 13.1897 11.6742 13.4183C11.4666 13.6469 11.3088 13.9181 11.2112 14.2139C11.1135 14.5098 11.0784 14.8235 11.108 15.1344V21.2138H7.65473V9.81353L7.6564 8.62766Z" stroke="black" stroke-width="1.5" stroke-linecap="round" stroke-linejoin="round"/>
</g>
</svg>
