<svg width="28" height="24" viewBox="0 0 28 24" fill="none" xmlns="http://www.w3.org/2000/svg">
<path d="M26.4564 5.96645C26.3087 5.39312 26.0188 4.86993 25.6155 4.44902C25.2122 4.02812 24.7096 3.7242 24.1577 3.56755C22.1309 3 14 3 14 3C14 3 5.86909 3 3.84227 3.56755C3.29043 3.7242 2.78781 4.02812 2.3845 4.44902C1.98118 4.86993 1.69127 5.39312 1.54364 5.96645C1 8.08465 1 12.5 1 12.5C1 12.5 1 16.9154 1.54364 19.0335C1.69108 19.6071 1.98092 20.1306 2.38425 20.5517C2.78757 20.9728 3.29029 21.2769 3.84227 21.4337C5.87027 22 14 22 14 22C14 22 22.1309 22 24.1577 21.4337C24.7097 21.2769 25.2124 20.9728 25.6158 20.5517C26.0191 20.1306 26.3089 19.6071 26.4564 19.0335C27 16.9178 27 12.5 27 12.5C27 12.5 27 8.08465 26.4564 5.96645ZM11.3409 16.5096V8.49161L18.1364 12.5012L11.3409 16.5096Z" stroke="#1A1A1A" stroke-miterlimit="10" stroke-linejoin="round"/>
</svg>
