<svg width="14" height="14" viewBox="0 0 14 14" fill="none" xmlns="http://www.w3.org/2000/svg">
<path d="M6.5625 0.4375C8.30298 0.4375 9.97218 1.1289 11.2029 2.35961C12.4336 3.59032 13.125 5.25952 13.125 7C13.125 8.74048 12.4336 10.4097 11.2029 11.6404C9.97218 12.8711 8.30298 13.5625 6.5625 13.5625C4.82202 13.5625 3.15282 12.8711 1.92211 11.6404C0.691404 10.4097 0 8.74048 0 7C0 5.25952 0.691404 3.59032 1.92211 2.35961C3.15282 1.1289 4.82202 0.4375 6.5625 0.4375ZM5.745 8.29469L4.28719 6.83594C4.23493 6.78368 4.17288 6.74222 4.1046 6.71393C4.03631 6.68565 3.96313 6.67109 3.88922 6.67109C3.81531 6.67109 3.74212 6.68565 3.67384 6.71393C3.60556 6.74222 3.54351 6.78368 3.49125 6.83594C3.3857 6.94149 3.32641 7.08464 3.32641 7.23391C3.32641 7.38317 3.3857 7.52633 3.49125 7.63188L5.3475 9.48812C5.39961 9.54065 5.46161 9.58234 5.52991 9.61079C5.59822 9.63925 5.67148 9.65389 5.74547 9.65389C5.81946 9.65389 5.89272 9.63925 5.96103 9.61079C6.02933 9.58234 6.09132 9.54065 6.14344 9.48812L9.98719 5.64344C10.0401 5.59139 10.0823 5.52938 10.1112 5.46097C10.14 5.39256 10.1551 5.31911 10.1554 5.24486C10.1558 5.1706 10.1414 5.09702 10.1132 5.02834C10.0849 4.95967 10.0434 4.89726 9.9909 4.84473C9.93843 4.79219 9.87607 4.75056 9.80743 4.72225C9.73879 4.69393 9.66522 4.67949 9.59097 4.67974C9.51671 4.68 9.44325 4.69496 9.3748 4.72375C9.30636 4.75254 9.2443 4.7946 9.19219 4.8475L5.745 8.29469Z" fill="#09A523"/>
</svg>
