<svg width="13" height="12" viewBox="0 0 13 12" fill="none" xmlns="http://www.w3.org/2000/svg">
<path d="M8.32002 1.07525L12.6757 8.51597C13.3016 9.58465 12.9942 10.9907 11.9886 11.656C11.6513 11.8806 11.2578 12.0001 10.8557 12H2.14371C0.960053 12 0 10.98 0 9.72065C0 9.29464 0.11245 8.87797 0.323701 8.51597L4.68001 1.07525C5.30532 0.0065723 6.62742 -0.320764 7.63297 0.344575C7.91117 0.528576 8.14647 0.778578 8.32002 1.07525ZM6.50002 9.33331C6.67241 9.33331 6.83774 9.26307 6.95964 9.13805C7.08154 9.01302 7.15002 8.84345 7.15002 8.66664C7.15002 8.48983 7.08154 8.32026 6.95964 8.19523C6.83774 8.07021 6.67241 7.99997 6.50002 7.99997C6.32763 7.99997 6.1623 8.07021 6.0404 8.19523C5.9185 8.32026 5.85002 8.48983 5.85002 8.66664C5.85002 8.84345 5.9185 9.01302 6.0404 9.13805C6.1623 9.26307 6.32763 9.33331 6.50002 9.33331ZM6.50002 3.33326C6.32763 3.33326 6.1623 3.4035 6.0404 3.52853C5.9185 3.65355 5.85002 3.82312 5.85002 3.99994V6.66662C5.85002 6.84344 5.9185 7.01301 6.0404 7.13803C6.1623 7.26306 6.32763 7.3333 6.50002 7.3333C6.67241 7.3333 6.83774 7.26306 6.95964 7.13803C7.08154 7.01301 7.15002 6.84344 7.15002 6.66662V3.99994C7.15002 3.82312 7.08154 3.65355 6.95964 3.52853C6.83774 3.4035 6.67241 3.33326 6.50002 3.33326Z" fill="#C91C1C"/>
</svg>
