<svg width="14" height="15" viewBox="0 0 14 15" fill="none" xmlns="http://www.w3.org/2000/svg">
<g id="briefcase">
<path id="Icon" d="M4.5 4.33333V3.16667C4.5 2.85725 4.62292 2.5605 4.84171 2.34171C5.0605 2.12292 5.35725 2 5.66667 2H8C8.30942 2 8.60617 2.12292 8.82496 2.34171C9.04375 2.5605 9.16667 2.85725 9.16667 3.16667V4.33333M4.5 4.33333H2.16667C1.52233 4.33333 1 4.85567 1 5.5V12.3333C1 12.9777 1.52233 13.5 2.16667 13.5H11.5C12.1443 13.5 12.6667 12.9777 12.6667 12.3333V5.5C12.6667 4.85567 12.1443 4.33333 11.5 4.33333H9.16667M4.5 4.33333H9.16667" stroke="#181D27" stroke-linecap="round" stroke-linejoin="round"/>
</g>
</svg>
