<svg width="16" height="15" viewBox="0 0 16 15" fill="none" xmlns="http://www.w3.org/2000/svg">
<g id="solar:calendar-linear" clip-path="url(#clip0_9685_44)">
<g id="Group">
<path id="Vector" d="M1.33331 7.49935C1.33331 4.98535 1.33331 3.72802 2.11465 2.94735C2.89598 2.16668 4.15265 2.16602 6.66665 2.16602H9.33331C11.8473 2.16602 13.1046 2.16602 13.8853 2.94735C14.666 3.72868 14.6666 4.98535 14.6666 7.49935V8.83268C14.6666 11.3467 14.6666 12.604 13.8853 13.3847C13.104 14.1653 11.8473 14.166 9.33331 14.166H6.66665C4.15265 14.166 2.89531 14.166 2.11465 13.3847C1.33398 12.6033 1.33331 11.3467 1.33331 8.83268V7.49935Z" stroke="#333333"/>
<path id="Vector_2" d="M4.66663 2.16602V1.16602M11.3333 2.16602V1.16602M1.66663 5.49935H14.3333" stroke="#333333" stroke-linecap="round"/>
<path id="Vector_3" d="M12 10.8333C12 11.0101 11.9298 11.1797 11.8047 11.3047C11.6797 11.4298 11.5101 11.5 11.3333 11.5C11.1565 11.5 10.987 11.4298 10.8619 11.3047C10.7369 11.1797 10.6667 11.0101 10.6667 10.8333C10.6667 10.6565 10.7369 10.487 10.8619 10.3619C10.987 10.2369 11.1565 10.1667 11.3333 10.1667C11.5101 10.1667 11.6797 10.2369 11.8047 10.3619C11.9298 10.487 12 10.6565 12 10.8333ZM12 8.16667C12 8.34348 11.9298 8.51305 11.8047 8.63807C11.6797 8.7631 11.5101 8.83333 11.3333 8.83333C11.1565 8.83333 10.987 8.7631 10.8619 8.63807C10.7369 8.51305 10.6667 8.34348 10.6667 8.16667C10.6667 7.98986 10.7369 7.82029 10.8619 7.69526C10.987 7.57024 11.1565 7.5 11.3333 7.5C11.5101 7.5 11.6797 7.57024 11.8047 7.69526C11.9298 7.82029 12 7.98986 12 8.16667ZM8.66667 10.8333C8.66667 11.0101 8.59643 11.1797 8.4714 11.3047C8.34638 11.4298 8.17681 11.5 8 11.5C7.82319 11.5 7.65362 11.4298 7.5286 11.3047C7.40357 11.1797 7.33333 11.0101 7.33333 10.8333C7.33333 10.6565 7.40357 10.487 7.5286 10.3619C7.65362 10.2369 7.82319 10.1667 8 10.1667C8.17681 10.1667 8.34638 10.2369 8.4714 10.3619C8.59643 10.487 8.66667 10.6565 8.66667 10.8333ZM8.66667 8.16667C8.66667 8.34348 8.59643 8.51305 8.4714 8.63807C8.34638 8.7631 8.17681 8.83333 8 8.83333C7.82319 8.83333 7.65362 8.7631 7.5286 8.63807C7.40357 8.51305 7.33333 8.34348 7.33333 8.16667C7.33333 7.98986 7.40357 7.82029 7.5286 7.69526C7.65362 7.57024 7.82319 7.5 8 7.5C8.17681 7.5 8.34638 7.57024 8.4714 7.69526C8.59643 7.82029 8.66667 7.98986 8.66667 8.16667ZM5.33333 10.8333C5.33333 11.0101 5.2631 11.1797 5.13807 11.3047C5.01305 11.4298 4.84348 11.5 4.66667 11.5C4.48986 11.5 4.32029 11.4298 4.19526 11.3047C4.07024 11.1797 4 11.0101 4 10.8333C4 10.6565 4.07024 10.487 4.19526 10.3619C4.32029 10.2369 4.48986 10.1667 4.66667 10.1667C4.84348 10.1667 5.01305 10.2369 5.13807 10.3619C5.2631 10.487 5.33333 10.6565 5.33333 10.8333ZM5.33333 8.16667C5.33333 8.34348 5.2631 8.51305 5.13807 8.63807C5.01305 8.7631 4.84348 8.83333 4.66667 8.83333C4.48986 8.83333 4.32029 8.7631 4.19526 8.63807C4.07024 8.51305 4 8.34348 4 8.16667C4 7.98986 4.07024 7.82029 4.19526 7.69526C4.32029 7.57024 4.48986 7.5 4.66667 7.5C4.84348 7.5 5.01305 7.57024 5.13807 7.69526C5.2631 7.82029 5.33333 7.98986 5.33333 8.16667Z" fill="#333333"/>
</g>
</g>
<defs>
<clipPath id="clip0_9685_44">
<rect width="16" height="15" fill="white"/>
</clipPath>
</defs>
</svg>
