<svg width="16" height="16" viewBox="0 0 16 16" fill="none" xmlns="http://www.w3.org/2000/svg">
<g id="circum:medical-case">
<path id="Vector" d="M2 7H2.66667M8 1V1.66667M13.3333 7H14M3.73333 2.73333L4.2 3.2M12.2667 2.73333L11.8 3.2M6.46667 10.3333H9.53333M6 9.66667C5.44031 9.2469 5.02689 8.66168 4.81829 7.99389C4.60969 7.32611 4.61649 6.60961 4.83772 5.94591C5.05896 5.2822 5.48341 4.70493 6.05097 4.29586C6.61852 3.88679 7.30039 3.66667 8 3.66667C8.69961 3.66667 9.38148 3.88679 9.94903 4.29586C10.5166 4.70493 10.941 5.2822 11.1623 5.94591C11.3835 6.60961 11.3903 7.32611 11.1817 7.99389C10.9731 8.66168 10.5597 9.2469 10 9.66667C9.73971 9.92432 9.54373 10.2396 9.42791 10.5871C9.3121 10.9345 9.2797 11.3044 9.33333 11.6667C9.33333 12.0203 9.19286 12.3594 8.94281 12.6095C8.69276 12.8595 8.35362 13 8 13C7.64638 13 7.30724 12.8595 7.05719 12.6095C6.80714 12.3594 6.66667 12.0203 6.66667 11.6667C6.7203 11.3044 6.6879 10.9345 6.57209 10.5871C6.45627 10.2396 6.26029 9.92432 6 9.66667Z" stroke="black" stroke-linecap="round" stroke-linejoin="round"/>
</g>
</svg>
