<svg width="8" height="12" viewBox="0 0 8 12" fill="none" xmlns="http://www.w3.org/2000/svg">
<g id="Group 1171275391">
<path id="Ellipse 11" d="M3.85742 1.09961C4.80535 1.09968 5.6376 1.42777 6.23145 2.01953C6.8231 2.6092 7.21387 3.49722 7.21387 4.68359C7.21377 5.22347 7.01001 5.88805 6.66113 6.61328C6.31629 7.33005 5.85078 8.06269 5.37793 8.72656C4.9062 9.38886 4.4335 9.97356 4.07812 10.3926C3.99841 10.4866 3.92275 10.5704 3.85645 10.6465C3.79025 10.5705 3.71528 10.4864 3.63574 10.3926C3.28037 9.97356 2.80766 9.38886 2.33594 8.72656C1.86313 8.06274 1.39852 7.32999 1.05371 6.61328C0.704766 5.88797 0.500115 5.22353 0.5 4.68359L0.504883 4.46387C0.55006 3.38688 0.927809 2.57228 1.48242 2.01953C2.07635 1.4276 2.90928 1.09961 3.85742 1.09961Z" stroke="black"/>
<circle id="Ellipse 12" cx="3.78017" cy="4.3788" r="1.07998" fill="black"/>
</g>
</svg>
