<svg width="16" height="16" viewBox="0 0 16 16" fill="none" xmlns="http://www.w3.org/2000/svg">
<path id="Vector" d="M12.3698 3.61745H13.5019C13.7618 3.61745 14.0192 3.66864 14.2593 3.7681C14.4994 3.86757 14.7176 4.01335 14.9014 4.19713C15.0852 4.38092 15.231 4.5991 15.3304 4.83922C15.4299 5.07934 15.4811 5.33671 15.4811 5.59661V13.0937C15.4811 13.3536 15.4299 13.611 15.3304 13.8511C15.231 14.0912 15.0852 14.3094 14.9014 14.4932C14.7176 14.677 14.4994 14.8227 14.2593 14.9222C14.0192 15.0217 13.7618 15.0729 13.5019 15.0729H3.31315C2.78824 15.0729 2.28483 14.8643 1.91367 14.4932C1.5425 14.122 1.33398 13.6186 1.33398 13.0937V5.59661C1.33398 5.07171 1.5425 4.5683 1.91367 4.19713C2.28483 3.82597 2.78824 3.61745 3.31315 3.61745H4.45315M12.3698 3.61745V2.90495C12.3698 2.38004 12.1613 1.87663 11.7901 1.50547C11.419 1.1343 10.9156 0.925781 10.3907 0.925781H6.43232C5.90741 0.925781 5.404 1.1343 5.03284 1.50547C4.66167 1.87663 4.45315 2.38004 4.45315 2.90495V3.61745M12.3698 3.61745H4.45315" stroke="black"/>
</svg>
